<?xml version="1.0" standalone="no"?>
<!DOCTYPE svg PUBLIC "-//W3C//DTD SVG 1.1//EN" "http://www.w3.org/Graphics/SVG/1.1/DTD/svg11.dtd" >
<svg xmlns="http://www.w3.org/2000/svg" xmlns:xlink="http://www.w3.org/1999/xlink" version="1.1">
<metadata>
Created by FontForge 20170812 at Tue Oct  9 20:48:52 2001
 By www-data
Copyright 2000, 2001 Adobe Systems Incorporated. All Rights Reserved.Adobe Caslon is either a registered trademark or a trademark of Adobe Systems Incorporated in the United States and/or other countries.
</metadata>
<defs>
<font id="ACaslonPro-SemiboldItalic" horiz-adv-x="500" >
  <font-face 
    font-family="Adobe Caslon Pro"
    font-weight="600"
    font-style="italic"
    font-stretch="normal"
    units-per-em="1000"
    panose-1="2 5 6 2 5 5 11 9 10 3"
    ascent="735"
    descent="-265"
    x-height="416"
    cap-height="673"
    bbox="-232 -700 1523.19 1002"
    underline-thickness="50"
    underline-position="-100"
    slope="-22"
    stemh="36"
    stemv="105"
    unicode-range="U+0020-FB06"
  />
<missing-glyph 
d="M0 0v700h500v-700h-500zM250 395l170 255h-340zM280 350l170 -255v510zM80 50h340l-170 255zM50 605v-510l170 255z" />
    <glyph glyph-name="fi" unicode="fi" horiz-adv-x="524" 
d="M469 290l-58 -158c-6 -20 -16 -46 -16 -50c-6 -22 -2 -28 8 -28c18 0 74 60 82 72c2 4 6 4 10 1l14 -11c2 -4 4 -6 0 -8c-6 -12 -88 -118 -190 -118c-24 0 -34 12 -34 26c0 16 20 66 48 146l40 106c6 16 18 50 18 56c4 20 -12 26 -32 26h-114c-24 -71 -58 -205 -100 -323
c-46 -130 -128 -324 -268 -324c-56 0 -86 28 -86 62c0 28 16 48 44 48s44 -24 46 -46c0 -12 10 -24 30 -24c60 0 100 128 148 296c20 60 78 286 88 311h-86c-4 0 -8 3 -6 10l7 27c1 5 3 7 9 7h86c30 81 50 153 128 229c30 30 88 62 154 62c88 0 114 -44 114 -70
c-2 -32 -18 -54 -48 -54c-28 0 -42 18 -48 32c-4 8 -6 16 -10 24c-4 20 -12 32 -30 32c-26 0 -48 -10 -68 -32c-40 -46 -72 -144 -94 -223h116c34 0 58 4 74 8c18 4 28 10 42 10c12 0 16 -14 12 -32c0 -12 -20 -62 -30 -90z" />
    <glyph glyph-name="fl" unicode="fl" horiz-adv-x="533" 
d="M145 350h-86c-6 0 -8 2 -6 10l6 24c0 6 2 10 10 10h88c28 85 42 143 120 225c32 32 88 66 167 66c56 0 130 -12 154 -28c10 -6 14 -12 14 -17c0 -9 -8 -23 -14 -38l-193 -496c-5 -14 -7 -28 -5 -36c0 -4 4 -8 12 -8c20 0 70 50 78 60c2 4 6 4 10 0l12 -10
c2 -4 4 -6 0 -12s-102 -110 -190 -110c-18 0 -32 18 -32 30c0 14 12 54 24 86l94 244h-166c-11 -43 -67 -243 -93 -311c-30 -98 -82 -220 -160 -290c-36 -30 -72 -46 -112 -46c-56 0 -84 30 -84 58c0 30 18 52 42 52c30 0 44 -28 48 -46c4 -14 12 -22 24 -22
c16 0 34 10 46 22c46 54 84 178 116 298zM424 394l68 172c10 24 10 42 2 52c-12 14 -32 29 -75 29c-26 0 -48 -9 -70 -27c-40 -40 -62 -116 -98 -226h173z" />
    <glyph glyph-name="ff" unicode="ff" horiz-adv-x="550" 
d="M143 350h-85c-5 0 -8 3 -7 8l5 29c1 5 4 7 8 7h88c31 103 90 281 264 281c71 0 103 -31 108 -54h1c22 23 80 64 146 64c74 0 105 -37 105 -67c0 -28 -21 -48 -46 -48c-37 0 -50 19 -54 47c-2 10 -10 29 -36 29c-78 0 -112 -145 -139 -252h102c5 0 7 -3 6 -7l-7 -31
c-2 -5 -5 -6 -10 -6h-99c-22 -79 -65 -251 -107 -366c-55 -149 -138 -281 -259 -281c-71 0 -97 33 -103 62c0 1 -1 2 -2 2c-23 -30 -70 -64 -128 -64c-47 0 -79 29 -79 59c0 26 17 49 46 49c30 0 45 -26 49 -48c2 -10 9 -17 20 -17c41 0 89 85 132 265zM246 394h163
c30 95 48 135 75 176c-24 2 -39 11 -50 32c-11 20 -26 34 -49 34c-74 0 -109 -112 -139 -242zM398 350h-160c-32 -143 -74 -291 -113 -400c-23 -62 -49 -111 -69 -138h12c18 0 39 -20 47 -46c4 -15 13 -24 37 -24c77 0 124 138 168 300c11 41 66 265 78 308z" />
    <glyph glyph-name="ffi" unicode="ffi" horiz-adv-x="774" 
d="M144 350h-85c-5 0 -8 3 -7 10l4 27c1 5 4 7 8 7h89c31 103 89 281 268 281c66 0 98 -31 103 -54h1c22 23 80 64 146 64c74 0 105 -37 105 -67c0 -28 -21 -48 -46 -48c-37 0 -50 19 -54 47c-2 10 -10 29 -36 29c-78 0 -112 -145 -138 -252h119c34 0 58 4 74 8
c18 4 28 10 42 10c12 0 16 -14 12 -32c0 -12 -20 -62 -30 -90l-58 -158c-6 -20 -16 -46 -16 -50c-6 -22 -2 -28 8 -28c18 0 74 60 82 72c2 4 6 4 10 1l14 -11c2 -4 4 -6 0 -8c-6 -12 -88 -118 -189 -118c-22 0 -32 12 -32 26c0 16 18 67 47 146l39 107c12 31 20 49 20 62
s-13 19 -35 19h-116c-22 -79 -65 -251 -107 -366c-55 -149 -138 -281 -264 -281c-66 0 -92 33 -98 62c0 1 -1 2 -2 2c-23 -30 -70 -64 -128 -64c-47 0 -79 29 -79 59c0 26 17 49 46 49c30 0 45 -26 49 -48c2 -10 9 -17 20 -17c41 0 90 85 133 265zM246 394h162
c30 95 49 135 76 176c-19 0 -39 11 -50 32c-11 20 -26 34 -49 34c-74 0 -109 -112 -139 -242zM398 350h-161c-31 -143 -73 -291 -113 -400c-23 -62 -48 -111 -68 -138h12c20 0 39 -20 47 -46c4 -15 13 -24 37 -24c77 0 124 138 167 300c11 41 68 265 79 308z" />
    <glyph glyph-name="ffl" unicode="ffl" horiz-adv-x="780" 
d="M144 350h-87c-5 0 -8 3 -7 8l6 29c1 5 4 7 8 7h90c30 103 88 281 267 281c66 0 96 -31 103 -54h1c22 23 80 64 169 64c56 0 130 -12 154 -28c10 -6 14 -12 14 -17c0 -9 -9 -23 -15 -38l-192 -496c-5 -14 -7 -28 -5 -36c0 -4 4 -8 12 -8c20 0 70 50 77 60c3 4 7 4 11 0
l12 -10c2 -4 4 -6 0 -12s-102 -110 -187 -110c-18 0 -32 18 -32 30c0 14 12 54 24 86l95 244h-169c-22 -79 -65 -251 -107 -366c-55 -149 -136 -281 -264 -281c-65 0 -91 33 -98 62c0 1 -1 2 -2 2c-23 -30 -70 -64 -128 -64c-47 0 -79 29 -79 59c0 26 17 49 46 49
c30 0 45 -26 49 -48c2 -10 9 -17 20 -17c41 0 90 85 133 265zM246 394h163c30 95 48 135 75 176c-19 0 -35 11 -49 33c-12 19 -27 33 -50 33c-74 0 -109 -112 -139 -242zM399 350h-161c-31 -143 -74 -291 -113 -400c-23 -62 -49 -111 -69 -138h12c18 0 38 -20 46 -46
c5 -15 14 -24 38 -24c77 0 124 138 167 300c11 41 68 265 80 308zM501 394h177l67 172c9 24 9 42 1 52c-12 16 -30 31 -72 31c-31 0 -53 -10 -74 -30c-41 -39 -63 -115 -99 -225z" />
    <glyph glyph-name="f_j" unicode="fj" horiz-adv-x="524" 
d="M50 -179c-44 -67 -101 -118 -173 -118c-56 0 -86 28 -86 62c0 28 16 48 44 48s44 -24 46 -46c0 -12 10 -24 30 -24c60 0 98 129 148 296c18 61 78 286 88 311h-85c-4 0 -8 3 -6 10l6 27c1 5 3 7 9 7h86c30 81 50 153 128 229c30 30 88 62 154 62c88 0 115 -44 114 -70
c-1 -32 -18 -54 -48 -54c-28 0 -42 18 -48 32c-4 8 -6 16 -10 24c-4 20 -12 32 -30 32c-26 0 -48 -10 -68 -32c-40 -46 -72 -144 -94 -223h116c34 0 58 4 74 8c18 4 28 10 42 10s15 -10 15 -26c0 -20 -20 -94 -39 -148l-67 -186c-16 -44 -102 -282 -252 -282
c-59 0 -88 27 -94 51zM391 324c5 20 -12 26 -32 26h-114c-24 -71 -58 -205 -101 -324c-15 -43 -34 -93 -59 -140h9c34 0 50 -28 50 -48c2 -20 12 -31 22 -31c60 0 104 135 154 289c25 76 54 158 71 228z" />
    <glyph glyph-name="f_f_j" unicode="ffj" horiz-adv-x="774" 
d="M299 -188v-1c-47 -65 -105 -108 -177 -108c-66 0 -92 33 -98 62c0 1 -1 2 -2 2c-23 -30 -70 -64 -128 -64c-47 0 -79 29 -79 59c0 26 17 49 46 49c30 0 45 -26 49 -48c2 -10 9 -17 20 -17c41 0 90 85 133 265l81 339h-85c-5 0 -8 3 -7 10l4 27c1 5 4 7 8 7h89
c31 103 89 281 268 281c66 0 98 -31 103 -54h1c22 23 80 64 146 64c74 0 105 -37 105 -67c0 -28 -21 -48 -46 -48c-37 0 -50 19 -54 47c-2 10 -10 29 -36 29c-78 0 -112 -145 -138 -252h119c34 0 58 4 74 8c18 4 28 10 42 10s12 -10 12 -26c1 -20 -20 -94 -40 -148l-67 -186
c-16 -44 -102 -282 -252 -282c-51 0 -80 21 -91 42zM246 393h162c30 95 49 135 76 176c-19 0 -39 11 -50 32c-11 20 -26 34 -49 34c-74 0 -109 -112 -139 -242zM644 330c0 13 -13 19 -35 19h-116c-22 -79 -65 -251 -107 -366c-13 -34 -27 -67 -43 -98c32 -2 47 -29 47 -48
c2 -20 12 -31 22 -31c60 0 101 136 154 289l68 196c6 16 10 26 10 39zM398 349h-161c-31 -143 -73 -291 -113 -400c-23 -62 -48 -111 -68 -138h12c20 0 39 -20 47 -46c4 -15 13 -24 37 -24c77 0 124 138 167 300c11 41 68 265 79 308z" />
    <glyph glyph-name="T_h" unicode="Th" horiz-adv-x="981" 
d="M722 276l6 -6c48 72 114 146 190 146c62 0 80 -48 80 -93c0 -73 -30 -157 -66 -221c-44 -80 -100 -134 -166 -134c-32 0 -58 22 -58 54c0 24 16 50 42 50c24 0 34 -18 36 -34c2 -14 6 -27 20 -27c22 0 43 63 60 115c19 58 38 132 38 179c0 23 -6 47 -30 47
c-44 0 -118 -84 -146 -120c-24 -32 -42 -69 -56 -102l-52 -122c-2 -6 -5 -8 -12 -8h-64c-9 0 -11 6 -8 14l211 548c5 12 11 24 11 32c0 5 0 9 -3 12c-21 18 -159 26 -205 26h-20l-158 -510c-20 -63 -10 -85 42 -85h40c5 0 7 -4 6 -10l-4 -20c-1 -7 -5 -10 -12 -10
c-14 0 -54 3 -148 3c-98 0 -151 -3 -161 -3c-7 0 -10 4 -9 10l2 22c1 6 4 8 12 8h26c56 0 75 26 98 101l154 494h-26c-92 0 -136 -5 -159 -22c-35 -26 -87 -84 -111 -112c-4 -4 -8 -4 -12 -4l-16 10c-4 2 -4 6 -2 10c12 22 74 162 76 168s4 10 10 10c4 0 8 -2 16 -8
c20 -6 68 -14 172 -14h319c90 0 168 8 186 18c4 2 6 4 10 4s8 -2 8 -8c0 -18 -5 -31 -15 -50z" />
    <glyph glyph-name="T_h.swash" unicode="&#xe04f;h" horiz-adv-x="990" 
d="M702 276l6 -6c48 72 114 146 190 146c62 0 80 -48 80 -93c0 -73 -30 -157 -66 -221c-44 -80 -100 -134 -166 -134c-32 0 -58 22 -58 54c0 24 16 50 42 50c24 0 34 -18 36 -34c2 -14 6 -27 20 -27c22 0 43 63 60 115c19 58 38 132 38 179c0 23 -6 47 -30 47
c-44 0 -118 -84 -146 -120c-24 -32 -42 -69 -56 -102l-52 -122c-2 -6 -5 -8 -12 -8h-64c-9 0 -11 6 -8 14l214 555c2 5 4 12 6 16c-4 0 -26 -2 -30 -2c-33 0 -135 11 -179 16l-152 -479c-19 -61 -13 -83 37 -83h39c7 0 8 -5 7 -10l-4 -22c-1 -5 -3 -8 -13 -8
c-14 0 -54 3 -155 3c-83 0 -136 -3 -147 -3c-8 0 -9 3 -8 10l3 22c1 5 3 8 11 8h21c60 0 79 27 102 98l153 473c-47 8 -126 10 -160 10c-109 0 -169 -55 -169 -122c0 -14 1 -27 10 -41c5 -7 9 -7 15 -1c11 9 26 12 38 12c23 0 46 -19 46 -52c0 -22 -20 -50 -60 -50
c-32 0 -86 25 -86 121c0 39 18 108 89 154c45 29 111 46 207 46c76 0 150 -8 223 -17c65 -8 172 -17 197 -17c27 0 52 4 52 29c0 6 -3 16 -9 24c-5 6 -12 17 -12 29c0 13 9 34 38 34c33 0 42 -28 42 -56c0 -26 -16 -53 -26 -77z" />
    <glyph glyph-name="T_h.caron" unicode="&#x164;h" horiz-adv-x="981" 
d="M722 276l6 -6c48 72 114 146 190 146c62 0 80 -48 80 -93c0 -73 -30 -157 -66 -221c-44 -80 -100 -134 -166 -134c-32 0 -58 22 -58 54c0 24 16 50 42 50c24 0 34 -18 36 -34c2 -14 6 -27 20 -27c22 0 43 63 60 115c19 58 38 132 38 179c0 23 -6 47 -30 47
c-44 0 -118 -84 -146 -120c-24 -32 -42 -69 -56 -102l-52 -122c-2 -6 -5 -8 -12 -8h-64c-9 0 -11 6 -8 14l211 548c5 12 11 24 11 32c0 5 0 9 -3 12c-21 18 -159 26 -205 26h-20l-158 -510c-20 -63 -10 -85 42 -85h40c5 0 7 -4 6 -10l-4 -20c-1 -7 -5 -10 -12 -10
c-14 0 -54 3 -148 3c-98 0 -151 -3 -161 -3c-7 0 -10 4 -9 10l2 22c1 6 4 8 12 8h26c56 0 75 26 98 101l154 494h-26c-92 0 -136 -5 -159 -22c-35 -26 -87 -84 -111 -112c-4 -4 -8 -4 -12 -4l-16 10c-4 2 -4 6 -2 10c12 22 74 162 76 168s4 10 10 10c4 0 8 -2 16 -8
c20 -6 68 -14 172 -14h319c90 0 168 8 186 18c4 2 6 4 10 4s8 -2 8 -8c0 -18 -5 -31 -15 -50zM508 824l124 62c4 2 6 2 8 -2l7 -12c1 -2 -1 -4 -3 -6l-142 -136c-6 -4 -12 -4 -16 2l-76 136c-2 4 0 6 2 8l11 9c3 3 7 1 10 -2z" />
    <glyph glyph-name="T_h.caronswash" unicode="&#xe056;h" horiz-adv-x="990" 
d="M702 276l6 -6c48 72 114 146 190 146c62 0 80 -48 80 -93c0 -73 -30 -157 -66 -221c-44 -80 -100 -134 -166 -134c-32 0 -58 22 -58 54c0 24 16 50 42 50c24 0 34 -18 36 -34c2 -14 6 -27 20 -27c22 0 43 63 60 115c19 58 38 132 38 179c0 23 -6 47 -30 47
c-44 0 -118 -84 -146 -120c-24 -32 -42 -69 -56 -102l-52 -122c-2 -6 -5 -8 -12 -8h-64c-9 0 -11 6 -8 14l214 555c2 5 4 12 6 16c-4 0 -26 -2 -30 -2c-33 0 -135 11 -179 16l-152 -479c-19 -61 -13 -83 37 -83h39c7 0 8 -5 7 -10l-4 -22c-1 -5 -3 -8 -13 -8
c-14 0 -54 3 -155 3c-83 0 -136 -3 -147 -3c-8 0 -9 3 -8 10l3 22c1 5 3 8 11 8h21c60 0 79 27 102 98l153 473c-47 8 -126 10 -160 10c-109 0 -169 -55 -169 -122c0 -14 1 -27 10 -41c5 -7 9 -7 15 -1c11 9 26 12 38 12c23 0 46 -19 46 -52c0 -22 -20 -50 -60 -50
c-32 0 -86 25 -86 121c0 39 18 108 89 154c45 29 111 46 207 46c76 0 150 -8 223 -17c65 -8 172 -17 197 -17c27 0 52 4 52 29c0 6 -3 16 -9 24c-5 6 -12 17 -12 29c0 13 9 34 38 34c33 0 42 -28 42 -56c0 -26 -16 -53 -26 -77zM506 824l124 62c4 2 6 2 8 -2l7 -12
c1 -2 -1 -4 -3 -6l-142 -136c-6 -4 -12 -4 -16 2l-76 136c-2 4 0 6 2 8l11 9c3 3 7 1 10 -2z" />
    <glyph glyph-name="T_h.commaaccentswash" unicode="&#xe057;h" horiz-adv-x="990" 
d="M702 276l6 -6c48 72 114 146 190 146c62 0 80 -48 80 -93c0 -73 -30 -157 -66 -221c-44 -80 -100 -134 -166 -134c-32 0 -58 22 -58 54c0 24 16 50 42 50c24 0 34 -18 36 -34c2 -14 6 -27 20 -27c22 0 43 63 60 115c19 58 38 132 38 179c0 23 -6 47 -30 47
c-44 0 -118 -84 -146 -120c-24 -32 -42 -69 -56 -102l-52 -122c-2 -6 -5 -8 -12 -8h-64c-9 0 -11 6 -8 14l214 555c2 5 4 12 6 16c-4 0 -26 -2 -30 -2c-33 0 -135 11 -179 16l-152 -479c-19 -61 -13 -83 37 -83h39c7 0 8 -5 7 -10l-4 -22c-1 -5 -3 -8 -13 -8
c-14 0 -54 3 -155 3c-83 0 -136 -3 -147 -3c-8 0 -9 3 -8 10l3 22c1 5 3 8 11 8h21c60 0 79 27 102 98l153 473c-47 8 -126 10 -160 10c-109 0 -169 -55 -169 -122c0 -14 1 -27 10 -41c5 -7 9 -7 15 -1c11 9 26 12 38 12c23 0 46 -19 46 -52c0 -22 -20 -50 -60 -50
c-32 0 -86 25 -86 121c0 39 18 108 89 154c45 29 111 46 207 46c76 0 150 -8 223 -17c65 -8 172 -17 197 -17c27 0 52 4 52 29c0 6 -3 16 -9 24c-5 6 -12 17 -12 29c0 13 9 34 38 34c33 0 42 -28 42 -56c0 -26 -16 -53 -26 -77zM316 -142c0 -99 -101 -132 -124 -132
c-6 0 -8 3 -8 10c0 5 3 8 9 10c22 6 69 33 68 73c0 21 -7 29 -20 44c-4 4 -24 17 -24 37c0 21 14 40 37 40c40 0 62 -42 62 -82z" />
    <glyph glyph-name="T_h.commaaccent" unicode="&#x162;h" horiz-adv-x="981" 
d="M722 276l6 -6c48 72 114 146 190 146c62 0 80 -48 80 -93c0 -73 -30 -157 -66 -221c-44 -80 -100 -134 -166 -134c-32 0 -58 22 -58 54c0 24 16 50 42 50c24 0 34 -18 36 -34c2 -14 6 -27 20 -27c22 0 43 63 60 115c19 58 38 132 38 179c0 23 -6 47 -30 47
c-44 0 -118 -84 -146 -120c-24 -32 -42 -69 -56 -102l-52 -122c-2 -6 -5 -8 -12 -8h-64c-9 0 -11 6 -8 14l211 548c5 12 11 24 11 32c0 5 0 9 -3 12c-21 18 -159 26 -205 26h-20l-158 -510c-20 -63 -10 -85 42 -85h40c5 0 7 -4 6 -10l-4 -20c-1 -7 -5 -10 -12 -10
c-14 0 -54 3 -148 3c-98 0 -151 -3 -161 -3c-7 0 -10 4 -9 10l2 22c1 6 4 8 12 8h26c56 0 75 26 98 101l154 494h-26c-92 0 -136 -5 -159 -22c-35 -26 -87 -84 -111 -112c-4 -4 -8 -4 -12 -4l-16 10c-4 2 -4 6 -2 10c12 22 74 162 76 168s4 10 10 10c4 0 8 -2 16 -8
c20 -6 68 -14 172 -14h319c90 0 168 8 186 18c4 2 6 4 10 4s8 -2 8 -8c0 -18 -5 -31 -15 -50zM328 -142c0 -99 -101 -132 -124 -132c-6 0 -8 3 -8 10c0 5 3 8 9 10c22 6 69 33 68 73c0 21 -7 29 -20 44c-4 4 -24 17 -24 37c0 21 14 40 37 40c40 0 62 -42 62 -82z" />
    <glyph glyph-name=".notdef" 
d="M0 0v700h500v-700h-500zM250 395l170 255h-340zM280 350l170 -255v510zM80 50h340l-170 255zM50 605v-510l170 255z" />
    <glyph glyph-name="space" unicode=" " horiz-adv-x="200" 
 />
    <glyph glyph-name="exclam" unicode="!" horiz-adv-x="268" 
d="M82 -10c-16 0 -52 16 -52 60c0 34 24 62 58 62c36 0 56 -34 56 -58c0 -34 -24 -64 -62 -64zM326 642c0 -14 -6 -32 -16 -52c-4 -12 -162 -384 -168 -394c-2 -6 -6 -8 -16 -8c-8 0 -12 8 -8 22c12 44 82 408 86 422c8 36 30 53 66 53c38 0 56 -23 56 -43z" />
    <glyph glyph-name="quotedbl" unicode="&#x22;" horiz-adv-x="232" 
d="M138 449l-28 8c10 40 30 170 40 198c8 24 28 30 52 30c22 0 36 -12 36 -34c0 -16 -72 -140 -100 -202zM272 449l-28 8c10 40 30 170 40 198c8 24 28 30 52 30c22 0 36 -12 36 -34c0 -16 -74 -144 -100 -202z" />
    <glyph glyph-name="numbersign" unicode="#" 
d="M286 187h-86l-64 -188c-3 -10 -4 -14 -10 -14h-50c-4 0 -5 4 -2 12l64 190h-86c-8 0 -10 4 -8 10l14 46c4 13 8 12 14 12h86l42 130h-88c-10 0 -14 4 -12 10l14 48c2 6 6 10 14 10h90l60 182c2 6 6 10 12 10h46c6 0 6 -6 4 -12l-58 -180h86l58 178c3 8 6 14 12 14h46
c4 0 7 -6 4 -14l-58 -178h88c6 0 10 -4 8 -10l-16 -48c-3 -8 -6 -10 -16 -10h-82l-42 -130h94c8 0 13 -2 10 -12l-16 -48c-2 -6 -8 -8 -18 -8h-92l-64 -192c-2 -6 -4 -10 -8 -10h-52c-4 0 -4 4 -2 10zM262 385l-42 -130h88l42 130h-88z" />
    <glyph glyph-name="dollar" unicode="$" 
d="M400 544l-50 -208c40 -34 74 -76 74 -144c0 -96 -66 -152 -150 -162l-22 -96c-2 -10 -6 -12 -10 -10l-18 6c-4 0 -6 4 -4 14l22 82c-18 2 -32 4 -46 6l-26 -102c-2 -4 -4 -6 -8 -6l-20 6c-4 0 -4 4 -2 12l26 102c-24 10 -40 22 -52 34c-10 6 -16 12 -22 12
c-8 0 -14 -6 -28 -32c-4 -4 -6 -6 -10 -4l-8 4c-4 2 -4 4 -2 10l64 178c2 6 4 8 8 6l12 -4c4 -2 8 -4 6 -10c-18 -72 6 -120 42 -148l58 224c-46 42 -80 86 -80 152c0 54 48 134 152 142l20 80c0 4 2 8 8 6l20 -2c2 -2 4 -6 2 -12l-18 -70c16 -2 32 -4 44 -8l18 80
c2 4 4 8 10 6l16 -2c6 -2 6 -6 4 -12l-20 -84c20 -6 30 -18 40 -18c4 0 10 6 14 24c2 4 4 6 8 6l10 -2c4 0 4 -4 4 -8l-26 -156c0 -4 -2 -8 -6 -8l-14 2c-4 0 -6 2 -6 10c0 32 -8 76 -34 104zM322 358l52 206c-12 8 -26 12 -44 12l-46 -184c4 -4 34 -30 38 -34zM258 416
l40 158c-44 -10 -68 -48 -68 -84c0 -32 10 -54 28 -74zM324 226l-42 -160c40 10 72 42 72 88c0 32 -12 52 -30 72zM248 60l50 194c-4 4 -38 34 -38 36h-4l-52 -218c16 -8 34 -10 44 -12z" />
    <glyph glyph-name="percent" unicode="%" horiz-adv-x="738" 
d="M324 563c0 32 -14 48 -40 50c-70 0 -146 -202 -146 -276c0 -34 18 -56 38 -56c74 0 148 210 148 282zM388 539c0 -134 -84 -288 -208 -288c-76 0 -106 50 -106 116c0 118 82 278 212 278c72 0 102 -46 102 -106zM600 643l26 -16c2 -2 4 -4 4 -6s-2 -6 -4 -10l-406 -618
c-3 -5 -6 -8 -10 -8c-2 0 -4 1 -8 4l-22 16c-2 2 -4 4 -4 8c0 2 1 5 4 10l406 618c2 2 4 4 8 4c2 0 5 -1 6 -2zM730 279c0 -132 -84 -286 -208 -286c-76 0 -108 50 -108 118c0 118 84 276 212 276c74 0 104 -46 104 -108zM666 303c0 34 -14 50 -40 50
c-70 0 -146 -200 -146 -274c0 -34 18 -56 38 -56c74 0 148 210 148 280z" />
    <glyph glyph-name="ampersand" unicode="&#x26;" horiz-adv-x="844" 
d="M440 -22c-278 0 -348 156 -348 258c0 120 78 188 118 206c-26 34 -42 74 -42 118c0 74 60 144 158 144c60 0 106 -32 106 -94c0 -44 -36 -68 -52 -68c-4 0 -4 8 -2 18c6 38 -26 66 -64 66c-44 0 -90 -38 -90 -102c0 -22 8 -50 22 -72c10 4 26 12 50 12s52 -10 52 -34
c0 -28 -14 -48 -40 -48c-20 0 -52 14 -66 24c-6 10 -12 12 -24 4c-30 -22 -54 -74 -54 -130c0 -122 104 -206 286 -206s278 102 278 198c0 68 -52 138 -142 138c-84 0 -100 -66 -100 -90c0 -34 24 -60 32 -60c6 0 12 6 10 14c-2 16 12 48 42 48c38 0 56 -20 56 -50
c0 -26 -16 -58 -70 -58c-48 0 -112 40 -112 124c0 74 62 146 168 146c42 0 80 -8 124 -8c82 0 134 32 134 88c0 32 -30 66 -56 66c-14 0 -14 -12 -12 -22c6 -16 -8 -50 -44 -50c-32 0 -48 22 -48 44c0 40 40 64 78 64c80 0 124 -52 124 -106c0 -100 -62 -152 -156 -166
c-24 -2 -24 -12 -14 -24c12 -20 30 -58 30 -120c0 -170 -150 -272 -332 -272z" />
    <glyph glyph-name="quoteright" unicode="&#x2019;" horiz-adv-x="178" 
d="M256 589c0 -110 -124 -144 -146 -144c-6 0 -9 2 -11 11c-1 8 3 11 11 13c24 6 78 36 78 78c0 22 -8 30 -24 46c-4 6 -28 20 -28 42c0 28 18 50 44 50c52 0 76 -62 76 -96z" />
    <glyph glyph-name="parenleft" unicode="(" horiz-adv-x="320" 
d="M77 70c0 280 154 516 378 680c8 6 12 4 20 -8c6 -10 6 -14 -6 -24c-170 -146 -312 -400 -312 -682c0 -120 8 -172 16 -236c2 -8 -2 -10 -14 -14s-16 -2 -18 4c-30 54 -64 176 -64 280z" />
    <glyph glyph-name="parenright" unicode=")" horiz-adv-x="320" 
d="M294 466c0 -280 -154 -516 -378 -680c-8 -6 -12 -4 -20 8c-6 10 -6 14 6 24c170 146 312 400 312 682c0 120 -8 172 -16 236c-2 8 2 10 14 14s16 2 18 -4c30 -54 64 -176 64 -280z" />
    <glyph glyph-name="asterisk" unicode="*" horiz-adv-x="300" 
d="M208 377c-26 0 -34 12 -32 26c3 20 38 86 51 116l-3 1c-32 -27 -73 -71 -100 -85c-12 -6 -30 3 -38 20c-10 22 4 38 16 44c16 8 98 24 122 30v4c-26 4 -85 18 -100 22c-14 4 -26 18 -18 40c6 22 30 32 44 28c17 -5 52 -56 79 -83l3 1c-4 24 -16 96 -16 112
c0 14 16 32 44 32c24 0 34 -10 34 -24c0 -20 -38 -86 -52 -118l2 -3c26 19 80 79 102 83c18 3 30 -11 34 -24c6 -18 2 -38 -30 -46c-24 -6 -74 -14 -105 -21v-3c21 -4 91 -18 107 -26c12 -6 17 -22 10 -36c-10 -20 -32 -34 -50 -24s-44 44 -72 78l-3 -1
c1 -21 14 -97 13 -111s-12 -32 -42 -32z" />
    <glyph glyph-name="plus" unicode="+" 
d="M298 38h-70v172h-160v64h160v168h70v-168h160v-64h-160v-172z" />
    <glyph glyph-name="comma" unicode="," horiz-adv-x="252" 
d="M180 24c0 -124 -140 -164 -160 -164c-6 0 -10 -2 -12 10s2 14 10 16c28 8 86 42 86 90c0 26 -8 36 -26 54c-4 6 -30 22 -30 48c0 28 18 56 48 56c62 0 84 -70 84 -110z" />
    <glyph glyph-name="hyphen" unicode="-" horiz-adv-x="416" 
d="M392 214h-322c-6 0 -8 2 -8 8v46c0 7 2 10 8 10h323c6 0 9 -3 9 -8v-46c0 -8 -4 -10 -10 -10z" />
    <glyph glyph-name="period" unicode="." horiz-adv-x="252" 
d="M108 -10c-38 0 -64 26 -64 64c0 28 20 62 62 62c50 0 68 -40 68 -64c0 -32 -26 -62 -66 -62z" />
    <glyph glyph-name="slash" unicode="/" horiz-adv-x="330" 
d="M-22 -11l-29 21c-5 4 -3 10 2 17l476 652c5 6 9 6 15 4l31 -19c4 -3 3 -10 -2 -17l-477 -652c-6 -8 -12 -10 -16 -6z" />
    <glyph glyph-name="zero" unicode="0" 
d="M368 645c102 0 148 -74 148 -178c0 -222 -132 -482 -312 -482c-108 0 -154 86 -154 198c0 198 130 462 318 462zM366 599c-114 0 -228 -342 -228 -472c0 -62 22 -98 62 -98c118 0 230 358 230 484c0 56 -20 84 -64 86z" />
    <glyph glyph-name="one" unicode="1" 
d="M222 234l59 178c19 59 25 81 25 91c0 8 -4 16 -16 16c-8 0 -22 -6 -48 -14l-58 -22c-3 -1 -8 0 -10 4l-10 18c-2 4 0 8 6 10l236 116c18 8 28 14 38 14c9 0 13 -5 13 -10c0 -8 -2 -18 -6 -28c-3 -8 -53 -150 -79 -229l-52 -160c-8 -30 -36 -118 -42 -134
c-12 -32 -4 -47 36 -47h54c6 0 8 -4 6 -10l-4 -22c-2 -6 -2 -8 -10 -8s-140 3 -158 3c-26 0 -152 -3 -160 -3c-4 0 -6 4 -4 8l6 24c0 6 4 8 12 8h38c34 0 62 2 78 45c10 28 40 118 50 152z" />
    <glyph glyph-name="two" unicode="2" 
d="M126 80h162c58 0 94 36 122 74c4 8 8 10 12 8l14 -8c2 -4 2 -6 -2 -12c-22 -36 -64 -132 -70 -152c-2 -8 -4 -10 -10 -10c-10 0 -14 4 -20 12c-8 8 -30 8 -58 8h-214c-17 0 -31 -1 -43 -2s-21 -1 -27 -1c-10 0 -12 4 -12 13c0 6 4 14 14 22c136 100 380 282 382 433
c0 40 -18 104 -90 104c-68 0 -114 -66 -132 -96c-6 -10 -8 -14 -12 -12l-20 10c-2 2 -2 4 0 12c22 56 98 162 214 162c94 0 150 -64 150 -153c0 -172 -266 -338 -360 -404v-8z" />
    <glyph glyph-name="three" unicode="3" 
d="M158 -15c-106 0 -158 60 -158 112c0 20 12 48 40 48c44 0 48 -42 46 -62c-4 -26 26 -62 72 -62c90 0 168 82 168 195c0 50 -28 100 -80 116c-18 6 -22 10 -22 20c0 8 6 14 20 16c74 8 144 62 144 135c0 24 -16 72 -80 72c-60 0 -110 -50 -124 -72c-2 -6 -8 -10 -12 -6
l-14 10c-4 2 -4 8 2 16c24 40 88 122 196 122c94 0 130 -58 130 -103c0 -80 -68 -142 -140 -178c58 -24 88 -76 88 -135c0 -140 -140 -244 -276 -244z" />
    <glyph glyph-name="four" unicode="4" 
d="M372 176l-59 -165c-3 -7 -7 -11 -19 -11h-76c-6 0 -8 6 -5 14l61 162h-244c-14 0 -22 8 -22 16c0 10 10 22 24 32l436 394c16 14 32 27 48 27c12 0 15 -15 8 -35l-128 -366h90c6 0 8 -6 6 -10l-18 -46c-3 -8 -8 -12 -17 -12h-85zM298 244l86 228c8 18 -2 22 -16 10
l-242 -222c-10 -8 -8 -16 2 -16h170z" />
    <glyph glyph-name="five" unicode="5" 
d="M244 544l-44 -120h4c26 -2 86 -8 130 -28c74 -38 96 -100 96 -162c-2 -99 -102 -249 -296 -249c-50 0 -116 14 -116 54c0 20 10 34 28 34s34 -8 50 -24c10 -10 32 -18 64 -18c98 0 168 90 168 167c0 56 -22 92 -60 114c-20 12 -64 24 -98 24c-22 0 -30 0 -34 4
c-6 4 -6 10 -4 18l94 264c4 8 8 8 16 8h198c34 0 46 18 62 40c4 6 8 4 16 0c12 -8 14 -10 10 -16l-58 -102c-4 -8 -12 -8 -30 -8h-196z" />
    <glyph glyph-name="six" unicode="6" 
d="M214 364l4 -4c32 20 66 30 114 30c80 0 136 -58 136 -139c0 -140 -110 -266 -244 -266c-112 0 -168 76 -168 179c0 220 216 414 384 474c10 4 20 7 26 7c8 0 14 -8 14 -18s-4 -16 -12 -18c-126 -59 -198 -143 -254 -245zM286 346c-36 0 -70 -16 -86 -40
c-38 -56 -46 -126 -48 -175c0 -52 14 -108 74 -108c92 0 136 152 134 237c0 44 -26 86 -74 86z" />
    <glyph glyph-name="seven" unicode="7" 
d="M262 630h266c8 0 14 -2 14 -10c0 -6 -4 -10 -8 -18c-6 -8 -74 -122 -106 -186c-44 -82 -158 -302 -183 -361c-17 -40 -35 -70 -69 -70c-24 0 -40 16 -40 40c0 21 14 45 24 61c14 20 92 130 146 216c38 58 132 218 146 242h-196c-68 0 -86 -28 -120 -74
c-4 -6 -12 -6 -18 -2c-10 8 -12 10 -8 16l86 170c6 12 8 12 18 10c10 -4 10 -6 8 -14c-2 -16 10 -20 40 -20z" />
    <glyph glyph-name="eight" unicode="8" 
d="M364 645c98 0 154 -58 154 -123c0 -104 -126 -170 -176 -194c42 -42 86 -90 86 -151c0 -102 -86 -192 -216 -192c-138 0 -164 94 -164 135c0 108 120 160 178 188c-32 38 -88 92 -88 155c0 80 72 182 226 182zM248 284c-52 -26 -114 -68 -114 -165c0 -62 42 -102 86 -102
c88 0 110 82 110 115c0 70 -40 110 -82 152zM318 354c64 34 116 80 116 159c0 38 -24 96 -94 96c-64 0 -108 -44 -108 -109c0 -52 36 -94 86 -146z" />
    <glyph glyph-name="nine" unicode="9" 
d="M330 256l-4 4c-12 -8 -22 -14 -36 -18s-30 -6 -50 -6c-116 0 -144 98 -144 150c0 115 92 259 242 259c112 0 162 -68 162 -171c0 -228 -220 -432 -406 -484c-8 -2 -14 -5 -22 -5s-14 9 -14 15c0 8 4 16 10 18c146 70 212 154 262 238zM268 276c38 0 68 18 90 54
c30 50 44 122 44 174c0 41 -10 103 -68 103c-94 0 -134 -158 -134 -231c0 -44 18 -100 68 -100z" />
    <glyph glyph-name="colon" unicode=":" horiz-adv-x="252" 
d="M84 -10c-34 0 -62 26 -62 62c0 26 20 62 62 62c50 0 66 -42 66 -64c0 -30 -26 -60 -66 -60zM252 354c0 -32 -26 -62 -66 -62c-34 0 -62 26 -62 64c0 26 20 60 62 60c50 0 66 -40 66 -62z" />
    <glyph glyph-name="semicolon" unicode=";" horiz-adv-x="252" 
d="M168 24c0 -124 -136 -164 -160 -164c-6 0 -10 -2 -12 10s2 14 10 16c28 8 86 42 86 90c0 26 -8 36 -26 54c-4 6 -30 22 -30 48c0 28 18 56 48 56c58 0 84 -74 84 -110zM172 292c-34 0 -62 26 -62 62c0 26 22 62 62 62c48 0 66 -42 66 -62c0 -32 -26 -62 -66 -62z" />
    <glyph glyph-name="less" unicode="&#x3c;" 
d="M404 38l-310 184v38l310 182v-72l-220 -124v-4l220 -128v-76z" />
    <glyph glyph-name="equal" unicode="=" 
d="M464 294h-392v64h392v-64zM72 140v64h392v-64h-392z" />
    <glyph glyph-name="greater" unicode="&#x3e;" 
d="M432 258v-38l-310 -182v72l220 124v6l-220 128v74z" />
    <glyph glyph-name="question" unicode="?" horiz-adv-x="426" 
d="M322 232l10 -10c2 -2 2 -6 2 -8c-14 -18 -58 -62 -110 -62c-54 0 -102 32 -102 103c0 89 106 143 154 169c70 40 122 68 122 143c0 28 -22 80 -90 80c-62 0 -114 -36 -114 -88c0 -32 18 -42 28 -42c8 0 14 2 16 8c-2 8 -2 12 -2 20c0 22 16 50 52 50c28 0 42 -22 42 -44
c0 -48 -46 -76 -88 -76s-88 22 -88 82c0 56 58 128 162 128c134 0 158 -96 158 -131c0 -130 -94 -196 -192 -232c-70 -28 -116 -50 -116 -83c0 -25 22 -41 64 -41s74 26 84 36c4 2 6 2 8 -2zM174 -10c-26 0 -58 20 -58 56c0 28 20 60 56 60s58 -26 58 -60
c0 -22 -20 -56 -56 -56z" />
    <glyph glyph-name="at" unicode="@" horiz-adv-x="774" 
d="M516 647c-192 0 -344 -202 -344 -382c0 -152 104 -240 238 -240c52 0 112 4 164 34c6 2 10 4 12 4l10 -22c0 -4 -2 -6 -8 -10c-36 -24 -116 -46 -194 -46c-196 0 -306 112 -306 264c0 226 212 436 440 436c178 0 264 -100 264 -253c0 -124 -100 -266 -276 -266
c-30 0 -46 16 -46 32c0 14 8 48 28 98l-6 2c-30 -38 -104 -132 -176 -132c-32 0 -58 20 -58 66c0 116 152 300 256 300c36 0 50 -16 60 -32l10 14c6 8 8 10 16 10h46c8 0 8 -6 6 -10c-12 -24 -60 -136 -68 -160c-10 -28 -36 -102 -36 -130c0 -12 12 -18 26 -18
c44 0 148 74 148 235c0 136 -78 206 -206 206zM370 220c36 0 134 128 148 160c18 34 22 58 22 74c0 24 -10 46 -34 46c-72 0 -162 -178 -162 -248c0 -20 8 -32 26 -32z" />
    <glyph glyph-name="A" unicode="A" horiz-adv-x="650" 
d="M466 300h-172l-116 -148c-28 -38 -52 -72 -52 -89c0 -16 12 -26 38 -26h30c5 0 7 -3 6 -8l-4 -23c-1 -6 -4 -9 -10 -9c-10 0 -52 3 -136 3c-72 0 -106 -3 -118 -3c-6 0 -9 3 -8 10l4 22c1 6 4 8 8 8h14c36 0 84 28 119 70l467 553c6 8 10 10 26 10c14 0 38 2 64 7
c18 3 32 8 40 8s12 -5 10 -12l-148 -553c-4 -16 -10 -42 -10 -55c0 -16 16 -28 36 -28h25c6 0 8 -3 7 -8l-4 -24c-1 -5 -4 -8 -13 -8c-11 0 -51 3 -129 3s-108 -3 -128 -3c-6 0 -7 4 -6 11l4 21c1 6 4 8 9 8h17c36 0 58 6 78 79zM478 336l74 256c4 14 -12 16 -20 8
l-210 -264h156z" />
    <glyph glyph-name="B" unicode="B" horiz-adv-x="626" 
d="M114 96l126 474c4 16 6 28 6 37c0 16 -18 26 -46 26h-28c-6 0 -8 4 -7 8l4 23c1 6 5 6 13 6h76c27 0 53 1 79 2c26 0 53 1 79 1c24 0 111 0 164 -33c32 -20 60 -56 60 -106c0 -122 -108 -174 -208 -192c-4 0 -4 -2 -2 -4c94 -24 148 -78 148 -162c0 -10 -2 -70 -56 -119
c-38 -34 -100 -60 -222 -60c-48 0 -98 3 -146 3c-46 0 -94 -3 -140 -3c-6 0 -10 2 -8 10l4 22c0 4 2 8 8 8h36c34 0 50 22 60 59zM288 326l-60 -224c-8 -30 -8 -48 10 -58c12 -8 44 -12 62 -12c106 0 160 80 160 162c0 104 -98 130 -160 132h-12zM370 636l-74 -272
c16 -4 38 -4 50 -4c92 0 180 48 182 166c0 60 -56 112 -126 112c-12 0 -22 0 -32 -2z" />
    <glyph glyph-name="C" unicode="C" horiz-adv-x="664" 
d="M722 639l-54 -208c-2 -6 -4 -8 -10 -6l-20 2c-4 0 -6 2 -6 10c16 98 -26 204 -140 204c-70 0 -124 -32 -180 -114c-76 -110 -98 -234 -98 -312c0 -140 90 -182 142 -182c76 0 176 24 244 174c4 6 6 8 10 6l20 -6c6 -2 6 -4 6 -8l-72 -216c-2 -4 -4 -6 -10 -4l-20 4
c-2 2 -4 4 -2 8c0 6 2 12 2 18c0 8 -6 16 -14 16c-10 0 -24 -4 -42 -12c-20 -10 -86 -28 -138 -28c-150 0 -254 94 -254 235c0 139 50 249 142 349c66 72 156 116 258 116c48 0 90 -10 132 -38c12 -10 32 -26 46 -26s22 8 26 26c2 6 6 8 10 6l16 -4c6 0 8 -4 6 -10z" />
    <glyph glyph-name="D" unicode="D" horiz-adv-x="796" 
d="M124 114l117 469c9 38 -17 50 -41 50h-49c-5 0 -9 3 -7 9l6 22c1 4 4 6 12 6c16 0 48 1 82 2c42 1 88 1 114 1c134 0 274 -11 358 -93c62 -64 74 -120 74 -182c0 -196 -124 -294 -184 -329c-129 -75 -266 -72 -334 -72c-28 0 -102 3 -130 3c-92 0 -120 -3 -127 -3
s-10 4 -9 10l5 22c1 6 4 8 10 8h25c30 0 62 12 78 77zM365 624l-129 -518c-4 -18 -6 -32 -6 -42c0 -19 28 -27 58 -27c98 0 190 21 260 79c64 52 124 164 124 280c0 64 -26 128 -66 166c-34 34 -62 50 -99 60c-47 13 -83 13 -97 13c-16 0 -43 -1 -45 -11z" />
    <glyph glyph-name="E" unicode="E" horiz-adv-x="677" 
d="M622 180l12 -8c2 -2 4 -4 2 -11l-52 -146c-4 -16 -10 -18 -22 -18c-8 0 -49 1 -106 2s-129 1 -198 1h-130c-31 0 -60 -1 -83 -1c-22 -1 -38 -2 -44 -2c-5 0 -7 2 -6 8l4 26c1 4 3 6 7 6h32c40 0 60 20 70 53l153 475c17 54 -19 68 -49 68h-32c-5 0 -8 4 -6 10l6 22
c2 6 4 8 12 8c6 0 30 -1 58 -1c29 -1 62 -2 86 -2h72c72 0 127 0 167 1s64 2 75 2c16 0 18 -4 22 -20l30 -134c2 -7 2 -7 -4 -11l-12 -6c-4 -2 -6 0 -12 6l-102 118c-6 6 -12 8 -18 8h-156l-84 -259h86c43 0 82 5 118 83c2 4 4 6 8 6l18 -6c4 0 6 -4 4 -6
c-16 -38 -48 -162 -52 -200c-2 -6 -4 -6 -8 -6h-18c-6 2 -6 4 -6 10c0 72 -38 83 -110 83h-50l-98 -303h224c34 0 62 15 88 38c22 18 76 86 92 104c2 4 6 6 12 2z" />
    <glyph glyph-name="F" unicode="F" horiz-adv-x="632" 
d="M394 633l-82 -265l120 2c68 2 92 38 112 104c2 6 6 6 12 4l18 -2c4 -2 6 -4 4 -10l-60 -250c-1 -6 -4 -7 -10 -6l-18 2c-6 1 -7 4 -6 10c10 72 -2 104 -60 106l-124 5l-67 -222c-19 -62 -5 -74 29 -74h30c6 0 9 -4 8 -8l-6 -24c-2 -6 -6 -8 -12 -8c-12 0 -42 3 -136 3
s-120 -3 -132 -3c-4 0 -7 2 -6 10l4 22c1 4 2 8 10 8h26c30 0 52 20 64 59l156 499c8 26 0 38 -24 38h-30c-6 0 -7 4 -6 10l4 20c1 7 6 10 14 10c7 0 21 -1 41 -2s46 -1 77 -1c152 0 224 2 258 4c56 0 84 10 96 10c8 0 10 -8 10 -16c2 -26 18 -146 20 -156c2 -6 0 -8 -4 -10
l-16 -8c-6 -2 -8 0 -12 8c-6 14 -60 98 -74 112c-18 16 -12 14 -44 16c-18 2 -158 3 -184 3z" />
    <glyph glyph-name="G" unicode="G" horiz-adv-x="722" 
d="M500 88l22 104c8 40 -8 48 -36 48h-33c-8 0 -10 5 -9 11l4 21c1 6 4 8 10 8c16 0 50 -3 132 -3c80 0 104 3 118 3c6 0 9 -4 8 -12l-2 -20c-1 -6 -4 -8 -10 -8h-16c-24 0 -42 -8 -48 -34l-34 -153c-3 -12 -8 -16 -20 -22c-28 -12 -114 -46 -200 -46
c-186 0 -298 126 -298 272c0 242 196 428 420 428c86 0 142 -34 162 -50c12 -10 20 -12 24 -12c12 0 18 10 28 32c0 4 4 6 10 4l14 -4c4 0 6 -2 6 -8l-58 -200c-2 -6 -4 -8 -10 -6h-20c-6 0 -8 4 -6 12c12 86 -30 191 -158 191c-154 0 -286 -185 -286 -398
c0 -154 92 -217 168 -217c50 0 84 13 98 23c10 6 16 20 20 36z" />
    <glyph glyph-name="H" unicode="H" horiz-adv-x="786" 
d="M592 324h-312c-4 0 -11 -2 -12 -6l-70 -217c-18 -54 -2 -64 30 -64h30c6 0 8 -4 8 -8l-4 -22c-2 -6 -6 -10 -12 -10c-10 0 -50 3 -138 3c-80 0 -116 -3 -124 -3c-6 0 -10 4 -8 10l4 22c2 6 4 8 10 8h24c32 0 50 22 67 73l157 477c10 30 -8 46 -30 46h-36c-4 0 -8 4 -6 10
l4 22c2 6 4 8 10 8c8 0 62 -3 140 -3c64 0 114 3 124 3c8 0 10 -4 10 -8l-8 -24c0 -6 -2 -8 -8 -8h-24c-36 0 -50 -12 -62 -50l-70 -215c-2 -4 2 -6 6 -6h312c4 0 8 2 10 6l71 225c9 28 -9 40 -31 40h-20c-4 0 -6 4 -6 10l6 24c0 4 4 6 10 6c8 0 60 -3 126 -3
c60 0 102 3 112 3c8 0 12 -4 10 -8l-6 -24c0 -4 -4 -8 -8 -8h-24c-26 0 -42 -12 -54 -50l-156 -478c-12 -38 -6 -68 20 -68h36c6 0 10 -4 8 -10l-6 -22c0 -6 -2 -8 -12 -8s-42 3 -128 3c-84 0 -124 -3 -136 -3c-6 0 -8 4 -8 12l4 18c0 6 2 10 8 10h28c34 0 54 18 76 85
l64 194c2 6 -2 8 -6 8z" />
    <glyph glyph-name="I" unicode="I" horiz-adv-x="374" 
d="M120 108l126 459c14 50 -2 66 -28 66h-46c-8 0 -10 2 -10 8l6 26c0 4 4 6 12 6c12 0 66 -3 146 -3c86 0 128 3 142 3c10 0 14 -4 12 -12l-6 -20c0 -4 -2 -8 -10 -8h-26c-42 0 -65 -10 -80 -67l-124 -461c-13 -48 2 -68 44 -68h36c6 0 8 -4 6 -10l-2 -20
c-2 -8 -2 -10 -12 -10c-12 0 -58 3 -160 3c-84 0 -136 -3 -148 -3c-6 0 -8 4 -8 10l6 22c0 6 2 8 8 8h38c58 0 64 20 78 71z" />
    <glyph glyph-name="J" unicode="J" horiz-adv-x="380" 
d="M386 554l-130 -438c-26 -90 -60 -178 -104 -232c-40 -48 -92 -84 -166 -84c-80 0 -104 46 -104 74c0 32 18 62 54 62c30 0 46 -26 46 -46c0 -10 -2 -20 -4 -28c-2 -4 -2 -8 -2 -12c2 -8 10 -12 30 -12c50 0 82 72 114 182l155 544c11 38 11 69 -33 69h-32
c-6 0 -11 2 -10 8l6 24c0 6 4 8 10 8c8 0 54 -3 144 -3c78 0 118 3 128 3c6 0 9 -4 8 -10l-4 -22c0 -6 -2 -8 -10 -8h-26c-26 0 -50 -12 -70 -79z" />
    <glyph glyph-name="K" unicode="K" horiz-adv-x="716" 
d="M294 320l-70 -217c-14 -44 2 -66 28 -66h24c4 0 8 -4 6 -10l-4 -20c0 -6 -4 -10 -12 -10c-12 0 -56 3 -132 3c-82 0 -112 -3 -120 -3c-6 0 -8 6 -8 14l4 18c2 4 4 8 12 8h20c28 0 52 18 65 57l155 477c14 42 2 62 -28 62h-24c-8 0 -12 4 -10 10l8 24c2 4 4 6 12 6
s44 -3 122 -3c86 0 116 3 128 3c6 0 6 -4 5 -10l-3 -22c0 -6 -4 -8 -12 -8h-22c-26 0 -48 -16 -59 -49l-75 -230c36 0 58 4 76 22c106 92 202 176 238 225c14 18 10 34 -16 34h-12c-8 0 -9 4 -8 10l4 20c2 6 4 8 10 8c10 0 52 -3 122 -3c60 0 88 3 96 3c10 0 12 -4 11 -10
l-3 -20c-2 -6 -4 -10 -10 -10h-30c-28 0 -56 -14 -76 -29c-46 -34 -274 -236 -292 -252c18 -34 156 -244 177 -270c17 -21 47 -45 67 -45h26c8 0 10 -6 10 -10l-4 -20c-2 -8 -4 -10 -14 -10c-12 0 -38 3 -128 3c-58 0 -114 -3 -126 -3c-6 0 -10 4 -8 10l2 20c0 6 2 10 8 10
h12c24 0 40 14 31 28c-9 15 -123 213 -139 237c-8 12 -20 18 -34 18z" />
    <glyph glyph-name="L" unicode="L" horiz-adv-x="648" 
d="M606 180l14 -6c6 -2 8 -4 6 -8c-4 -14 -40 -132 -48 -164c-2 -12 -8 -18 -12 -18c-6 0 -16 4 -26 6c-12 4 -24 6 -38 6c-22 0 -148 4 -288 4c-47 0 -96 0 -134 -1c-39 -1 -65 -2 -72 -2c-6 0 -10 2 -8 10l4 22c1 6 4 8 10 8h18c38 0 60 10 79 71l143 463
c14 44 4 62 -34 62h-36c-7 0 -9 4 -8 10l6 24c1 4 4 6 12 6c12 0 54 -3 142 -3c96 0 142 3 152 3c6 0 9 -4 8 -10l-4 -22c-1 -6 -6 -8 -12 -8h-40c-36 0 -54 -10 -71 -65l-157 -504c-6 -21 4 -27 24 -27h60c70 0 144 0 164 4c18 2 26 8 39 20c29 25 93 105 97 113
c2 6 6 8 10 6z" />
    <glyph glyph-name="M" unicode="M" horiz-adv-x="954" 
d="M376 22l-64 530c-2 16 -10 16 -14 4l-134 -398c-32 -96 -18 -121 6 -121h32c6 0 8 -4 8 -10l-4 -20c0 -6 -4 -10 -12 -10c-10 0 -42 3 -102 3c-56 0 -86 -3 -98 -3c-4 0 -6 4 -6 10l4 22c2 6 2 8 8 8h20c54 0 74 50 100 125l138 396c6 14 10 34 10 46c0 21 -20 29 -44 29
h-36c-10 0 -12 4 -12 10l4 20c2 6 4 10 12 10c10 0 50 -3 198 -3c16 0 18 -6 20 -22l56 -466c2 -18 12 -20 22 -6l338 478c6 10 12 16 28 16c100 0 162 3 174 3c8 0 10 -4 10 -10l-4 -22c-2 -6 -4 -8 -10 -8h-26c-22 0 -39 -24 -52 -71l-128 -464c-12 -43 4 -61 26 -61h30
c6 0 8 -4 8 -8l-4 -22c-2 -8 -4 -10 -12 -10c-12 0 -46 3 -134 3c-82 0 -120 -3 -130 -3c-8 0 -10 4 -10 12l2 18c2 6 4 10 12 10h22c50 0 66 28 78 69l138 482c2 14 -8 14 -16 4l-408 -576c-8 -12 -18 -16 -28 -16c-8 0 -14 8 -16 22z" />
    <glyph glyph-name="N" unicode="N" horiz-adv-x="764" 
d="M550 20l-252 514c-6 10 -14 10 -16 -2l-100 -334c-34 -114 -30 -161 12 -161h38c8 0 10 -4 10 -10l-4 -21c-2 -7 -2 -9 -12 -9s-52 3 -120 3c-70 0 -102 -3 -114 -3c-6 0 -8 4 -7 11l3 21c2 4 4 8 10 8h22c46 0 70 34 100 123l122 386c19 59 -2 87 -44 87h-38
c-8 0 -10 4 -8 12l4 18c2 6 4 10 12 10c12 0 52 -3 170 -3c18 0 24 -12 30 -26l222 -462c8 -12 12 -10 20 14l106 324c26 81 18 113 -16 113h-30c-10 0 -12 2 -10 10l2 22c2 4 4 8 10 8c12 0 44 -3 114 -3c52 0 72 3 86 3c10 0 12 -6 10 -14l-4 -18c0 -6 -2 -8 -8 -8h-26
c-24 0 -44 -24 -64 -81l-184 -526c-6 -16 -14 -24 -20 -26c-10 0 -20 6 -26 20z" />
    <glyph glyph-name="O" unicode="O" horiz-adv-x="726" 
d="M457 685c160 0 272 -108 272 -292c0 -200 -142 -408 -368 -408c-40 0 -118 6 -180 66s-88 140 -88 230c0 208 152 404 364 404zM481 637c-60 0 -108 -32 -144 -74c-82 -92 -142 -240 -142 -350c0 -124 66 -182 148 -182c146 0 276 224 278 440c0 100 -50 166 -140 166z
" />
    <glyph glyph-name="P" unicode="P" horiz-adv-x="608" 
d="M274 284l-46 -176c-10 -38 -6 -71 32 -71h38c8 0 9 -4 8 -10l-2 -21c-1 -7 -4 -9 -12 -9c-12 0 -54 3 -142 3c-82 0 -118 -3 -132 -3c-6 0 -8 4 -8 10l2 20c2 6 4 10 12 10h18c48 0 64 36 75 77l119 450c9 33 12 69 -26 69h-46c-6 0 -6 4 -6 10l6 21c2 6 4 6 14 6
s188 3 222 3c106 0 156 -7 204 -47c44 -36 60 -68 60 -136c0 -108 -86 -218 -290 -218c-40 0 -82 6 -100 12zM368 637l-84 -315c16 -10 48 -16 78 -16c126 0 184 104 184 192c0 118 -96 141 -142 141c-12 0 -26 0 -36 -2z" />
    <glyph glyph-name="Q" unicode="Q" horiz-adv-x="742" 
d="M201 -90l2 -8c22 4 54 8 114 8c100 0 150 -36 180 -76c32 -44 50 -62 70 -62c22 0 34 18 34 32c0 6 -2 14 -6 24c-6 8 -8 16 -8 32c0 24 16 42 44 42c34 0 44 -28 44 -50c0 -74 -70 -116 -156 -116c-50 0 -82 18 -114 52c-44 44 -92 80 -198 80c-30 0 -44 -4 -50 -10
c-12 -18 -28 -30 -42 -30c-24 0 -32 24 -32 42c0 40 160 98 218 120v6c-120 22 -208 114 -208 287c0 138 88 264 136 306c60 50 114 96 250 96c150 0 266 -92 266 -279c0 -96 -40 -216 -114 -304c-56 -64 -142 -100 -204 -114c-74 -16 -178 -52 -226 -78zM349 30
c144 0 288 236 288 445c0 98 -46 164 -142 164c-170 0 -302 -276 -302 -429c0 -172 120 -180 156 -180z" />
    <glyph glyph-name="R" unicode="R" horiz-adv-x="709" 
d="M281 323l-67 -214c-17 -54 -6 -72 22 -72h42c6 0 8 -4 6 -8l-2 -24c-2 -6 -6 -8 -12 -8c-12 0 -56 3 -142 3c-70 0 -108 -3 -120 -3c-6 0 -8 4 -6 10l4 22c0 6 2 8 10 8h26c24 0 42 22 50 47l160 499c10 32 4 50 -30 50h-34c-8 0 -10 2 -8 8l4 21c2 6 4 8 14 8
c104 0 208 3 236 3c86 0 236 -7 236 -145c0 -98 -106 -178 -236 -192v-4c32 -8 48 -38 58 -58c6 -10 74 -152 91 -179c27 -42 51 -58 87 -58h26c6 0 8 -4 6 -10l-2 -20c-2 -6 -4 -10 -10 -10c-10 0 -26 3 -80 3c-58 0 -76 -3 -92 -3c-10 0 -14 10 -28 33
c-14 24 -102 220 -114 244c-24 55 -68 49 -95 49zM380 637l-88 -279c40 0 92 -4 160 24c52 22 98 78 98 150c0 42 -30 107 -128 107c-18 0 -30 0 -42 -2z" />
    <glyph glyph-name="S" unicode="S" horiz-adv-x="508" 
d="M536 665l-36 -190c-2 -4 -4 -6 -8 -6h-18c-8 0 -10 4 -10 10c6 40 -6 160 -108 160c-58 0 -90 -54 -90 -97c0 -70 44 -102 90 -148s112 -102 112 -213c0 -128 -92 -196 -196 -196c-64 0 -110 38 -142 74c-10 10 -20 8 -26 2c-6 -8 -16 -24 -24 -38c-2 -4 -4 -6 -10 -4
l-12 6c-6 2 -6 2 -4 10l74 218c2 4 4 4 10 4l16 -4c4 -2 6 -4 6 -10c-28 -144 50 -212 112 -212c64 0 108 50 108 105c0 64 -50 102 -94 150c-62 68 -114 120 -114 223c0 72 56 176 186 176c54 0 102 -34 118 -46c4 -2 8 -4 14 -4s12 14 16 34c0 4 2 4 10 4l12 -2
c6 0 8 -2 8 -6z" />
    <glyph glyph-name="T" unicode="T" horiz-adv-x="662" 
d="M366 670h250c90 0 126 8 144 18c4 2 6 4 10 4s8 -2 8 -8c-2 -16 -12 -162 -10 -202c0 -6 -2 -8 -8 -9l-16 -3c-6 0 -10 4 -14 16c-8 32 -26 94 -40 120c-22 17 -94 26 -140 26h-20l-158 -510c-20 -63 -10 -85 42 -85h40c5 0 7 -4 6 -10l-4 -20c-1 -7 -5 -10 -12 -10
c-14 0 -54 3 -148 3c-98 0 -151 -3 -161 -3c-7 0 -10 4 -9 10l2 22c1 6 4 8 12 8h26c56 0 75 26 98 101l154 494h-26c-92 0 -136 -5 -159 -22c-35 -26 -87 -84 -111 -112c-4 -4 -8 -4 -12 -4l-16 10c-4 2 -4 6 -2 10c12 22 74 162 76 168s4 10 10 10c4 0 8 -2 16 -8
c20 -6 68 -14 172 -14z" />
    <glyph glyph-name="U" unicode="U" horiz-adv-x="720" 
d="M743 554l-86 -274c-55 -177 -134 -295 -318 -295c-130 0 -226 60 -226 183c0 42 14 104 20 126l86 277c14 46 0 62 -28 62h-36c-4 0 -8 2 -6 8l4 24c2 6 4 8 14 8c12 0 46 -3 138 -3c80 0 114 3 124 3c8 0 10 -4 10 -12l-4 -20c-1 -4 -4 -8 -10 -8h-28
c-20 0 -45 -4 -60 -53l-82 -268c-6 -22 -30 -96 -30 -139c0 -122 106 -134 136 -134c46 0 98 16 130 44c46 40 80 94 112 203l72 256c19 67 8 91 -24 91h-32c-8 0 -10 4 -9 8l3 22c2 6 4 10 14 10c12 0 50 -3 114 -3c58 0 80 3 90 3s12 -4 10 -12l-4 -20c0 -4 -2 -8 -10 -8
h-16c-32 0 -52 -29 -68 -79z" />
    <glyph glyph-name="V" unicode="V" horiz-adv-x="612" 
d="M282 182l276 368c36 48 40 83 12 83h-20c-10 0 -12 4 -11 10l5 22c0 6 2 8 12 8c14 0 48 -3 102 -3c58 0 84 3 96 3c10 0 12 -4 11 -9l-3 -21c-2 -6 -4 -10 -10 -10h-22c-34 0 -85 -50 -124 -99l-427 -536c-6 -8 -18 -18 -32 -18c-16 0 -18 14 -14 38l79 561
c4 30 -6 54 -38 54h-32c-8 0 -12 2 -10 9l6 21c2 8 2 10 10 10c14 0 56 -3 142 -3c72 0 114 3 126 3c10 0 12 -2 10 -9l-3 -23c-1 -6 -3 -8 -11 -8h-28c-32 0 -50 -12 -55 -41l-69 -400c-4 -26 8 -28 22 -10z" />
    <glyph glyph-name="W" unicode="W" horiz-adv-x="872" 
d="M323 580l-67 -406c-2 -12 6 -16 16 -4c6 6 228 326 232 332c24 36 36 76 36 97c0 20 -8 34 -26 34h-14c-6 0 -8 2 -8 7l4 27c2 4 4 6 12 6c10 0 36 -3 98 -3c58 0 84 3 96 3c8 0 10 -2 9 -8l-3 -24c-2 -6 -4 -8 -12 -8h-16c-18 0 -28 -12 -32 -47l-50 -416
c-2 -18 4 -20 14 -8c20 22 118 184 138 218c48 80 92 174 101 201c9 26 7 52 -23 52h-16c-6 0 -10 2 -8 9l4 21c0 8 4 10 10 10c14 0 38 -3 90 -3c60 0 86 3 100 3c8 0 11 -2 10 -7l-4 -25c-2 -6 -4 -8 -8 -8h-18c-18 0 -36 -6 -52 -27c-10 -14 -160 -262 -184 -302
c-28 -46 -159 -239 -202 -292c-13 -16 -25 -32 -41 -32s-20 14 -18 36l29 420c2 12 -6 12 -14 2c-10 -14 -280 -389 -317 -432c-12 -14 -22 -26 -38 -26c-13 0 -18 14 -14 42l71 559c4 34 0 52 -22 52h-24c-8 0 -10 2 -9 9l3 23c2 6 4 8 12 8c10 0 50 -3 116 -3
c62 0 100 3 112 3c10 0 12 -2 10 -9l-4 -23c0 -4 -2 -8 -10 -8h-16c-32 0 -46 -12 -53 -53z" />
    <glyph glyph-name="X" unicode="X" horiz-adv-x="628" 
d="M418 374l100 -286c10 -29 36 -51 62 -51h21c6 0 9 -3 8 -8l-3 -24c-1 -6 -3 -8 -10 -8c-10 0 -40 3 -122 3c-64 0 -102 -3 -120 -3c-7 0 -8 4 -7 12l3 20c1 5 4 8 9 8h17c28 0 31 20 26 37c-4 14 -66 206 -72 224c-14 -16 -162 -160 -202 -216c-15 -21 -14 -45 16 -45h18
c5 0 6 -4 6 -9l-2 -23c0 -5 -5 -8 -12 -8c-12 0 -50 3 -124 3c-48 0 -90 -3 -102 -3c-6 0 -10 4 -9 10l3 20c1 6 4 10 10 10h22c48 0 76 32 106 55c18 14 236 220 258 242l-82 238c-13 37 -26 61 -56 61h-26c-6 0 -9 4 -8 10l4 21c1 6 5 9 10 9c14 0 60 -3 126 -3
c62 0 94 3 108 3c6 0 9 -2 8 -8l-2 -24c0 -5 -4 -8 -10 -8h-18c-30 0 -29 -26 -22 -48l56 -175c20 18 158 160 172 182c11 17 4 41 -24 41h-18c-6 0 -9 2 -8 8l4 24c1 6 3 8 12 8c12 0 50 -3 112 -3c54 0 82 3 94 3c8 0 11 -2 10 -9l-3 -23c-1 -6 -4 -8 -9 -8h-18
c-24 0 -51 -17 -78 -35c-12 -8 -216 -208 -234 -224z" />
    <glyph glyph-name="Y" unicode="Y" horiz-adv-x="582" 
d="M376 204l-24 -111c-11 -52 2 -56 36 -56h22c6 0 8 -4 8 -8l-4 -22c0 -6 -2 -10 -10 -10c-16 0 -48 3 -128 3c-90 0 -120 -3 -132 -3c-6 0 -8 2 -8 10l4 22c0 4 2 8 10 8h22c46 0 60 22 66 51l32 148c4 14 2 40 -2 52l-104 307c-8 24 -28 38 -62 38h-22c-6 0 -8 2 -8 8
l4 24c2 6 4 8 10 8c14 0 40 -3 120 -3c86 0 120 3 132 3c8 0 10 -2 10 -8l-2 -24c-2 -6 -4 -8 -10 -8h-26c-32 0 -32 -24 -26 -44l80 -269c4 -16 12 -16 20 -2c14 22 156 232 166 262c13 38 0 53 -34 53h-22c-6 0 -8 4 -6 10l2 22c0 6 2 8 12 8c14 0 52 -3 108 -3
c62 0 92 3 106 3c8 0 10 -4 10 -10l-4 -20c0 -8 -2 -10 -8 -10h-18c-34 0 -54 -16 -74 -43c-16 -22 -198 -276 -212 -300c-14 -22 -24 -42 -34 -86z" />
    <glyph glyph-name="Z" unicode="Z" horiz-adv-x="682" 
d="M382 0h-315c-10 0 -15 4 -15 10s4 12 8 16l515 604h-76c-99 0 -178 -2 -215 -12c-42 -10 -80 -46 -100 -88c-2 -6 -6 -6 -10 -4l-16 6c-4 0 -4 4 -4 6l42 138c2 6 4 12 10 12s10 -2 16 -6c12 -8 116 -12 144 -12h345c8 0 13 -5 13 -11c0 -7 -3 -14 -6 -17l-511 -602h78
c108 0 168 3 229 18c40 10 80 40 114 96c2 6 6 6 10 4l14 -8c4 0 6 -4 4 -10l-52 -146c-2 -6 -4 -8 -10 -8c-4 0 -12 2 -18 4c-18 8 -160 10 -194 10z" />
    <glyph glyph-name="bracketleft" unicode="[" horiz-adv-x="316" 
d="M114 -170h124c4 0 8 -2 6 -8l-6 -22c0 -6 -4 -8 -14 -8h-206c-6 0 -8 6 -6 14l256 934c2 8 4 10 14 10h198c6 0 10 -2 8 -8l-8 -24c0 -6 -4 -6 -14 -6h-110c-6 0 -10 -2 -14 -14l-234 -858c-2 -6 -2 -10 6 -10z" />
    <glyph glyph-name="backslash" unicode="\" horiz-adv-x="320" 
d="M116 671l40 12c6 2 10 0 12 -6l134 -670c2 -6 -2 -10 -8 -10l-40 -12c-4 0 -6 2 -8 12l-136 664c-2 4 0 8 6 10z" />
    <glyph glyph-name="bracketright" unicode="]" horiz-adv-x="316" 
d="M100 -208h-198c-6 0 -10 2 -8 8l6 24c2 6 6 6 12 6h114c6 0 10 2 12 14l236 858c2 6 2 10 -6 10h-124c-6 0 -8 2 -8 8l6 22c2 6 4 8 12 8h208c6 0 8 -6 6 -14l-254 -934c-2 -8 -4 -10 -14 -10z" />
    <glyph glyph-name="asciicircum" unicode="^" 
d="M426 264l-154 314h-4l-152 -314h-70l210 422h32l210 -422h-72z" />
    <glyph glyph-name="underscore" unicode="_" 
d="M0 -125v50h500v-50h-500z" />
    <glyph glyph-name="quoteleft" unicode="&#x2018;" horiz-adv-x="178" 
d="M128 541c0 108 124 144 144 144c7 0 11 -1 12 -8c2 -10 -2 -13 -12 -16c-22 -6 -76 -38 -76 -78c0 -22 6 -32 22 -48c6 -4 28 -20 28 -44c0 -26 -16 -46 -44 -46c-50 0 -74 62 -74 96z" />
    <glyph glyph-name="a" unicode="a" horiz-adv-x="467" 
d="M404 418h54c6 0 8 -4 6 -10c-18 -42 -66 -170 -74 -196c-4 -18 -42 -134 -42 -146c0 -10 4 -12 12 -12c14 0 54 48 62 58c4 4 6 6 10 3l12 -9c2 -2 2 -6 0 -12c-10 -20 -80 -104 -158 -104c-22 0 -32 10 -32 26c0 14 6 36 42 140l-6 2c-42 -62 -124 -168 -206 -168
c-26 0 -62 30 -62 72c0 134 140 354 274 354c44 0 64 -18 76 -34l16 28c4 6 10 8 16 8zM144 58c38 0 146 146 164 184c14 28 24 58 24 90c0 16 -18 44 -46 44c-26 0 -56 -24 -82 -61c-56 -79 -84 -169 -84 -225c0 -22 8 -32 24 -32z" />
    <glyph glyph-name="b" unicode="b" horiz-adv-x="460" 
d="M192 675h152c10 0 12 -8 8 -17l-162 -362l8 -2c46 64 110 122 182 122c48 0 74 -40 74 -81c0 -51 -26 -149 -120 -245c-54 -56 -118 -100 -230 -100c-46 0 -80 26 -80 70c0 18 8 44 14 60c66 166 132 326 194 479c4 11 6 18 6 24c0 10 -10 16 -24 16h-30c-6 0 -10 2 -8 8
l6 20c2 6 4 8 10 8zM326 356c-30 0 -90 -50 -140 -124c-36 -54 -68 -138 -68 -168c0 -24 12 -34 36 -34c28 0 68 26 103 63c63 69 99 149 99 218c0 29 -14 45 -30 45z" />
    <glyph glyph-name="c" unicode="c" horiz-adv-x="318" 
d="M265 96l14 -10c4 -2 6 -4 2 -10c-15 -22 -80 -86 -154 -86c-40 0 -90 31 -90 99c0 140 109 327 233 327c52 0 69 -38 69 -56c0 -28 -22 -50 -42 -50c-16 0 -28 6 -34 24c-6 14 -15 30 -31 30c-22 0 -41 -24 -60 -68c-25 -60 -39 -122 -39 -176c0 -50 15 -72 41 -72
c32 0 71 30 83 44c2 4 6 6 8 4z" />
    <glyph glyph-name="d" unicode="d" horiz-adv-x="480" 
d="M396 675h146c14 0 18 -10 15 -17c-15 -36 -175 -502 -191 -564c-6 -30 -8 -44 6 -44c16 0 58 44 64 50c4 4 8 4 11 1l13 -11c2 -2 2 -6 0 -10c-8 -10 -80 -90 -160 -90c-22 0 -34 8 -34 26c0 24 20 84 40 140l-10 4c-48 -78 -126 -170 -198 -170c-44 0 -74 40 -74 82
c0 70 46 184 129 267c26 26 79 77 149 77c28 0 54 -12 71 -32l67 217c6 18 0 38 -26 38h-30c-8 0 -10 4 -8 6l4 24c2 4 4 6 16 6zM342 322c0 31 -19 58 -54 58c-70 0 -162 -212 -162 -294c0 -22 12 -34 26 -34c30 0 88 72 126 126c28 38 64 104 64 144z" />
    <glyph glyph-name="e" unicode="e" horiz-adv-x="370" 
d="M300 110l15 -11c5 -3 5 -5 3 -9c-22 -36 -90 -100 -178 -100c-66 0 -106 36 -106 106c0 78 42 184 124 258c40 36 96 62 150 62c46 0 70 -30 70 -59c0 -51 -34 -97 -92 -129c-54 -28 -108 -40 -146 -42c-4 -10 -10 -38 -10 -74c0 -40 26 -64 54 -64c46 0 86 30 108 60
c2 2 6 4 8 2zM260 368c-50 0 -100 -96 -112 -150c18 0 66 12 100 38c22 18 42 48 42 76c0 18 -8 36 -30 36z" />
    <glyph glyph-name="f" unicode="f" horiz-adv-x="296" 
d="M247 394h102c6 0 8 -4 6 -10l-5 -26c-1 -6 -3 -8 -11 -8h-100c-22 -78 -66 -250 -108 -366c-55 -151 -135 -281 -252 -281c-52 0 -84 26 -84 62c0 26 18 48 46 48c32 0 48 -26 50 -52c2 -10 8 -16 20 -16c46 0 94 84 142 267l90 338h-86c-6 0 -8 4 -7 10l5 24
c2 6 4 10 12 10h84c30 79 46 147 114 221c26 30 88 70 152 70c74 0 106 -36 106 -66c0 -28 -22 -48 -46 -48c-38 0 -50 20 -54 46c-2 10 -10 29 -36 29c-78 0 -110 -145 -140 -252z" />
    <glyph glyph-name="g" unicode="g" horiz-adv-x="450" 
d="M150 -297c-118 0 -216 60 -216 124c0 32 12 52 42 76c40 34 96 56 126 68c-30 22 -38 40 -38 60c0 22 28 46 86 74l2 4c-46 18 -82 48 -82 117c0 74 70 190 196 190c60 0 88 -32 98 -43c16 12 50 33 84 33c32 0 44 -26 44 -44s-12 -36 -36 -36c-16 0 -26 6 -34 14
c-4 6 -10 10 -18 10s-20 -6 -24 -12c4 -12 6 -34 6 -51c0 -48 -42 -164 -158 -182c-22 -4 -36 -6 -38 -6c-20 -10 -42 -30 -42 -46c0 -10 12 -22 20 -28c18 -13 68 -38 138 -80c60 -36 76 -70 76 -100c0 -24 -10 -72 -72 -106c-38 -22 -84 -36 -160 -36zM196 136
c62 0 100 116 100 187c0 39 -8 61 -36 61c-22 0 -38 -12 -55 -39c-39 -62 -45 -102 -45 -153c0 -38 12 -56 36 -56zM174 -261c50 0 112 23 112 70c0 44 -28 63 -70 88c-10 6 -74 44 -89 54c-61 -28 -99 -62 -99 -108c0 -70 72 -104 146 -104z" />
    <glyph glyph-name="h" unicode="h" horiz-adv-x="486" 
d="M198 276l6 -6c48 72 114 146 190 146c62 0 80 -48 80 -93c0 -73 -30 -157 -66 -221c-44 -80 -100 -134 -166 -134c-32 0 -58 22 -58 54c0 24 16 50 42 50c24 0 34 -18 36 -34c2 -14 6 -27 20 -27c22 0 44 63 60 115c20 58 38 132 38 179c0 23 -6 47 -30 47
c-44 0 -118 -84 -146 -120c-24 -32 -44 -68 -56 -102l-52 -122c-2 -6 -5 -8 -12 -8h-64c-9 0 -11 6 -8 14l214 558c8 21 13 38 13 47c0 12 -13 20 -31 20h-30c-4 0 -8 4 -6 10l4 18c2 6 4 8 14 8h158c8 0 12 -4 12 -10s-4 -16 -10 -31z" />
    <glyph glyph-name="i" unicode="i" horiz-adv-x="292" 
d="M251 537c-40 0 -58 29 -58 54c0 27 25 54 56 54c40 0 61 -25 61 -50c0 -23 -23 -58 -59 -58zM232 280l-56 -152c-14 -38 -18 -54 -18 -64c0 -8 4 -14 12 -14c20 2 72 56 78 64c2 4 6 4 9 1l11 -11c4 -4 6 -6 2 -10c-6 -8 -76 -104 -185 -104c-21 0 -29 12 -29 28
c0 20 16 67 56 178l28 78c10 27 16 46 16 58c0 8 -4 12 -12 12c-16 0 -62 -52 -76 -68c-4 -4 -8 -4 -12 0l-10 9c-4 3 -6 5 -4 9c6 6 96 122 184 122c24 0 36 -12 36 -32s-13 -57 -30 -104z" />
    <glyph glyph-name="j" unicode="j" horiz-adv-x="274" 
d="M-94 -230c-68 0 -96 36 -96 62c0 28 18 54 46 54c34 0 50 -28 50 -48c2 -20 12 -31 22 -31c60 0 104 135 154 289l64 196c5 16 6 28 6 36c0 10 -4 16 -14 16c-18 0 -62 -40 -74 -52c-2 -2 -6 -2 -9 1l-11 11c-2 2 -2 4 0 8c14 18 99 104 188 104c18 0 32 -14 32 -30
c0 -20 -20 -94 -39 -148l-67 -186c-16 -44 -102 -282 -252 -282zM319 598c0 -32 -31 -61 -63 -61c-34 0 -63 24 -63 51c0 30 23 63 67 63c42 0 59 -28 59 -53z" />
    <glyph glyph-name="k" unicode="k" horiz-adv-x="456" 
d="M212 314l6 -2c32 42 103 104 171 104c35 0 63 -16 63 -59c0 -77 -136 -154 -182 -172v-6l68 -107c16 -24 30 -38 43 -38c17 0 33 16 43 26c2 4 6 2 8 0l12 -12c2 -2 2 -6 -2 -10c-16 -16 -50 -48 -102 -48s-72 16 -94 60l-48 102c-6 14 -22 16 -40 14l-60 -158
c-2 -6 -6 -8 -14 -8h-68c-6 0 -10 6 -6 14l228 583c9 24 0 42 -32 42h-26c-6 0 -8 4 -6 10l8 18c2 6 2 8 10 8h160c10 0 11 -10 7 -19zM190 248l-22 -56c86 -14 194 88 194 140c0 15 -10 26 -28 26c-36 0 -102 -58 -114 -74c-10 -10 -22 -24 -30 -36z" />
    <glyph glyph-name="l" unicode="l" horiz-adv-x="258" 
d="M52 126l166 452c13 35 12 61 -18 61h-32c-4 0 -5 3 -4 8l6 23c1 3 3 5 8 5h154c9 0 11 -6 8 -15l-202 -546c-10 -26 -20 -60 0 -60s60 38 72 52c4 2 6 2 10 -2l12 -10c2 -4 4 -6 0 -12s-90 -92 -178 -92c-18 0 -34 16 -34 36c0 16 22 72 32 100z" />
    <glyph glyph-name="m" unicode="m" horiz-adv-x="752" 
d="M43 12l69 186c23 62 51 125 51 140c0 8 -4 14 -13 14c-12 0 -64 -48 -72 -60c-4 -4 -8 -4 -12 0l-12 10c-2 4 -4 6 -2 10c20 24 92 104 165 104c30 0 43 -14 43 -36c0 -28 -56 -140 -64 -164l8 -4c42 70 130 204 220 204c34 0 55 -23 55 -47c0 -37 -37 -123 -53 -159
l8 -4c54 84 132 210 224 210c36 0 55 -31 55 -54c0 -29 -25 -86 -55 -172c-20 -58 -40 -100 -40 -116c2 -8 6 -14 12 -14c22 0 70 64 76 72c2 4 6 4 8 3l14 -9c4 -4 4 -6 2 -14c-4 -6 -88 -122 -180 -122c-22 0 -34 16 -34 30c0 22 22 84 60 180c31 78 43 112 43 128
c0 12 -7 20 -21 20c-24 0 -104 -90 -166 -184c-6 -10 -24 -36 -38 -70l-31 -86c-2 -6 -7 -8 -15 -8h-63c-8 0 -12 4 -10 10l63 166c26 70 51 136 51 150c1 12 -8 20 -21 20c-24 0 -102 -84 -160 -168c-14 -20 -30 -48 -46 -84l-33 -86c-2 -6 -7 -8 -15 -8h-63
c-6 0 -11 4 -8 12z" />
    <glyph glyph-name="n" unicode="n" horiz-adv-x="530" 
d="M162 98l-32 -92c-2 -4 -4 -6 -14 -6h-64c-9 0 -10 7 -8 13l68 185c22 64 46 126 46 140c0 10 -6 16 -15 16c-18 0 -57 -36 -73 -52c-2 -4 -6 -4 -9 -1l-11 11c-4 2 -6 6 -2 10c14 18 80 94 171 94c29 0 38 -20 38 -34c0 -22 -29 -90 -47 -134l6 -4c30 46 122 172 217 172
c37 0 57 -28 57 -56c0 -26 -13 -73 -54 -176c-26 -66 -40 -104 -40 -118c0 -10 4 -16 12 -16c14 0 52 34 62 48c4 2 8 2 12 -2l10 -8c4 -2 4 -6 0 -12c-12 -16 -82 -86 -166 -86c-22 0 -34 12 -34 30s28 86 60 174c15 42 43 118 43 130c0 16 -9 24 -23 24
c-30 0 -114 -80 -156 -148c-20 -32 -38 -62 -54 -102z" />
    <glyph glyph-name="o" unicode="o" horiz-adv-x="410" 
d="M160 -10c-59 0 -120 45 -120 137c0 84 28 164 84 225c40 44 88 64 142 64c58 0 124 -36 124 -126c0 -64 -26 -168 -86 -234c-38 -44 -84 -66 -144 -66zM146 44c39 0 75 28 114 93c37 63 68 146 68 182c0 22 -14 45 -43 45c-41 0 -79 -35 -128 -117
c-33 -56 -53 -116 -53 -156c0 -27 20 -47 42 -47z" />
    <glyph glyph-name="p" unicode="p" horiz-adv-x="480" 
d="M136 0l-68 -196c-18 -52 -8 -68 30 -68h28c6 0 8 -4 6 -9l-5 -21c-1 -4 -5 -6 -13 -6c-10 0 -40 3 -116 3c-82 0 -108 -3 -120 -3c-6 0 -8 2 -7 6l5 22c2 4 4 8 8 8h24c34 0 56 21 76 78l187 530c-47 -12 -97 -58 -115 -82c-4 -4 -8 -4 -12 -1l-12 9c-2 2 -2 6 0 10
c28 34 76 88 158 118l31 96c2 8 6 12 16 14l89 28c2 1 5 2 8 2c2 0 4 -2 4 -4s-2 -5 -3 -8l-50 -112c15 2 27 2 37 2c96 0 146 -62 146 -133s-32 -143 -122 -209c-48 -34 -128 -66 -210 -74zM268 365l-118 -329c98 15 222 100 222 221c0 81 -38 111 -74 111
c-10 0 -20 0 -30 -3z" />
    <glyph glyph-name="q" unicode="q" horiz-adv-x="470" 
d="M392 380l70 34c6 4 12 6 18 6c8 0 11 -8 6 -20l-230 -614c-14 -36 -4 -50 16 -50h28c6 0 8 -4 6 -10l-6 -18c-2 -6 -4 -8 -10 -8c-12 0 -44 3 -112 3c-72 0 -106 -3 -118 -3c-6 0 -8 2 -7 8l3 20c2 6 4 8 10 8h24c34 0 55 9 72 50l106 252l-8 4c-28 -30 -70 -52 -116 -52
c-38 0 -104 18 -104 113c0 48 14 163 110 257c46 44 88 56 144 56c42 0 68 -20 84 -36c4 -4 10 -2 14 0zM165 26c108 0 189 250 189 292c0 27 -15 55 -44 55c-26 0 -42 -9 -68 -37c-64 -68 -120 -187 -120 -257c0 -33 16 -53 43 -53z" />
    <glyph glyph-name="r" unicode="r" horiz-adv-x="374" 
d="M124 0h-66c-6 0 -10 4 -8 8l50 162c15 50 48 152 48 170c0 8 -8 16 -18 16c-18 0 -58 -38 -72 -58c-2 -4 -6 -4 -10 -2l-12 8c-2 2 -2 6 0 10c18 30 76 102 158 102c30 0 40 -20 40 -38s-18 -70 -40 -136l7 -4c26 56 97 178 163 178c28 0 52 -20 52 -50s-24 -56 -42 -56
c-12 0 -22 2 -30 8s-14 12 -28 12c-28 0 -84 -82 -114 -140c-10 -22 -21 -48 -32 -82l-34 -102c-2 -4 -6 -6 -12 -6z" />
    <glyph glyph-name="s" unicode="s" horiz-adv-x="312" 
d="M252 124c0 -78 -62 -134 -152 -134c-66 0 -100 24 -100 58c0 24 16 42 38 42c24 0 40 -16 48 -40c6 -16 14 -26 32 -26c28 0 50 22 50 64c2 34 -24 63 -45 99c-20 34 -39 59 -37 101c0 64 54 128 148 128c34 0 78 -14 78 -56c0 -26 -16 -42 -38 -42c-18 0 -34 8 -40 34
c-4 12 -8 28 -24 28c-20 0 -42 -14 -42 -58c0 -34 35 -75 46 -90c20 -27 38 -62 38 -108z" />
    <glyph glyph-name="t" unicode="t" horiz-adv-x="318" 
d="M243 350l-88 -220c-8 -22 -18 -46 -18 -58c0 -10 6 -18 18 -18c23 0 85 50 91 56c4 4 6 4 10 0l11 -12c4 -2 4 -4 2 -8c-12 -16 -102 -100 -192 -100c-30 0 -42 16 -42 30c0 18 4 38 10 56l106 274h-74c-6 0 -8 2 -6 10l8 26c2 6 4 8 10 8h77l41 106c4 10 8 12 26 14
c20 2 60 20 68 26c6 2 12 6 16 6c6 0 10 -10 6 -20l-65 -132h103c4 0 6 -4 4 -10l-8 -29c-1 -4 -4 -5 -10 -5h-104z" />
    <glyph glyph-name="u" unicode="u" horiz-adv-x="502" 
d="M368 310l30 90c2 6 8 6 14 6h68c10 0 12 -4 10 -12l-70 -204c-28 -80 -40 -120 -40 -126c0 -10 4 -12 10 -12c14 0 52 38 66 56c2 4 6 4 10 1l12 -9c2 -2 2 -6 0 -10c-10 -16 -82 -100 -166 -100c-20 0 -32 12 -32 30c0 14 44 128 55 157l-7 4
c-40 -57 -136 -191 -234 -191c-24 0 -46 26 -46 46c0 38 24 90 65 181c28 62 43 109 43 123c0 10 -8 16 -18 16c-16 0 -54 -34 -72 -54c-2 -4 -8 -4 -11 0l-11 10c-2 2 -2 4 0 8c16 18 81 96 166 96c28 0 42 -22 42 -42c0 -24 -19 -77 -57 -167c-25 -59 -47 -113 -47 -133
c0 -10 8 -16 16 -16c34 0 132 118 158 160c18 28 33 54 46 92z" />
    <glyph glyph-name="v" unicode="v" horiz-adv-x="538" 
d="M190 340h-50c-38 0 -54 -16 -56 -38c2 -16 18 -24 28 -30c6 -4 22 -16 22 -38s-12 -38 -42 -38c-22 0 -50 20 -50 68c0 42 26 84 40 100c20 22 42 48 114 48c112 0 124 4 136 4s22 -6 12 -20c-38 -60 -96 -138 -96 -245c0 -68 31 -95 58 -95c40 0 68 18 90 44
c42 54 64 114 64 172c0 26 -3 44 -13 58c-6 10 -14 26 -14 38c0 20 18 48 58 48c32 0 47 -36 47 -64c0 -58 -14 -126 -66 -214c-48 -80 -128 -148 -218 -148c-30 0 -52 12 -71 31c-14 13 -25 41 -25 73c0 36 10 78 26 113c28 63 75 123 106 157l-6 6
c-20 -20 -66 -30 -94 -30z" />
    <glyph glyph-name="w" unicode="w" horiz-adv-x="758" 
d="M204 334h-80c-18 0 -36 -10 -36 -26c-2 -18 18 -26 28 -30c6 -4 22 -12 22 -38c0 -20 -14 -38 -42 -38c-24 0 -52 26 -52 74c0 42 20 70 44 96c18 20 44 34 86 34h80l96 6c12 2 20 -8 8 -20c-28 -34 -105 -164 -105 -252c0 -42 23 -70 57 -72c34 0 70 18 98 57
c14 20 30 75 38 123c6 34 7 82 17 122c6 24 32 34 52 34s32 -12 32 -28c0 -22 -24 -72 -42 -128c-11 -36 -23 -78 -23 -104c0 -38 26 -74 72 -74c66 0 128 73 128 172c0 34 -11 70 -21 80c-8 8 -26 30 -26 50c0 24 20 44 46 44c38 0 67 -26 67 -102c0 -74 -28 -166 -76 -232
c-32 -45 -73 -92 -150 -92c-64 0 -92 58 -98 98c-24 -32 -88 -98 -164 -98c-54 0 -96 38 -96 100c0 86 90 218 135 270l-5 6c-12 -6 -50 -32 -90 -32z" />
    <glyph glyph-name="x" unicode="x" horiz-adv-x="465" 
d="M245 44l-30 108h-4c-49 -70 -112 -162 -162 -162c-24 0 -40 12 -40 38c0 22 12 78 22 102c2 4 4 6 10 4l16 -4c4 0 4 -4 4 -8c-16 -54 -4 -64 8 -64c22 0 92 80 136 135l-40 129c-5 18 -12 22 -19 22c-17 0 -39 -34 -61 -74c-2 -4 -6 -6 -10 -4l-16 7c-2 1 -2 5 -2 9
c4 12 62 134 138 134c26 0 41 -16 52 -58l24 -97h4c31 45 66 95 86 117c16 16 38 38 73 38c22 0 34 -16 34 -36c0 -28 -12 -78 -26 -112c-2 -4 -6 -6 -10 -4l-13 4c-6 2 -8 4 -8 8c14 50 14 70 -4 70c-22 0 -76 -64 -123 -124l43 -142c5 -18 16 -28 26 -28c16 0 54 56 60 68
c0 4 4 4 8 2l14 -6c4 -2 6 -6 4 -10c-12 -22 -60 -116 -136 -116c-32 0 -48 18 -58 54z" />
    <glyph glyph-name="y" unicode="y" horiz-adv-x="423" 
d="M236 24h5c18 32 78 150 90 200c4 16 12 40 12 64c0 18 -4 34 -8 46s-10 26 -10 40c0 18 14 42 50 42c38 0 50 -28 50 -64c0 -44 -36 -132 -70 -200c-50 -98 -156 -274 -243 -358c-29 -28 -89 -91 -151 -91c-44 0 -64 24 -64 52c0 30 24 50 46 52c18 0 26 -8 36 -18
c8 -8 20 -14 28 -14c10 0 26 4 45 17c46 33 83 89 99 114c11 18 14 42 10 68c-2 32 -25 298 -37 342c-5 18 -7 26 -19 26c-18 0 -44 -50 -52 -72c-2 -6 -4 -6 -9 -5l-15 5c-4 0 -4 4 -2 12c4 12 46 134 134 134c36 0 56 -26 62 -110c8 -114 12 -232 13 -282z" />
    <glyph glyph-name="z" unicode="z" horiz-adv-x="482" 
d="M178 118l2 -6c50 2 72 -16 106 -42c38 -34 60 -55 82 -55c20 0 36 14 36 27c0 10 -4 18 -10 28c-10 18 -12 30 -12 42c0 22 18 38 40 38c32 0 46 -22 46 -56c0 -52 -36 -120 -142 -120c-58 0 -94 18 -128 42c-16 12 -44 38 -64 38c-16 0 -28 -10 -36 -36
c-6 -20 -22 -34 -48 -34c-18 0 -26 16 -26 30c0 42 54 80 84 92l202 192l-4 6c-46 -6 -74 10 -98 30c-16 14 -42 44 -66 44c-16 0 -24 -8 -24 -16s4 -12 12 -18c8 -4 18 -14 18 -34s-18 -40 -38 -40c-28 0 -52 18 -52 54c0 42 38 92 116 92c50 0 82 -12 122 -34
c24 -14 44 -24 62 -24c16 0 24 16 30 36c6 18 24 46 56 46c16 0 26 -14 26 -28c0 -36 -48 -76 -80 -94z" />
    <glyph glyph-name="braceleft" unicode="{" horiz-adv-x="316" 
d="M163 284c0 -8 20 -18 32 -30c14 -14 26 -32 26 -58c0 -36 -22 -84 -36 -122c-12 -34 -26 -68 -26 -116c0 -76 34 -118 76 -128c14 -4 30 -4 35 -4c6 0 7 -6 7 -20c0 -8 -2 -14 -7 -14s-19 0 -45 4c-50 6 -152 46 -152 166c0 50 18 94 38 134c18 40 38 78 38 112
c0 30 -4 42 -12 50c-6 10 -20 16 -36 18c-6 0 -12 6 -12 16s6 16 16 16c12 0 22 2 42 10c24 12 48 36 50 70c6 60 -2 102 6 174c12 110 116 170 202 184c20 4 36 4 46 4c12 0 16 -6 16 -14c0 -12 -3 -20 -12 -20c-8 0 -20 0 -32 -2c-70 -12 -118 -54 -130 -150
c-8 -54 -8 -110 -16 -148c-6 -38 -26 -68 -64 -94c-26 -16 -50 -24 -50 -38z" />
    <glyph glyph-name="bar" unicode="|" horiz-adv-x="250" 
d="M140 -250v1002c0 6 2 8 6 8h47c5 0 7 -4 7 -10v-1000c0 -6 -2 -10 -6 -10h-48c-5 0 -6 3 -6 10z" />
    <glyph glyph-name="braceright" unicode="}" horiz-adv-x="316" 
d="M232 258c0 8 -20 18 -32 28c-16 16 -26 34 -26 60c0 36 22 84 36 122c12 34 26 68 26 116c0 76 -36 118 -76 128c-14 4 -30 4 -36 4s-6 8 -6 18s2 16 8 16s18 0 44 -4c50 -6 154 -46 154 -166c0 -50 -20 -94 -38 -134c-20 -40 -40 -78 -40 -112c0 -28 4 -40 12 -50
s20 -16 36 -18c6 0 12 -4 12 -16c0 -10 -6 -16 -16 -16c-12 0 -22 0 -36 -8c-30 -14 -54 -40 -56 -72c-6 -60 2 -102 -6 -174c-12 -110 -116 -170 -202 -184c-20 -4 -36 -4 -46 -4c-12 0 -16 6 -16 14c0 12 2 20 12 20c8 0 20 2 32 2c70 12 118 54 130 150
c8 54 8 110 16 148c6 38 26 68 64 94c26 16 50 24 50 38z" />
    <glyph glyph-name="asciitilde" unicode="~" 
d="M400 320h58c0 -106 -46 -154 -102 -154c-30 0 -54 14 -84 30l-38 26c-18 10 -38 20 -62 20c-24 -2 -46 -22 -46 -82h-60c0 102 50 154 108 154c24 0 46 -6 74 -22l42 -26c16 -12 36 -28 62 -28c32 0 48 24 48 82z" />
    <glyph glyph-name="exclamdown" unicode="&#xa1;" horiz-adv-x="268" 
d="M184 296c-14 0 -52 14 -52 58c0 34 26 62 60 62s54 -34 54 -58c0 -34 -22 -62 -62 -62zM6 -297c-38 0 -56 24 -56 44c0 14 6 32 16 52c4 12 162 384 168 394c2 6 6 8 14 8s14 -8 10 -22c-12 -44 -82 -408 -86 -422c-8 -36 -30 -54 -66 -54z" />
    <glyph glyph-name="cent" unicode="&#xa2;" 
d="M208 6l26 104c-86 2 -136 38 -136 120c0 100 90 254 236 296l28 112c2 4 4 8 8 6l24 -4c6 -2 6 -6 6 -10l-24 -96c8 2 18 2 26 2c32 0 72 -14 72 -54c0 -28 -24 -44 -44 -44c-12 0 -22 8 -28 18c-10 16 -18 24 -40 26l-76 -322c34 0 74 20 99 36c7 4 11 2 15 -2l6 -12
c2 -4 2 -10 -6 -16c-14 -10 -56 -44 -126 -54l-30 -120c-1 -5 -5 -7 -10 -6l-22 6c-6 2 -6 6 -4 14zM250 166l74 314c-26 -6 -46 -24 -66 -50c-38 -50 -62 -132 -62 -184c0 -44 22 -72 54 -80z" />
    <glyph glyph-name="sterling" unicode="&#xa3;" 
d="M332 214h-150c-8 -14 -44 -64 -60 -82l2 -4c96 10 146 -8 208 -73c16 -18 36 -32 62 -32c16 0 36 16 38 30s0 18 -18 18c-24 0 -44 16 -44 34s14 46 48 46c38 0 72 -26 72 -70c0 -32 -32 -96 -142 -96c-66 0 -108 22 -146 65c-34 38 -58 52 -92 50
c-6 -14 -16 -36 -32 -58c-18 -24 -38 -44 -62 -44c-20 0 -30 8 -30 26c0 28 50 82 92 98c12 14 34 72 40 92h-68c-6 0 -10 4 -10 8l4 24c2 4 4 6 10 6h76c10 26 44 154 70 221c36 94 114 172 224 172c76 0 112 -46 112 -72c0 -28 -24 -42 -42 -42c-26 -2 -44 8 -58 42
c-4 10 -10 36 -42 36c-34 0 -60 -40 -97 -155c-23 -72 -81 -186 -91 -202h134c6 0 10 -2 8 -6l-4 -24c-2 -6 -4 -8 -12 -8z" />
    <glyph glyph-name="fraction" unicode="&#x2044;" horiz-adv-x="98" 
d="M276 643l26 -16c2 -2 4 -4 4 -6s-2 -6 -4 -10l-406 -618c-3 -5 -6 -8 -10 -8c-2 0 -4 1 -8 4l-22 16c-2 2 -4 4 -4 8c0 2 1 5 4 10l406 618c2 2 4 4 8 4c2 0 5 -1 6 -2z" />
    <glyph glyph-name="yen" unicode="&#xa5;" 
d="M318 253l-14 -57h148c4 0 5 -2 5 -6l-3 -25c-1 -5 -6 -6 -14 -6h-144l-16 -73c-9 -43 6 -49 26 -49h28c6 0 9 -2 8 -8l-4 -22c0 -6 -2 -10 -10 -10c-14 0 -44 3 -104 3c-82 0 -110 -3 -120 -3c-6 0 -9 2 -8 10l2 22c2 6 4 8 10 8h36c26 0 41 24 46 45l18 77h-136
c-4 0 -6 4 -5 9l3 22c0 3 4 6 10 6h134l12 57h-137c-6 0 -8 3 -7 8l3 26c0 4 3 5 9 5h122l-4 12l-81 253c-6 18 -23 36 -47 36h-23c-5 0 -5 3 -5 6l3 28c1 4 3 6 9 6c12 0 38 -3 116 -3c56 0 88 3 100 3c6 0 9 -2 9 -7l-3 -27c0 -4 -2 -6 -8 -6h-18c-34 0 -30 -26 -28 -34
l60 -245c2 -12 12 -14 16 -4c10 16 132 200 144 234s2 49 -30 49h-24c-6 0 -8 4 -7 9l3 23c1 6 2 8 10 8c14 0 50 -3 104 -3c52 0 80 3 92 3c8 0 10 -4 9 -10l-2 -22c-1 -6 -3 -8 -7 -8h-18c-26 0 -44 -16 -62 -36c-20 -21 -172 -245 -186 -265h124c6 0 9 -2 8 -6l-4 -24
c-1 -5 -4 -9 -12 -9h-136z" />
    <glyph glyph-name="florin" unicode="&#x192;" 
d="M310 318l-54 -170c-60 -198 -138 -278 -246 -278c-56 0 -84 28 -84 62c0 22 18 42 40 42c30 0 40 -20 48 -40c6 -16 18 -24 34 -24c50 0 64 62 108 222l50 186h-68c-8 0 -8 4 -8 8l8 24c2 4 4 6 10 6h68c28 85 50 153 116 217c40 42 92 72 160 72c60 0 94 -32 94 -68
c0 -24 -22 -42 -50 -42c-26 0 -38 20 -42 46c-2 10 -12 24 -36 24c-56 0 -96 -66 -140 -249h98c6 0 10 -2 8 -6l-8 -26c-2 -4 -6 -6 -12 -6h-94z" />
    <glyph glyph-name="section" unicode="&#xa7;" 
d="M476 244c0 -82 -62 -160 -146 -200c-16 -68 -36 -106 -94 -146c-38 -26 -82 -38 -148 -38c-48 0 -84 22 -84 50s16 46 42 46s40 -10 50 -30c10 -18 26 -26 46 -26c34 0 108 38 108 122c-4 56 -34 94 -98 162c-30 32 -66 76 -64 146c0 65 62 149 144 180
c8 31 22 79 74 125c48 42 100 50 150 50c54 0 84 -28 84 -54c0 -28 -18 -44 -46 -44c-26 0 -40 12 -52 38c-8 16 -20 24 -36 24c-42 0 -92 -52 -92 -111c0 -42 12 -68 88 -142c32 -30 74 -76 74 -152zM392 200c0 36 -10 64 -44 108c-32 40 -112 94 -114 168
c-46 -22 -68 -64 -68 -114c0 -26 14 -54 28 -72c56 -70 134 -134 134 -210c48 30 64 76 64 120z" />
    <glyph glyph-name="currency" unicode="&#xa4;" 
d="M473 86l-89 82c-28 -20 -75 -29 -109 -29c-30 0 -76 9 -104 35l-86 -88c-3 -4 -10 -2 -12 0l-28 32c-4 4 -4 8 0 12l88 84c-16 15 -35 59 -35 96c0 42 13 87 42 115l-93 83c-5 5 -4 10 0 14l27 28c3 4 7 4 11 0l93 -86c29 22 72 33 109 33c32 0 75 -11 97 -30l89 83
c4 3 7 3 10 0l27 -25c4 -4 4 -10 1 -13l-86 -83c22 -24 39 -69 39 -104c0 -43 -13 -89 -37 -117l86 -82c2 -2 2 -8 0 -10l-28 -30c-4 -4 -8 -4 -12 0zM281 201c62 0 101 45 101 117c0 70 -41 115 -101 115c-64 0 -101 -47 -101 -115c0 -71 43 -117 101 -117z" />
    <glyph glyph-name="quotesingle" unicode="'" horiz-adv-x="142" 
d="M158 449l-28 8c10 40 30 170 38 198c10 24 30 30 54 30c20 0 34 -12 34 -34c0 -16 -70 -140 -98 -202z" />
    <glyph glyph-name="quotedblleft" unicode="&#x201c;" horiz-adv-x="332" 
d="M128 541c0 108 124 144 146 144c7 0 11 0 12 -8c2 -11 -1 -14 -10 -16c-24 -6 -78 -38 -78 -78c0 -22 6 -32 22 -48c6 -4 28 -20 28 -42c0 -28 -16 -48 -44 -48c-52 0 -76 60 -76 96zM280 541c0 108 126 144 146 144c7 0 11 -2 12 -8c2 -11 -2 -14 -10 -16
c-24 -6 -78 -38 -78 -78c0 -22 6 -32 22 -48c6 -4 28 -20 28 -42c0 -28 -16 -48 -44 -48c-52 0 -76 60 -76 96z" />
    <glyph glyph-name="guillemotleft" unicode="&#xab;" horiz-adv-x="378" 
d="M233 349l-87 -121l57 -122c3 -6 5 -6 5 -8s-2 -6 -4 -8l-12 -10c-2 -2 -4 -2 -4 -2c-2 0 -6 0 -9 3l-123 137c-2 2 -4 4 -4 6s2 4 4 6l156 146c2 2 4 4 6 4s2 -2 4 -4l12 -10c2 -2 4 -6 4 -8s-2 -4 -5 -9zM373 350l-87 -122l57 -122c3 -6 5 -6 5 -8s-2 -6 -4 -8l-12 -10
c0 -2 -2 -2 -4 -2s-4 0 -6 4l-126 136c-2 2 -4 4 -4 6s2 4 6 6l154 146c2 2 4 4 6 4s4 -2 6 -4l10 -10c2 -2 4 -6 4 -8s-2 -4 -5 -8z" />
    <glyph glyph-name="guilsinglleft" unicode="&#x2039;" horiz-adv-x="238" 
d="M182 80l-126 136c-2 2 -4 4 -4 6s2 4 6 8l154 144c2 2 4 4 6 4s4 0 6 -2l10 -12c2 -2 4 -4 4 -6s0 -6 -4 -10l-88 -120l60 -123c2 -5 2 -7 2 -9s-2 -4 -4 -6l-12 -12s-2 -2 -4 -2s-4 2 -6 4z" />
    <glyph glyph-name="guilsinglright" unicode="&#x203a;" horiz-adv-x="238" 
d="M212 226l-154 -144c-2 -2 -4 -4 -6 -4s-4 0 -6 2l-10 12c-2 2 -4 4 -4 6s2 4 5 9l87 121l-58 124c-2 4 -4 6 -4 8s2 4 4 6l12 12s2 2 4 2s4 -2 6 -4l126 -136c2 -2 4 -4 4 -6s-2 -4 -6 -8z" />
    <glyph glyph-name="endash" unicode="&#x2013;" 
d="M516 214h-500v64h500v-64z" />
    <glyph glyph-name="dagger" unicode="&#x2020;" 
d="M170 -140h-14c-8 0 -8 4 -6 12c24 94 64 352 58 398c14 14 54 46 72 118c-58 0 -146 -36 -170 -36c-34 0 -40 18 -40 34c0 36 24 62 56 62s102 -32 162 -32c18 76 12 178 20 212c8 36 36 57 70 57c36 0 44 -23 44 -38c0 -41 -76 -155 -96 -231c58 0 134 32 166 32
c26 0 40 -18 40 -42c0 -30 -20 -54 -48 -54c-32 0 -106 36 -166 36c-18 -70 4 -98 12 -114c-30 -50 -130 -332 -150 -406c0 -6 -2 -8 -10 -8z" />
    <glyph glyph-name="daggerdbl" unicode="&#x2021;" 
d="M328 270c-20 -26 -50 -68 -64 -112c60 0 142 32 172 32c28 0 36 -18 36 -34c0 -36 -20 -56 -48 -56c-38 0 -106 28 -170 28c-18 -74 -12 -176 -22 -216c-8 -34 -32 -52 -66 -52s-42 16 -42 36c0 42 74 158 94 232c-60 0 -150 -28 -174 -28c-22 0 -32 16 -32 38
c0 28 18 52 48 52s104 -32 166 -32c12 42 4 88 -2 112c24 30 52 72 64 118c-62 0 -148 -34 -178 -34c-28 0 -34 16 -34 43c0 23 16 49 44 49c42 0 112 -28 174 -28c20 74 8 176 18 214c8 34 38 53 72 53c38 0 42 -22 42 -38c0 -39 -76 -155 -96 -229c62 0 146 28 170 28
c30 0 38 -18 38 -38c0 -28 -24 -54 -50 -54c-28 0 -104 34 -164 34c-12 -46 -4 -86 4 -118z" />
    <glyph glyph-name="periodcentered" unicode="&#xb7;" horiz-adv-x="250" 
d="M168 280c-36 0 -64 26 -64 64c0 28 22 64 64 64c50 0 66 -42 66 -66c0 -32 -26 -62 -66 -62z" />
    <glyph glyph-name="paragraph" unicode="&#xb6;" 
d="M216 -124l86 330c-110 0 -264 48 -210 234c46 156 272 216 434 236c48 6 72 9 90 9c6 0 8 -2 8 -8l-6 -21c-2 -6 -4 -8 -10 -8c-12 -2 -38 -6 -50 -8l-203 -773c-1 -5 -3 -7 -9 -7h-28c-6 0 -7 2 -4 12l198 764c-12 -2 -44 -8 -60 -12l-194 -756c-1 -6 -3 -8 -7 -8h-35
c-3 0 -4 4 0 16z" />
    <glyph glyph-name="bullet" unicode="&#x2022;" horiz-adv-x="352" 
d="M212 206c-58 0 -116 40 -116 110c0 74 54 126 122 126c74 0 122 -42 122 -116s-58 -120 -128 -120z" />
    <glyph glyph-name="quotesinglbase" unicode="&#x201a;" horiz-adv-x="178" 
d="M62 128c52 0 76 -60 76 -96c0 -108 -124 -142 -144 -142c-6 0 -11 1 -12 8c-2 10 2 12 10 14c24 6 78 38 78 78c0 24 -8 32 -22 48c-6 4 -28 20 -28 42c0 28 16 48 42 48z" />
    <glyph glyph-name="quotedblbase" unicode="&#x201e;" horiz-adv-x="332" 
d="M136 32c0 -108 -124 -142 -146 -142c-6 0 -12 1 -12 8c0 10 4 12 12 14c24 6 78 36 78 78c0 24 -8 32 -24 48c-4 4 -28 20 -28 42c0 28 16 48 44 48c52 0 76 -60 76 -96zM291 32c0 -108 -124 -142 -146 -142c-6 0 -11 3 -11 10c-1 8 3 10 11 12c24 6 78 38 78 78
c0 24 -8 32 -24 48c-4 4 -28 20 -28 42c0 28 18 48 44 48c52 0 76 -60 76 -96z" />
    <glyph glyph-name="quotedblright" unicode="&#x201d;" horiz-adv-x="332" 
d="M255 589c0 -110 -124 -144 -146 -144c-4 0 -10 -2 -10 8c-2 12 2 14 10 16c24 6 78 34 78 78c0 22 -8 30 -22 48c-6 4 -28 18 -28 40c0 28 16 50 42 50c52 0 76 -62 76 -96zM410 589c0 -110 -124 -144 -146 -144c-4 0 -8 -2 -10 8c-2 12 2 14 10 16c24 6 78 36 78 78
c0 22 -8 30 -22 48c-6 4 -28 18 -28 40c0 28 16 50 42 50c52 0 76 -62 76 -96z" />
    <glyph glyph-name="guillemotright" unicode="&#xbb;" horiz-adv-x="378" 
d="M37 106l87 122l-58 124c-2 4 -4 6 -4 8s2 4 4 6l12 12s2 2 4 2s4 -2 6 -4l126 -136c2 -2 4 -4 4 -6s-2 -4 -6 -8l-154 -144c-2 -2 -4 -4 -6 -4s-4 0 -6 2l-10 12c-2 2 -4 4 -4 6s2 4 5 8zM177 107l87 121l-58 124c-2 4 -4 6 -4 8s2 4 4 6l12 12c2 0 4 2 4 2
c2 0 6 -2 8 -4l124 -136c2 -2 4 -4 4 -6s-2 -4 -4 -8l-156 -144c-2 -2 -4 -4 -6 -4s-2 0 -4 2l-12 12c-2 2 -4 4 -4 6s2 4 5 9z" />
    <glyph glyph-name="ellipsis" unicode="&#x2026;" horiz-adv-x="1000" 
d="M131 -10c-34 0 -60 26 -60 62c0 24 20 58 60 58c50 0 64 -40 64 -60c0 -30 -24 -60 -64 -60zM798 -10c-36 0 -61 26 -61 62c0 24 19 58 59 58c50 0 65 -40 65 -60c0 -30 -25 -60 -63 -60zM464 -10c-34 0 -60 26 -60 62c0 24 18 58 60 58c48 0 64 -40 64 -60
c0 -30 -26 -60 -64 -60z" />
    <glyph glyph-name="perthousand" unicode="&#x2030;" horiz-adv-x="1082" 
d="M324 563c0 32 -14 48 -40 50c-70 0 -146 -202 -146 -276c0 -34 18 -56 38 -56c74 0 148 210 148 282zM388 539c0 -134 -84 -288 -208 -288c-76 0 -106 50 -106 116c0 118 82 278 212 278c72 0 102 -46 102 -106zM600 643l26 -16c2 -2 4 -4 4 -6s-2 -6 -4 -10l-406 -618
c-3 -5 -6 -8 -10 -8c-2 0 -4 1 -8 4l-22 16c-2 2 -4 4 -4 8c0 2 1 5 4 10l406 618c2 2 4 4 8 4c2 0 5 -1 6 -2zM730 279c0 -132 -84 -286 -208 -286c-76 0 -108 50 -108 118c0 118 84 276 212 276c74 0 104 -46 104 -108zM666 303c0 34 -14 50 -40 50
c-70 0 -146 -200 -146 -274c0 -34 18 -56 38 -56c74 0 148 210 148 280zM1068 279c0 -132 -84 -286 -208 -286c-76 0 -108 50 -108 118c0 118 84 276 212 276c74 0 104 -46 104 -108zM1004 303c0 34 -14 50 -40 50c-70 0 -146 -200 -146 -274c0 -34 18 -56 38 -56
c74 0 148 210 148 280z" />
    <glyph glyph-name="questiondown" unicode="&#xbf;" horiz-adv-x="426" 
d="M160 162l-10 10c-2 2 -2 6 -2 8c14 18 58 62 110 62c54 0 102 -32 102 -106c0 -92 -106 -146 -154 -172c-70 -40 -124 -68 -124 -143c0 -28 24 -80 90 -80c64 0 116 36 116 88c0 32 -20 42 -30 42c-6 0 -12 -2 -16 -8c4 -8 4 -12 4 -20c0 -22 -16 -50 -52 -50
c-28 0 -42 22 -42 44c0 48 46 76 88 76s88 -22 88 -82c0 -56 -58 -128 -162 -128c-134 0 -158 96 -158 131c0 130 94 196 192 232c70 28 116 50 116 86c0 28 -22 44 -64 44s-76 -26 -84 -36c-4 -2 -6 -2 -8 2zM298 300c-28 0 -58 20 -58 56c0 28 18 60 56 60
c34 0 58 -26 58 -60c0 -22 -22 -56 -56 -56z" />
    <glyph glyph-name="grave" unicode="`" horiz-adv-x="240" 
d="M250 470l-120 84c-36 26 -14 72 18 72c18 0 28 -12 38 -24l82 -115c2 -3 3 -6 1 -8l-9 -9c-2 -2 -6 -2 -10 0z" />
    <glyph glyph-name="acute" unicode="&#xb4;" horiz-adv-x="240" 
d="M256 536l-152 -66c-4 -2 -7 -2 -8 0l-7 9c-2 3 -1 5 1 7l120 106c14 12 28 20 42 20c32 0 52 -55 4 -76z" />
    <glyph glyph-name="circumflex" unicode="&#x2c6;" horiz-adv-x="280" 
d="M277 476l-60 66l-103 -65c-4 -2 -7 -2 -9 1l-6 8c-2 2 -1 5 2 8l131 143c5 5 11 3 14 -5l49 -144c1 -4 0 -6 -2 -7l-8 -5c-4 -2 -6 -2 -8 0z" />
    <glyph glyph-name="tilde" unicode="&#x2dc;" horiz-adv-x="300" 
d="M334 594l14 -8c4 -2 4 -8 -2 -18c-18 -34 -50 -68 -78 -68c-20 0 -38 4 -62 11c-20 5 -30 9 -44 9c-18 0 -42 -18 -52 -36c-2 -4 -4 -6 -8 -4l-12 8c-2 2 -2 6 0 10c14 38 50 80 84 80c16 0 30 -4 54 -11c18 -5 30 -7 52 -7s38 16 46 30c2 4 4 6 8 4z" />
    <glyph glyph-name="macron" unicode="&#xaf;" horiz-adv-x="280" 
d="M112 560h192c6 0 10 0 10 -6v-38c0 -4 -4 -6 -10 -6h-194c-6 0 -8 2 -8 6v38c0 6 4 6 10 6z" />
    <glyph glyph-name="breve" unicode="&#x2d8;" horiz-adv-x="295" 
d="M331 588l10 -4c4 -2 4 -6 0 -14c-24 -46 -68 -94 -138 -94c-46 0 -88 32 -94 98c0 8 0 10 4 12l10 2c4 2 6 -2 10 -8c16 -30 52 -42 86 -42c52 0 84 26 100 44c6 6 8 10 12 6z" />
    <glyph glyph-name="dotaccent" unicode="&#x2d9;" horiz-adv-x="180" 
d="M158 537c-40 0 -58 29 -58 54c0 27 25 54 56 54c40 0 61 -25 61 -50c0 -23 -23 -58 -59 -58z" />
    <glyph glyph-name="dieresis" unicode="&#xa8;" horiz-adv-x="325" 
d="M156 537c-20 0 -50 8 -50 46c0 14 10 42 50 42c24 0 46 -16 46 -46c0 -26 -20 -42 -46 -42zM314 537c-20 0 -50 8 -50 46c0 14 10 42 50 42c24 0 46 -16 46 -46c0 -26 -20 -42 -46 -42z" />
    <glyph glyph-name="ring" unicode="&#x2da;" horiz-adv-x="280" 
d="M212 484c-52 0 -102 26 -102 72c0 52 58 80 108 80s100 -22 100 -76c0 -48 -52 -76 -106 -76zM170 558c0 -32 24 -48 46 -48s44 16 44 50c0 38 -28 50 -46 50c-20 0 -44 -16 -44 -52z" />
    <glyph glyph-name="cedilla" unicode="&#xb8;" horiz-adv-x="280" 
d="M118 0l-52 -70c38 -12 58 -30 58 -60c0 -58 -108 -86 -150 -86c-16 0 -20 8 -20 18c0 12 8 16 18 16c38 0 74 24 74 48c0 16 -14 34 -38 44l68 90h42z" />
    <glyph glyph-name="hungarumlaut" unicode="&#x2dd;" horiz-adv-x="340" 
d="M212 490l102 102c8 10 20 20 36 20c28 0 48 -44 14 -64l-140 -76c-4 -2 -6 -2 -9 1l-7 9c-4 2 0 6 4 8zM94 490l88 110c8 12 20 24 36 24c34 0 42 -44 16 -62l-123 -89c-5 -3 -7 -5 -11 -1l-9 7c-3 3 -1 7 3 11z" />
    <glyph glyph-name="ogonek" unicode="&#x2db;" horiz-adv-x="260" 
d="M159 -187c0 -6 -28 -25 -60 -25c-76 0 -136 4 -136 72c0 70 101 122 145 140h34c-64 -57 -92 -53 -92 -126c0 -44 45 -56 69 -56c8 0 27 9 32 9c4 0 8 -9 8 -14z" />
    <glyph glyph-name="caron" unicode="&#x2c7;" horiz-adv-x="280" 
d="M210 568l104 65c2 1 5 1 7 -2l7 -9c1 -2 1 -4 -3 -8l-129 -142c-6 -4 -12 -2 -14 4l-49 146c-1 2 -1 7 1 8l9 6c2 1 5 0 7 -2z" />
    <glyph glyph-name="emdash" unicode="&#x2014;" horiz-adv-x="1000" 
d="M16 214v64h1000v-64h-1000z" />
    <glyph glyph-name="AE" unicode="&#xc6;" horiz-adv-x="956" 
d="M914 160l-50 -145c-6 -16 -10 -18 -22 -18c-9 0 -57 1 -121 2c-64 0 -144 1 -215 1h-92c-49 0 -78 0 -97 -1c-18 -1 -25 -2 -29 -2c-8 0 -12 6 -10 12l2 20c2 6 4 8 8 8h38c38 0 60 19 70 53l68 218h-180l-140 -166c-30 -36 -52 -68 -52 -81c0 -16 14 -24 32 -24h30
c6 0 8 -4 6 -10l-2 -20c-2 -6 -4 -10 -12 -10c-10 0 -52 3 -122 3c-78 0 -112 -3 -124 -3c-4 0 -8 4 -8 12l4 20c2 6 4 8 8 8h18c40 0 87 28 126 71l460 508c6 7 4 17 -8 17h-38c-7 0 -11 4 -9 9l8 25c1 4 5 6 11 6s33 -1 61 -1c28 -1 57 -2 67 -2h102c72 0 124 1 161 2
c36 0 57 1 67 1c14 0 16 -4 20 -19l32 -136c1 -6 0 -6 -4 -10l-12 -6c-6 -2 -8 0 -12 6l-104 117c-4 8 -10 9 -18 9h-150l-94 -290h96c46 0 82 6 118 82c2 6 4 8 8 6l18 -4c4 -2 6 -4 4 -8c-16 -38 -48 -160 -52 -200c-2 -6 -4 -6 -8 -6l-18 2c-6 0 -6 2 -6 8
c0 72 -38 84 -110 84h-60l-86 -272h218c34 0 58 12 88 38c22 18 76 86 90 104c4 4 7 5 12 2l12 -8c4 -2 6 -4 2 -12zM476 344l80 250c4 14 -4 16 -10 8l-230 -258h160z" />
    <glyph glyph-name="ordfeminine" unicode="&#xaa;" horiz-adv-x="352" 
d="M325 533h47c4 0 6 -2 6 -4c0 -3 -2 -7 -3 -11c-3 -6 -24 -59 -44 -110c-18 -46 -35 -93 -35 -102c0 -6 3 -9 8 -9c8 0 30 18 47 35c4 4 8 4 11 1l10 -7c2 -2 2 -6 0 -10c-16 -21 -68 -65 -126 -65c-16 0 -25 7 -25 18s5 28 26 81l-7 3c-21 -34 -80 -102 -138 -102
c-33 0 -56 23 -56 61c0 85 107 227 208 227c33 0 44 -16 52 -28c13 20 14 22 19 22zM121 330c0 -19 8 -31 22 -31c21 0 79 57 109 109c17 29 26 52 26 69c0 18 -7 33 -35 33c-55 0 -122 -124 -122 -180z" />
    <glyph glyph-name="Lslash" unicode="&#x141;" horiz-adv-x="648" 
d="M626 166c-4 -14 -41 -132 -48 -164c-3 -12 -8 -18 -12 -18c-6 0 -16 4 -26 6c-12 4 -24 6 -38 6c-22 0 -148 4 -288 4c-47 0 -96 0 -134 -1c-39 -1 -63 -2 -72 -2c-6 0 -10 2 -9 8l5 25c1 4 3 7 8 7h20c38 0 58 10 78 71l64 200l-94 -22c-6 -2 -8 0 -8 4l-8 28
c0 4 2 6 6 6l116 28l68 219c14 44 4 62 -38 62h-34c-5 0 -7 4 -6 10l6 24c1 5 4 6 12 6c12 0 54 -3 142 -3c96 0 142 3 152 3c6 0 9 -4 8 -10l-4 -22c-1 -6 -6 -8 -12 -8h-40c-36 0 -54 -10 -71 -65l-59 -190l180 41c4 0 8 0 8 -4l6 -26c2 -6 0 -8 -4 -10l-204 -47l-84 -268
c-7 -21 4 -27 24 -27h60c70 0 144 1 164 4c18 3 26 8 39 20c29 25 93 105 97 113c2 6 6 8 10 6l14 -6c6 -2 8 -4 6 -8z" />
    <glyph glyph-name="Oslash" unicode="&#xd8;" horiz-adv-x="726" 
d="M691 662l-42 -50c52 -50 80 -134 80 -213c0 -204 -138 -414 -366 -414c-36 0 -112 2 -170 55l-40 -54c-4 -4 -6 -4 -10 -2l-22 20c-4 4 -2 6 0 8l44 56c-50 56 -72 134 -72 203c0 216 144 414 368 414c60 0 116 -16 156 -46l42 51c2 4 4 4 8 2l24 -18c4 -2 4 -6 0 -12z
M603 554l-372 -470c26 -34 68 -54 110 -54c148 0 280 226 280 438c0 40 -6 68 -18 86zM209 122l372 470c-20 27 -56 45 -98 45c-60 0 -108 -30 -148 -76c-80 -88 -140 -242 -140 -347c0 -38 6 -66 14 -92z" />
    <glyph glyph-name="OE" unicode="&#x152;" horiz-adv-x="1081" 
d="M1039 158l-51 -144c-5 -15 -9 -17 -21 -17c-8 0 -43 0 -93 1c-49 1 -112 2 -175 2h-168c-28 0 -56 -4 -84 -8c-30 -2 -58 -7 -86 -7c-56 0 -134 15 -182 63c-56 54 -86 118 -86 210c0 134 60 246 136 316c68 64 170 111 300 111c42 0 79 -4 113 -7c34 -4 65 -8 97 -8h96
c65 0 115 1 151 2c36 0 58 1 69 1c14 0 16 -3 20 -19l32 -138c2 -4 0 -6 -4 -8l-12 -6c-6 -2 -8 0 -12 4l-104 121c-4 6 -10 8 -18 8h-150l-84 -261h86c44 0 80 6 116 82c4 6 6 8 10 8l16 -6c4 0 6 -4 6 -8c-16 -36 -48 -160 -54 -198c0 -6 -4 -8 -8 -6h-18c-4 2 -4 4 -4 10
c-2 72 -40 83 -110 83h-50l-98 -303h218c36 0 57 14 90 40c20 16 76 84 90 100c4 6 8 6 12 4l12 -8c4 -2 6 -4 2 -14zM535 148l130 414c16 50 -42 75 -112 75c-90 0 -154 -39 -206 -91c-88 -86 -152 -232 -152 -340c0 -118 74 -177 148 -177c90 0 164 31 192 119z" />
    <glyph glyph-name="ordmasculine" unicode="&#xba;" horiz-adv-x="336" 
d="M168 251c-49 0 -102 28 -102 108c0 58 41 180 174 180c61 0 100 -46 100 -92c0 -78 -44 -196 -172 -196zM165 288c54 0 118 131 118 176c0 21 -14 36 -40 36c-57 0 -115 -113 -115 -176c0 -19 14 -36 37 -36z" />
    <glyph glyph-name="ae" unicode="&#xe6;" horiz-adv-x="570" 
d="M502 108l12 -10c4 -2 6 -4 2 -10c-22 -34 -90 -98 -182 -98c-60 0 -92 36 -100 85c-46 -37 -110 -85 -172 -85c-30 0 -54 30 -54 56c0 126 161 292 298 340c68 24 131 30 178 30c70 0 94 -32 94 -68c0 -43 -32 -83 -83 -121c-61 -46 -121 -75 -163 -97v-30
c4 -22 20 -51 54 -51c46 0 84 27 106 59c2 2 6 4 10 0zM336 166c22 14 72 44 110 82c24 24 44 54 44 85c0 23 -10 37 -34 37c-46 0 -104 -102 -120 -204zM106 90c0 -20 10 -34 28 -34c24 0 56 22 98 56c12 102 68 184 108 220c8 8 12 16 10 20c0 6 -6 7 -10 7
c-26 0 -88 -35 -142 -95c-60 -68 -90 -140 -92 -174z" />
    <glyph glyph-name="dotlessi" unicode="&#x131;" horiz-adv-x="292" 
d="M232 280l-56 -152c-14 -38 -18 -54 -18 -64c0 -8 4 -14 12 -14c20 2 72 56 78 64c2 4 6 4 9 1l11 -11c4 -4 6 -6 2 -10c-6 -8 -76 -104 -185 -104c-21 0 -29 12 -29 28c0 20 18 66 56 178l28 78c8 28 16 46 16 58c0 8 -4 12 -12 12c-16 0 -62 -52 -76 -68
c-4 -4 -8 -4 -12 0l-10 9c-4 3 -6 5 -4 9c6 6 96 122 184 122c24 0 36 -12 36 -32s-12 -57 -30 -104z" />
    <glyph glyph-name="lslash" unicode="&#x142;" horiz-adv-x="288" 
d="M360 382c2 -4 -2 -6 -8 -8l-120 -28l-86 -232c-10 -26 -18 -60 0 -60c20 0 60 38 74 52c2 2 6 2 9 -1l13 -11c2 -4 2 -6 -2 -12s-88 -92 -176 -92c-16 0 -34 16 -34 34c0 16 21 74 32 104l74 196l-80 -18c-4 -2 -8 0 -10 4l-4 24c-2 6 2 8 4 8l104 26l78 211
c13 35 14 60 -20 60h-27c-5 0 -7 3 -6 8l5 22c1 5 4 6 9 6h155c7 0 10 -5 8 -11l-104 -276l98 24c4 2 8 0 8 -4z" />
    <glyph glyph-name="oslash" unicode="&#xf8;" horiz-adv-x="410" 
d="M42 -14l-18 18c-2 2 -1 5 2 8l34 36c-10 22 -20 50 -20 78c0 78 26 166 82 226c40 42 90 64 144 64c30 0 62 -10 84 -32l28 36c2 3 6 4 8 2l20 -16c3 -3 3 -7 0 -10l-32 -38c8 -20 16 -42 16 -70c0 -62 -26 -162 -84 -230c-40 -44 -88 -68 -148 -68c-28 0 -54 12 -74 32
l-31 -36c-3 -3 -7 -4 -11 0zM330 312l-213 -254c7 -8 17 -14 29 -14c38 0 80 36 118 96c34 52 66 134 69 169zM104 91l212 257c-3 8 -14 16 -32 16c-40 0 -74 -26 -128 -114c-42 -64 -54 -128 -53 -158z" />
    <glyph glyph-name="oe" unicode="&#x153;" horiz-adv-x="598" 
d="M532 108l12 -8c4 -4 4 -6 0 -10c-20 -36 -82 -100 -170 -100c-44 0 -80 26 -94 66c-30 -40 -86 -66 -126 -66c-38 0 -114 28 -114 148c0 70 32 156 84 214c39 42 87 64 140 64c44 0 96 -22 106 -89h3c47 57 110 89 166 89c46 0 69 -30 69 -56c0 -54 -34 -97 -90 -129
c-52 -30 -106 -40 -148 -44c-4 -10 -12 -39 -12 -77c0 -36 26 -62 54 -62c50 0 85 26 110 60c2 2 6 4 10 0zM378 220c22 0 70 12 104 42c22 18 40 46 40 70c0 20 -10 38 -28 38c-56 0 -106 -104 -116 -150zM144 44c44 0 74 32 106 80c38 58 75 148 75 194
c0 24 -14 44 -43 44c-37 0 -81 -42 -121 -109c-31 -53 -59 -117 -59 -161c0 -27 21 -48 42 -48z" />
    <glyph glyph-name="germandbls" unicode="&#xdf;" horiz-adv-x="475" 
d="M292 -10c-64 0 -100 24 -100 58c0 20 16 42 38 42c24 0 38 -16 46 -40c4 -18 14 -28 32 -28c30 0 52 24 52 66c2 36 -30 76 -42 102c-18 28 -40 60 -40 104c0 62 54 108 82 138c48 48 60 94 60 145c0 36 -22 68 -58 68c-80 0 -111 -134 -145 -262
c-24 -94 -74 -286 -119 -416c-46 -130 -134 -264 -250 -264c-46 0 -80 26 -80 60c0 30 16 50 46 50c28 0 44 -26 48 -48c2 -12 10 -20 24 -20c40 0 79 74 125 220c24 76 84 336 106 402c26 86 52 174 121 250c26 28 90 68 154 68c80 0 118 -40 118 -91
c0 -64 -44 -114 -96 -160c-26 -22 -60 -48 -60 -94c0 -38 24 -72 42 -98c16 -20 44 -68 44 -118c0 -78 -62 -134 -148 -134z" />
    <glyph glyph-name="onesuperior" unicode="&#xb9;" horiz-adv-x="332" 
d="M288 409l-4 -20c0 -4 -2 -4 -6 -4s-76 2 -96 2c-28 0 -102 -2 -108 -2c-2 0 -4 2 -2 4l2 20c2 2 4 4 8 4h26c18 0 34 2 46 26c6 8 9 24 22 64l42 131c12 36 16 46 16 50c0 6 -2 8 -8 8s-16 -2 -36 -10l-34 -10c-4 -2 -6 0 -8 4l-6 14c0 2 0 4 4 6l160 70c12 5 20 8 26 8
s10 -4 10 -8s-2 -10 -4 -18c-12 -28 -36 -100 -52 -149l-29 -88c-13 -40 -21 -64 -23 -74c-2 -16 2 -24 22 -24h26c6 0 6 -2 6 -4z" />
    <glyph glyph-name="logicalnot" unicode="&#xac;" 
d="M396 294h-324v64h392v-234h-68v170z" />
    <glyph glyph-name="mu" unicode="&#xb5;" 
d="M84 -10l-22 -58c-20 -58 -30 -82 -40 -110c-8 -22 -42 -40 -92 -40c-20 0 -30 16 -8 38c42 44 82 162 104 216c6 12 56 146 84 211c22 50 30 87 30 103c2 14 -4 30 -4 40c2 14 16 26 58 26c28 0 46 -20 46 -42s-22 -76 -60 -166c-26 -60 -48 -112 -48 -132
c0 -12 8 -20 22 -20c32 0 130 120 156 162c18 28 34 56 44 82c18 46 24 82 24 94c0 14 14 22 62 22c30 0 34 -14 34 -32c0 -22 -32 -90 -69 -196c-27 -78 -37 -106 -37 -120c0 -10 8 -18 16 -18c16 0 54 46 62 58c2 4 6 4 10 0l10 -8c2 -4 2 -6 0 -10s-70 -100 -148 -100
c-28 0 -44 12 -44 40c0 22 40 120 50 142l-10 6c-32 -48 -136 -198 -230 -188z" />
    <glyph glyph-name="mu" unicode="&#x3bc;" 
d="M84 -10l-22 -58c-20 -58 -30 -82 -40 -110c-8 -22 -42 -40 -92 -40c-20 0 -30 16 -8 38c42 44 82 162 104 216c6 12 56 146 84 211c22 50 30 87 30 103c2 14 -4 30 -4 40c2 14 16 26 58 26c28 0 46 -20 46 -42s-22 -76 -60 -166c-26 -60 -48 -112 -48 -132
c0 -12 8 -20 22 -20c32 0 130 120 156 162c18 28 34 56 44 82c18 46 24 82 24 94c0 14 14 22 62 22c30 0 34 -14 34 -32c0 -22 -32 -90 -69 -196c-27 -78 -37 -106 -37 -120c0 -10 8 -18 16 -18c16 0 54 46 62 58c2 4 6 4 10 0l10 -8c2 -4 2 -6 0 -10s-70 -100 -148 -100
c-28 0 -44 12 -44 40c0 22 40 120 50 142l-10 6c-32 -48 -136 -198 -230 -188z" />
    <glyph glyph-name="trademark" unicode="&#x2122;" horiz-adv-x="854" 
d="M312 642l-46 -176c-12 -48 -20 -82 -22 -92c0 -12 2 -20 14 -20h23c4 0 6 -2 5 -5l-5 -18c-1 -3 -3 -5 -7 -5c-6 0 -48 2 -78 2c-26 0 -74 -2 -80 -2c-4 0 -5 2 -4 6l4 18c1 3 3 4 7 4h25c10 0 18 6 22 14c2 10 12 42 22 86l48 188c-18 0 -54 2 -72 -4
c-22 -10 -44 -32 -56 -48c-4 -6 -6 -8 -10 -6l-10 4c-2 2 -2 4 0 8c8 16 38 80 40 84c2 6 5 8 8 8c4 0 6 -2 9 -5l3 -3c6 -4 12 -6 24 -6c30 -2 62 -4 106 -4c42 0 86 2 116 4c10 0 18 2 26 6l10 6c2 2 4 2 6 2c3 0 4 -2 4 -8s-8 -66 -10 -90c0 -4 -1 -5 -4 -6l-12 -2
c-3 -1 -5 1 -6 6c-2 12 -10 38 -26 48c-18 8 -56 6 -74 6zM544 642l-34 -134c-8 -32 -22 -84 -30 -118c-4 -28 6 -36 21 -36h11c2 0 5 -2 4 -6l-4 -16c-1 -4 -3 -6 -7 -6c-6 0 -39 2 -59 2c-22 0 -58 -2 -62 -2s-5 3 -4 6l4 16c1 4 3 6 6 6h10c16 0 32 12 38 28
c16 36 35 112 48 160l20 72c4 20 -4 26 -20 26h-13c-4 0 -6 2 -5 6l4 20c1 4 4 6 8 6s40 -2 58 -2c28 0 48 2 62 2c10 0 16 -2 16 -10l30 -220l4 1l148 219c6 9 14 8 22 8c90 0 106 2 110 2s5 -2 4 -5l-3 -22c-1 -3 -3 -5 -6 -5h-14c-13 0 -21 -8 -23 -12
c-4 -12 -28 -112 -32 -132c-4 -18 -24 -102 -28 -116s0 -26 10 -26h20c4 0 6 -3 5 -7l-4 -15c-1 -4 -3 -6 -9 -6c-5 0 -46 2 -72 2c-28 0 -74 -2 -78 -2c-3 0 -5 2 -5 6l3 16c1 4 3 6 7 6h19c16 0 24 8 30 20c10 20 20 82 28 118l40 148h-4l-202 -294c-5 -7 -10 -12 -18 -12
c-6 0 -8 2 -8 8l-42 300h-4z" />
    <glyph glyph-name="Eth" unicode="&#xd0;" horiz-adv-x="796" 
d="M176 326h-100c-6 0 -10 2 -8 8l8 26c2 4 4 6 10 6h100l53 217c9 38 -17 50 -43 50h-44c-7 0 -9 3 -8 8l6 22c1 5 4 7 13 7c67 0 131 3 195 3c134 0 274 -11 358 -93c62 -64 74 -120 74 -182c0 -196 -124 -294 -185 -329c-129 -74 -267 -72 -333 -72c-28 0 -102 3 -130 3
c-92 0 -120 -3 -128 -3c-6 0 -8 4 -7 10l4 22c2 6 4 8 11 8h20c34 0 66 12 82 77zM290 326l-54 -220c-4 -18 -6 -32 -6 -42c0 -19 28 -27 56 -27c100 0 192 21 262 79c64 52 124 164 124 280c0 64 -26 128 -66 166c-34 34 -64 50 -98 60c-48 13 -86 13 -100 13
c-16 0 -42 -1 -46 -11l-62 -258h148c6 0 9 -4 8 -8l-8 -26c-1 -4 -6 -6 -14 -6h-144z" />
    <glyph glyph-name="onehalf" unicode="&#xbd;" horiz-adv-x="728" 
d="M262 280l-4 -20c0 -4 -2 -4 -6 -4s-76 2 -96 2c-28 0 -102 -2 -108 -2c-2 0 -4 2 -2 4l2 20c2 2 4 4 8 4h26c18 0 34 2 46 26c6 8 10 24 22 64l42 131c12 36 16 46 16 50c0 6 -2 8 -8 8s-16 -2 -36 -10l-34 -10c-4 -2 -6 0 -8 4l-6 14c0 2 0 4 4 6l160 70c12 6 20 8 26 8
s10 -4 10 -8s-2 -10 -4 -18c-12 -28 -35 -100 -52 -149l-30 -88c-12 -40 -20 -64 -22 -74c-2 -16 2 -24 22 -24h26c6 0 6 -2 6 -4zM586 643l26 -16c2 -2 4 -4 4 -6s-2 -6 -4 -10l-406 -618c-3 -5 -6 -8 -10 -8c-2 0 -4 1 -8 4l-22 16c-2 2 -4 4 -4 8c0 2 1 5 4 10l406 618
c2 2 4 4 8 4c2 0 5 -1 6 -2zM588 0h-170c-10 0 -14 2 -14 10c0 4 4 10 8 14c74 60 224 162 224 253c0 28 -16 58 -54 58c-36 0 -60 -32 -72 -52c-6 -8 -10 -8 -14 -8l-10 6c-4 2 -4 6 -4 10c12 28 54 96 136 96c66 0 100 -36 100 -95c0 -100 -148 -190 -208 -228l-2 -4h98
c32 0 48 12 64 40c4 4 8 4 10 2l10 -6c4 -2 4 -6 2 -8c-14 -20 -38 -78 -42 -94c0 -4 -4 -6 -8 -6c-6 0 -8 2 -12 8c-4 4 -18 4 -42 4z" />
    <glyph glyph-name="plusminus" unicode="&#xb1;" 
d="M298 150h-70v142h-162v64h162v134h70v-134h162v-64h-162v-142zM66 74h394v-64h-394v64z" />
    <glyph glyph-name="Thorn" unicode="&#xde;" horiz-adv-x="618" 
d="M244 154l-12 -46c-10 -37 -4 -71 28 -71h38c8 0 10 -4 8 -10l-2 -22c-2 -6 -4 -8 -12 -8c-12 0 -50 3 -136 3c-80 0 -116 -3 -128 -3c-8 0 -10 4 -10 10l4 22c0 6 2 8 8 8h22c44 0 57 36 68 77l120 452c8 31 12 67 -26 67h-42c-4 0 -6 4 -6 10l7 22c1 4 3 8 9 8
c10 0 64 -3 140 -3c64 0 110 3 124 3c10 0 12 -2 12 -10l-4 -20c-2 -6 -4 -10 -12 -10h-24c-30 0 -51 -24 -62 -58l-10 -31h36c96 0 152 -10 200 -50c44 -34 60 -66 60 -132c0 -104 -86 -216 -296 -216c-44 0 -76 2 -102 8zM337 506l-82 -313c17 -8 55 -12 83 -12
c128 0 186 103 186 187c0 118 -94 141 -144 141c-12 0 -32 1 -43 -3z" />
    <glyph glyph-name="onequarter" unicode="&#xbc;" horiz-adv-x="728" 
d="M614 94l-30 -84c-4 -8 -8 -10 -14 -10h-58c-4 0 -8 4 -4 14l34 80h-150c-10 0 -18 4 -18 16c0 8 6 16 18 24l292 244c4 4 14 9 22 9c12 0 16 -12 12 -23l-86 -222h56c4 0 6 -4 4 -10l-14 -30c-2 -4 -6 -8 -10 -8h-54zM558 142l48 120c6 12 0 18 -12 8l-136 -114
c-8 -8 -10 -14 -4 -14h104zM262 280l-4 -20c0 -4 -2 -4 -6 -4s-76 2 -96 2c-28 0 -102 -2 -108 -2c-2 0 -4 2 -2 4l2 20c2 2 4 4 8 4h26c18 0 34 2 46 26c6 8 10 24 22 64l42 131c12 36 16 46 16 50c0 6 -2 8 -8 8s-16 -2 -36 -10l-34 -10c-4 -2 -6 0 -8 4l-6 14
c0 2 0 4 4 6l160 70c12 6 20 8 26 8s10 -4 10 -8s-2 -10 -4 -18c-12 -28 -35 -100 -52 -149l-30 -88c-12 -40 -20 -64 -22 -74c-2 -16 2 -24 22 -24h26c6 0 6 -2 6 -4zM586 643l26 -16c2 -2 4 -4 4 -6s-2 -6 -4 -10l-406 -618c-3 -5 -6 -8 -10 -8c-2 0 -4 1 -8 4l-22 16
c-2 2 -4 4 -4 8c0 2 1 5 4 10l406 618c2 2 4 4 8 4c2 0 5 -1 6 -2z" />
    <glyph glyph-name="divide" unicode="&#xf7;" 
d="M460 276v-64h-394v64h394zM320 399c0 -30 -24 -54 -56 -54c-36 0 -58 24 -58 54s24 55 58 55c32 0 56 -25 56 -55zM320 87c0 -32 -24 -53 -56 -53s-58 21 -58 53s26 56 58 56s56 -24 56 -56z" />
    <glyph glyph-name="brokenbar" unicode="&#xa6;" horiz-adv-x="250" 
d="M140 -165v330c0 6 2 10 7 10h47c5 0 6 -4 6 -10v-330c0 -6 -2 -10 -7 -10h-47c-5 0 -6 4 -6 10zM140 335v330c0 7 1 10 6 10h46c6 0 8 -2 8 -10v-330c0 -7 -1 -10 -6 -10h-46c-6 0 -8 2 -8 10z" />
    <glyph glyph-name="degree" unicode="&#xb0;" horiz-adv-x="250" 
d="M216 501c-68 0 -104 38 -106 92c2 48 42 92 106 92c66 0 104 -40 104 -92c0 -48 -42 -92 -104 -92zM268 595c0 26 -22 52 -52 52c-32 0 -54 -26 -54 -54c0 -30 24 -56 54 -56s52 26 52 58z" />
    <glyph glyph-name="thorn" unicode="&#xfe;" horiz-adv-x="480" 
d="M-26 -186l198 530c-46 -12 -98 -58 -118 -82c-3 -3 -6 -4 -11 0l-11 8c-2 4 -2 8 0 10c28 36 78 88 158 118l88 239c4 10 10 16 16 18l88 28c4 0 8 2 10 2s4 -4 4 -6s-2 -6 -2 -8l-108 -257c12 2 26 2 38 2c92 0 142 -54 142 -131c0 -67 -34 -139 -106 -197
c-56 -46 -144 -80 -230 -88l-70 -196c-19 -52 -10 -68 32 -68h26c4 0 6 -4 6 -8l-8 -22c-2 -4 -4 -6 -12 -6c-10 0 -40 3 -116 3c-82 0 -108 -3 -120 -3c-6 0 -8 2 -6 8l4 20c2 4 4 8 10 8h16c40 0 61 22 82 78zM269 367l-124 -331c97 12 225 102 225 229
c0 77 -40 105 -72 105c-10 0 -20 -2 -29 -3z" />
    <glyph glyph-name="threequarters" unicode="&#xbe;" horiz-adv-x="728" 
d="M146 555l-10 8c-2 2 -2 6 0 10c14 24 50 72 128 72c62 0 86 -34 86 -58c0 -48 -38 -82 -92 -106c46 -20 62 -50 62 -86c0 -82 -86 -144 -184 -144c-62 0 -94 36 -94 68c0 18 10 34 28 34c28 0 32 -24 30 -42c0 -10 16 -28 42 -28c52 0 96 48 96 106c0 32 -16 60 -46 68
c-8 4 -10 6 -10 12c0 4 0 8 10 10c36 8 80 34 80 78c0 16 -10 42 -46 42c-26 0 -50 -18 -66 -38c-6 -8 -10 -10 -14 -6zM601 643l26 -16c2 -2 4 -4 4 -6s-2 -6 -4 -10l-406 -618c-3 -5 -6 -8 -10 -8c-2 0 -4 1 -8 4l-22 16c-2 2 -4 4 -4 8c0 2 1 5 4 10l406 618c2 2 4 4 8 4
c2 0 5 -1 6 -2zM624 94l-30 -84c-4 -8 -8 -10 -14 -10h-58c-4 0 -8 4 -4 14l34 80h-150c-10 0 -18 4 -18 16c0 8 6 16 18 24l292 244c4 4 14 9 22 9c12 0 16 -12 12 -23l-86 -222h56c4 0 6 -4 4 -10l-14 -30c-2 -4 -6 -8 -10 -8h-54zM568 142l48 120c6 12 0 18 -12 8
l-136 -114c-8 -8 -10 -14 -4 -14h104z" />
    <glyph glyph-name="twosuperior" unicode="&#xb2;" horiz-adv-x="332" 
d="M232 387h-170c-10 0 -14 2 -14 10c0 4 4 10 8 14c74 60 224 162 224 253c0 28 -16 58 -54 58c-36 0 -60 -32 -72 -52c-6 -8 -10 -8 -14 -8l-10 6c-4 2 -4 6 -4 10c12 28 54 96 136 96c66 0 100 -36 100 -95c0 -100 -148 -190 -208 -228l-2 -4h98c32 0 48 12 64 40
c4 4 8 4 10 2l10 -6c4 -2 4 -6 2 -8c-14 -20 -38 -78 -42 -94c0 -4 -4 -6 -8 -6c-6 0 -8 2 -12 8c-4 4 -18 4 -42 4z" />
    <glyph glyph-name="registered" unicode="&#xae;" horiz-adv-x="518" 
d="M328 249c-144 0 -226 96 -226 218c0 124 96 218 226 218c134 0 226 -90 226 -218c0 -122 -84 -218 -226 -218zM328 281c134 0 182 96 182 186c0 138 -108 184 -182 184c-102 0 -184 -66 -184 -182c0 -140 106 -188 184 -188zM322 359v-13c0 -2 -1 -3 -4 -3
c-4 0 -28 2 -47 2s-47 -2 -51 -2c-2 0 -4 1 -4 3v13c0 2 1 2 3 2h9c12 0 18 2 18 20v90l2 36c0 10 0 50 -2 54c0 12 -6 16 -20 16h-6c-2 0 -2 1 -2 3v15c0 2 1 2 3 2c3 0 39 -2 47 -2c6 0 56 2 64 2c34 0 60 -8 74 -20s18 -30 18 -42c0 -46 -38 -68 -66 -72v-2
c8 0 14 -7 16 -10c4 -6 28 -42 32 -46c3 -4 24 -34 32 -38c8 -6 18 -6 29 -6c2 0 3 -1 3 -4v-10c0 -3 -1 -4 -4 -4c-4 0 -18 2 -30 2c-10 0 -24 0 -42 -2c-4 4 -13 15 -17 21c-3 5 -21 35 -25 41c-3 4 -17 29 -22 34c-8 8 -14 14 -28 14h-10v-16c0 -10 0 -52 1 -62
c1 -6 3 -14 13 -14h13c2 0 3 0 3 -2zM292 575v-102c4 -2 14 -2 20 -2c54 0 62 44 62 58s-8 28 -20 36s-28 12 -42 12c-4 0 -14 0 -20 -2z" />
    <glyph glyph-name="minus" unicode="&#x2212;" 
d="M460 210h-394v64h394v-64z" />
    <glyph glyph-name="eth" unicode="&#xf0;" horiz-adv-x="426" 
d="M168 -10c-48 0 -130 18 -130 138c0 114 70 288 224 288c22 0 42 -6 56 -16h6c0 25 -8 81 -26 127l-105 -37c-5 -2 -8 0 -10 5l-7 22c-1 4 0 7 4 8l106 37c-14 35 -40 73 -60 99c-4 2 -2 6 0 8l18 14c2 2 6 2 8 0c26 -18 74 -66 92 -100l82 30c5 2 8 0 9 -3l9 -23
c2 -4 0 -8 -4 -9l-78 -26c38 -73 50 -153 50 -212c0 -132 -76 -350 -244 -350zM164 26c70 0 158 220 158 302c0 32 -20 48 -46 48c-32 0 -78 -34 -124 -158c-22 -56 -36 -104 -36 -136c0 -20 10 -56 48 -56z" />
    <glyph glyph-name="multiply" unicode="&#xd7;" 
d="M260 190l-146 -146l-42 48l144 140l-144 142l46 46l146 -146l144 146l44 -44l-144 -142l144 -142l-44 -48z" />
    <glyph glyph-name="threesuperior" unicode="&#xb3;" horiz-adv-x="332" 
d="M164 684l-10 8c-2 2 -2 6 0 10c14 24 50 72 128 72c62 0 86 -34 86 -58c0 -48 -38 -82 -92 -106c46 -20 62 -50 62 -86c0 -82 -86 -144 -184 -144c-62 0 -94 36 -94 68c0 18 10 34 28 34c28 0 32 -24 30 -42c0 -10 16 -28 42 -28c52 0 96 48 96 106c0 32 -16 60 -46 68
c-8 4 -10 6 -10 12c0 4 0 8 10 10c36 8 80 34 80 78c0 16 -10 42 -46 42c-26 0 -50 -18 -66 -38c-6 -8 -10 -10 -14 -6z" />
    <glyph glyph-name="copyright" unicode="&#xa9;" horiz-adv-x="780" 
d="M434 685c200 0 346 -142 346 -348c0 -196 -136 -352 -346 -352c-214 0 -348 156 -348 350c0 198 154 350 348 350zM434 647c-164 0 -296 -126 -296 -310c0 -230 172 -314 296 -314c216 0 294 178 294 312c0 222 -174 312 -294 312zM598 408l-16 -4c-4 -2 -6 0 -8 4
c-10 18 -20 44 -44 66c-20 20 -50 40 -94 40c-86 0 -126 -88 -126 -162c0 -34 10 -92 48 -134c34 -36 70 -48 106 -48c58 0 106 36 132 70c4 4 6 2 10 0l12 -8c2 -2 2 -6 -2 -10c-36 -50 -92 -96 -176 -96c-60 0 -116 20 -150 54c-42 40 -64 92 -64 158c0 54 18 108 60 152
c30 30 84 56 150 56c52 0 90 -20 102 -28c10 -4 16 -2 18 2l2 10c0 2 2 6 4 6c2 2 12 2 16 2s6 -2 8 -8l14 -114c0 -6 0 -8 -2 -8z" />
    <glyph glyph-name="Aacute" unicode="&#xc1;" horiz-adv-x="650" 
d="M466 300h-172l-116 -148c-28 -38 -52 -72 -52 -89c0 -16 12 -26 38 -26h30c5 0 7 -3 6 -8l-4 -23c-1 -6 -4 -9 -10 -9c-10 0 -52 3 -136 3c-72 0 -106 -3 -118 -3c-6 0 -9 3 -8 10l4 22c1 6 4 8 8 8h14c36 0 84 28 119 70l467 553c6 8 10 10 26 10c14 0 38 2 64 7
c18 3 32 8 40 8s12 -5 10 -12l-148 -553c-4 -16 -10 -42 -10 -55c0 -16 16 -28 36 -28h25c6 0 8 -3 7 -8l-4 -24c-1 -5 -4 -8 -13 -8c-11 0 -51 3 -129 3s-108 -3 -128 -3c-6 0 -7 4 -6 11l4 21c1 6 4 8 9 8h17c36 0 58 6 78 79zM478 336l74 256c4 14 -12 16 -20 8
l-210 -264h156zM574 729l-6 10c-2 4 0 7 3 10l143 115c9 7 22 11 34 11c36 0 52 -61 8 -79l-174 -68c-4 -2 -7 -1 -8 1z" />
    <glyph glyph-name="Acircumflex" unicode="&#xc2;" horiz-adv-x="650" 
d="M466 300h-172l-116 -148c-28 -38 -52 -72 -52 -89c0 -16 12 -26 38 -26h30c5 0 7 -3 6 -8l-4 -23c-1 -6 -4 -9 -10 -9c-10 0 -52 3 -136 3c-72 0 -106 -3 -118 -3c-6 0 -9 3 -8 10l4 22c1 6 4 8 8 8h14c36 0 84 28 119 70l467 553c6 8 10 10 26 10c14 0 38 2 64 7
c18 3 32 8 40 8s12 -5 10 -12l-148 -553c-4 -16 -10 -42 -10 -55c0 -16 16 -28 36 -28h25c6 0 8 -3 7 -8l-4 -24c-1 -5 -4 -8 -13 -8c-11 0 -51 3 -129 3s-108 -3 -128 -3c-6 0 -7 4 -6 11l4 21c1 6 4 8 9 8h17c36 0 58 6 78 79zM478 336l74 256c4 14 -12 16 -20 8
l-210 -264h156zM635 790l-123 -60c-3 -2 -5 -2 -7 2l-8 10c-2 2 0 4 3 7l143 135c5 5 10 5 14 -2l77 -136c1 -2 1 -6 -3 -8l-10 -8c-4 -4 -6 -2 -10 1z" />
    <glyph glyph-name="Adieresis" unicode="&#xc4;" horiz-adv-x="650" 
d="M466 300h-172l-116 -148c-28 -38 -52 -72 -52 -89c0 -16 12 -26 38 -26h30c5 0 7 -3 6 -8l-4 -23c-1 -6 -4 -9 -10 -9c-10 0 -52 3 -136 3c-72 0 -106 -3 -118 -3c-6 0 -9 3 -8 10l4 22c1 6 4 8 8 8h14c36 0 84 28 119 70l467 553c6 8 10 10 26 10c14 0 38 2 64 7
c18 3 32 8 40 8s12 -5 10 -12l-148 -553c-4 -16 -10 -42 -10 -55c0 -16 16 -28 36 -28h25c6 0 8 -3 7 -8l-4 -24c-1 -5 -4 -8 -13 -8c-11 0 -51 3 -129 3s-108 -3 -128 -3c-6 0 -7 4 -6 11l4 21c1 6 4 8 9 8h17c36 0 58 6 78 79zM478 336l74 256c4 14 -12 16 -20 8
l-210 -264h156zM584 796c0 -30 -22 -48 -50 -48c-22 0 -54 8 -54 52c0 14 10 44 54 44c26 0 50 -16 50 -48zM772 796c0 -30 -22 -48 -48 -48c-22 0 -56 8 -56 52c0 14 10 44 56 44c26 0 48 -16 48 -48z" />
    <glyph glyph-name="Agrave" unicode="&#xc0;" horiz-adv-x="650" 
d="M466 300h-172l-116 -148c-28 -38 -52 -72 -52 -89c0 -16 12 -26 38 -26h30c5 0 7 -3 6 -8l-4 -23c-1 -6 -4 -9 -10 -9c-10 0 -52 3 -136 3c-72 0 -106 -3 -118 -3c-6 0 -9 3 -8 10l4 22c1 6 4 8 8 8h14c36 0 84 28 119 70l467 553c6 8 10 10 26 10c14 0 38 2 64 7
c18 3 32 8 40 8s12 -5 10 -12l-148 -553c-4 -16 -10 -42 -10 -55c0 -16 16 -28 36 -28h25c6 0 8 -3 7 -8l-4 -24c-1 -5 -4 -8 -13 -8c-11 0 -51 3 -129 3s-108 -3 -128 -3c-6 0 -7 4 -6 11l4 21c1 6 4 8 9 8h17c36 0 58 6 78 79zM478 336l74 256c4 14 -12 16 -20 8
l-210 -264h156zM637 728l-156 74c-54 26 -18 80 12 80c18 0 32 -12 42 -22l114 -114c2 -2 4 -6 2 -8l-8 -10c0 -2 -2 -2 -6 0z" />
    <glyph glyph-name="Aring" unicode="&#xc5;" horiz-adv-x="650" 
d="M466 300h-172l-116 -148c-28 -38 -52 -72 -52 -89c0 -16 12 -26 38 -26h30c5 0 7 -3 6 -8l-4 -23c-1 -6 -4 -9 -10 -9c-10 0 -52 3 -136 3c-72 0 -106 -3 -118 -3c-6 0 -9 3 -8 10l4 22c1 6 4 8 8 8h14c36 0 84 28 119 70l467 553c6 8 10 10 26 10c14 0 38 1 64 3
c20 2 32 7 40 7s11 -5 9 -12l-147 -548c-4 -16 -10 -42 -10 -55c0 -16 16 -28 36 -28h25c6 0 8 -3 7 -8l-4 -24c-1 -5 -4 -8 -13 -8c-11 0 -51 3 -129 3s-108 -3 -128 -3c-6 0 -7 4 -6 11l4 21c1 6 4 8 9 8h17c36 0 58 6 78 79zM478 336l74 256c4 14 -12 16 -20 8l-210 -264
h156zM613 728c-58 0 -110 27 -110 73c0 60 61 88 117 88s110 -24 110 -81c0 -51 -56 -80 -117 -80zM617 756c23 0 51 15 51 53c0 40 -32 52 -53 52c-23 0 -50 -19 -50 -53c0 -37 27 -52 52 -52z" />
    <glyph glyph-name="Atilde" unicode="&#xc3;" horiz-adv-x="650" 
d="M466 300h-172l-116 -148c-28 -38 -52 -72 -52 -89c0 -16 12 -26 38 -26h30c5 0 7 -3 6 -8l-4 -23c-1 -6 -4 -9 -10 -9c-10 0 -52 3 -136 3c-72 0 -106 -3 -118 -3c-6 0 -9 3 -8 10l4 22c1 6 4 8 8 8h14c36 0 84 28 119 70l467 553c6 8 10 10 26 10c14 0 38 2 64 7
c18 3 32 8 40 8s12 -5 10 -12l-148 -553c-4 -16 -10 -42 -10 -55c0 -16 16 -28 36 -28h25c6 0 8 -3 7 -8l-4 -24c-1 -5 -4 -8 -13 -8c-11 0 -51 3 -129 3s-108 -3 -128 -3c-6 0 -7 4 -6 11l4 21c1 6 4 8 9 8h17c36 0 58 6 78 79zM478 336l74 256c4 14 -12 16 -20 8
l-210 -264h156zM762 864l14 -8c4 -2 4 -6 -2 -18c-18 -34 -48 -72 -82 -72c-20 0 -44 2 -72 10c-30 8 -52 10 -68 10s-40 -18 -50 -36c-2 -2 -6 -4 -8 -2l-14 8c-2 2 -2 4 0 10c14 42 52 84 82 84s50 -6 82 -14c24 -4 44 -6 58 -6c28 0 44 16 52 30c2 4 4 6 8 4z" />
    <glyph glyph-name="Ccedilla" unicode="&#xc7;" horiz-adv-x="664" 
d="M636 199l-72 -216c-2 -4 -4 -6 -10 -4l-20 4c-2 2 -4 4 -2 8c0 6 2 12 2 18c0 8 -6 16 -14 16c-10 0 -24 -4 -42 -12c-19 -9 -80 -26 -130 -27l-38 -54c48 -14 66 -34 66 -64c0 -52 -84 -96 -160 -96c-14 0 -20 6 -20 16c0 8 4 16 12 16c26 0 84 12 84 56
c0 20 -20 36 -48 44l61 84c-132 13 -219 103 -219 232c0 139 50 249 142 349c66 72 156 116 258 116c48 0 90 -10 132 -38c12 -10 32 -26 46 -26s22 8 26 26c2 6 6 8 10 6l16 -4c6 0 8 -4 6 -10l-54 -208c-2 -6 -4 -8 -10 -6l-20 2c-4 0 -6 2 -6 10c16 98 -26 204 -140 204
c-70 0 -124 -32 -180 -114c-76 -110 -98 -234 -98 -312c0 -140 90 -182 142 -182c76 0 176 24 244 174c4 6 6 8 10 6l20 -6c6 -2 6 -4 6 -8z" />
    <glyph glyph-name="Eacute" unicode="&#xc9;" horiz-adv-x="677" 
d="M622 180l12 -8c2 -2 4 -4 2 -11l-52 -146c-4 -16 -10 -18 -22 -18c-8 0 -49 1 -106 2s-129 1 -198 1h-130c-31 0 -60 -1 -83 -1c-22 -1 -38 -2 -44 -2c-5 0 -7 2 -6 8l4 26c1 4 3 6 7 6h32c40 0 60 20 70 53l153 475c17 54 -19 68 -49 68h-32c-5 0 -8 4 -6 10l6 22
c2 6 4 8 12 8c6 0 30 -1 58 -1c29 -1 62 -2 86 -2h72c72 0 127 0 167 1s64 2 75 2c16 0 18 -4 22 -20l30 -134c2 -7 2 -7 -4 -11l-12 -6c-4 -2 -6 0 -12 6l-102 118c-6 6 -12 8 -18 8h-156l-84 -259h86c43 0 82 5 118 83c2 4 4 6 8 6l18 -6c4 0 6 -4 4 -6
c-16 -38 -48 -162 -52 -200c-2 -6 -4 -6 -8 -6h-18c-6 2 -6 4 -6 10c0 72 -38 83 -110 83h-50l-98 -303h224c34 0 62 15 88 38c22 18 76 86 92 104c2 4 6 6 12 2zM438 729l-6 10c-2 4 0 7 3 10l143 115c9 7 22 11 34 11c36 0 52 -61 8 -79l-174 -68c-4 -2 -7 -1 -8 1z" />
    <glyph glyph-name="Ecircumflex" unicode="&#xca;" horiz-adv-x="677" 
d="M622 180l12 -8c2 -2 4 -4 2 -11l-52 -146c-4 -16 -10 -18 -22 -18c-8 0 -49 1 -106 2s-129 1 -198 1h-130c-31 0 -60 -1 -83 -1c-22 -1 -38 -2 -44 -2c-5 0 -7 2 -6 8l4 26c1 4 3 6 7 6h32c40 0 60 20 70 53l153 475c17 54 -19 68 -49 68h-32c-5 0 -8 4 -6 10l6 22
c2 6 4 8 12 8c6 0 30 -1 58 -1c29 -1 62 -2 86 -2h72c72 0 127 0 167 1s64 2 75 2c16 0 18 -4 22 -20l30 -134c2 -7 2 -7 -4 -11l-12 -6c-4 -2 -6 0 -12 6l-102 118c-6 6 -12 8 -18 8h-156l-84 -259h86c43 0 82 5 118 83c2 4 4 6 8 6l18 -6c4 0 6 -4 4 -6
c-16 -38 -48 -162 -52 -200c-2 -6 -4 -6 -8 -6h-18c-6 2 -6 4 -6 10c0 72 -38 83 -110 83h-50l-98 -303h224c34 0 62 15 88 38c22 18 76 86 92 104c2 4 6 6 12 2zM499 790l-123 -60c-3 -2 -5 -2 -7 2l-8 10c-2 2 0 4 3 7l143 135c5 5 10 5 14 -2l77 -136c1 -2 1 -6 -3 -8
l-10 -8c-4 -4 -6 -2 -10 1z" />
    <glyph glyph-name="Edieresis" unicode="&#xcb;" horiz-adv-x="677" 
d="M622 180l12 -8c2 -2 4 -4 2 -11l-52 -146c-4 -16 -10 -18 -22 -18c-8 0 -49 1 -106 2s-129 1 -198 1h-130c-31 0 -60 -1 -83 -1c-22 -1 -38 -2 -44 -2c-5 0 -7 2 -6 8l4 26c1 4 3 6 7 6h32c40 0 60 20 70 53l153 475c17 54 -19 68 -49 68h-32c-5 0 -8 4 -6 10l6 22
c2 6 4 8 12 8c6 0 30 -1 58 -1c29 -1 62 -2 86 -2h72c72 0 127 0 167 1s64 2 75 2c16 0 18 -4 22 -20l30 -134c2 -7 2 -7 -4 -11l-12 -6c-4 -2 -6 0 -12 6l-102 118c-6 6 -12 8 -18 8h-156l-84 -259h86c43 0 82 5 118 83c2 4 4 6 8 6l18 -6c4 0 6 -4 4 -6
c-16 -38 -48 -162 -52 -200c-2 -6 -4 -6 -8 -6h-18c-6 2 -6 4 -6 10c0 72 -38 83 -110 83h-50l-98 -303h224c34 0 62 15 88 38c22 18 76 86 92 104c2 4 6 6 12 2zM438 796c0 -30 -22 -48 -50 -48c-22 0 -54 8 -54 52c0 14 10 44 54 44c26 0 50 -16 50 -48zM626 796
c0 -30 -22 -48 -48 -48c-22 0 -56 8 -56 52c0 14 10 44 56 44c26 0 48 -16 48 -48z" />
    <glyph glyph-name="Egrave" unicode="&#xc8;" horiz-adv-x="677" 
d="M622 180l12 -8c2 -2 4 -4 2 -11l-52 -146c-4 -16 -10 -18 -22 -18c-8 0 -49 1 -106 2s-129 1 -198 1h-130c-31 0 -60 -1 -83 -1c-22 -1 -38 -2 -44 -2c-5 0 -7 2 -6 8l4 26c1 4 3 6 7 6h32c40 0 60 20 70 53l153 475c17 54 -19 68 -49 68h-32c-5 0 -8 4 -6 10l6 22
c2 6 4 8 12 8c6 0 30 -1 58 -1c29 -1 62 -2 86 -2h72c72 0 127 0 167 1s64 2 75 2c16 0 18 -4 22 -20l30 -134c2 -7 2 -7 -4 -11l-12 -6c-4 -2 -6 0 -12 6l-102 118c-6 6 -12 8 -18 8h-156l-84 -259h86c43 0 82 5 118 83c2 4 4 6 8 6l18 -6c4 0 6 -4 4 -6
c-16 -38 -48 -162 -52 -200c-2 -6 -4 -6 -8 -6h-18c-6 2 -6 4 -6 10c0 72 -38 83 -110 83h-50l-98 -303h224c34 0 62 15 88 38c22 18 76 86 92 104c2 4 6 6 12 2zM521 728l-156 74c-54 26 -18 80 12 80c18 0 32 -12 42 -22l114 -114c2 -2 4 -6 2 -8l-8 -10c0 -2 -2 -2 -6 0z
" />
    <glyph glyph-name="Iacute" unicode="&#xcd;" horiz-adv-x="374" 
d="M120 108l126 459c14 50 -2 66 -28 66h-46c-8 0 -10 2 -10 8l6 26c0 4 4 6 12 6c12 0 66 -3 146 -3c86 0 128 3 142 3c10 0 14 -4 12 -12l-6 -20c0 -4 -2 -8 -10 -8h-26c-42 0 -65 -10 -80 -67l-124 -461c-13 -48 2 -68 44 -68h36c6 0 8 -4 6 -10l-2 -20
c-2 -8 -2 -10 -12 -10c-12 0 -58 3 -160 3c-84 0 -136 -3 -148 -3c-6 0 -8 4 -8 10l6 22c0 6 2 8 8 8h38c58 0 64 20 78 71zM326 729l-6 10c-2 4 0 7 3 10l143 115c9 7 22 11 34 11c36 0 52 -61 8 -79l-174 -68c-4 -2 -7 -1 -8 1z" />
    <glyph glyph-name="Icircumflex" unicode="&#xce;" horiz-adv-x="374" 
d="M120 108l126 459c14 50 -2 66 -28 66h-46c-8 0 -10 2 -10 8l6 26c0 4 4 6 12 6c12 0 66 -3 146 -3c86 0 128 3 142 3c10 0 14 -4 12 -12l-6 -20c0 -4 -2 -8 -10 -8h-26c-42 0 -65 -10 -80 -67l-124 -461c-13 -48 2 -68 44 -68h36c6 0 8 -4 6 -10l-2 -20
c-2 -8 -2 -10 -12 -10c-12 0 -58 3 -160 3c-84 0 -136 -3 -148 -3c-6 0 -8 4 -8 10l6 22c0 6 2 8 8 8h38c58 0 64 20 78 71zM357 790l-123 -60c-3 -2 -5 -2 -7 2l-8 10c-2 2 0 4 3 7l143 135c5 5 10 5 14 -2l77 -136c1 -2 1 -6 -3 -8l-10 -8c-4 -4 -6 -2 -10 1z" />
    <glyph glyph-name="Idieresis" unicode="&#xcf;" horiz-adv-x="374" 
d="M120 108l126 459c14 50 -2 66 -28 66h-46c-8 0 -10 2 -10 8l6 26c0 4 4 6 12 6c12 0 66 -3 146 -3c86 0 128 3 142 3c10 0 14 -4 12 -12l-6 -20c0 -4 -2 -8 -10 -8h-26c-42 0 -65 -10 -80 -67l-124 -461c-13 -48 2 -68 44 -68h36c6 0 8 -4 6 -10l-2 -20
c-2 -8 -2 -10 -12 -10c-12 0 -58 3 -160 3c-84 0 -136 -3 -148 -3c-6 0 -8 4 -8 10l6 22c0 6 2 8 8 8h38c58 0 64 20 78 71zM306 796c0 -30 -22 -48 -50 -48c-22 0 -54 8 -54 52c0 14 10 44 54 44c26 0 50 -16 50 -48zM494 796c0 -30 -22 -48 -48 -48c-22 0 -56 8 -56 52
c0 14 10 44 56 44c26 0 48 -16 48 -48z" />
    <glyph glyph-name="Igrave" unicode="&#xcc;" horiz-adv-x="374" 
d="M120 108l126 459c14 50 -2 66 -28 66h-46c-8 0 -10 2 -10 8l6 26c0 4 4 6 12 6c12 0 66 -3 146 -3c86 0 128 3 142 3c10 0 14 -4 12 -12l-6 -20c0 -4 -2 -8 -10 -8h-26c-42 0 -65 -10 -80 -67l-124 -461c-13 -48 2 -68 44 -68h36c6 0 8 -4 6 -10l-2 -20
c-2 -8 -2 -10 -12 -10c-12 0 -58 3 -160 3c-84 0 -136 -3 -148 -3c-6 0 -8 4 -8 10l6 22c0 6 2 8 8 8h38c58 0 64 20 78 71zM359 728l-156 74c-54 26 -18 80 12 80c18 0 32 -12 42 -22l114 -114c2 -2 4 -6 2 -8l-8 -10c0 -2 -2 -2 -6 0z" />
    <glyph glyph-name="Ntilde" unicode="&#xd1;" horiz-adv-x="764" 
d="M550 20l-252 514c-6 10 -14 10 -16 -2l-100 -334c-34 -114 -30 -161 12 -161h38c8 0 10 -4 10 -10l-4 -21c-2 -7 -2 -9 -12 -9s-52 3 -120 3c-70 0 -102 -3 -114 -3c-6 0 -8 4 -7 11l3 21c2 4 4 8 10 8h22c46 0 70 34 100 123l122 386c19 59 -2 87 -44 87h-38
c-8 0 -10 4 -8 12l4 18c2 6 4 10 12 10c12 0 52 -3 170 -3c18 0 24 -12 30 -26l222 -462c8 -12 12 -10 20 14l106 324c26 81 18 113 -16 113h-30c-10 0 -12 2 -10 10l2 22c2 4 4 8 10 8c12 0 44 -3 114 -3c52 0 72 3 86 3c10 0 12 -6 10 -14l-4 -18c0 -6 -2 -8 -8 -8h-26
c-24 0 -44 -24 -64 -81l-184 -526c-6 -16 -14 -24 -20 -26c-10 0 -20 6 -26 20zM694 864l14 -8c4 -2 4 -6 -2 -18c-18 -34 -48 -72 -82 -72c-20 0 -44 2 -72 10c-30 8 -52 10 -68 10s-40 -18 -50 -36c-2 -2 -6 -4 -8 -2l-14 8c-2 2 -2 4 0 10c14 42 52 84 82 84
s50 -6 82 -14c24 -4 44 -6 58 -6c28 0 44 16 52 30c2 4 4 6 8 4z" />
    <glyph glyph-name="Oacute" unicode="&#xd3;" horiz-adv-x="726" 
d="M457 685c160 0 272 -108 272 -292c0 -200 -142 -408 -368 -408c-40 0 -118 6 -180 66s-88 140 -88 230c0 208 152 404 364 404zM481 637c-60 0 -108 -32 -144 -74c-82 -92 -142 -240 -142 -350c0 -124 66 -182 148 -182c146 0 276 224 278 440c0 100 -50 166 -140 166z
M472 729l-6 10c-2 4 0 7 3 10l143 115c9 7 22 11 34 11c36 0 52 -61 8 -79l-174 -68c-4 -2 -7 -1 -8 1z" />
    <glyph glyph-name="Ocircumflex" unicode="&#xd4;" horiz-adv-x="726" 
d="M457 685c160 0 272 -108 272 -292c0 -200 -142 -408 -368 -408c-40 0 -118 6 -180 66s-88 140 -88 230c0 208 152 404 364 404zM481 637c-60 0 -108 -32 -144 -74c-82 -92 -142 -240 -142 -350c0 -124 66 -182 148 -182c146 0 276 224 278 440c0 100 -50 166 -140 166z
M493 790l-123 -60c-3 -2 -5 -2 -7 2l-8 10c-2 2 0 4 3 7l143 135c5 5 10 5 14 -2l77 -136c1 -2 1 -6 -3 -8l-10 -8c-4 -4 -6 -2 -10 1z" />
    <glyph glyph-name="Odieresis" unicode="&#xd6;" horiz-adv-x="726" 
d="M457 685c160 0 272 -108 272 -292c0 -200 -142 -408 -368 -408c-40 0 -118 6 -180 66s-88 140 -88 230c0 208 152 404 364 404zM481 637c-60 0 -108 -32 -144 -74c-82 -92 -142 -240 -142 -350c0 -124 66 -182 148 -182c146 0 276 224 278 440c0 100 -50 166 -140 166z
M442 796c0 -30 -22 -48 -50 -48c-22 0 -54 8 -54 52c0 14 10 44 54 44c26 0 50 -16 50 -48zM630 796c0 -30 -22 -48 -48 -48c-22 0 -56 8 -56 52c0 14 10 44 56 44c26 0 48 -16 48 -48z" />
    <glyph glyph-name="Ograve" unicode="&#xd2;" horiz-adv-x="726" 
d="M457 685c160 0 272 -108 272 -292c0 -200 -142 -408 -368 -408c-40 0 -118 6 -180 66s-88 140 -88 230c0 208 152 404 364 404zM481 637c-60 0 -108 -32 -144 -74c-82 -92 -142 -240 -142 -350c0 -124 66 -182 148 -182c146 0 276 224 278 440c0 100 -50 166 -140 166z
M505 728l-156 74c-54 26 -18 80 12 80c18 0 32 -12 42 -22l114 -114c2 -2 4 -6 2 -8l-8 -10c0 -2 -2 -2 -6 0z" />
    <glyph glyph-name="Otilde" unicode="&#xd5;" horiz-adv-x="726" 
d="M457 685c160 0 272 -108 272 -292c0 -200 -142 -408 -368 -408c-40 0 -118 6 -180 66s-88 140 -88 230c0 208 152 404 364 404zM481 637c-60 0 -108 -32 -144 -74c-82 -92 -142 -240 -142 -350c0 -124 66 -182 148 -182c146 0 276 224 278 440c0 100 -50 166 -140 166z
M600 864l14 -8c4 -2 4 -6 -2 -18c-18 -34 -48 -72 -82 -72c-20 0 -44 2 -72 10c-30 8 -52 10 -68 10s-40 -18 -50 -36c-2 -2 -6 -4 -8 -2l-14 8c-2 2 -2 4 0 10c14 42 52 84 82 84s50 -6 82 -14c24 -4 44 -6 58 -6c28 0 44 16 52 30c2 4 4 6 8 4z" />
    <glyph glyph-name="Scaron" unicode="&#x160;" horiz-adv-x="508" 
d="M536 665l-36 -190c-2 -4 -4 -6 -8 -6h-18c-8 0 -10 4 -10 10c6 40 -6 160 -108 160c-58 0 -90 -54 -90 -97c0 -70 44 -102 90 -148s112 -102 112 -213c0 -128 -92 -196 -196 -196c-64 0 -110 38 -142 74c-10 10 -20 8 -26 2c-6 -8 -16 -24 -24 -38c-2 -4 -4 -6 -10 -4
l-12 6c-6 2 -6 2 -4 10l74 218c2 4 4 4 10 4l16 -4c4 -2 6 -4 6 -10c-28 -144 50 -212 112 -212c64 0 108 50 108 105c0 64 -50 102 -94 150c-62 68 -114 120 -114 223c0 72 56 176 186 176c54 0 102 -34 118 -46c4 -2 8 -4 14 -4s12 14 16 34c0 4 2 4 10 4l12 -2
c6 0 8 -2 8 -6zM381 824l124 62c4 2 6 2 8 -2l7 -12c1 -2 -1 -4 -3 -6l-142 -136c-6 -4 -12 -4 -16 2l-76 136c-2 4 0 6 2 8l11 9c3 3 7 1 10 -2z" />
    <glyph glyph-name="Uacute" unicode="&#xda;" horiz-adv-x="720" 
d="M743 554l-86 -274c-55 -177 -134 -295 -318 -295c-130 0 -226 60 -226 183c0 42 14 104 20 126l86 277c14 46 0 62 -28 62h-36c-4 0 -8 2 -6 8l4 24c2 6 4 8 14 8c12 0 46 -3 138 -3c80 0 114 3 124 3c8 0 10 -4 10 -12l-4 -20c-1 -4 -4 -8 -10 -8h-28
c-20 0 -45 -4 -60 -53l-82 -268c-6 -22 -30 -96 -30 -139c0 -122 106 -134 136 -134c46 0 98 16 130 44c46 40 80 94 112 203l72 256c19 67 8 91 -24 91h-32c-8 0 -10 4 -9 8l3 22c2 6 4 10 14 10c12 0 50 -3 114 -3c58 0 80 3 90 3s12 -4 10 -12l-4 -20c0 -4 -2 -8 -10 -8
h-16c-32 0 -52 -29 -68 -79zM519 729l-6 10c-2 4 0 7 3 10l143 115c9 7 22 11 34 11c36 0 52 -61 8 -79l-174 -68c-4 -2 -7 -1 -8 1z" />
    <glyph glyph-name="Ucircumflex" unicode="&#xdb;" horiz-adv-x="720" 
d="M743 554l-86 -274c-55 -177 -134 -295 -318 -295c-130 0 -226 60 -226 183c0 42 14 104 20 126l86 277c14 46 0 62 -28 62h-36c-4 0 -8 2 -6 8l4 24c2 6 4 8 14 8c12 0 46 -3 138 -3c80 0 114 3 124 3c8 0 10 -4 10 -12l-4 -20c-1 -4 -4 -8 -10 -8h-28
c-20 0 -45 -4 -60 -53l-82 -268c-6 -22 -30 -96 -30 -139c0 -122 106 -134 136 -134c46 0 98 16 130 44c46 40 80 94 112 203l72 256c19 67 8 91 -24 91h-32c-8 0 -10 4 -9 8l3 22c2 6 4 10 14 10c12 0 50 -3 114 -3c58 0 80 3 90 3s12 -4 10 -12l-4 -20c0 -4 -2 -8 -10 -8
h-16c-32 0 -52 -29 -68 -79zM550 790l-123 -60c-3 -2 -5 -2 -7 2l-8 10c-2 2 0 4 3 7l143 135c5 5 10 5 14 -2l77 -136c1 -2 1 -6 -3 -8l-10 -8c-4 -4 -6 -2 -10 1z" />
    <glyph glyph-name="Udieresis" unicode="&#xdc;" horiz-adv-x="720" 
d="M743 554l-86 -274c-55 -177 -134 -295 -318 -295c-130 0 -226 60 -226 183c0 42 14 104 20 126l86 277c14 46 0 62 -28 62h-36c-4 0 -8 2 -6 8l4 24c2 6 4 8 14 8c12 0 46 -3 138 -3c80 0 114 3 124 3c8 0 10 -4 10 -12l-4 -20c-1 -4 -4 -8 -10 -8h-28
c-20 0 -45 -4 -60 -53l-82 -268c-6 -22 -30 -96 -30 -139c0 -122 106 -134 136 -134c46 0 98 16 130 44c46 40 80 94 112 203l72 256c19 67 8 91 -24 91h-32c-8 0 -10 4 -9 8l3 22c2 6 4 10 14 10c12 0 50 -3 114 -3c58 0 80 3 90 3s12 -4 10 -12l-4 -20c0 -4 -2 -8 -10 -8
h-16c-32 0 -52 -29 -68 -79zM499 796c0 -30 -22 -48 -50 -48c-22 0 -54 8 -54 52c0 14 10 44 54 44c26 0 50 -16 50 -48zM687 796c0 -30 -22 -48 -48 -48c-22 0 -56 8 -56 52c0 14 10 44 56 44c26 0 48 -16 48 -48z" />
    <glyph glyph-name="Ugrave" unicode="&#xd9;" horiz-adv-x="720" 
d="M743 554l-86 -274c-55 -177 -134 -295 -318 -295c-130 0 -226 60 -226 183c0 42 14 104 20 126l86 277c14 46 0 62 -28 62h-36c-4 0 -8 2 -6 8l4 24c2 6 4 8 14 8c12 0 46 -3 138 -3c80 0 114 3 124 3c8 0 10 -4 10 -12l-4 -20c-1 -4 -4 -8 -10 -8h-28
c-20 0 -45 -4 -60 -53l-82 -268c-6 -22 -30 -96 -30 -139c0 -122 106 -134 136 -134c46 0 98 16 130 44c46 40 80 94 112 203l72 256c19 67 8 91 -24 91h-32c-8 0 -10 4 -9 8l3 22c2 6 4 10 14 10c12 0 50 -3 114 -3c58 0 80 3 90 3s12 -4 10 -12l-4 -20c0 -4 -2 -8 -10 -8
h-16c-32 0 -52 -29 -68 -79zM552 728l-156 74c-54 26 -18 80 12 80c18 0 32 -12 42 -22l114 -114c2 -2 4 -6 2 -8l-8 -10c0 -2 -2 -2 -6 0z" />
    <glyph glyph-name="Yacute" unicode="&#xdd;" horiz-adv-x="582" 
d="M376 204l-24 -111c-11 -52 2 -56 36 -56h22c6 0 8 -4 8 -8l-4 -22c0 -6 -2 -10 -10 -10c-16 0 -48 3 -128 3c-90 0 -120 -3 -132 -3c-6 0 -8 2 -8 10l4 22c0 4 2 8 10 8h22c46 0 60 22 66 51l32 148c4 14 2 40 -2 52l-104 307c-8 24 -28 38 -62 38h-22c-6 0 -8 2 -8 8
l4 24c2 6 4 8 10 8c14 0 40 -3 120 -3c86 0 120 3 132 3c8 0 10 -2 10 -8l-2 -24c-2 -6 -4 -8 -10 -8h-26c-32 0 -32 -24 -26 -44l80 -269c4 -16 12 -16 20 -2c14 22 156 232 166 262c13 38 0 53 -34 53h-22c-6 0 -8 4 -6 10l2 22c0 6 2 8 12 8c14 0 52 -3 108 -3
c62 0 92 3 106 3c8 0 10 -4 10 -10l-4 -20c0 -8 -2 -10 -8 -10h-18c-34 0 -54 -16 -74 -43c-16 -22 -198 -276 -212 -300c-14 -22 -24 -42 -34 -86zM420 729l-6 10c-2 4 0 7 3 10l143 115c9 7 22 11 34 11c36 0 52 -61 8 -79l-174 -68c-4 -2 -7 -1 -8 1z" />
    <glyph glyph-name="Ydieresis" unicode="&#x178;" horiz-adv-x="582" 
d="M376 204l-24 -111c-11 -52 2 -56 36 -56h22c6 0 8 -4 8 -8l-4 -22c0 -6 -2 -10 -10 -10c-16 0 -48 3 -128 3c-90 0 -120 -3 -132 -3c-6 0 -8 2 -8 10l4 22c0 4 2 8 10 8h22c46 0 60 22 66 51l32 148c4 14 2 40 -2 52l-104 307c-8 24 -28 38 -62 38h-22c-6 0 -8 2 -8 8
l4 24c2 6 4 8 10 8c14 0 40 -3 120 -3c86 0 120 3 132 3c8 0 10 -2 10 -8l-2 -24c-2 -6 -4 -8 -10 -8h-26c-32 0 -32 -24 -26 -44l80 -269c4 -16 12 -16 20 -2c14 22 156 232 166 262c13 38 0 53 -34 53h-22c-6 0 -8 4 -6 10l2 22c0 6 2 8 12 8c14 0 52 -3 108 -3
c62 0 92 3 106 3c8 0 10 -4 10 -10l-4 -20c0 -8 -2 -10 -8 -10h-18c-34 0 -54 -16 -74 -43c-16 -22 -198 -276 -212 -300c-14 -22 -24 -42 -34 -86zM400 796c0 -30 -22 -48 -50 -48c-22 0 -54 8 -54 52c0 14 10 44 54 44c26 0 50 -16 50 -48zM588 796c0 -30 -22 -48 -48 -48
c-22 0 -56 8 -56 52c0 14 10 44 56 44c26 0 48 -16 48 -48z" />
    <glyph glyph-name="Zcaron" unicode="&#x17d;" horiz-adv-x="682" 
d="M382 0h-315c-10 0 -15 4 -15 10s4 12 8 16l515 604h-76c-99 0 -178 -2 -215 -12c-42 -10 -80 -46 -100 -88c-2 -6 -6 -6 -10 -4l-16 6c-4 0 -4 4 -4 6l42 138c2 6 4 12 10 12s10 -2 16 -6c12 -8 116 -12 144 -12h345c8 0 13 -5 13 -11c0 -7 -3 -14 -6 -17l-511 -602h78
c108 0 168 3 229 18c40 10 80 40 114 96c2 6 6 6 10 4l14 -8c4 0 6 -4 4 -10l-52 -146c-2 -6 -4 -8 -10 -8c-4 0 -12 2 -18 4c-18 8 -160 10 -194 10zM478 824l124 62c4 2 6 2 8 -2l7 -12c1 -2 -1 -4 -3 -6l-142 -136c-6 -4 -12 -4 -16 2l-76 136c-2 4 0 6 2 8l11 9
c3 3 7 1 10 -2z" />
    <glyph glyph-name="aacute" unicode="&#xe1;" horiz-adv-x="467" 
d="M404 418h54c6 0 8 -4 6 -10c-18 -42 -66 -170 -74 -196c-4 -18 -42 -134 -42 -146c0 -10 4 -12 12 -12c14 0 54 48 62 58c4 4 6 6 10 3l12 -9c2 -2 2 -6 0 -12c-10 -20 -80 -104 -158 -104c-22 0 -32 10 -32 26c0 14 6 36 42 140l-6 2c-42 -62 -124 -168 -206 -168
c-26 0 -62 30 -62 72c0 134 140 354 274 354c44 0 64 -18 76 -34l16 28c4 6 10 8 16 8zM144 58c38 0 146 146 164 184c14 28 24 58 24 90c0 16 -18 44 -46 44c-26 0 -56 -24 -82 -61c-56 -79 -84 -169 -84 -225c0 -22 8 -32 24 -32zM470 536l-152 -66c-4 -2 -7 -2 -8 0l-7 9
c-2 3 -1 5 1 7l120 106c14 12 28 20 42 20c32 0 52 -55 4 -76z" />
    <glyph glyph-name="acircumflex" unicode="&#xe2;" horiz-adv-x="467" 
d="M404 418h54c6 0 8 -4 6 -10c-18 -42 -66 -170 -74 -196c-4 -18 -42 -134 -42 -146c0 -10 4 -12 12 -12c14 0 54 48 62 58c4 4 6 6 10 3l12 -9c2 -2 2 -6 0 -12c-10 -20 -80 -104 -158 -104c-22 0 -32 10 -32 26c0 14 6 36 42 140l-6 2c-42 -62 -124 -168 -206 -168
c-26 0 -62 30 -62 72c0 134 140 354 274 354c44 0 64 -18 76 -34l16 28c4 6 10 8 16 8zM144 58c38 0 146 146 164 184c14 28 24 58 24 90c0 16 -18 44 -46 44c-26 0 -56 -24 -82 -61c-56 -79 -84 -169 -84 -225c0 -22 8 -32 24 -32zM411 476l-60 66l-103 -65
c-4 -2 -7 -2 -9 1l-6 8c-2 2 -1 5 2 8l131 143c5 5 11 3 14 -5l49 -144c1 -4 0 -6 -2 -7l-8 -5c-4 -2 -6 -2 -8 0z" />
    <glyph glyph-name="adieresis" unicode="&#xe4;" horiz-adv-x="467" 
d="M404 418h54c6 0 8 -4 6 -10c-18 -42 -67 -170 -74 -196c-5 -18 -42 -134 -42 -146c0 -10 4 -12 12 -12c14 0 54 48 62 58c4 4 6 6 10 3l12 -9c2 -2 2 -6 0 -12c-10 -20 -80 -104 -158 -104c-22 0 -32 10 -32 26c0 14 6 36 42 140l-6 2c-42 -62 -124 -168 -206 -168
c-26 0 -62 30 -62 72c0 134 140 354 274 354c44 0 64 -18 76 -34l16 28c4 6 10 8 16 8zM144 58c38 0 146 146 164 184c14 28 24 58 24 90c0 16 -18 44 -46 44c-26 0 -56 -24 -82 -61c-56 -79 -84 -169 -84 -225c0 -22 8 -32 24 -32zM270 537c-20 0 -50 8 -50 46
c0 14 10 42 50 42c24 0 46 -16 46 -46c0 -26 -20 -42 -46 -42zM428 537c-20 0 -50 8 -50 46c0 14 10 42 50 42c24 0 46 -16 46 -46c0 -26 -20 -42 -46 -42z" />
    <glyph glyph-name="agrave" unicode="&#xe0;" horiz-adv-x="467" 
d="M404 418h54c6 0 8 -4 6 -10c-18 -42 -66 -170 -74 -196c-4 -18 -42 -134 -42 -146c0 -10 4 -12 12 -12c14 0 54 48 62 58c4 4 6 6 10 3l12 -9c2 -2 2 -6 0 -12c-10 -20 -80 -104 -158 -104c-22 0 -32 10 -32 26c0 14 6 36 42 140l-6 2c-42 -62 -124 -168 -206 -168
c-26 0 -62 30 -62 72c0 134 140 354 274 354c44 0 64 -18 76 -34l16 28c4 6 10 8 16 8zM144 58c38 0 146 146 164 184c14 28 24 58 24 90c0 16 -18 44 -46 44c-26 0 -56 -24 -82 -61c-56 -79 -84 -169 -84 -225c0 -22 8 -32 24 -32zM354 470l-120 84c-36 26 -14 72 18 72
c18 0 28 -12 38 -24l82 -115c2 -3 3 -6 1 -8l-9 -9c-2 -2 -6 -2 -10 0z" />
    <glyph glyph-name="aring" unicode="&#xe5;" horiz-adv-x="467" 
d="M404 418h54c6 0 8 -4 6 -10c-18 -42 -66 -170 -74 -196c-4 -18 -42 -134 -42 -146c0 -10 4 -12 12 -12c14 0 54 48 62 58c4 4 6 6 10 3l12 -9c2 -2 2 -6 0 -12c-10 -20 -80 -104 -158 -104c-22 0 -32 10 -32 26c0 14 6 36 42 140l-6 2c-42 -62 -124 -168 -206 -168
c-26 0 -62 30 -62 72c0 134 140 354 274 354c44 0 64 -18 76 -34l16 28c4 6 10 8 16 8zM144 58c38 0 146 146 164 184c14 28 24 58 24 90c0 16 -18 44 -46 44c-26 0 -56 -24 -82 -61c-56 -79 -84 -169 -84 -225c0 -22 8 -32 24 -32zM336 484c-52 0 -102 26 -102 72
c0 52 58 80 108 80s100 -22 100 -76c0 -48 -52 -76 -106 -76zM294 558c0 -32 24 -48 46 -48s44 16 44 50c0 38 -28 50 -46 50c-20 0 -44 -16 -44 -52z" />
    <glyph glyph-name="atilde" unicode="&#xe3;" horiz-adv-x="467" 
d="M404 418h54c6 0 8 -4 6 -10c-18 -42 -66 -170 -74 -196c-4 -18 -42 -134 -42 -146c0 -10 4 -12 12 -12c14 0 54 48 62 58c4 4 6 6 10 3l12 -9c2 -2 2 -6 0 -12c-10 -20 -80 -104 -158 -104c-22 0 -32 10 -32 26c0 14 6 36 42 140l-6 2c-42 -62 -124 -168 -206 -168
c-26 0 -62 30 -62 72c0 134 140 354 274 354c44 0 64 -18 76 -34l16 28c4 6 10 8 16 8zM144 58c38 0 146 146 164 184c14 28 24 58 24 90c0 16 -18 44 -46 44c-26 0 -56 -24 -82 -61c-56 -79 -84 -169 -84 -225c0 -22 8 -32 24 -32zM458 594l14 -8c4 -2 4 -8 -2 -18
c-18 -34 -50 -68 -78 -68c-20 0 -38 4 -62 11c-20 5 -30 9 -44 9c-18 0 -42 -18 -52 -36c-2 -4 -4 -6 -8 -4l-12 8c-2 2 -2 6 0 10c14 38 50 80 84 80c16 0 30 -4 54 -11c18 -5 30 -7 52 -7s38 16 46 30c2 4 4 6 8 4z" />
    <glyph glyph-name="ccedilla" unicode="&#xe7;" horiz-adv-x="318" 
d="M48 -90l63 83c-36 5 -74 37 -74 96c0 140 109 327 233 327c52 0 69 -38 69 -56c0 -28 -22 -50 -42 -50c-16 0 -28 6 -34 24c-6 14 -15 30 -31 30c-22 0 -41 -24 -60 -68c-25 -60 -39 -122 -39 -176c0 -50 15 -72 41 -72c32 0 71 30 83 44c2 4 6 6 8 4l14 -10
c4 -3 6 -4 2 -10c-13 -19 -66 -72 -128 -83l-47 -63c38 -12 58 -30 58 -60c0 -58 -108 -86 -150 -86c-16 0 -20 8 -20 18c0 12 8 16 18 16c38 0 74 24 74 48c0 16 -14 34 -38 44z" />
    <glyph glyph-name="eacute" unicode="&#xe9;" horiz-adv-x="370" 
d="M300 110l15 -11c5 -3 5 -5 3 -9c-22 -36 -90 -100 -178 -100c-66 0 -106 36 -106 106c0 78 42 184 124 258c40 36 96 62 150 62c46 0 70 -30 70 -59c0 -51 -34 -97 -92 -129c-54 -28 -108 -40 -146 -42c-4 -10 -10 -38 -10 -74c0 -40 26 -64 54 -64c46 0 86 30 108 60
c2 2 6 4 8 2zM260 368c-50 0 -100 -96 -112 -150c18 0 66 12 100 38c22 18 42 48 42 76c0 18 -8 36 -30 36zM421 536l-152 -66c-4 -2 -7 -2 -8 0l-7 9c-2 3 -1 5 1 7l120 106c14 12 28 20 42 20c32 0 52 -55 4 -76z" />
    <glyph glyph-name="ecircumflex" unicode="&#xea;" horiz-adv-x="370" 
d="M300 110l15 -11c5 -3 5 -5 3 -9c-22 -36 -90 -100 -178 -100c-66 0 -106 36 -106 106c0 78 42 184 124 258c40 36 96 62 150 62c46 0 70 -30 70 -59c0 -51 -34 -97 -92 -129c-54 -28 -108 -40 -146 -42c-4 -10 -10 -38 -10 -74c0 -40 26 -64 54 -64c46 0 86 30 108 60
c2 2 6 4 8 2zM260 368c-50 0 -100 -96 -112 -150c18 0 66 12 100 38c22 18 42 48 42 76c0 18 -8 36 -30 36zM372 476l-60 66l-103 -65c-4 -2 -7 -2 -9 1l-6 8c-2 2 -1 5 2 8l131 143c5 5 11 3 14 -5l49 -144c1 -4 0 -6 -2 -7l-8 -5c-4 -2 -6 -2 -8 0z" />
    <glyph glyph-name="edieresis" unicode="&#xeb;" horiz-adv-x="370" 
d="M300 110l15 -11c5 -3 5 -5 3 -9c-22 -36 -90 -100 -178 -100c-66 0 -106 36 -106 106c0 78 42 184 124 258c40 36 96 62 150 62c46 0 70 -30 70 -59c0 -51 -34 -98 -92 -129c-54 -29 -108 -40 -146 -42c-4 -10 -10 -38 -10 -74c0 -40 26 -64 54 -64c46 0 86 30 108 60
c2 2 6 4 8 2zM260 368c-50 0 -100 -96 -112 -150c18 0 66 12 100 38c22 18 42 48 42 76c0 18 -8 36 -30 36zM242 537c-20 0 -50 8 -50 46c0 14 10 42 50 42c24 0 46 -16 46 -46c0 -26 -20 -42 -46 -42zM400 537c-20 0 -50 8 -50 46c0 14 10 42 50 42c24 0 46 -16 46 -46
c0 -26 -20 -42 -46 -42z" />
    <glyph glyph-name="egrave" unicode="&#xe8;" horiz-adv-x="370" 
d="M300 110l15 -11c5 -3 5 -5 3 -9c-22 -36 -90 -100 -178 -100c-66 0 -106 36 -106 106c0 78 42 184 124 258c40 36 96 62 150 62c46 0 70 -30 70 -59c0 -51 -34 -97 -92 -129c-54 -28 -108 -40 -146 -42c-4 -10 -10 -38 -10 -74c0 -40 26 -64 54 -64c46 0 86 30 108 60
c2 2 6 4 8 2zM260 368c-50 0 -100 -96 -112 -150c18 0 66 12 100 38c22 18 42 48 42 76c0 18 -8 36 -30 36zM315 470l-120 84c-36 26 -14 72 18 72c18 0 28 -12 38 -24l82 -115c2 -3 3 -6 1 -8l-9 -9c-2 -2 -6 -2 -10 0z" />
    <glyph glyph-name="iacute" unicode="&#xed;" horiz-adv-x="292" 
d="M232 280l-56 -152c-14 -38 -18 -54 -18 -64c0 -8 4 -14 12 -14c20 2 72 56 78 64c2 4 6 4 9 1l11 -11c4 -4 6 -6 2 -10c-6 -8 -76 -104 -185 -104c-21 0 -29 12 -29 28c0 20 18 66 56 178l28 78c8 28 16 46 16 58c0 8 -4 12 -12 12c-16 0 -62 -52 -76 -68
c-4 -4 -8 -4 -12 0l-10 9c-4 3 -6 5 -4 9c6 6 96 122 184 122c24 0 36 -12 36 -32s-12 -57 -30 -104zM362 536l-152 -66c-4 -2 -7 -2 -8 0l-7 9c-2 3 -1 5 1 7l120 106c14 12 28 20 42 20c32 0 52 -55 4 -76z" />
    <glyph glyph-name="icircumflex" unicode="&#xee;" horiz-adv-x="292" 
d="M232 280l-56 -152c-14 -38 -18 -54 -18 -64c0 -8 4 -14 12 -14c20 2 72 56 78 64c2 4 6 4 9 1l11 -11c4 -4 6 -6 2 -10c-6 -8 -76 -104 -185 -104c-21 0 -29 12 -29 28c0 20 18 66 56 178l28 78c8 28 16 46 16 58c0 8 -4 12 -12 12c-16 0 -62 -52 -76 -68
c-4 -4 -8 -4 -12 0l-10 9c-4 3 -6 5 -4 9c6 6 96 122 184 122c24 0 36 -12 36 -32s-12 -57 -30 -104zM303 476l-60 66l-103 -65c-4 -2 -7 -2 -9 1l-6 8c-2 2 -1 5 2 8l131 143c5 5 11 3 14 -5l49 -144c1 -4 0 -6 -2 -7l-8 -5c-4 -2 -6 -2 -8 0z" />
    <glyph glyph-name="idieresis" unicode="&#xef;" horiz-adv-x="292" 
d="M232 280l-56 -152c-14 -38 -18 -54 -18 -64c0 -8 4 -14 12 -14c20 2 72 56 78 64c2 4 6 4 9 1l11 -11c4 -4 6 -6 2 -10c-6 -8 -76 -104 -185 -104c-21 0 -29 12 -29 28c0 20 16 67 56 178l28 78c10 27 16 46 16 58c0 8 -4 12 -12 12c-16 0 -62 -52 -76 -68
c-4 -4 -8 -4 -12 0l-10 9c-4 3 -6 5 -4 9c6 6 96 122 184 122c24 0 36 -12 36 -32s-13 -57 -30 -104zM173 537c-20 0 -50 8 -50 46c0 14 10 42 50 42c24 0 46 -16 46 -46c0 -26 -20 -42 -46 -42zM331 537c-20 0 -50 8 -50 46c0 14 10 42 50 42c24 0 46 -16 46 -46
c0 -26 -20 -42 -46 -42z" />
    <glyph glyph-name="igrave" unicode="&#xec;" horiz-adv-x="292" 
d="M232 280l-56 -152c-14 -38 -18 -54 -18 -64c0 -8 4 -14 12 -14c20 2 72 56 78 64c2 4 6 4 9 1l11 -11c4 -4 6 -6 2 -10c-6 -8 -76 -104 -185 -104c-21 0 -29 12 -29 28c0 20 18 66 56 178l28 78c8 28 16 46 16 58c0 8 -4 12 -12 12c-16 0 -62 -52 -76 -68
c-4 -4 -8 -4 -12 0l-10 9c-4 3 -6 5 -4 9c6 6 96 122 184 122c24 0 36 -12 36 -32s-12 -57 -30 -104zM236 470l-120 84c-36 26 -14 72 18 72c18 0 28 -12 38 -24l82 -115c2 -3 3 -6 1 -8l-9 -9c-2 -2 -6 -2 -10 0z" />
    <glyph glyph-name="ntilde" unicode="&#xf1;" horiz-adv-x="530" 
d="M162 98l-32 -92c-2 -4 -4 -6 -14 -6h-64c-9 0 -10 7 -8 13l68 185c22 64 46 126 46 140c0 10 -6 16 -15 16c-18 0 -57 -36 -73 -52c-2 -4 -6 -4 -9 -1l-11 11c-4 2 -6 6 -2 10c14 18 80 94 171 94c29 0 38 -20 38 -34c0 -22 -29 -90 -47 -134l6 -4c30 46 122 172 217 172
c37 0 57 -28 57 -56c0 -26 -13 -73 -54 -176c-26 -66 -40 -104 -40 -118c0 -10 4 -16 12 -16c14 0 52 34 62 48c4 2 8 2 12 -2l10 -8c4 -2 4 -6 0 -12c-12 -16 -82 -86 -166 -86c-22 0 -34 12 -34 30s28 86 60 174c15 42 43 118 43 130c0 16 -9 24 -23 24
c-30 0 -114 -80 -156 -148c-20 -32 -38 -62 -54 -102zM489 594l14 -8c4 -2 4 -8 -2 -18c-18 -34 -50 -68 -78 -68c-20 0 -38 4 -62 11c-20 5 -30 9 -44 9c-18 0 -42 -18 -52 -36c-2 -4 -4 -6 -8 -4l-12 8c-2 2 -2 6 0 10c14 38 50 80 84 80c16 0 30 -4 54 -11
c18 -5 30 -7 52 -7s38 16 46 30c2 4 4 6 8 4z" />
    <glyph glyph-name="oacute" unicode="&#xf3;" horiz-adv-x="410" 
d="M160 -10c-59 0 -120 45 -120 137c0 84 28 164 84 225c40 44 88 64 142 64c58 0 124 -36 124 -126c0 -64 -26 -168 -86 -234c-38 -44 -84 -66 -144 -66zM146 44c39 0 75 28 114 93c37 63 68 146 68 182c0 22 -14 45 -43 45c-41 0 -79 -35 -128 -117
c-33 -56 -53 -116 -53 -156c0 -27 20 -47 42 -47zM421 536l-152 -66c-4 -2 -7 -2 -8 0l-7 9c-2 3 -1 5 1 7l120 106c14 12 28 20 42 20c32 0 52 -55 4 -76z" />
    <glyph glyph-name="ocircumflex" unicode="&#xf4;" horiz-adv-x="410" 
d="M160 -10c-59 0 -120 45 -120 137c0 84 28 164 84 225c40 44 88 64 142 64c58 0 124 -36 124 -126c0 -64 -26 -168 -86 -234c-38 -44 -84 -66 -144 -66zM146 44c39 0 75 28 114 93c37 63 68 146 68 182c0 22 -14 45 -43 45c-41 0 -79 -35 -128 -117
c-33 -56 -53 -116 -53 -156c0 -27 20 -47 42 -47zM362 476l-60 66l-103 -65c-4 -2 -7 -2 -9 1l-6 8c-2 2 -1 5 2 8l131 143c5 5 11 3 14 -5l49 -144c1 -4 0 -6 -2 -7l-8 -5c-4 -2 -6 -2 -8 0z" />
    <glyph glyph-name="odieresis" unicode="&#xf6;" horiz-adv-x="410" 
d="M160 -10c-59 0 -120 45 -120 137c0 84 28 164 84 225c40 44 88 64 142 64c58 0 124 -36 124 -126c0 -64 -27 -167 -86 -234c-39 -43 -84 -66 -144 -66zM146 44c39 0 75 28 114 93c37 63 68 146 68 182c0 22 -14 45 -43 45c-41 0 -79 -35 -128 -117
c-33 -56 -53 -116 -53 -156c0 -27 20 -47 42 -47zM242 537c-20 0 -50 8 -50 46c0 14 10 42 50 42c24 0 46 -16 46 -46c0 -26 -20 -42 -46 -42zM400 537c-20 0 -50 8 -50 46c0 14 10 42 50 42c24 0 46 -16 46 -46c0 -26 -20 -42 -46 -42z" />
    <glyph glyph-name="ograve" unicode="&#xf2;" horiz-adv-x="410" 
d="M160 -10c-59 0 -120 45 -120 137c0 84 28 164 84 225c40 44 88 64 142 64c58 0 124 -36 124 -126c0 -64 -26 -168 -86 -234c-38 -44 -84 -66 -144 -66zM146 44c39 0 75 28 114 93c37 63 68 146 68 182c0 22 -14 45 -43 45c-41 0 -79 -35 -128 -117
c-33 -56 -53 -116 -53 -156c0 -27 20 -47 42 -47zM305 470l-120 84c-36 26 -14 72 18 72c18 0 28 -12 38 -24l82 -115c2 -3 3 -6 1 -8l-9 -9c-2 -2 -6 -2 -10 0z" />
    <glyph glyph-name="otilde" unicode="&#xf5;" horiz-adv-x="410" 
d="M160 -10c-59 0 -120 45 -120 137c0 84 28 164 84 225c40 44 88 64 142 64c58 0 124 -36 124 -126c0 -64 -26 -168 -86 -234c-38 -44 -84 -66 -144 -66zM146 44c39 0 75 28 114 93c37 63 68 146 68 182c0 22 -14 45 -43 45c-41 0 -79 -35 -128 -117
c-33 -56 -53 -116 -53 -156c0 -27 20 -47 42 -47zM399 594l14 -8c4 -2 4 -8 -2 -18c-18 -34 -50 -68 -78 -68c-20 0 -38 4 -62 11c-20 5 -30 9 -44 9c-18 0 -42 -18 -52 -36c-2 -4 -4 -6 -8 -4l-12 8c-2 2 -2 6 0 10c14 38 50 80 84 80c16 0 30 -4 54 -11c18 -5 30 -7 52 -7
s38 16 46 30c2 4 4 6 8 4z" />
    <glyph glyph-name="scaron" unicode="&#x161;" horiz-adv-x="312" 
d="M252 124c0 -78 -62 -134 -152 -134c-66 0 -100 24 -100 58c0 24 16 42 38 42c24 0 40 -16 48 -40c6 -16 14 -26 32 -26c28 0 50 22 50 64c2 34 -24 63 -45 99c-20 34 -39 59 -37 101c0 64 54 128 148 128c34 0 78 -14 78 -56c0 -26 -16 -42 -38 -42c-18 0 -34 8 -40 34
c-4 12 -8 28 -24 28c-20 0 -42 -14 -42 -58c0 -34 35 -75 46 -90c20 -27 38 -62 38 -108zM246 568l104 65c2 1 5 1 7 -2l7 -9c1 -2 1 -4 -3 -8l-129 -142c-6 -4 -12 -2 -14 4l-49 146c-1 2 -1 7 1 8l9 6c2 1 5 0 7 -2z" />
    <glyph glyph-name="uacute" unicode="&#xfa;" horiz-adv-x="502" 
d="M368 310l30 90c2 6 8 6 14 6h68c10 0 12 -4 10 -12l-70 -204c-28 -80 -40 -120 -40 -126c0 -10 4 -12 10 -12c14 0 52 38 66 56c2 4 6 4 10 1l12 -9c2 -2 2 -6 0 -10c-10 -16 -82 -100 -166 -100c-20 0 -32 12 -32 30c0 14 44 128 55 157l-7 4
c-40 -57 -136 -191 -234 -191c-24 0 -46 26 -46 46c0 38 24 90 65 181c28 62 43 109 43 123c0 10 -8 16 -18 16c-16 0 -54 -34 -72 -54c-2 -4 -8 -4 -11 0l-11 10c-2 2 -2 4 0 8c16 18 81 96 166 96c28 0 42 -22 42 -42c0 -24 -19 -77 -57 -167c-25 -59 -47 -113 -47 -133
c0 -10 8 -16 16 -16c34 0 132 118 158 160c18 28 33 54 46 92zM487 536l-152 -66c-4 -2 -7 -2 -8 0l-7 9c-2 3 -1 5 1 7l120 106c14 12 28 20 42 20c32 0 52 -55 4 -76z" />
    <glyph glyph-name="ucircumflex" unicode="&#xfb;" horiz-adv-x="502" 
d="M368 310l30 90c2 6 8 6 14 6h68c10 0 12 -4 10 -12l-70 -204c-28 -80 -40 -120 -40 -126c0 -10 4 -12 10 -12c14 0 52 38 66 56c2 4 6 4 10 1l12 -9c2 -2 2 -6 0 -10c-10 -16 -82 -100 -166 -100c-20 0 -32 12 -32 30c0 14 44 128 55 157l-7 4
c-40 -57 -136 -191 -234 -191c-24 0 -46 26 -46 46c0 38 24 90 65 181c28 62 43 109 43 123c0 10 -8 16 -18 16c-16 0 -54 -34 -72 -54c-2 -4 -8 -4 -11 0l-11 10c-2 2 -2 4 0 8c16 18 81 96 166 96c28 0 42 -22 42 -42c0 -24 -19 -77 -57 -167c-25 -59 -47 -113 -47 -133
c0 -10 8 -16 16 -16c34 0 132 118 158 160c18 28 33 54 46 92zM418 476l-60 66l-103 -65c-4 -2 -7 -2 -9 1l-6 8c-2 2 -1 5 2 8l131 143c5 5 11 3 14 -5l49 -144c1 -4 0 -6 -2 -7l-8 -5c-4 -2 -6 -2 -8 0z" />
    <glyph glyph-name="udieresis" unicode="&#xfc;" horiz-adv-x="502" 
d="M368 310l30 90c2 6 8 6 14 6h68c10 0 13 -4 10 -12l-70 -204c-28 -80 -40 -120 -40 -126c0 -10 4 -12 10 -12c14 0 52 38 66 56c2 4 6 4 10 1l12 -9c2 -2 2 -6 0 -10c-10 -16 -82 -100 -166 -100c-20 0 -32 12 -32 30c0 14 44 128 55 157l-7 4
c-40 -57 -136 -191 -234 -191c-24 0 -46 26 -46 46c0 38 24 90 65 181c28 62 43 109 43 123c0 10 -8 16 -18 16c-16 0 -54 -34 -72 -54c-2 -4 -8 -4 -11 0l-11 10c-2 2 -2 4 0 8c16 18 81 96 166 96c28 0 42 -22 42 -42c0 -24 -19 -77 -57 -167c-25 -59 -47 -113 -47 -133
c0 -10 8 -16 16 -16c34 0 132 118 158 160c18 28 33 54 46 92zM288 537c-20 0 -50 8 -50 46c0 14 10 42 50 42c24 0 46 -16 46 -46c0 -26 -20 -42 -46 -42zM446 537c-20 0 -50 8 -50 46c0 14 10 42 50 42c24 0 46 -16 46 -46c0 -26 -20 -42 -46 -42z" />
    <glyph glyph-name="ugrave" unicode="&#xf9;" horiz-adv-x="502" 
d="M368 310l30 90c2 6 8 6 14 6h68c10 0 12 -4 10 -12l-70 -204c-28 -80 -40 -120 -40 -126c0 -10 4 -12 10 -12c14 0 52 38 66 56c2 4 6 4 10 1l12 -9c2 -2 2 -6 0 -10c-10 -16 -82 -100 -166 -100c-20 0 -32 12 -32 30c0 14 44 128 55 157l-7 4
c-40 -57 -136 -191 -234 -191c-24 0 -46 26 -46 46c0 38 24 90 65 181c28 62 43 109 43 123c0 10 -8 16 -18 16c-16 0 -54 -34 -72 -54c-2 -4 -8 -4 -11 0l-11 10c-2 2 -2 4 0 8c16 18 81 96 166 96c28 0 42 -22 42 -42c0 -24 -19 -77 -57 -167c-25 -59 -47 -113 -47 -133
c0 -10 8 -16 16 -16c34 0 132 118 158 160c18 28 33 54 46 92zM351 470l-120 84c-36 26 -14 72 18 72c18 0 28 -12 38 -24l82 -115c2 -3 3 -6 1 -8l-9 -9c-2 -2 -6 -2 -10 0z" />
    <glyph glyph-name="yacute" unicode="&#xfd;" horiz-adv-x="423" 
d="M236 24h5c18 32 78 150 90 200c4 16 12 40 12 64c0 18 -4 34 -8 46s-10 26 -10 40c0 18 14 42 50 42c38 0 50 -28 50 -64c0 -44 -36 -132 -70 -200c-50 -98 -156 -274 -243 -358c-29 -28 -89 -91 -151 -91c-44 0 -64 24 -64 52c0 30 24 50 46 52c18 0 26 -8 36 -18
c8 -8 20 -14 28 -14c10 0 26 4 45 17c46 33 83 89 99 114c11 18 14 42 10 68c-2 32 -25 298 -37 342c-5 18 -7 26 -19 26c-18 0 -44 -50 -52 -72c-2 -6 -4 -6 -9 -5l-15 5c-4 0 -4 4 -2 12c4 12 46 134 134 134c36 0 56 -26 62 -110c8 -114 12 -232 13 -282zM438 536
l-152 -66c-4 -2 -7 -2 -8 0l-7 9c-2 3 -1 5 1 7l120 106c14 12 28 20 42 20c32 0 52 -55 4 -76z" />
    <glyph glyph-name="ydieresis" unicode="&#xff;" horiz-adv-x="423" 
d="M236 24h5c18 32 78 150 90 200c4 16 12 40 12 64c0 18 -4 34 -8 46s-10 26 -10 40c0 18 14 42 50 42c38 0 50 -28 50 -64c0 -44 -36 -132 -70 -200c-50 -98 -156 -274 -243 -358c-29 -28 -89 -91 -151 -91c-44 0 -64 24 -64 52c0 30 24 50 46 52c18 0 26 -8 36 -18
c8 -8 20 -14 28 -14c10 0 26 4 45 17c46 33 83 89 99 114c11 18 14 42 10 68c-2 32 -25 298 -37 342c-5 18 -7 26 -19 26c-18 0 -44 -50 -52 -72c-2 -6 -4 -6 -9 -5l-15 5c-4 0 -4 4 -2 12c4 12 46 134 134 134c36 0 56 -26 62 -110c8 -114 12 -232 13 -282zM218 537
c-20 0 -50 8 -50 46c0 14 10 42 50 42c24 0 46 -16 46 -46c0 -26 -20 -42 -46 -42zM376 537c-20 0 -50 8 -50 46c0 14 10 42 50 42c24 0 46 -16 46 -46c0 -26 -20 -42 -46 -42z" />
    <glyph glyph-name="zcaron" unicode="&#x17e;" horiz-adv-x="482" 
d="M178 118l2 -6c50 2 72 -16 106 -42c38 -34 60 -55 82 -55c20 0 36 14 36 27c0 10 -4 18 -10 28c-10 18 -12 30 -12 42c0 22 18 38 40 38c32 0 46 -22 46 -56c0 -52 -36 -120 -142 -120c-58 0 -94 18 -128 42c-16 12 -44 38 -64 38c-16 0 -28 -10 -36 -36
c-6 -20 -22 -34 -48 -34c-18 0 -26 16 -26 30c0 42 54 80 84 92l202 192l-4 6c-46 -6 -74 10 -98 30c-16 14 -42 44 -66 44c-16 0 -24 -8 -24 -16s4 -12 12 -18c8 -4 18 -14 18 -34s-18 -40 -38 -40c-28 0 -52 18 -52 54c0 42 38 92 116 92c50 0 82 -12 122 -34
c24 -14 44 -24 62 -24c16 0 24 16 30 36c6 18 24 46 56 46c16 0 26 -14 26 -28c0 -36 -48 -76 -80 -94zM301 568l104 65c2 1 5 1 7 -2l7 -9c1 -2 1 -4 -3 -8l-129 -142c-6 -4 -12 -2 -14 4l-49 146c-1 2 -1 7 1 8l9 6c2 1 5 0 7 -2z" />
    <glyph glyph-name="dollaroldstyle" unicode="&#xf724;" horiz-adv-x="382" 
d="M352 282h-18c-4 0 -6 2 -6 6c0 19 -9 69 -59 82l-33 -123c69 -34 102 -70 102 -121c0 -96 -74 -132 -164 -125l-17 -69c-1 -4 -4 -5 -7 -4l-23 5c-4 1 -6 3 -5 7l17 65c-44 10 -71 39 -80 39s-18 -4 -27 -24c-1 -3 -4 -4 -7 -3l-13 7c-3 1 -4 3 -3 6l47 124c1 3 4 5 8 4
l17 -3c4 -1 5 -4 5 -7c-1 -5 -4 -22 -4 -27c0 -39 24 -71 65 -83l36 137c-67 39 -100 75 -100 126c0 49 35 108 132 108c9 0 19 0 29 -2l15 53c1 5 4 6 8 5l20 -4c4 -1 7 -4 5 -9l-14 -51c23 -6 48 -23 55 -23c5 0 9 3 15 17c1 3 3 5 6 5h16c4 0 5 -3 4 -6l-15 -107
c-1 -4 -3 -5 -7 -5zM207 265l29 112c-6 1 -11 1 -17 1c-45 0 -63 -30 -63 -54c0 -21 13 -40 51 -59zM213 157l-33 -125c6 -1 11 -1 16 -1c49 0 75 33 75 61c0 22 -11 42 -58 65z" />
    <glyph glyph-name="dollarsuperior" unicode="&#xf6e4;" horiz-adv-x="332" 
d="M67 422l39 109c1 3 3 6 7 5l15 -4c4 -1 4 -4 3 -10c-4 -31 0 -75 48 -91l33 120c-60 35 -87 68 -87 110c0 41 36 93 115 93c6 0 13 0 20 -1l12 45c1 4 3 6 7 5l20 -5c3 -1 4 -3 3 -8l-11 -42c18 -5 38 -20 44 -20c4 0 10 7 12 14c1 3 3 5 5 5h14c3 0 3 -3 3 -6l-12 -93
c0 -3 -2 -5 -6 -5h-15c-3 0 -5 2 -5 6c0 14 -9 58 -47 70l-27 -108c58 -30 86 -61 86 -108c0 -77 -62 -111 -139 -107l-15 -59c-1 -4 -3 -6 -6 -5l-20 4c-4 1 -5 4 -4 8l14 57c-35 8 -58 33 -65 33c-8 0 -13 -3 -21 -20c-2 -4 -5 -5 -8 -3l-9 5c-3 1 -4 3 -3 6zM229 627
l25 98c-47 3 -66 -21 -66 -45c0 -21 11 -35 41 -53zM240 535l-29 -109c45 -6 74 23 74 51c3 19 -10 36 -45 58z" />
    <glyph glyph-name="parenleftsuperior" unicode="&#x207d;" horiz-adv-x="212" 
d="M104 515c0 199 233 320 248 320c8 0 14 -11 14 -15c1 -4 -2 -7 -6 -9c-123 -70 -188 -199 -188 -321c0 -96 19 -134 23 -146c2 -1 2 -3 2 -4c0 -7 -12 -11 -17 -11c-12 0 -76 86 -76 186z" />
    <glyph glyph-name="parenrightsuperior" unicode="&#x207e;" horiz-adv-x="212" 
d="M239 651c0 -208 -231 -322 -246 -322c-8 0 -14 10 -14 14s3 8 7 10c122 70 185 195 185 316c0 100 -19 139 -23 148c-3 4 -3 6 -3 10c0 3 14 8 18 8c11 0 76 -76 76 -184z" />
    <glyph glyph-name="twodotenleader" unicode="&#x2025;" 
d="M114 -10c-36 0 -63 26 -63 64c0 27 21 62 63 62c50 0 66 -41 66 -64c0 -33 -26 -62 -66 -62zM364 -10c-36 0 -63 26 -63 64c0 27 21 62 63 62c50 0 66 -41 66 -64c0 -33 -26 -62 -66 -62z" />
    <glyph glyph-name="onedotenleader" unicode="&#x2024;" 
d="M298 52c0 -33 -26 -62 -66 -62c-37 0 -63 26 -63 64c0 27 20 62 63 62c49 0 66 -41 66 -64z" />
    <glyph glyph-name="zerooldstyle" unicode="&#xf730;" horiz-adv-x="514" 
d="M258 -10c-142 0 -209 97 -209 201c0 99 80 225 236 225c123 0 203 -81 203 -197c0 -124 -100 -229 -230 -229zM289 363c-121 0 -154 -120 -154 -173c0 -99 61 -147 120 -147c108 0 146 108 146 179c0 92 -56 141 -112 141z" />
    <glyph glyph-name="oneoldstyle" unicode="&#xf731;" horiz-adv-x="346" 
d="M87 85l89 241c4 10 7 21 7 30s-8 17 -31 17h-33c-7 0 -11 3 -10 8l5 21c2 5 5 7 11 7c11 0 47 -3 127 -3c73 0 106 3 118 3c7 0 10 -2 9 -7l-5 -21c-2 -5 -5 -8 -11 -8h-23c-42 -1 -53 -8 -71 -57l-87 -234c-4 -12 -6 -21 -6 -28c0 -16 8 -21 35 -21h30c5 0 6 -4 5 -10
l-5 -18c-1 -5 -4 -8 -9 -8c-12 0 -45 3 -125 3s-116 -3 -123 -3c-5 0 -9 2 -7 8l4 21c1 5 4 7 12 7h32c39 0 46 10 62 52z" />
    <glyph glyph-name="twooldstyle" unicode="&#xf732;" horiz-adv-x="414" 
d="M260 0h-273c-7 0 -14 3 -14 12c0 6 2 13 11 17c62 27 296 157 296 256c0 40 -26 71 -73 71c-40 0 -77 -17 -103 -45c-8 -9 -11 -11 -16 -11c-7 1 -12 7 -12 15c0 10 62 101 186 101c54 0 121 -30 121 -113c0 -89 -131 -162 -239 -221c-3 -2 -7 -4 -7 -7c0 -4 4 -8 9 -8
l128 4c20 1 37 9 52 30c3 4 5 6 8 6s21 -7 16 -14l-43 -88c-6 -11 -10 -13 -14 -13c-6 0 -9 1 -14 4s-9 4 -19 4z" />
    <glyph glyph-name="threeoldstyle" unicode="&#xf733;" horiz-adv-x="372" 
d="M233 416c83 0 114 -55 114 -102c0 -73 -81 -135 -154 -168c51 -24 99 -75 99 -160c0 -98 -101 -226 -244 -226c-72 0 -138 46 -138 98c0 21 16 49 43 49c29 0 46 -30 46 -53c0 -48 19 -59 47 -59c96 0 150 103 150 170c0 75 -37 129 -86 153c-6 3 -12 8 -12 15
s4 11 12 14c85 23 143 84 143 138c0 34 -20 71 -70 71c-44 0 -73 -16 -95 -41c-7 -7 -11 -11 -16 -11s-15 10 -15 15c0 14 64 97 176 97z" />
    <glyph glyph-name="fouroldstyle" unicode="&#xf734;" horiz-adv-x="492" 
d="M346 61h82c6 0 10 -5 8 -10l-13 -41c-3 -8 -8 -10 -13 -10h-88l-72 -191c-3 -9 -8 -15 -16 -15h-69c-4 0 -7 3 -7 9c0 4 1 9 4 16l73 181h-235c-14 0 -22 7 -22 16c0 8 8 17 18 25l470 398c10 8 16 11 22 11s9 -4 9 -11c0 -4 -1 -9 -3 -14zM98 61h160l89 211c1 2 2 4 2 6
c0 4 -3 6 -6 6c-4 0 -10 -2 -16 -7l-232 -197c-6 -5 -8 -9 -8 -12c0 -4 3 -7 11 -7z" />
    <glyph glyph-name="fiveoldstyle" unicode="&#xf735;" horiz-adv-x="378" 
d="M158 406h177c30 1 38 5 56 28c3 3 5 4 15 4c9 0 10 -1 10 -3s-1 -4 -2 -7l-42 -96c-4 -10 -17 -12 -39 -12h-178l-34 -100c85 -34 165 -108 165 -216c0 -139 -121 -245 -240 -245c-62 0 -121 34 -121 80c0 23 17 43 40 43c21 0 37 -21 45 -40c12 -28 34 -45 60 -45
c56 0 128 65 128 162c0 117 -76 165 -122 185c-9 4 -13 8 -13 14c0 5 1 8 2 12l74 227c3 9 7 9 19 9z" />
    <glyph glyph-name="sixoldstyle" unicode="&#xf736;" horiz-adv-x="447" 
d="M208 -10c-83 0 -160 56 -160 191c0 237 299 468 381 468c11 0 17 -10 17 -17c0 -10 -6 -16 -21 -22c-119 -48 -219 -213 -222 -232l11 -4c22 13 44 22 73 22c96 0 140 -84 140 -151c0 -103 -67 -255 -219 -255zM207 21c90 0 124 191 124 255c0 38 -16 85 -60 85
c-107 0 -132 -143 -132 -227c0 -92 40 -113 68 -113z" />
    <glyph glyph-name="sevenoldstyle" unicode="&#xf737;" horiz-adv-x="428" 
d="M189 406h247c10 0 17 -4 17 -10c0 -10 -13 -24 -105 -176c-130 -215 -226 -427 -255 -473c-18 -28 -34 -44 -65 -44c-22 0 -38 13 -38 34c0 19 15 40 31 62c29 39 265 383 328 493c4 7 7 14 7 21s-6 11 -18 11h-178c-50 0 -74 -41 -91 -68c-2 -3 -5 -5 -10 -5
c-10 0 -17 2 -17 7c0 2 1 5 2 8l82 167c3 6 6 9 14 9c9 0 10 -8 10 -12c3 -24 26 -24 39 -24z" />
    <glyph glyph-name="eightoldstyle" unicode="&#xf738;" horiz-adv-x="457" 
d="M205 -10c-109 0 -159 73 -159 135c0 90 76 144 179 193c-62 83 -81 116 -81 169c0 54 51 158 182 158c129 0 167 -78 167 -137c0 -86 -84 -147 -163 -182c79 -88 84 -121 84 -168c0 -56 -47 -169 -209 -168zM211 24c64 0 115 39 115 115c0 58 -29 88 -78 151
c-53 -24 -121 -68 -121 -167c0 -67 48 -99 84 -99zM332 608c-87 0 -97 -77 -97 -107c0 -51 31 -99 74 -148c48 29 107 63 107 157c0 48 -30 98 -84 98z" />
    <glyph glyph-name="nineoldstyle" unicode="&#xf739;" horiz-adv-x="472" 
d="M278 416c159 0 164 -138 164 -180c0 -287 -358 -510 -425 -510c-7 0 -13 7 -14 16c0 9 7 16 17 20c81 32 223 179 265 269l-8 5c-15 -10 -44 -23 -78 -23c-115 0 -146 93 -146 151c0 107 83 252 225 252zM280 381c-88 0 -130 -160 -130 -225c0 -61 17 -110 76 -110
c67 0 126 116 126 215c0 77 -21 120 -72 120z" />
    <glyph glyph-name="commasuperior" unicode="&#xf6e2;" horiz-adv-x="156" 
d="M174 413c0 -104 -106 -139 -131 -139c-6 0 -8 3 -8 11c0 5 3 8 10 10c23 6 72 35 72 77c0 22 -8 30 -22 46c-4 4 -25 18 -25 39c0 22 15 42 39 42c42 0 65 -44 65 -86z" />
    <glyph glyph-name="threequartersemdash" unicode="&#xf6de;" horiz-adv-x="750" 
d="M762 278v-64h-750v64h750z" />
    <glyph glyph-name="periodsuperior" unicode="&#xf6e8;" horiz-adv-x="156" 
d="M112 380c-29 0 -49 21 -49 49c0 19 15 47 48 47c41 0 52 -36 52 -47c0 -23 -21 -49 -51 -49z" />
    <glyph glyph-name="asuperior" unicode="&#xf6e9;" horiz-adv-x="352" 
d="M325 533h47c4 0 6 -2 6 -4c0 -3 -2 -7 -3 -11c-3 -6 -24 -59 -44 -110c-18 -46 -35 -93 -35 -102c0 -6 3 -9 8 -9c8 0 30 18 47 35c4 4 8 4 11 1l10 -7c2 -2 2 -6 0 -10c-16 -21 -68 -65 -126 -65c-16 0 -25 7 -25 18s5 28 26 81l-7 3c-21 -34 -80 -102 -138 -102
c-33 0 -56 23 -56 61c0 85 107 227 208 227c33 0 44 -16 52 -28c13 20 14 22 19 22zM121 330c0 -19 8 -31 22 -31c21 0 79 57 109 109c17 29 26 52 26 69c0 18 -7 33 -35 33c-55 0 -122 -124 -122 -180z" />
    <glyph glyph-name="bsuperior" unicode="&#xf6ea;" horiz-adv-x="336" 
d="M167 716h115c5 0 8 -3 8 -6s-2 -7 -4 -11l-114 -242l6 -3c32 44 74 85 130 85c37 0 55 -25 55 -53c0 -69 -77 -235 -253 -235c-37 0 -61 17 -61 44c0 14 6 32 17 58c35 83 100 230 125 293c5 13 8 24 8 29c0 8 -5 11 -21 11h-18c-4 0 -6 2 -5 7l5 18c1 3 3 5 7 5z
M287 466c0 14 -8 26 -23 26c-42 0 -144 -127 -144 -191c0 -16 8 -20 25 -21c49 0 142 96 142 186z" />
    <glyph glyph-name="centsuperior" unicode="&#xf6e0;" horiz-adv-x="332" 
d="M205 331l-19 4c-3 1 -4 3 -3 7l17 72c-57 -2 -102 27 -102 89c0 75 66 190 177 228l18 75c1 4 5 6 9 5l17 -3c3 -1 5 -4 4 -8l-15 -61c6 1 16 2 29 2c21 0 48 -13 48 -36c0 -28 -19 -38 -31 -38c-10 0 -18 4 -23 11c-5 8 -16 16 -34 16l-57 -235c32 1 58 12 73 22
c3 1 5 2 8 2c5 0 11 -13 11 -17c0 -8 -47 -44 -102 -49l-19 -83c-1 -2 -3 -4 -6 -3zM211 460l55 233c-64 -21 -92 -127 -92 -173c0 -36 18 -55 37 -60z" />
    <glyph glyph-name="dsuperior" unicode="&#xf6eb;" horiz-adv-x="355" 
d="M316 716h115c7 0 10 -4 10 -8c0 -2 0 -5 -2 -10c-21 -56 -138 -371 -138 -393c0 -6 3 -9 9 -9c7 0 29 18 43 30c4 3 7 4 10 0l9 -9c3 -3 2 -6 -2 -10c-27 -26 -68 -56 -118 -56c-16 0 -26 8 -26 19c0 15 15 55 29 88l-7 2c-35 -47 -90 -109 -145 -109
c-37 0 -57 28 -57 57c0 82 95 231 206 231c21 0 39 -9 53 -22l44 136c2 5 4 13 4 20c0 6 -6 11 -19 12l-24 1c-4 0 -6 2 -5 5l5 21c1 2 3 4 6 4zM280 474c0 22 -12 38 -38 38c-56 0 -119 -141 -119 -184c0 -18 7 -30 21 -30c22 0 81 58 113 114c13 23 23 45 23 62z" />
    <glyph glyph-name="esuperior" unicode="&#xf6ec;" horiz-adv-x="284" 
d="M136 251c-52 0 -80 25 -80 71c0 103 107 217 209 217c36 0 52 -21 52 -44c0 -74 -109 -109 -179 -116c-3 -8 -6 -21 -6 -43c0 -28 16 -45 38 -45c34 0 60 20 83 40c2 1 4 4 7 4c2 0 12 -10 12 -14c0 -6 -54 -70 -136 -70zM145 405c19 -1 104 22 104 76c0 11 -4 23 -21 23
c-38 0 -74 -64 -83 -99z" />
    <glyph glyph-name="isuperior" unicode="&#xf6ed;" horiz-adv-x="208" 
d="M196 446l-40 -103c-8 -22 -12 -33 -12 -39c0 -5 3 -10 9 -10c9 0 43 31 54 42c2 2 5 3 8 1l9 -8c2 -2 2 -5 -1 -10c-23 -31 -71 -68 -134 -68c-18 0 -24 8 -24 19c0 14 24 74 45 127c16 40 28 75 28 82c0 5 -3 9 -9 9c-9 0 -35 -27 -52 -44c-4 -4 -8 -4 -11 -1l-9 7
c-3 2 -3 6 4 14c26 28 73 75 130 75c19 0 28 -9 28 -19c0 -14 -10 -39 -23 -74zM254 683c0 -18 -18 -43 -51 -43c-32 0 -46 21 -46 40c0 21 19 41 46 42c35 0 51 -18 51 -39z" />
    <glyph glyph-name="lsuperior" unicode="&#xf6ee;" horiz-adv-x="194" 
d="M163 716h115c4 0 6 -2 6 -5c0 -2 0 -5 -2 -9l-145 -372c-4 -9 -6 -17 -6 -22c0 -6 2 -9 8 -9c11 0 37 21 49 29c3 3 7 4 11 1l7 -8c2 -2 1 -7 -3 -11c-27 -26 -76 -59 -128 -59c-16 0 -26 12 -26 24s15 48 23 67l118 306c3 8 5 15 5 23c0 10 -3 14 -19 15h-21
c-4 0 -7 3 -5 7l6 18c1 3 3 5 7 5z" />
    <glyph glyph-name="msuperior" unicode="&#xf6ef;" horiz-adv-x="548" 
d="M288 258h-52c-6 0 -8 3 -6 9l44 111c19 46 35 86 35 98c0 7 -3 12 -13 12c-16 0 -85 -64 -126 -125c-9 -13 -17 -27 -22 -40l-25 -60c-2 -4 -5 -5 -10 -5h-49c-7 0 -10 5 -8 9l51 125c15 37 34 82 34 90c0 5 -2 10 -8 10c-10 0 -45 -34 -54 -42c-2 -2 -5 -2 -8 1l-9 8
c-2 3 -2 5 1 8c16 22 69 72 124 72c24 0 32 -9 32 -24c0 -16 -41 -95 -47 -109l5 -3c31 46 95 136 163 136c25 0 41 -18 41 -32c0 -20 -29 -83 -39 -104l5 -3c39 54 97 139 166 139c28 0 41 -22 41 -36c0 -17 -21 -67 -39 -112c-15 -37 -29 -71 -29 -80c0 -5 3 -9 9 -9
c9 0 39 33 53 47c4 4 7 4 10 2l9 -8c2 -3 1 -6 -2 -10c-21 -31 -72 -82 -129 -82c-15 0 -28 6 -28 22c0 18 20 65 38 110c17 41 34 79 34 90s-4 16 -13 16c-17 0 -89 -70 -129 -131c-8 -13 -15 -25 -19 -36l-23 -60c-1 -3 -4 -4 -8 -4z" />
    <glyph glyph-name="nsuperior" unicode="&#x207f;" horiz-adv-x="382" 
d="M147 324l-24 -62c-1 -3 -5 -4 -11 -4h-49c-7 0 -9 4 -7 8l49 127c15 38 32 80 32 87c0 8 -3 12 -10 12c-8 0 -42 -24 -52 -33c-2 -2 -4 -2 -7 1l-8 7c-2 2 -2 5 0 8c18 22 65 64 126 64c21 0 28 -11 28 -23c0 -13 -21 -59 -34 -88l4 -4c22 32 90 115 160 115
c30 0 45 -18 45 -39c0 -18 -21 -69 -39 -115c-15 -38 -29 -72 -29 -79c0 -6 3 -10 8 -10c7 0 34 21 45 30c3 3 6 4 9 1l8 -8c3 -3 3 -6 -1 -11c-24 -25 -69 -57 -122 -57c-17 0 -26 9 -26 22c0 11 22 65 41 114c16 39 30 75 30 85s-6 16 -15 16c-26 0 -94 -57 -133 -125
c-7 -13 -13 -26 -18 -39z" />
    <glyph glyph-name="osuperior" unicode="&#xf6f0;" horiz-adv-x="336" 
d="M168 251c-49 0 -102 28 -102 108c0 58 41 180 174 180c61 0 100 -46 100 -92c0 -78 -44 -196 -172 -196zM165 288c54 0 118 131 118 176c0 21 -14 36 -40 36c-57 0 -115 -113 -115 -176c0 -19 14 -36 37 -36z" />
    <glyph glyph-name="rsuperior" unicode="&#xf6f1;" horiz-adv-x="280" 
d="M63 264l37 109c11 34 34 100 34 110c0 7 -5 12 -11 12c-12 0 -38 -20 -51 -36c-2 -3 -5 -4 -9 -1l-9 5c-2 2 -2 6 1 10c11 18 53 66 114 66c16 0 33 -6 33 -25c0 -12 -12 -47 -28 -90l5 -3c19 37 65 118 117 118c20 0 38 -14 38 -36s-17 -38 -31 -38c-7 0 -36 14 -42 14
c-15 0 -58 -35 -92 -111c-5 -12 -10 -24 -15 -38l-23 -67c-1 -4 -5 -5 -9 -5h-52c-5 0 -8 3 -7 6z" />
    <glyph glyph-name="ssuperior" unicode="&#xf6f2;" horiz-adv-x="244" 
d="M197 412c16 -16 30 -40 30 -70c0 -53 -46 -91 -116 -91c-53 0 -80 17 -80 41c0 16 13 29 30 29c18 0 30 -11 36 -25c4 -11 11 -18 25 -18c21 0 40 12 40 40c0 22 -20 41 -36 65c-14 21 -27 38 -27 67c0 49 46 89 114 89c28 0 62 -9 62 -41c0 -16 -12 -29 -29 -29
c-13 0 -26 6 -30 21c-3 11 -6 21 -22 21c-15 0 -31 -11 -31 -36c0 -24 24 -52 34 -63z" />
    <glyph glyph-name="tsuperior" unicode="&#xf6f3;" horiz-adv-x="244" 
d="M66 309l74 179h-54c-5 0 -7 4 -5 10l5 19c1 5 5 6 9 6h58l30 74c1 3 3 7 9 8c16 3 53 16 61 20c3 2 8 4 11 4s5 -2 5 -5c0 -2 -1 -5 -3 -9l-42 -92h72c5 0 6 -3 5 -6l-8 -20c-2 -6 -4 -9 -9 -9h-73l-61 -142c-6 -15 -12 -28 -12 -37c0 -6 6 -11 16 -11s51 23 62 34
c3 3 6 3 8 0l7 -11c2 -3 1 -6 -3 -10c-25 -23 -81 -60 -138 -60c-23 0 -32 11 -32 20c0 13 3 26 8 38z" />
    <glyph glyph-name="parenleftinferior" unicode="&#x208d;" horiz-adv-x="212" 
d="M40 16c0 199 233 320 248 320c8 0 14 -11 14 -15c1 -4 -2 -7 -6 -9c-123 -70 -188 -199 -188 -321c0 -96 19 -134 23 -146c2 -1 2 -3 2 -4c0 -7 -12 -11 -17 -11c-12 0 -76 86 -76 186z" />
    <glyph glyph-name="parenrightinferior" unicode="&#x208e;" horiz-adv-x="212" 
d="M175 152c0 -208 -231 -322 -246 -322c-8 0 -14 10 -14 14s3 8 7 10c122 70 185 195 185 316c0 100 -19 139 -23 148c-3 4 -3 6 -3 10c0 3 14 8 18 8c11 0 76 -76 76 -184z" />
    <glyph glyph-name="hyphensuperior" unicode="&#xf6e6;" horiz-adv-x="210" 
d="M250 545h-155c-4 0 -7 1 -7 7v27c0 5 2 8 7 8h155c6 0 8 -2 8 -7v-27c0 -6 -3 -8 -8 -8z" />
    <glyph glyph-name="colonmonetary" unicode="&#x20a1;" 
d="M342 598l27 81c1 3 4 6 7 5l19 -7c4 -2 4 -5 2 -9l-21 -66c15 3 43 -2 52 -5l23 72c1 4 3 5 7 4l19 -6c3 -1 3 -3 3 -5l-27 -77c8 -5 43 -40 46 -40c4 0 11 12 19 27c2 3 4 3 7 2l17 -6c2 -1 3 -2 2 -5l-46 -179c-1 -4 -3 -6 -7 -6l-17 1c-5 1 -7 3 -6 7
c1 11 10 57 10 68c0 41 -11 76 -35 95l-153 -468c36 3 100 27 152 147c2 4 5 5 7 4l17 -6c3 -1 4 -5 3 -9l-62 -185c-1 -3 -4 -5 -7 -4l-16 5c-3 0 -4 4 -3 6c2 5 3 13 3 16c0 9 -5 15 -13 15c-5 0 -78 -28 -93 -31l-24 -74c-2 -5 -5 -7 -8 -6l-17 6c-4 1 -5 4 -3 11l21 61
c-11 -1 -41 1 -52 3l-23 -67c-1 -3 -3 -5 -7 -4l-19 6c-3 2 -4 4 -2 9l22 64c-79 29 -106 97 -106 178c0 117 105 336 282 372zM260 82l157 482c-13 3 -38 6 -52 2l-151 -468c16 -11 34 -15 46 -16zM190 120l139 436c-96 -42 -169 -237 -169 -336c0 -49 12 -82 30 -100z" />
    <glyph glyph-name="rupiah" unicode="&#xf6dd;" horiz-adv-x="1034" 
d="M86 84l146 458c3 10 5 18 5 27c0 13 -6 21 -35 21h-26c-6 0 -8 2 -8 5l6 29c1 4 4 6 8 6c70 0 173 3 216 3c83 0 221 -7 221 -143c0 -87 -103 -165 -226 -182v-4c23 -11 34 -33 42 -49c112 -212 129 -217 169 -219l14 -1l112 316c-45 -19 -97 -62 -114 -87
c-3 -5 -7 -6 -11 -3l-13 10c-3 3 -3 6 2 11c19 26 73 86 151 115l35 104c2 8 7 11 13 13l80 26c5 2 12 3 14 3s4 -2 4 -4s-2 -5 -3 -8l-51 -117c15 2 30 2 40 2c89 0 143 -62 143 -131c0 -141 -131 -263 -332 -285l-67 -197c-5 -16 -8 -29 -8 -41c0 -20 11 -26 42 -26h24
c4 0 6 -3 5 -6l-5 -24c-1 -4 -6 -6 -12 -6c-11 0 -41 3 -110 3c-83 0 -110 -3 -120 -3c-5 0 -8 1 -7 8l2 21c1 4 4 7 9 7h24c32 0 52 14 75 79l65 183c4 1 -17 2 -38 2c-29 0 -48 -1 -62 -1c-14 -1 -22 -2 -30 -2c-29 19 -124 219 -142 256c-22 44 -53 44 -84 44l-62 -190
c-5 -16 -7 -29 -7 -42c0 -16 4 -28 38 -28h35c5 0 9 -2 8 -6l-4 -25c-1 -5 -5 -9 -12 -9c-11 0 -56 3 -123 3c-71 0 -109 -3 -121 -3c-4 0 -7 2 -6 6l5 26c1 4 5 7 9 7l27 1c23 0 39 12 50 47zM343 598l-84 -268c85 0 260 4 260 152c0 20 -1 118 -145 118
c-10 0 -21 0 -31 -2zM820 368l-118 -332c104 14 229 101 229 225c0 77 -45 109 -80 109c-10 0 -20 -1 -31 -2z" />
    <glyph glyph-name="centoldstyle" unicode="&#xf7a2;" horiz-adv-x="332" 
d="M230 374l21 86c1 4 4 7 8 6l23 -5c3 -1 4 -4 3 -8l-17 -69c7 1 18 2 33 2c25 0 56 -12 56 -41c0 -28 -20 -42 -37 -42c-12 0 -22 5 -29 14c-6 8 -17 15 -35 16l-67 -268c39 0 69 15 91 28c2 1 5 2 9 2c5 0 12 -17 12 -21c0 -6 -50 -46 -125 -57l-23 -93
c-1 -4 -3 -5 -7 -5l-21 4c-4 1 -4 5 -3 9l20 83c-65 -1 -117 31 -117 108c0 90 79 211 205 251zM156 67l64 264c-65 -20 -105 -129 -105 -195c0 -40 20 -64 41 -69z" />
    <glyph glyph-name="figuredash" unicode="&#x2012;" 
d="M12 214v64h500v-64h-500z" />
    <glyph glyph-name="hypheninferior" unicode="&#xf6e5;" horiz-adv-x="210" 
d="M195 71h-155c-4 0 -7 1 -7 7v27c0 5 2 8 7 8h155c6 0 8 -2 8 -7v-27c0 -6 -3 -8 -8 -8z" />
    <glyph glyph-name="oneeighth" unicode="&#x215b;" horiz-adv-x="728" 
d="M529 -7c-95 0 -110 56 -110 80c0 66 79 97 112 114c-20 18 -52 46 -52 91c0 48 48 109 153 109c69 0 102 -33 103 -74c-1 -63 -83 -105 -110 -116c27 -24 49 -49 49 -90c0 -61 -55 -114 -145 -114zM603 81c-1 35 -23 61 -50 83c-34 -12 -72 -43 -72 -86
c0 -33 25 -58 51 -58c57 0 71 42 71 61zM673 306c0 19 -13 53 -56 53c-39 0 -69 -27 -69 -60c0 -26 20 -50 54 -80c40 16 71 46 71 87zM254 280l-4 -20c0 -4 -2 -4 -6 -4s-76 2 -96 2c-28 0 -102 -2 -108 -2c-2 0 -4 2 -2 4l2 20c2 2 4 4 8 4h26c18 0 34 2 46 26
c6 8 10 24 22 64l42 131c12 36 16 46 16 50c0 6 -2 8 -8 8s-16 -2 -36 -10l-34 -10c-4 -2 -6 0 -8 4l-6 14c0 2 0 4 4 6l160 70c12 6 20 8 26 8s10 -4 10 -8s-2 -10 -4 -18c-12 -28 -35 -100 -52 -149l-30 -88c-12 -40 -20 -64 -22 -74c-2 -16 2 -24 22 -24h26
c6 0 6 -2 6 -4zM575 643l26 -16c2 -2 4 -4 4 -6s-2 -6 -4 -10l-406 -618c-3 -5 -6 -8 -10 -8c-2 0 -4 1 -8 4l-22 16c-2 2 -4 4 -4 8c0 2 1 5 4 10l406 618c2 2 4 4 8 4c2 0 5 -1 6 -2z" />
    <glyph glyph-name="threeeighths" unicode="&#x215c;" horiz-adv-x="728" 
d="M539 -7c-95 0 -110 56 -110 80c0 66 79 97 112 114c-20 18 -52 46 -52 91c0 48 48 109 153 109c69 0 102 -33 103 -74c-1 -63 -83 -105 -110 -116c27 -24 49 -49 49 -90c0 -61 -55 -114 -145 -114zM613 81c-1 35 -23 61 -50 83c-34 -12 -72 -43 -72 -86
c0 -33 25 -58 51 -58c57 0 71 42 71 61zM683 306c0 19 -13 53 -56 53c-39 0 -69 -27 -69 -60c0 -26 20 -50 54 -80c40 16 71 46 71 87zM141 555l-10 8c-2 2 -2 6 0 10c14 24 50 72 128 72c62 0 86 -34 86 -58c0 -48 -38 -82 -92 -106c46 -20 62 -50 62 -86
c0 -82 -86 -144 -184 -144c-62 0 -94 36 -94 68c0 18 10 34 28 34c28 0 32 -24 30 -42c0 -10 16 -28 42 -28c52 0 96 48 96 106c0 32 -16 60 -46 68c-8 4 -10 6 -10 12c0 4 0 8 10 10c36 8 80 34 80 78c0 16 -10 42 -46 42c-26 0 -50 -18 -66 -38c-6 -8 -10 -10 -14 -6z
M593 643l26 -16c2 -2 4 -4 4 -6s-2 -6 -4 -10l-406 -618c-3 -5 -6 -8 -10 -8c-2 0 -4 1 -8 4l-22 16c-2 2 -4 4 -4 8c0 2 1 5 4 10l406 618c2 2 4 4 8 4c2 0 5 -1 6 -2z" />
    <glyph glyph-name="fiveeighths" unicode="&#x215d;" horiz-adv-x="728" 
d="M533 -7c-95 0 -110 56 -110 80c0 66 79 97 112 114c-20 18 -52 46 -52 91c0 48 48 109 153 109c69 0 102 -33 103 -74c-1 -63 -83 -105 -110 -116c27 -24 49 -49 49 -90c0 -61 -55 -114 -145 -114zM607 81c-1 35 -23 61 -50 83c-34 -12 -72 -43 -72 -86
c0 -33 25 -58 51 -58c57 0 71 42 71 61zM677 306c0 19 -13 53 -56 53c-39 0 -69 -27 -69 -60c0 -26 20 -50 54 -80c40 16 71 46 71 87zM589 643l26 -16c2 -2 4 -4 4 -6s-2 -6 -4 -10l-406 -618c-3 -5 -6 -8 -10 -8c-2 0 -4 1 -8 4l-22 16c-2 2 -4 4 -4 8c0 2 1 5 4 10
l406 618c2 2 4 4 8 4c2 0 5 -1 6 -2zM200 578l-26 -61c16 0 57 -6 85 -20c42 -21 57 -58 57 -97c0 -62 -66 -149 -191 -149c-36 0 -81 8 -81 36c0 15 10 24 21 24s22 -6 30 -14c10 -8 25 -12 48 -12c58 0 96 53 96 88c0 58 -37 84 -92 84c-12 0 -24 1 -26 4c-2 4 -1 8 0 11
l63 161c2 4 5 5 10 5h125c24 0 32 10 43 24c3 3 5 3 12 -1c6 -3 9 -6 7 -9l-38 -68c-2 -4 -9 -6 -22 -6h-121z" />
    <glyph glyph-name="seveneighths" unicode="&#x215e;" horiz-adv-x="728" 
d="M520 -7c-95 0 -110 56 -110 80c0 66 79 97 112 114c-20 18 -52 46 -52 91c0 48 48 109 153 109c69 0 102 -33 103 -74c-1 -63 -83 -105 -110 -116c27 -24 49 -49 49 -90c0 -61 -55 -114 -145 -114zM594 81c-1 35 -23 61 -50 83c-34 -12 -72 -43 -72 -86
c0 -33 25 -58 51 -58c57 0 71 42 71 61zM664 306c0 19 -13 53 -56 53c-39 0 -69 -27 -69 -60c0 -26 20 -50 54 -80c40 16 71 46 71 87zM550 643l26 -16c2 -2 4 -4 4 -6s-2 -6 -4 -10l-406 -618c-3 -5 -6 -8 -10 -8c-2 0 -4 1 -8 4l-22 16c-2 2 -4 4 -4 8c0 2 1 5 4 10
l406 618c2 2 4 4 8 4c2 0 5 -1 6 -2zM307 577h-115c-39 0 -52 -8 -74 -35c-2 -4 -4 -6 -6 -6c-3 0 -19 8 -19 10s1 4 2 6l55 100c2 4 5 7 8 7c6 0 15 -3 15 -6c-1 -10 0 -15 22 -15h174c5 0 9 -2 9 -7c0 -6 -54 -83 -75 -120c-28 -50 -97 -183 -115 -218
c-13 -26 -24 -42 -52 -42c-22 0 -29 14 -29 26c0 13 10 28 18 39c61 87 166 235 182 261z" />
    <glyph glyph-name="onethird" unicode="&#x2153;" horiz-adv-x="728" 
d="M257 280l-4 -20c0 -4 -2 -4 -6 -4s-76 2 -96 2c-28 0 -102 -2 -108 -2c-2 0 -4 2 -2 4l2 20c2 2 4 4 8 4h26c18 0 34 2 46 26c6 8 10 24 22 64l42 131c12 36 16 46 16 50c0 6 -2 8 -8 8s-16 -2 -36 -10l-34 -10c-4 -2 -6 0 -8 4l-6 14c0 2 0 4 4 6l160 70c12 6 20 8 26 8
s10 -4 10 -8s-2 -10 -4 -18c-12 -28 -35 -100 -52 -149l-30 -88c-12 -40 -20 -64 -22 -74c-2 -16 2 -24 22 -24h26c6 0 6 -2 6 -4zM576 643l26 -16c2 -2 4 -4 4 -6s-2 -6 -4 -10l-406 -618c-3 -5 -6 -8 -10 -8c-2 0 -4 1 -8 4l-22 16c-2 2 -4 4 -4 8c0 2 1 5 4 10l406 618
c2 2 4 4 8 4c2 0 5 -1 6 -2zM507 297l-10 8c-2 2 -2 6 0 10c14 24 50 72 128 72c62 0 86 -34 86 -58c0 -48 -38 -82 -92 -106c46 -20 62 -50 62 -86c0 -82 -86 -144 -184 -144c-62 0 -94 36 -94 68c0 18 10 34 28 34c28 0 32 -24 30 -42c0 -10 16 -28 42 -28
c52 0 96 48 96 106c0 32 -16 60 -46 68c-8 4 -10 6 -10 12c0 4 0 8 10 10c36 8 80 34 80 78c0 16 -10 42 -46 42c-26 0 -50 -18 -66 -38c-6 -8 -10 -10 -14 -6z" />
    <glyph glyph-name="twothirds" unicode="&#x2154;" horiz-adv-x="728" 
d="M611 643l26 -16c2 -2 4 -4 4 -6s-2 -6 -4 -10l-406 -618c-3 -5 -6 -8 -10 -8c-2 0 -4 1 -8 4l-22 16c-2 2 -4 4 -4 8c0 2 1 5 4 10l406 618c2 2 4 4 8 4c2 0 5 -1 6 -2zM521 297l-10 8c-2 2 -2 6 0 10c14 24 50 72 128 72c62 0 86 -34 86 -58c0 -48 -38 -82 -92 -106
c46 -20 62 -50 62 -86c0 -82 -86 -144 -184 -144c-62 0 -94 36 -94 68c0 18 10 34 28 34c28 0 32 -24 30 -42c0 -10 16 -28 42 -28c52 0 96 48 96 106c0 32 -16 60 -46 68c-8 4 -10 6 -10 12c0 4 0 8 10 10c36 8 80 34 80 78c0 16 -10 42 -46 42c-26 0 -50 -18 -66 -38
c-6 -8 -10 -10 -14 -6zM203 258h-170c-10 0 -14 2 -14 10c0 4 4 10 8 14c74 60 224 162 224 253c0 28 -16 58 -54 58c-36 0 -60 -32 -72 -52c-6 -8 -10 -8 -14 -8l-10 6c-4 2 -4 6 -4 10c12 28 54 96 136 96c66 0 100 -36 100 -95c0 -100 -148 -190 -208 -228l-2 -4h98
c32 0 48 12 64 40c4 4 8 4 10 2l10 -6c4 -2 4 -6 2 -8c-14 -20 -38 -78 -42 -94c0 -4 -4 -6 -8 -6c-6 0 -8 2 -12 8c-4 4 -18 4 -42 4z" />
    <glyph glyph-name="zerosuperior" unicode="&#x2070;" horiz-adv-x="332" 
d="M324 692c0 32 -14 48 -40 49c-70 1 -146 -201 -146 -275c0 -34 18 -55 38 -55c74 0 148 209 148 281zM388 668c0 -134 -84 -288 -208 -288c-76 0 -106 50 -106 116c0 118 82 278 212 278c72 0 102 -46 102 -106z" />
    <glyph glyph-name="foursuperior" unicode="&#x2074;" horiz-adv-x="332" 
d="M289 481l-30 -84c-4 -8 -8 -10 -14 -10h-58c-4 0 -8 4 -4 14l34 80h-150c-10 0 -18 4 -18 16c0 8 6 16 18 24l292 244c4 4 14 9 22 9c12 0 16 -12 12 -23l-86 -222h56c4 0 6 -4 4 -10l-14 -30c-2 -4 -6 -8 -10 -8h-54zM233 529l48 120c1 3 2 5 2 8s-1 5 -4 5
c-4 0 -7 -3 -10 -5l-136 -114c-2 -2 -7 -8 -7 -11c0 -2 1 -3 3 -3h104z" />
    <glyph glyph-name="fivesuperior" unicode="&#x2075;" horiz-adv-x="332" 
d="M214 707l-26 -61c16 0 57 -6 85 -20c42 -21 57 -58 57 -97c0 -62 -66 -149 -191 -149c-36 0 -81 8 -81 36c0 15 10 24 21 24s22 -6 30 -14c10 -8 25 -12 48 -12c58 0 96 53 96 88c0 58 -37 84 -92 84c-12 0 -24 1 -26 4c-2 4 -1 8 0 11l63 161c2 4 5 5 10 5h125
c24 0 32 10 43 24c3 3 5 3 12 -1c6 -3 9 -6 7 -9l-38 -68c-2 -4 -9 -6 -22 -6h-121z" />
    <glyph glyph-name="sixsuperior" unicode="&#x2076;" horiz-adv-x="332" 
d="M189 380c-78 0 -112 50 -112 106c1 174 217 288 274 288c5 0 10 -5 10 -12s-3 -11 -13 -15c-82 -35 -130 -81 -163 -135l2 -4c21 12 41 18 74 18c51 0 85 -35 85 -87c0 -83 -69 -159 -157 -159zM270 542c0 26 -18 51 -42 51c-67 0 -80 -62 -80 -122c0 -31 10 -62 43 -62
c54 0 79 86 79 133z" />
    <glyph glyph-name="sevensuperior" unicode="&#x2077;" horiz-adv-x="332" 
d="M334 706h-115c-39 0 -52 -8 -74 -35c-2 -4 -4 -6 -6 -6c-3 0 -19 8 -19 10s1 4 2 6l55 100c2 4 5 7 8 7c6 0 15 -3 15 -6c-1 -10 0 -15 22 -15h174c5 0 9 -2 9 -7c0 -6 -54 -83 -75 -120c-28 -50 -97 -183 -115 -218c-13 -26 -24 -42 -52 -42c-22 0 -29 14 -29 26
c0 13 10 28 18 39c61 87 166 235 182 261z" />
    <glyph glyph-name="eightsuperior" unicode="&#x2078;" horiz-adv-x="332" 
d="M181 380c-95 0 -110 56 -110 80c0 66 79 97 112 114c-20 18 -52 46 -52 91c0 48 48 109 153 109c69 0 103 -33 103 -74c0 -63 -83 -105 -110 -116c27 -24 49 -49 49 -90c0 -61 -55 -114 -145 -114zM255 468c-1 35 -23 61 -50 83c-34 -12 -72 -43 -72 -86
c0 -33 25 -58 51 -58c57 0 71 42 71 61zM325 693c0 19 -13 53 -56 53c-39 0 -69 -27 -69 -60c0 -26 20 -50 54 -80c40 16 71 46 71 87z" />
    <glyph glyph-name="ninesuperior" unicode="&#x2079;" horiz-adv-x="332" 
d="M273 774c72 0 108 -41 108 -102c0 -175 -229 -292 -291 -292c-6 0 -10 5 -10 11s3 13 13 17c99 41 170 117 170 131v1l-2 3c-14 -9 -33 -15 -56 -15c-75 0 -94 60 -94 92c0 68 62 154 162 154zM311 689c0 20 -6 58 -44 58c-57 0 -83 -91 -83 -132c0 -23 12 -55 41 -55
c66 0 86 74 86 129z" />
    <glyph glyph-name="zeroinferior" unicode="&#x2080;" horiz-adv-x="332" 
d="M264 199c0 32 -14 48 -40 49c-70 1 -146 -201 -146 -275c0 -34 18 -55 38 -55c74 0 148 209 148 281zM328 175c0 -134 -84 -288 -208 -288c-76 0 -106 50 -106 116c0 118 82 278 212 278c72 0 102 -46 102 -106z" />
    <glyph glyph-name="oneinferior" unicode="&#x2081;" horiz-adv-x="332" 
d="M228 -84l-4 -20c0 -4 -2 -4 -6 -4s-76 2 -96 2c-28 0 -102 -2 -108 -2c-2 0 -4 2 -2 4l2 20c2 2 4 4 8 4h26c18 0 34 2 46 26c6 8 9 24 22 64l42 131c12 36 16 46 16 50c0 6 -2 8 -8 8s-16 -2 -36 -10l-34 -10c-4 -2 -6 0 -8 4l-6 14c0 2 0 4 4 6l160 70c12 5 20 8 26 8
s10 -4 10 -8s-2 -10 -4 -18c-12 -28 -36 -100 -52 -149l-29 -88c-13 -40 -21 -64 -23 -74c-2 -16 2 -24 22 -24h26c6 0 6 -2 6 -4z" />
    <glyph glyph-name="twoinferior" unicode="&#x2082;" horiz-adv-x="332" 
d="M180 -106h-170c-10 0 -14 2 -14 10c0 4 4 10 8 14c74 60 224 162 224 253c0 28 -16 58 -54 58c-36 0 -60 -32 -72 -52c-6 -8 -10 -8 -14 -8l-10 6c-4 2 -4 6 -4 10c12 28 54 96 136 96c66 0 100 -36 100 -95c0 -100 -148 -190 -208 -228l-2 -4h98c32 0 48 12 64 40
c4 4 8 4 10 2l10 -6c4 -2 4 -6 2 -8c-14 -20 -38 -78 -42 -94c0 -4 -4 -6 -8 -6c-6 0 -8 2 -12 8c-4 4 -18 4 -42 4z" />
    <glyph glyph-name="threeinferior" unicode="&#x2083;" horiz-adv-x="332" 
d="M104 191l-10 8c-2 2 -2 6 0 10c14 24 50 72 128 72c62 0 86 -34 86 -58c0 -48 -38 -82 -92 -106c46 -20 62 -50 62 -86c0 -82 -86 -144 -184 -144c-62 0 -94 36 -94 68c0 18 10 34 28 34c28 0 32 -24 30 -42c0 -10 16 -28 42 -28c52 0 96 48 96 106c0 32 -16 60 -46 68
c-8 4 -10 6 -10 12c0 4 0 8 10 10c36 8 80 34 80 78c0 16 -10 42 -46 42c-26 0 -50 -18 -66 -38c-6 -8 -10 -10 -14 -6z" />
    <glyph glyph-name="fourinferior" unicode="&#x2084;" horiz-adv-x="332" 
d="M232 -12l-30 -84c-4 -8 -8 -10 -14 -10h-58c-4 0 -8 4 -4 14l34 80h-150c-10 0 -18 4 -18 16c0 8 6 16 18 24l292 244c4 4 14 9 22 9c12 0 16 -12 12 -23l-86 -222h56c4 0 6 -4 4 -10l-14 -30c-2 -4 -6 -8 -10 -8h-54zM176 36l48 120c1 3 2 5 2 8s-1 5 -4 5
c-4 0 -7 -3 -10 -5l-136 -114c-2 -2 -7 -8 -7 -11c0 -2 1 -3 3 -3h104z" />
    <glyph glyph-name="fiveinferior" unicode="&#x2085;" horiz-adv-x="332" 
d="M157 214l-26 -61c16 0 57 -6 85 -20c42 -21 57 -58 57 -97c0 -62 -66 -149 -191 -149c-36 0 -81 8 -81 36c0 15 10 24 21 24s22 -6 30 -14c10 -8 25 -12 48 -12c58 0 96 53 96 88c0 58 -37 84 -92 84c-12 0 -24 1 -26 4c-2 4 -1 8 0 11l63 161c2 4 5 5 10 5h125
c24 0 32 10 43 24c3 3 5 3 12 -1c6 -3 9 -6 7 -9l-38 -68c-2 -4 -9 -6 -22 -6h-121z" />
    <glyph glyph-name="sixinferior" unicode="&#x2086;" horiz-adv-x="332" 
d="M139 -113c-78 0 -112 50 -112 106c1 174 217 288 274 288c5 0 10 -5 10 -12s-3 -11 -13 -15c-82 -35 -130 -81 -163 -135l2 -4c21 12 41 18 74 18c51 0 85 -35 85 -87c0 -83 -69 -159 -157 -159zM220 49c0 26 -18 51 -42 51c-67 0 -80 -63 -80 -122c0 -31 10 -62 43 -62
c54 0 79 86 79 133z" />
    <glyph glyph-name="seveninferior" unicode="&#x2087;" horiz-adv-x="332" 
d="M276 213h-115c-39 0 -52 -8 -74 -35c-2 -4 -4 -6 -6 -6c-3 0 -19 8 -19 10s1 4 2 6l55 100c2 4 5 7 8 7c6 0 15 -3 15 -6c-1 -10 0 -15 22 -15h174c5 0 9 -2 9 -7c0 -6 -54 -83 -75 -120c-28 -50 -97 -183 -115 -218c-13 -26 -24 -42 -52 -42c-22 0 -29 14 -29 26
c0 13 10 28 18 39c61 87 166 235 182 261z" />
    <glyph glyph-name="eightinferior" unicode="&#x2088;" horiz-adv-x="332" 
d="M121 -113c-95 0 -110 56 -110 80c0 66 79 97 112 114c-20 18 -52 46 -52 91c0 48 48 109 153 109c69 0 103 -33 103 -74c0 -63 -83 -105 -110 -116c27 -24 49 -49 49 -90c0 -61 -55 -114 -145 -114zM195 -25c-1 35 -23 61 -50 83c-34 -12 -72 -43 -72 -86
c0 -33 25 -58 51 -58c57 0 71 42 71 61zM265 200c0 19 -13 53 -56 53c-39 0 -69 -27 -69 -60c0 -26 20 -50 54 -80c40 16 71 46 71 87z" />
    <glyph glyph-name="nineinferior" unicode="&#x2089;" horiz-adv-x="332" 
d="M213 281c72 0 108 -41 108 -102c0 -175 -229 -292 -291 -292c-6 0 -10 5 -10 11s3 13 13 17c99 41 170 117 170 131v1l-2 3c-14 -9 -33 -15 -56 -15c-75 0 -94 60 -94 92c0 68 62 154 162 154zM251 196c0 20 -6 58 -44 58c-57 0 -83 -91 -83 -132c0 -23 12 -55 41 -55
c66 0 86 74 86 129z" />
    <glyph glyph-name="centinferior" unicode="&#xf6df;" horiz-adv-x="332" 
d="M145 -162l-19 4c-3 1 -4 3 -3 7l17 72c-57 -2 -102 27 -102 89c0 75 66 190 177 228l18 75c1 4 5 6 9 5l17 -3c3 -1 5 -4 4 -8l-15 -61c6 1 16 2 29 2c21 0 48 -13 48 -36c0 -28 -19 -38 -31 -38c-10 0 -18 4 -23 11c-5 8 -16 16 -34 16l-57 -235c32 1 58 12 73 22
c3 1 5 2 8 2c5 0 11 -13 11 -17c0 -8 -47 -44 -102 -49l-19 -83c-1 -2 -3 -4 -6 -3zM151 -33l55 233c-64 -21 -92 -127 -92 -173c0 -36 18 -55 37 -60z" />
    <glyph glyph-name="dollarinferior" unicode="&#xf6e3;" horiz-adv-x="332" 
d="M144 -97l-15 -59c-1 -4 -3 -6 -6 -5l-20 4c-4 1 -5 4 -4 8l14 57c-35 8 -58 33 -65 33c-8 0 -13 -3 -21 -20c-2 -4 -5 -5 -8 -3l-9 5c-3 1 -4 3 -3 6l39 109c1 3 3 6 7 5l15 -4c4 -1 4 -4 3 -10c-4 -31 0 -75 48 -91l33 120c-60 35 -87 68 -87 110c0 41 36 93 115 93
c6 0 13 0 20 -1l12 45c1 4 3 6 7 5l20 -5c3 -1 4 -3 3 -8l-11 -42c18 -5 38 -20 44 -20c4 0 10 7 12 14c1 3 3 5 5 5h14c3 0 3 -3 3 -6l-12 -93c0 -3 -2 -5 -6 -5h-15c-3 0 -5 2 -5 6c0 14 -9 58 -47 70l-27 -108c58 -30 86 -61 86 -108c0 -77 -62 -111 -139 -107zM169 134
l25 98c-47 3 -66 -21 -66 -45c0 -21 11 -35 41 -53zM180 42l-29 -109c45 -6 74 23 74 51c3 19 -10 36 -45 58z" />
    <glyph glyph-name="periodinferior" unicode="&#xf6e7;" horiz-adv-x="156" 
d="M52 -113c-29 0 -49 21 -49 49c0 19 15 47 48 47c41 0 52 -36 52 -47c0 -23 -21 -49 -51 -49z" />
    <glyph glyph-name="commainferior" unicode="&#xf6e1;" horiz-adv-x="156" 
d="M114 -80c0 -104 -106 -139 -131 -139c-6 0 -8 3 -8 11c0 5 3 8 10 10c23 6 72 35 72 77c0 22 -8 30 -22 46c-4 4 -25 18 -25 39c0 22 15 42 39 42c42 0 65 -44 65 -86z" />
    <glyph glyph-name="commaaccent" unicode="&#xf6c3;" horiz-adv-x="156" 
d="M95 -142c0 -99 -101 -132 -124 -132c-6 0 -8 3 -8 10c0 5 3 8 9 10c22 6 69 33 68 73c0 21 -7 29 -20 44c-4 4 -24 17 -24 37c0 21 14 40 37 40c40 0 62 -42 62 -82z" />
    <glyph glyph-name="Abreve" unicode="&#x102;" horiz-adv-x="650" 
d="M466 300h-172l-116 -148c-28 -38 -52 -72 -52 -89c0 -16 12 -26 38 -26h30c5 0 7 -3 6 -8l-4 -23c-1 -6 -4 -9 -10 -9c-10 0 -52 3 -136 3c-72 0 -106 -3 -118 -3c-6 0 -9 3 -8 10l4 22c1 6 4 8 8 8h14c36 0 84 28 119 70l467 553c6 8 10 10 26 10c14 0 38 2 64 7
c18 3 32 8 40 8s12 -5 10 -12l-148 -553c-4 -16 -10 -42 -10 -55c0 -16 16 -28 36 -28h25c6 0 8 -3 7 -8l-4 -24c-1 -5 -4 -8 -13 -8c-11 0 -51 3 -129 3s-108 -3 -128 -3c-6 0 -7 4 -6 11l4 21c1 6 4 8 9 8h17c36 0 58 6 78 79zM478 336l74 256c4 14 -12 16 -20 8
l-210 -264h156zM512 846l10 2c4 2 6 -2 14 -10c16 -22 48 -34 92 -34c56 0 86 18 104 36c10 8 12 10 16 8l10 -4c4 -2 4 -6 0 -14c-30 -54 -72 -88 -146 -88c-54 0 -92 28 -102 90c-2 10 -2 12 2 14z" />
    <glyph glyph-name="Amacron" unicode="&#x100;" horiz-adv-x="650" 
d="M466 300h-172l-116 -148c-28 -38 -52 -72 -52 -89c0 -16 12 -26 38 -26h30c5 0 7 -3 6 -8l-4 -23c-1 -6 -4 -9 -10 -9c-10 0 -52 3 -136 3c-72 0 -106 -3 -118 -3c-6 0 -9 3 -8 10l4 22c1 6 4 8 8 8h14c36 0 84 28 119 70l467 553c6 8 10 10 26 10c14 0 38 2 64 7
c18 3 32 8 40 8s12 -5 10 -12l-148 -553c-4 -16 -10 -42 -10 -55c0 -16 16 -28 36 -28h25c6 0 8 -3 7 -8l-4 -24c-1 -5 -4 -8 -13 -8c-11 0 -51 3 -129 3s-108 -3 -128 -3c-6 0 -7 4 -6 11l4 21c1 6 4 8 9 8h17c36 0 58 6 78 79zM478 336l74 256c4 14 -12 16 -20 8
l-210 -264h156zM508 818h212c6 0 10 -2 10 -8v-38c0 -6 -4 -6 -10 -6h-214c-4 0 -8 0 -8 6v40c0 4 4 6 10 6z" />
    <glyph glyph-name="Aogonek" unicode="&#x104;" horiz-adv-x="650" 
d="M552 592c4 14 -12 16 -20 8l-210 -264h156zM411 -236c0 -6 -40 -28 -72 -28c-76 0 -139 13 -139 85c0 97 157 169 179 210c10 19 24 47 35 85l52 184h-172l-116 -148c-29 -37 -52 -72 -52 -89c0 -16 12 -26 38 -26h30c5 0 7 -3 6 -8l-4 -23c-1 -6 -4 -9 -10 -9
c-10 0 -52 3 -136 3c-72 0 -106 -3 -118 -3c-6 0 -9 3 -8 10l4 22c1 6 4 8 8 8h14c36 0 84 28 119 70l467 553c6 8 10 10 26 10c14 0 38 2 64 7c18 3 32 8 40 8s12 -5 10 -12l-148 -553c-4 -16 -10 -42 -10 -55c0 -16 16 -28 36 -28h25c6 0 8 -3 7 -8l-4 -24
c-1 -5 -4 -8 -13 -8c-5 0 -20 2 -41 2s-31 1 -70 1c-51 0 -172 -62 -172 -162c0 -61 38 -68 73 -68c8 0 36 11 45 11c7 0 7 -13 7 -17z" />
    <glyph glyph-name="Cacute" unicode="&#x106;" horiz-adv-x="664" 
d="M722 639l-54 -208c-2 -6 -4 -8 -10 -6l-20 2c-4 0 -6 2 -6 10c16 98 -26 204 -140 204c-70 0 -124 -32 -180 -114c-76 -110 -98 -234 -98 -312c0 -140 90 -182 142 -182c76 0 176 24 244 174c4 6 6 8 10 6l20 -6c6 -2 6 -4 6 -8l-72 -216c-2 -4 -4 -6 -10 -4l-20 4
c-2 2 -4 4 -2 8c0 6 2 12 2 18c0 8 -6 16 -14 16c-10 0 -24 -4 -42 -12c-20 -10 -86 -28 -138 -28c-150 0 -254 94 -254 235c0 139 50 249 142 349c66 72 156 116 258 116c48 0 90 -10 132 -38c12 -10 32 -26 46 -26s22 8 26 26c2 6 6 8 10 6l16 -4c6 0 8 -4 6 -10zM461 729
l-6 10c-2 4 0 7 3 10l143 115c9 7 22 11 34 11c36 0 52 -61 8 -79l-174 -68c-4 -2 -7 -1 -8 1z" />
    <glyph glyph-name="Ccaron" unicode="&#x10c;" horiz-adv-x="664" 
d="M722 639l-54 -208c-2 -6 -4 -8 -10 -6l-20 2c-4 0 -6 2 -6 10c16 98 -26 204 -140 204c-70 0 -124 -32 -180 -114c-76 -110 -98 -234 -98 -312c0 -140 90 -182 142 -182c76 0 176 24 244 174c4 6 6 8 10 6l20 -6c6 -2 6 -4 6 -8l-72 -216c-2 -4 -4 -6 -10 -4l-20 4
c-2 2 -4 4 -2 8c0 6 2 12 2 18c0 8 -6 16 -14 16c-10 0 -24 -4 -42 -12c-20 -10 -86 -28 -138 -28c-150 0 -254 94 -254 235c0 139 50 249 142 349c66 72 156 116 258 116c48 0 90 -10 132 -38c12 -10 32 -26 46 -26s22 8 26 26c2 6 6 8 10 6l16 -4c6 0 8 -4 6 -10zM509 824
l124 62c4 2 6 2 8 -2l7 -12c1 -2 -1 -4 -3 -6l-142 -136c-6 -4 -12 -4 -16 2l-76 136c-2 4 0 6 2 8l11 9c3 3 7 1 10 -2z" />
    <glyph glyph-name="Dcaron" unicode="&#x10e;" horiz-adv-x="796" 
d="M124 114l117 469c9 38 -17 50 -41 50h-49c-5 0 -9 3 -7 9l6 22c1 4 4 6 12 6c16 0 48 1 82 2c42 1 88 1 114 1c134 0 274 -11 358 -93c62 -64 74 -120 74 -182c0 -196 -124 -294 -184 -329c-129 -75 -266 -72 -334 -72c-28 0 -102 3 -130 3c-92 0 -120 -3 -127 -3
s-10 4 -9 10l5 22c1 6 4 8 10 8h25c30 0 62 12 78 77zM365 624l-129 -518c-4 -18 -6 -32 -6 -42c0 -19 28 -27 58 -27c98 0 190 21 260 79c64 52 124 164 124 280c0 64 -26 128 -66 166c-34 34 -62 50 -99 60c-47 13 -83 13 -97 13c-16 0 -43 -1 -45 -11zM485 824l124 62
c4 2 6 2 8 -2l7 -12c1 -2 -1 -4 -3 -6l-142 -136c-6 -4 -12 -4 -16 2l-76 136c-2 4 0 6 2 8l11 9c3 3 7 1 10 -2z" />
    <glyph glyph-name="Dcroat" unicode="&#x110;" horiz-adv-x="796" 
d="M176 326h-100c-6 0 -10 2 -8 8l8 26c2 4 4 6 10 6h100l53 217c9 38 -17 50 -43 50h-44c-7 0 -9 3 -8 8l6 22c1 5 4 7 13 7c67 0 131 3 195 3c134 0 274 -11 358 -93c62 -64 74 -120 74 -182c0 -196 -124 -294 -185 -329c-129 -74 -267 -72 -333 -72c-28 0 -102 3 -130 3
c-92 0 -120 -3 -128 -3c-6 0 -8 4 -7 10l4 22c2 6 4 8 11 8h20c34 0 66 12 82 77zM290 326l-54 -220c-4 -18 -6 -32 -6 -42c0 -19 28 -27 56 -27c100 0 192 21 262 79c64 52 124 164 124 280c0 64 -26 128 -66 166c-34 34 -64 50 -98 60c-48 13 -86 13 -100 13
c-16 0 -42 -1 -46 -11l-62 -258h148c6 0 9 -4 8 -8l-8 -26c-1 -4 -6 -6 -14 -6h-144z" />
    <glyph glyph-name="Ecaron" unicode="&#x11a;" horiz-adv-x="677" 
d="M622 180l12 -8c2 -2 4 -4 2 -11l-52 -146c-4 -16 -10 -18 -22 -18c-8 0 -49 1 -106 2s-129 1 -198 1h-130c-31 0 -60 -1 -83 -1c-22 -1 -38 -2 -44 -2c-5 0 -7 2 -6 8l4 26c1 4 3 6 7 6h32c40 0 60 20 70 53l153 475c17 54 -19 68 -49 68h-32c-5 0 -8 4 -6 10l6 22
c2 6 4 8 12 8c6 0 30 -1 58 -1c29 -1 62 -2 86 -2h72c72 0 127 0 167 1s64 2 75 2c16 0 18 -4 22 -20l30 -134c2 -7 2 -7 -4 -11l-12 -6c-4 -2 -6 0 -12 6l-102 118c-6 6 -12 8 -18 8h-156l-84 -259h86c43 0 82 5 118 83c2 4 4 6 8 6l18 -6c4 0 6 -4 4 -6
c-16 -38 -48 -162 -52 -200c-2 -6 -4 -6 -8 -6h-18c-6 2 -6 4 -6 10c0 72 -38 83 -110 83h-50l-98 -303h224c34 0 62 15 88 38c22 18 76 86 92 104c2 4 6 6 12 2zM466 824l124 62c4 2 6 2 8 -2l7 -12c1 -2 -1 -4 -3 -6l-142 -136c-6 -4 -12 -4 -16 2l-76 136c-2 4 0 6 2 8
l11 9c3 3 7 1 10 -2z" />
    <glyph glyph-name="Edotaccent" unicode="&#x116;" horiz-adv-x="677" 
d="M622 180l12 -8c2 -2 4 -4 2 -11l-52 -146c-4 -16 -10 -18 -22 -18c-8 0 -49 1 -106 2s-129 1 -198 1h-130c-31 0 -60 -1 -83 -1c-22 -1 -38 -2 -44 -2c-5 0 -7 2 -6 8l4 26c1 4 3 6 7 6h32c40 0 60 20 70 53l153 475c17 54 -19 68 -49 68h-32c-5 0 -8 4 -6 10l6 22
c2 6 4 8 12 8c6 0 30 -1 58 -1c29 -1 62 -2 86 -2h72c72 0 127 0 167 1s64 2 75 2c16 0 18 -4 22 -20l30 -134c2 -7 2 -7 -4 -11l-12 -6c-4 -2 -6 0 -12 6l-102 118c-6 6 -12 8 -18 8h-156l-84 -259h86c43 0 82 5 118 83c2 4 4 6 8 6l18 -6c4 0 6 -4 4 -6
c-16 -38 -48 -162 -52 -200c-2 -6 -4 -6 -8 -6h-18c-6 2 -6 4 -6 10c0 72 -38 83 -110 83h-50l-98 -303h224c34 0 62 15 88 38c22 18 76 86 92 104c2 4 6 6 12 2zM469 738c-24 0 -58 10 -58 52c0 22 12 54 58 54c30 0 54 -18 54 -54c0 -32 -24 -52 -54 -52z" />
    <glyph glyph-name="Emacron" unicode="&#x112;" horiz-adv-x="677" 
d="M622 180l12 -8c2 -2 4 -4 2 -11l-52 -146c-4 -16 -10 -18 -22 -18c-8 0 -49 1 -106 2s-129 1 -198 1h-130c-31 0 -60 -1 -83 -1c-22 -1 -38 -2 -44 -2c-5 0 -7 2 -6 8l4 26c1 4 3 6 7 6h32c40 0 60 20 70 53l153 475c17 54 -19 68 -49 68h-32c-5 0 -8 4 -6 10l6 22
c2 6 4 8 12 8c6 0 30 -1 58 -1c29 -1 62 -2 86 -2h72c72 0 127 0 167 1s64 2 75 2c16 0 18 -4 22 -20l30 -134c2 -7 2 -7 -4 -11l-12 -6c-4 -2 -6 0 -12 6l-102 118c-6 6 -12 8 -18 8h-156l-84 -259h86c43 0 82 5 118 83c2 4 4 6 8 6l18 -6c4 0 6 -4 4 -6
c-16 -38 -48 -162 -52 -200c-2 -6 -4 -6 -8 -6h-18c-6 2 -6 4 -6 10c0 72 -38 83 -110 83h-50l-98 -303h224c34 0 62 15 88 38c22 18 76 86 92 104c2 4 6 6 12 2zM362 818h212c6 0 10 -2 10 -8v-38c0 -6 -4 -6 -10 -6h-214c-4 0 -8 0 -8 6v40c0 4 4 6 10 6z" />
    <glyph glyph-name="Eogonek" unicode="&#x118;" horiz-adv-x="677" 
d="M702 519c2 -7 2 -7 -4 -11l-12 -6c-4 -2 -6 0 -12 6l-102 118c-6 6 -12 8 -18 8h-156l-84 -259h86c43 0 82 5 118 83c2 4 4 6 8 6l18 -6c4 0 6 -4 4 -6c-16 -38 -48 -162 -52 -200c-2 -6 -4 -6 -8 -6h-18c-6 2 -6 4 -6 10c0 72 -38 83 -110 83h-50l-98 -303h224
c34 0 62 15 88 38c22 18 76 86 92 104c2 4 6 6 12 2l12 -8c2 -2 4 -4 2 -11l-52 -146c-4 -16 -10 -15 -22 -18c-60 -14 -123 -97 -123 -159c0 -61 38 -68 73 -68c8 0 36 11 45 11c7 0 7 -13 7 -17c0 -6 -40 -28 -72 -28c-76 0 -139 13 -139 85c0 74 106 157 153 179
c-24 0 -11 0 -50 -1c-57 -2 -129 1 -198 1h-130c-31 0 -60 0 -83 -1c-22 0 -38 -2 -44 -2c-5 0 -7 2 -6 8l4 26c1 4 3 6 7 6h32c40 0 59 20 70 53l153 475c17 54 -19 68 -49 68h-32c-5 0 -8 4 -6 10l6 22c2 6 4 8 12 8c6 0 30 -1 58 -1c29 -1 62 -2 86 -2h72
c72 0 127 0 167 1s64 2 75 2c16 0 18 -4 22 -20z" />
    <glyph glyph-name="Gbreve" unicode="&#x11e;" horiz-adv-x="722" 
d="M500 88l22 104c8 40 -8 48 -36 48h-33c-8 0 -10 5 -9 11l4 21c1 6 4 8 10 8c16 0 50 -3 132 -3c80 0 104 3 118 3c6 0 9 -4 8 -12l-2 -20c-1 -6 -4 -8 -10 -8h-16c-24 0 -42 -8 -48 -34l-34 -153c-3 -12 -8 -16 -20 -22c-28 -12 -114 -46 -200 -46
c-186 0 -298 126 -298 272c0 242 196 428 420 428c86 0 142 -34 162 -50c12 -10 20 -12 24 -12c12 0 18 10 28 32c0 4 4 6 10 4l14 -4c4 0 6 -2 6 -8l-58 -200c-2 -6 -4 -8 -10 -6h-20c-6 0 -8 4 -6 12c12 86 -30 191 -158 191c-154 0 -286 -185 -286 -398
c0 -154 92 -217 168 -217c50 0 84 13 98 23c10 6 16 20 20 36zM403 846l10 2c4 2 6 -2 14 -10c16 -22 48 -34 92 -34c56 0 86 18 104 36c10 8 12 10 16 8l10 -4c4 -2 4 -6 0 -14c-30 -54 -72 -88 -146 -88c-54 0 -92 28 -102 90c-2 10 -2 12 2 14z" />
    <glyph glyph-name="Gcommaaccent" unicode="&#x122;" horiz-adv-x="722" 
d="M500 88l22 104c8 40 -8 48 -36 48h-33c-8 0 -10 5 -9 11l4 21c1 6 4 8 10 8c16 0 50 -3 132 -3c80 0 104 3 118 3c6 0 9 -4 8 -12l-2 -20c-1 -6 -4 -8 -10 -8h-16c-24 0 -42 -8 -48 -34l-34 -153c-3 -12 -8 -16 -20 -22c-28 -12 -114 -46 -200 -46
c-186 0 -298 126 -298 272c0 242 196 428 420 428c86 0 142 -34 162 -50c12 -10 20 -12 24 -12c12 0 18 10 28 32c0 4 4 6 10 4l14 -4c4 0 6 -2 6 -8l-58 -200c-2 -6 -4 -8 -10 -6h-20c-6 0 -8 4 -6 12c12 86 -30 191 -158 191c-154 0 -286 -185 -286 -398
c0 -154 92 -217 168 -217c50 0 84 13 98 23c10 6 16 20 20 36zM418 -142c0 -99 -101 -132 -124 -132c-6 0 -8 3 -8 10c0 5 3 8 9 10c22 6 69 33 68 73c0 21 -7 29 -20 44c-4 4 -24 17 -24 37c0 21 14 40 37 40c40 0 62 -42 62 -82z" />
    <glyph glyph-name="Imacron" unicode="&#x12a;" horiz-adv-x="374" 
d="M120 108l126 459c14 50 -2 66 -28 66h-46c-8 0 -10 2 -10 8l6 26c0 4 4 6 12 6c12 0 66 -3 146 -3c86 0 128 3 142 3c10 0 14 -4 12 -12l-6 -20c0 -4 -2 -8 -10 -8h-26c-42 0 -65 -10 -80 -67l-124 -461c-13 -48 2 -68 44 -68h36c6 0 8 -4 6 -10l-2 -20
c-2 -8 -2 -10 -12 -10c-12 0 -58 3 -160 3c-84 0 -136 -3 -148 -3c-6 0 -8 4 -8 10l6 22c0 6 2 8 8 8h38c58 0 64 20 78 71zM230 818h212c6 0 10 -2 10 -8v-38c0 -6 -4 -6 -10 -6h-214c-4 0 -8 0 -8 6v40c0 4 4 6 10 6z" />
    <glyph glyph-name="Iogonek" unicode="&#x12e;" horiz-adv-x="374" 
d="M472 663l-5 -22c-1 -5 -3 -8 -11 -8h-19c-49 0 -65 -10 -81 -68l-125 -462c-12 -46 1 -66 41 -66h35c6 0 7 -4 6 -10l-3 -22c-1 -6 -2 -8 -12 -8c-5 0 -12 2 -26 2c-15 1 -44 4 -81 -2c-57 -9 -121 -103 -121 -159c0 -61 38 -68 73 -68c8 0 36 11 45 11c7 0 7 -13 7 -17
c0 -6 -40 -28 -72 -28c-76 0 -139 13 -139 85c0 77 114 161 158 179c-36 0 -74 0 -96 -1c-21 0 -35 -2 -40 -2c-7 0 -9 3 -8 8l4 22c1 8 3 10 9 10h43c43 0 52 20 66 71l125 461c13 47 -1 64 -36 64h-35c-8 0 -10 2 -9 8l5 26c1 4 4 6 13 6c12 0 65 -3 139 -3
c82 0 125 3 139 3c10 0 13 -4 11 -10z" />
    <glyph glyph-name="Kcommaaccent" unicode="&#x136;" horiz-adv-x="716" 
d="M294 320l-70 -217c-14 -44 2 -66 28 -66h24c4 0 8 -4 6 -10l-4 -20c0 -6 -4 -10 -12 -10c-12 0 -56 3 -132 3c-82 0 -112 -3 -120 -3c-6 0 -8 6 -8 14l4 18c2 4 4 8 12 8h20c28 0 52 18 65 57l155 477c14 42 2 62 -28 62h-24c-8 0 -12 4 -10 10l8 24c2 4 4 6 12 6
s44 -3 122 -3c86 0 116 3 128 3c6 0 6 -4 5 -10l-3 -22c0 -6 -4 -8 -12 -8h-22c-26 0 -48 -16 -59 -49l-75 -230c36 0 58 4 76 22c106 92 202 176 238 225c14 18 10 34 -16 34h-12c-8 0 -9 4 -8 10l4 20c2 6 4 8 10 8c10 0 52 -3 122 -3c60 0 88 3 96 3c10 0 12 -4 11 -10
l-3 -20c-2 -6 -4 -10 -10 -10h-30c-28 0 -56 -14 -76 -29c-46 -34 -274 -236 -292 -252c18 -34 156 -244 177 -270c17 -21 47 -45 67 -45h26c8 0 10 -6 10 -10l-4 -20c-2 -8 -4 -10 -14 -10c-12 0 -38 3 -128 3c-58 0 -114 -3 -126 -3c-6 0 -10 4 -8 10l2 20c0 6 2 10 8 10
h12c24 0 40 14 31 28c-9 15 -123 213 -139 237c-8 12 -20 18 -34 18zM375 -142c0 -99 -101 -132 -124 -132c-6 0 -8 3 -8 10c0 5 3 8 9 10c22 6 69 33 68 73c0 21 -7 29 -20 44c-4 4 -24 17 -24 37c0 21 14 40 37 40c40 0 62 -42 62 -82z" />
    <glyph glyph-name="Lacute" unicode="&#x139;" horiz-adv-x="648" 
d="M606 180l14 -6c6 -2 8 -4 6 -8c-4 -14 -40 -132 -48 -164c-2 -12 -8 -18 -12 -18c-6 0 -16 4 -26 6c-12 4 -24 6 -38 6c-22 0 -148 4 -288 4c-47 0 -96 0 -134 -1c-39 -1 -65 -2 -72 -2c-6 0 -10 2 -8 10l4 22c1 6 4 8 10 8h18c38 0 60 10 79 71l143 463
c14 44 4 62 -34 62h-36c-7 0 -9 4 -8 10l6 24c1 4 4 6 12 6c12 0 54 -3 142 -3c96 0 142 3 152 3c6 0 9 -4 8 -10l-4 -22c-1 -6 -6 -8 -12 -8h-40c-36 0 -54 -10 -71 -65l-157 -504c-6 -21 4 -27 24 -27h60c70 0 144 0 164 4c18 2 26 8 39 20c29 25 93 105 97 113
c2 6 6 8 10 6zM323 729l-6 10c-2 4 0 7 3 10l143 115c9 7 22 11 34 11c36 0 52 -61 8 -79l-174 -68c-4 -2 -7 -1 -8 1z" />
    <glyph glyph-name="Lcaron" unicode="&#x13d;" horiz-adv-x="648" 
d="M606 180l14 -6c6 -2 8 -4 6 -8c-4 -14 -40 -132 -48 -164c-2 -12 -8 -18 -12 -18c-6 0 -16 4 -26 6c-12 4 -24 6 -38 6c-22 0 -148 4 -288 4c-47 0 -96 0 -134 -1c-39 -1 -65 -2 -72 -2c-6 0 -10 2 -8 10l4 22c1 6 4 8 10 8h18c38 0 60 10 79 71l143 463
c14 44 4 62 -34 62h-36c-7 0 -9 4 -8 10l6 24c1 4 4 6 12 6c12 0 54 -3 142 -3c96 0 142 3 152 3c6 0 9 -4 8 -10l-4 -22c-1 -6 -6 -8 -12 -8h-40c-36 0 -54 -10 -71 -65l-157 -504c-6 -21 4 -27 24 -27h60c70 0 144 0 164 4c18 2 26 8 39 20c29 25 93 105 97 113
c2 6 6 8 10 6zM691 588c0 -99 -101 -132 -124 -132c-6 0 -8 3 -8 10c0 5 3 8 9 10c22 6 69 33 68 73c0 21 -7 29 -20 44c-4 4 -24 17 -24 37c0 21 14 40 37 40c40 0 62 -42 62 -82z" />
    <glyph glyph-name="Lcommaaccent" unicode="&#x13b;" horiz-adv-x="648" 
d="M606 180l14 -6c6 -2 8 -4 6 -8c-4 -14 -40 -132 -48 -164c-2 -12 -8 -18 -12 -18c-6 0 -16 4 -26 6c-12 4 -24 6 -38 6c-22 0 -148 4 -288 4c-47 0 -96 0 -134 -1c-39 -1 -65 -2 -72 -2c-6 0 -10 2 -8 10l4 22c1 6 4 8 10 8h18c38 0 60 10 79 71l143 463
c14 44 4 62 -34 62h-36c-7 0 -9 4 -8 10l6 24c1 4 4 6 12 6c12 0 54 -3 142 -3c96 0 142 3 152 3c6 0 9 -4 8 -10l-4 -22c-1 -6 -6 -8 -12 -8h-40c-36 0 -54 -10 -71 -65l-157 -504c-6 -21 4 -27 24 -27h60c70 0 144 0 164 4c18 2 26 8 39 20c29 25 93 105 97 113
c2 6 6 8 10 6zM341 -142c0 -99 -101 -132 -124 -132c-6 0 -8 3 -8 10c0 5 3 8 9 10c22 6 69 33 68 73c0 21 -7 29 -20 44c-4 4 -24 17 -24 37c0 21 14 40 37 40c40 0 62 -42 62 -82z" />
    <glyph glyph-name="Nacute" unicode="&#x143;" horiz-adv-x="764" 
d="M550 20l-252 514c-6 10 -14 10 -16 -2l-100 -334c-34 -114 -30 -161 12 -161h38c8 0 10 -4 10 -10l-4 -21c-2 -7 -2 -9 -12 -9s-52 3 -120 3c-70 0 -102 -3 -114 -3c-6 0 -8 4 -7 11l3 21c2 4 4 8 10 8h22c46 0 70 34 100 123l122 386c19 59 -2 87 -44 87h-38
c-8 0 -10 4 -8 12l4 18c2 6 4 10 12 10c12 0 52 -3 170 -3c18 0 24 -12 30 -26l222 -462c8 -12 12 -10 20 14l106 324c26 81 18 113 -16 113h-30c-10 0 -12 2 -10 10l2 22c2 4 4 8 10 8c12 0 44 -3 114 -3c52 0 72 3 86 3c10 0 12 -6 10 -14l-4 -18c0 -6 -2 -8 -8 -8h-26
c-24 0 -44 -24 -64 -81l-184 -526c-6 -16 -14 -24 -20 -26c-10 0 -20 6 -26 20zM461 729l-6 10c-2 4 0 7 3 10l143 115c9 7 22 11 34 11c36 0 52 -61 8 -79l-174 -68c-4 -2 -7 -1 -8 1z" />
    <glyph glyph-name="Ncaron" unicode="&#x147;" horiz-adv-x="764" 
d="M550 20l-252 514c-6 10 -14 10 -16 -2l-100 -334c-34 -114 -30 -161 12 -161h38c8 0 10 -4 10 -10l-4 -21c-2 -7 -2 -9 -12 -9s-52 3 -120 3c-70 0 -102 -3 -114 -3c-6 0 -8 4 -7 11l3 21c2 4 4 8 10 8h22c46 0 70 34 100 123l122 386c19 59 -2 87 -44 87h-38
c-8 0 -10 4 -8 12l4 18c2 6 4 10 12 10c12 0 52 -3 170 -3c18 0 24 -12 30 -26l222 -462c8 -12 12 -10 20 14l106 324c26 81 18 113 -16 113h-30c-10 0 -12 2 -10 10l2 22c2 4 4 8 10 8c12 0 44 -3 114 -3c52 0 72 3 86 3c10 0 12 -6 10 -14l-4 -18c0 -6 -2 -8 -8 -8h-26
c-24 0 -44 -24 -64 -81l-184 -526c-6 -16 -14 -24 -20 -26c-10 0 -20 6 -26 20zM529 824l124 62c4 2 6 2 8 -2l7 -12c1 -2 -1 -4 -3 -6l-142 -136c-6 -4 -12 -4 -16 2l-76 136c-2 4 0 6 2 8l11 9c3 3 7 1 10 -2z" />
    <glyph glyph-name="Ncommaaccent" unicode="&#x145;" horiz-adv-x="764" 
d="M550 20l-252 514c-6 10 -14 10 -16 -2l-100 -334c-34 -114 -30 -161 12 -161h38c8 0 10 -4 10 -10l-4 -21c-2 -7 -2 -9 -12 -9s-52 3 -120 3c-70 0 -102 -3 -114 -3c-6 0 -8 4 -7 11l3 21c2 4 4 8 10 8h22c46 0 70 34 100 123l122 386c19 59 -2 87 -44 87h-38
c-8 0 -10 4 -8 12l4 18c2 6 4 10 12 10c12 0 52 -3 170 -3c18 0 24 -12 30 -26l222 -462c8 -12 12 -10 20 14l106 324c26 81 18 113 -16 113h-30c-10 0 -12 2 -10 10l2 22c2 4 4 8 10 8c12 0 44 -3 114 -3c52 0 72 3 86 3c10 0 12 -6 10 -14l-4 -18c0 -6 -2 -8 -8 -8h-26
c-24 0 -44 -24 -64 -81l-184 -526c-6 -16 -14 -24 -20 -26c-10 0 -20 6 -26 20zM399 -122c0 -99 -101 -132 -124 -132c-6 0 -8 3 -8 10c0 5 3 8 9 10c22 6 69 33 68 73c0 21 -7 29 -20 44c-4 4 -24 17 -24 37c0 21 14 40 37 40c40 0 62 -42 62 -82z" />
    <glyph glyph-name="Ohungarumlaut" unicode="&#x150;" horiz-adv-x="726" 
d="M457 685c160 0 272 -108 272 -292c0 -200 -142 -408 -368 -408c-40 0 -118 6 -180 66s-88 140 -88 230c0 208 152 404 364 404zM481 637c-60 0 -108 -32 -144 -74c-82 -92 -142 -240 -142 -350c0 -124 66 -182 148 -182c146 0 276 224 278 440c0 100 -50 166 -140 166z
M688 802l-152 -72c-4 -2 -6 -4 -10 0l-6 8c-2 4 0 6 4 10l122 110c10 8 16 12 26 12c34 0 50 -52 16 -68zM554 816l-144 -86c-4 -4 -8 -4 -10 0l-6 6c-2 4 -2 8 2 10l110 122c8 10 16 16 32 16c26 0 56 -44 16 -68z" />
    <glyph glyph-name="Omacron" unicode="&#x14c;" horiz-adv-x="726" 
d="M457 685c160 0 272 -108 272 -292c0 -200 -142 -408 -368 -408c-40 0 -118 6 -180 66s-88 140 -88 230c0 208 152 404 364 404zM481 637c-60 0 -108 -32 -144 -74c-82 -92 -142 -240 -142 -350c0 -124 66 -182 148 -182c146 0 276 224 278 440c0 100 -50 166 -140 166z
M386 818h212c6 0 10 -2 10 -8v-38c0 -6 -4 -6 -10 -6h-214c-4 0 -8 0 -8 6v40c0 4 4 6 10 6z" />
    <glyph glyph-name="Racute" unicode="&#x154;" horiz-adv-x="709" 
d="M281 323l-67 -214c-17 -54 -6 -72 22 -72h42c6 0 8 -4 6 -8l-2 -24c-2 -6 -6 -8 -12 -8c-12 0 -56 3 -142 3c-70 0 -108 -3 -120 -3c-6 0 -8 4 -6 10l4 22c0 6 2 8 10 8h26c24 0 42 22 50 47l160 499c10 32 4 50 -30 50h-34c-8 0 -10 2 -8 8l4 21c2 6 4 8 14 8
c104 0 208 3 236 3c86 0 236 -7 236 -145c0 -98 -106 -178 -236 -192v-4c32 -8 48 -38 58 -58c6 -10 74 -152 91 -179c27 -42 51 -58 87 -58h26c6 0 8 -4 6 -10l-2 -20c-2 -6 -4 -10 -10 -10c-10 0 -26 3 -80 3c-58 0 -76 -3 -92 -3c-10 0 -14 10 -28 33
c-14 24 -102 220 -114 244c-24 55 -68 49 -95 49zM380 637l-88 -279c40 0 92 -4 160 24c52 22 98 78 98 150c0 42 -30 107 -128 107c-18 0 -30 0 -42 -2zM414 729l-6 10c-2 4 0 7 3 10l143 115c9 7 22 11 34 11c36 0 52 -61 8 -79l-174 -68c-4 -2 -7 -1 -8 1z" />
    <glyph glyph-name="Rcaron" unicode="&#x158;" horiz-adv-x="709" 
d="M281 323l-67 -214c-17 -54 -6 -72 22 -72h42c6 0 8 -4 6 -8l-2 -24c-2 -6 -6 -8 -12 -8c-12 0 -56 3 -142 3c-70 0 -108 -3 -120 -3c-6 0 -8 4 -6 10l4 22c0 6 2 8 10 8h26c24 0 42 22 50 47l160 499c10 32 4 50 -30 50h-34c-8 0 -10 2 -8 8l4 21c2 6 4 8 14 8
c104 0 208 3 236 3c86 0 236 -7 236 -145c0 -98 -106 -178 -236 -192v-4c32 -8 48 -38 58 -58c6 -10 74 -152 91 -179c27 -42 51 -58 87 -58h26c6 0 8 -4 6 -10l-2 -20c-2 -6 -4 -10 -10 -10c-10 0 -26 3 -80 3c-58 0 -76 -3 -92 -3c-10 0 -14 10 -28 33
c-14 24 -102 220 -114 244c-24 55 -68 49 -95 49zM380 637l-88 -279c40 0 92 -4 160 24c52 22 98 78 98 150c0 42 -30 107 -128 107c-18 0 -30 0 -42 -2zM452 824l124 62c4 2 6 2 8 -2l7 -12c1 -2 -1 -4 -3 -6l-142 -136c-6 -4 -12 -4 -16 2l-76 136c-2 4 0 6 2 8l11 9
c3 3 7 1 10 -2z" />
    <glyph glyph-name="Rcommaaccent" unicode="&#x156;" horiz-adv-x="709" 
d="M281 323l-67 -214c-17 -54 -6 -72 22 -72h42c6 0 8 -4 6 -8l-2 -24c-2 -6 -6 -8 -12 -8c-12 0 -56 3 -142 3c-70 0 -108 -3 -120 -3c-6 0 -8 4 -6 10l4 22c0 6 2 8 10 8h26c24 0 42 22 50 47l160 499c10 32 4 50 -30 50h-34c-8 0 -10 2 -8 8l4 21c2 6 4 8 14 8
c104 0 208 3 236 3c86 0 236 -7 236 -145c0 -98 -106 -178 -236 -192v-4c32 -8 48 -38 58 -58c6 -10 74 -152 91 -179c27 -42 51 -58 87 -58h26c6 0 8 -4 6 -10l-2 -20c-2 -6 -4 -10 -10 -10c-10 0 -26 3 -80 3c-58 0 -76 -3 -92 -3c-10 0 -14 10 -28 33
c-14 24 -102 220 -114 244c-24 55 -68 49 -95 49zM380 637l-88 -279c40 0 92 -4 160 24c52 22 98 78 98 150c0 42 -30 107 -128 107c-18 0 -30 0 -42 -2zM412 -122c0 -99 -101 -132 -124 -132c-6 0 -8 3 -8 10c0 5 3 8 9 10c22 6 69 33 68 73c0 21 -7 29 -20 44
c-4 4 -24 17 -24 37c0 21 14 40 37 40c40 0 62 -42 62 -82z" />
    <glyph glyph-name="Sacute" unicode="&#x15a;" horiz-adv-x="508" 
d="M536 665l-36 -190c-2 -4 -4 -6 -8 -6h-18c-8 0 -10 4 -10 10c6 40 -6 160 -108 160c-58 0 -90 -54 -90 -97c0 -70 44 -102 90 -148s112 -102 112 -213c0 -128 -92 -196 -196 -196c-64 0 -110 38 -142 74c-10 10 -20 8 -26 2c-6 -8 -16 -24 -24 -38c-2 -4 -4 -6 -10 -4
l-12 6c-6 2 -6 2 -4 10l74 218c2 4 4 4 10 4l16 -4c4 -2 6 -4 6 -10c-28 -144 50 -212 112 -212c64 0 108 50 108 105c0 64 -50 102 -94 150c-62 68 -114 120 -114 223c0 72 56 176 186 176c54 0 102 -34 118 -46c4 -2 8 -4 14 -4s12 14 16 34c0 4 2 4 10 4l12 -2
c6 0 8 -2 8 -6zM333 729l-6 10c-2 4 0 7 3 10l143 115c9 7 22 11 34 11c36 0 52 -61 8 -79l-174 -68c-4 -2 -7 -1 -8 1z" />
    <glyph glyph-name="Scedilla" unicode="&#x15e;" horiz-adv-x="508" 
d="M283 -15l-38 -53c48 -14 66 -34 66 -64c0 -52 -84 -96 -160 -96c-14 0 -20 6 -20 16c0 8 4 16 12 16c26 0 84 12 84 56c0 20 -20 36 -48 44l62 85c-48 10 -84 41 -111 70c-10 10 -20 8 -26 2c-6 -8 -16 -24 -24 -38c-2 -4 -4 -6 -10 -4l-12 6c-6 2 -7 2 -4 10l74 218
c2 4 4 4 10 4l16 -4c4 -2 6 -4 6 -10c-28 -144 50 -212 112 -212c64 0 108 50 108 105c0 64 -50 102 -94 150c-62 68 -114 120 -114 223c0 72 56 176 186 176c54 0 102 -34 118 -46c4 -2 8 -4 14 -4s12 14 16 34c0 4 2 4 10 4l12 -2c6 0 8 -2 8 -6l-36 -190
c-2 -4 -4 -6 -8 -6h-18c-8 0 -10 4 -10 10c6 40 -6 160 -108 160c-58 0 -90 -54 -90 -97c0 -70 44 -102 90 -148s112 -102 112 -212c0 -124 -86 -192 -185 -197z" />
    <glyph glyph-name="Scedilla" unicode="&#xf6c1;" horiz-adv-x="508" 
d="M283 -15l-38 -53c48 -14 66 -34 66 -64c0 -52 -84 -96 -160 -96c-14 0 -20 6 -20 16c0 8 4 16 12 16c26 0 84 12 84 56c0 20 -20 36 -48 44l62 85c-48 10 -84 41 -111 70c-10 10 -20 8 -26 2c-6 -8 -16 -24 -24 -38c-2 -4 -4 -6 -10 -4l-12 6c-6 2 -7 2 -4 10l74 218
c2 4 4 4 10 4l16 -4c4 -2 6 -4 6 -10c-28 -144 50 -212 112 -212c64 0 108 50 108 105c0 64 -50 102 -94 150c-62 68 -114 120 -114 223c0 72 56 176 186 176c54 0 102 -34 118 -46c4 -2 8 -4 14 -4s12 14 16 34c0 4 2 4 10 4l12 -2c6 0 8 -2 8 -6l-36 -190
c-2 -4 -4 -6 -8 -6h-18c-8 0 -10 4 -10 10c6 40 -6 160 -108 160c-58 0 -90 -54 -90 -97c0 -70 44 -102 90 -148s112 -102 112 -212c0 -124 -86 -192 -185 -197z" />
    <glyph glyph-name="Scommaaccent" unicode="&#x218;" horiz-adv-x="508" 
d="M536 665l-36 -190c-2 -4 -4 -6 -8 -6h-18c-8 0 -10 4 -10 10c6 40 -6 160 -108 160c-58 0 -90 -54 -90 -97c0 -70 44 -102 90 -148s112 -102 112 -213c0 -128 -92 -196 -196 -196c-64 0 -110 38 -142 74c-10 10 -20 8 -26 2c-6 -8 -16 -24 -24 -38c-2 -4 -4 -6 -10 -4
l-12 6c-6 2 -6 2 -4 10l74 218c2 4 4 4 10 4l16 -4c4 -2 6 -4 6 -10c-28 -144 50 -212 112 -212c64 0 108 50 108 105c0 64 -50 102 -94 150c-62 68 -114 120 -114 223c0 72 56 176 186 176c54 0 102 -34 118 -46c4 -2 8 -4 14 -4s12 14 16 34c0 4 2 4 10 4l12 -2
c6 0 8 -2 8 -6zM291 -142c0 -99 -101 -132 -124 -132c-6 0 -8 3 -8 10c0 5 3 8 9 10c22 6 69 33 68 73c0 21 -7 29 -20 44c-4 4 -24 17 -24 37c0 21 14 40 37 40c40 0 62 -42 62 -82z" />
    <glyph glyph-name="Tcaron" unicode="&#x164;" horiz-adv-x="662" 
d="M366 670h250c90 0 126 8 144 18c4 2 6 4 10 4s8 -2 8 -8c-2 -16 -12 -162 -10 -202c0 -6 -2 -8 -8 -9l-16 -3c-6 0 -10 4 -14 16c-8 32 -26 94 -40 120c-22 17 -94 26 -140 26h-20l-158 -510c-20 -63 -10 -85 42 -85h40c5 0 7 -4 6 -10l-4 -20c-1 -7 -5 -10 -12 -10
c-14 0 -54 3 -148 3c-98 0 -151 -3 -161 -3c-7 0 -10 4 -9 10l2 22c1 6 4 8 12 8h26c56 0 75 26 98 101l154 494h-26c-92 0 -136 -5 -159 -22c-35 -26 -87 -84 -111 -112c-4 -4 -8 -4 -12 -4l-16 10c-4 2 -4 6 -2 10c12 22 74 162 76 168s4 10 10 10c4 0 8 -2 16 -8
c20 -6 68 -14 172 -14zM508 824l124 62c4 2 6 2 8 -2l7 -12c1 -2 -1 -4 -3 -6l-142 -136c-6 -4 -12 -4 -16 2l-76 136c-2 4 0 6 2 8l11 9c3 3 7 1 10 -2z" />
    <glyph glyph-name="Tcommaaccent" unicode="&#x162;" horiz-adv-x="662" 
d="M366 670h250c90 0 126 8 144 18c4 2 6 4 10 4s8 -2 8 -8c-2 -16 -12 -162 -10 -202c0 -6 -2 -8 -8 -9l-16 -3c-6 0 -10 4 -14 16c-8 32 -26 94 -40 120c-22 17 -94 26 -140 26h-20l-158 -510c-20 -63 -10 -85 42 -85h40c5 0 7 -4 6 -10l-4 -20c-1 -7 -5 -10 -12 -10
c-14 0 -54 3 -148 3c-98 0 -151 -3 -161 -3c-7 0 -10 4 -9 10l2 22c1 6 4 8 12 8h26c56 0 75 26 98 101l154 494h-26c-92 0 -136 -5 -159 -22c-35 -26 -87 -84 -111 -112c-4 -4 -8 -4 -12 -4l-16 10c-4 2 -4 6 -2 10c12 22 74 162 76 168s4 10 10 10c4 0 8 -2 16 -8
c20 -6 68 -14 172 -14zM328 -142c0 -99 -101 -132 -124 -132c-6 0 -8 3 -8 10c0 5 3 8 9 10c22 6 69 33 68 73c0 21 -7 29 -20 44c-4 4 -24 17 -24 37c0 21 14 40 37 40c40 0 62 -42 62 -82z" />
    <glyph glyph-name="Uhungarumlaut" unicode="&#x170;" horiz-adv-x="720" 
d="M743 554l-86 -274c-55 -177 -134 -295 -318 -295c-130 0 -226 60 -226 183c0 42 14 104 20 126l86 277c14 46 0 62 -28 62h-36c-4 0 -8 2 -6 8l4 24c2 6 4 8 14 8c12 0 46 -3 138 -3c80 0 114 3 124 3c8 0 10 -4 10 -12l-4 -20c-1 -4 -4 -8 -10 -8h-28
c-20 0 -45 -4 -60 -53l-82 -268c-6 -22 -30 -96 -30 -139c0 -122 106 -134 136 -134c46 0 98 16 130 44c46 40 80 94 112 203l72 256c19 67 8 91 -24 91h-32c-8 0 -10 4 -9 8l3 22c2 6 4 10 14 10c12 0 50 -3 114 -3c58 0 80 3 90 3s12 -4 10 -12l-4 -20c0 -4 -2 -8 -10 -8
h-16c-32 0 -52 -29 -68 -79zM705 802l-152 -72c-4 -2 -6 -4 -10 0l-6 8c-2 4 0 6 4 10l122 110c10 8 16 12 26 12c34 0 50 -52 16 -68zM571 816l-144 -86c-4 -4 -8 -4 -10 0l-6 6c-2 4 -2 8 2 10l110 122c8 10 16 16 32 16c26 0 56 -44 16 -68z" />
    <glyph glyph-name="Umacron" unicode="&#x16a;" horiz-adv-x="720" 
d="M743 554l-86 -274c-55 -177 -134 -295 -318 -295c-130 0 -226 60 -226 183c0 42 14 104 20 126l86 277c14 46 0 62 -28 62h-36c-4 0 -8 2 -6 8l4 24c2 6 4 8 14 8c12 0 46 -3 138 -3c80 0 114 3 124 3c8 0 10 -4 10 -12l-4 -20c-1 -4 -4 -8 -10 -8h-28
c-20 0 -45 -4 -60 -53l-82 -268c-6 -22 -30 -96 -30 -139c0 -122 106 -134 136 -134c46 0 98 16 130 44c46 40 80 94 112 203l72 256c19 67 8 91 -24 91h-32c-8 0 -10 4 -9 8l3 22c2 6 4 10 14 10c12 0 50 -3 114 -3c58 0 80 3 90 3s12 -4 10 -12l-4 -20c0 -4 -2 -8 -10 -8
h-16c-32 0 -52 -29 -68 -79zM413 818h212c6 0 10 -2 10 -8v-38c0 -6 -4 -6 -10 -6h-214c-4 0 -8 0 -8 6v40c0 4 4 6 10 6z" />
    <glyph glyph-name="Uogonek" unicode="&#x172;" horiz-adv-x="720" 
d="M841 661l-4 -20c0 -4 -2 -8 -10 -8h-16c-32 0 -52 -29 -68 -79l-86 -274c-46 -147 -109 -238 -228 -287c-37 -15 -98 -113 -98 -155c0 -61 38 -68 73 -68c8 0 36 11 45 11c7 0 7 -13 7 -17c0 -6 -40 -28 -72 -28c-76 0 -139 13 -139 85c0 65 76 130 127 165
c-11 -1 -22 -1 -33 -1c-130 0 -226 60 -226 183c0 42 13 104 20 126l86 277c14 46 0 62 -28 62h-36c-4 0 -8 2 -6 8l4 24c2 6 4 8 14 8c12 0 46 -3 138 -3c80 0 114 3 124 3c8 0 10 -4 10 -12l-4 -20c-1 -4 -4 -8 -10 -8h-28c-20 0 -45 -4 -60 -53l-82 -268
c-7 -22 -30 -96 -30 -139c0 -122 106 -134 136 -134c46 0 98 16 130 44c46 40 81 94 112 203l72 256c19 67 8 91 -24 91h-32c-8 0 -10 4 -9 8l3 22c2 6 4 10 14 10c12 0 50 -3 114 -3c58 0 80 3 90 3s12 -4 10 -12z" />
    <glyph glyph-name="Uring" unicode="&#x16e;" horiz-adv-x="720" 
d="M743 554l-86 -274c-55 -177 -134 -295 -318 -295c-130 0 -226 60 -226 183c0 42 14 104 20 126l86 277c14 46 0 62 -28 62h-36c-4 0 -8 2 -6 8l4 24c2 6 4 8 14 8c12 0 46 -3 138 -3c80 0 114 3 124 3c8 0 10 -4 10 -12l-4 -20c-1 -4 -4 -8 -10 -8h-28
c-20 0 -45 -4 -60 -53l-82 -268c-6 -22 -30 -96 -30 -139c0 -122 106 -134 136 -134c46 0 98 16 130 44c46 40 80 94 112 203l72 256c19 67 8 91 -24 91h-32c-8 0 -10 4 -9 8l3 22c2 6 4 10 14 10c12 0 50 -3 114 -3c58 0 80 3 90 3s12 -4 10 -12l-4 -20c0 -4 -2 -8 -10 -8
h-16c-32 0 -52 -29 -68 -79zM530 724c-58 0 -110 27 -110 73c0 60 61 88 117 88s110 -24 110 -81c0 -51 -56 -80 -117 -80zM534 752c23 0 51 15 51 53c0 40 -32 52 -53 52c-23 0 -50 -19 -50 -53c0 -37 27 -52 52 -52z" />
    <glyph glyph-name="Zacute" unicode="&#x179;" horiz-adv-x="682" 
d="M382 0h-315c-10 0 -15 4 -15 10s4 12 8 16l515 604h-76c-99 0 -178 -2 -215 -12c-42 -10 -80 -46 -100 -88c-2 -6 -6 -6 -10 -4l-16 6c-4 0 -4 4 -4 6l42 138c2 6 4 12 10 12s10 -2 16 -6c12 -8 116 -12 144 -12h345c8 0 13 -5 13 -11c0 -7 -3 -14 -6 -17l-511 -602h78
c108 0 168 3 229 18c40 10 80 40 114 96c2 6 6 6 10 4l14 -8c4 0 6 -4 4 -10l-52 -146c-2 -6 -4 -8 -10 -8c-4 0 -12 2 -18 4c-18 8 -160 10 -194 10zM400 729l-6 10c-2 4 0 7 3 10l143 115c9 7 22 11 34 11c36 0 52 -61 8 -79l-174 -68c-4 -2 -7 -1 -8 1z" />
    <glyph glyph-name="Zdotaccent" unicode="&#x17b;" horiz-adv-x="682" 
d="M382 0h-315c-10 0 -15 4 -15 10s4 12 8 16l515 604h-76c-99 0 -178 -2 -215 -12c-42 -10 -80 -46 -100 -88c-2 -6 -6 -6 -10 -4l-16 6c-4 0 -4 4 -4 6l42 138c2 6 4 12 10 12s10 -2 16 -6c12 -8 116 -12 144 -12h345c8 0 13 -5 13 -11c0 -7 -3 -14 -6 -17l-511 -602h78
c108 0 168 3 229 18c40 10 80 40 114 96c2 6 6 6 10 4l14 -8c4 0 6 -4 4 -10l-52 -146c-2 -6 -4 -8 -10 -8c-4 0 -12 2 -18 4c-18 8 -160 10 -194 10zM441 738c-24 0 -58 10 -58 52c0 22 12 54 58 54c30 0 54 -18 54 -54c0 -32 -24 -52 -54 -52z" />
    <glyph glyph-name="Idotaccent" unicode="&#x130;" horiz-adv-x="374" 
d="M120 108l126 459c14 50 -2 66 -28 66h-46c-8 0 -10 2 -10 8l6 26c0 4 4 6 12 6c12 0 66 -3 146 -3c86 0 128 3 142 3c10 0 14 -4 12 -12l-6 -20c0 -4 -2 -8 -10 -8h-26c-42 0 -65 -10 -80 -67l-124 -461c-13 -48 2 -68 44 -68h36c6 0 8 -4 6 -10l-2 -20
c-2 -8 -2 -10 -12 -10c-12 0 -58 3 -160 3c-84 0 -136 -3 -148 -3c-6 0 -8 4 -8 10l6 22c0 6 2 8 8 8h38c58 0 64 20 78 71zM342 738c-24 0 -58 10 -58 52c0 22 12 54 58 54c30 0 54 -18 54 -54c0 -32 -24 -52 -54 -52z" />
    <glyph glyph-name="abreve" unicode="&#x103;" horiz-adv-x="467" 
d="M404 418h54c6 0 8 -4 6 -10c-18 -42 -66 -170 -74 -196c-4 -18 -42 -134 -42 -146c0 -10 4 -12 12 -12c14 0 54 48 62 58c4 4 6 6 10 3l12 -9c2 -2 2 -6 0 -12c-10 -20 -80 -104 -158 -104c-22 0 -32 10 -32 26c0 14 6 36 42 140l-6 2c-42 -62 -124 -168 -206 -168
c-26 0 -62 30 -62 72c0 134 140 354 274 354c44 0 64 -18 76 -34l16 28c4 6 10 8 16 8zM144 58c38 0 146 146 164 184c14 28 24 58 24 90c0 16 -18 44 -46 44c-26 0 -56 -24 -82 -61c-56 -79 -84 -169 -84 -225c0 -22 8 -32 24 -32zM467 588l10 -4c4 -2 4 -6 0 -14
c-24 -46 -68 -94 -138 -94c-46 0 -88 32 -94 98c0 8 0 10 4 12l10 2c4 2 6 -2 10 -8c16 -30 52 -42 86 -42c52 0 84 26 100 44c6 6 8 10 12 6z" />
    <glyph glyph-name="amacron" unicode="&#x101;" horiz-adv-x="467" 
d="M404 418h54c6 0 8 -4 6 -10c-18 -42 -66 -170 -74 -196c-4 -18 -42 -134 -42 -146c0 -10 4 -12 12 -12c14 0 54 48 62 58c4 4 6 6 10 3l12 -9c2 -2 2 -6 0 -12c-10 -20 -80 -104 -158 -104c-22 0 -32 10 -32 26c0 14 6 36 42 140l-6 2c-42 -62 -124 -168 -206 -168
c-26 0 -62 30 -62 72c0 134 140 354 274 354c44 0 64 -18 76 -34l16 28c4 6 10 8 16 8zM144 58c38 0 146 146 164 184c14 28 24 58 24 90c0 16 -18 44 -46 44c-26 0 -56 -24 -82 -61c-56 -79 -84 -169 -84 -225c0 -22 8 -32 24 -32zM241 560h192c6 0 10 0 10 -6v-38
c0 -4 -4 -6 -10 -6h-194c-6 0 -8 2 -8 6v38c0 6 4 6 10 6z" />
    <glyph glyph-name="aogonek" unicode="&#x105;" horiz-adv-x="467" 
d="M464 408c-18 -42 -67 -170 -74 -196c-5 -18 -42 -134 -42 -146c0 -10 4 -12 12 -12c14 0 54 48 62 58c4 4 6 6 10 3l12 -9c2 -2 2 -6 0 -12c-8 -16 -60 -57 -108 -95c-53 -42 -91 -49 -91 -125c0 -44 45 -56 69 -56c8 0 27 9 32 9c4 0 8 -9 8 -14c0 -6 -28 -25 -60 -25
c-76 0 -136 4 -136 72c0 60 74 106 123 130c-19 1 -27 11 -27 26c0 14 6 36 42 140l-6 2c-42 -62 -124 -168 -206 -168c-26 0 -62 30 -62 72c0 134 140 354 274 354c44 0 64 -18 76 -34l16 28c4 6 10 8 16 8h54c6 0 8 -4 6 -10zM332 332c0 16 -18 44 -46 44
c-26 0 -56 -24 -82 -61c-56 -79 -84 -169 -84 -225c0 -22 8 -32 24 -32c38 0 146 146 164 184c14 28 24 58 24 90z" />
    <glyph glyph-name="cacute" unicode="&#x107;" horiz-adv-x="318" 
d="M265 96l14 -10c4 -2 6 -4 2 -10c-15 -22 -80 -86 -154 -86c-40 0 -90 31 -90 99c0 140 109 327 233 327c52 0 69 -38 69 -56c0 -28 -22 -50 -42 -50c-16 0 -28 6 -34 24c-6 14 -15 30 -31 30c-22 0 -41 -24 -60 -68c-25 -60 -39 -122 -39 -176c0 -50 15 -72 41 -72
c32 0 71 30 83 44c2 4 6 6 8 4zM385 536l-152 -66c-4 -2 -7 -2 -8 0l-7 9c-2 3 -1 5 1 7l120 106c14 12 28 20 42 20c32 0 52 -55 4 -76z" />
    <glyph glyph-name="ccaron" unicode="&#x10d;" horiz-adv-x="318" 
d="M265 96l14 -10c4 -2 6 -4 2 -10c-15 -22 -80 -86 -154 -86c-40 0 -90 31 -90 99c0 140 109 327 233 327c52 0 69 -38 69 -56c0 -28 -22 -50 -42 -50c-16 0 -28 6 -34 24c-6 14 -15 30 -31 30c-22 0 -41 -24 -60 -68c-25 -60 -39 -122 -39 -176c0 -50 15 -72 41 -72
c32 0 71 30 83 44c2 4 6 6 8 4zM289 568l104 65c2 1 5 1 7 -2l7 -9c1 -2 1 -4 -3 -8l-129 -142c-6 -4 -12 -2 -14 4l-49 146c-1 2 -1 7 1 8l9 6c2 1 5 0 7 -2z" />
    <glyph glyph-name="dcaron" unicode="&#x10f;" horiz-adv-x="589" 
d="M396 675h146c14 0 18 -10 15 -17c-15 -36 -175 -502 -191 -564c-6 -30 -8 -44 6 -44c16 0 58 44 64 50c4 4 8 4 11 1l13 -11c2 -2 2 -6 0 -10c-8 -10 -80 -90 -160 -90c-22 0 -34 8 -34 26c0 24 20 84 40 140l-10 4c-48 -78 -126 -170 -198 -170c-44 0 -74 40 -74 82
c0 70 46 184 129 267c26 26 79 77 149 77c28 0 54 -12 71 -32l67 217c6 18 0 38 -26 38h-30c-8 0 -10 4 -8 6l4 24c2 4 4 6 16 6zM342 322c0 31 -19 58 -54 58c-70 0 -162 -212 -162 -294c0 -22 12 -34 26 -34c30 0 88 72 126 126c28 38 64 104 64 144zM717 593
c0 -99 -101 -132 -124 -132c-6 0 -8 3 -8 10c0 5 3 8 9 10c22 6 69 33 68 73c0 21 -7 29 -20 44c-4 4 -24 17 -24 37c0 21 14 40 37 40c40 0 62 -42 62 -82z" />
    <glyph glyph-name="dcroat" unicode="&#x111;" horiz-adv-x="480" 
d="M342 322c0 31 -19 58 -54 58c-70 0 -162 -212 -162 -294c0 -22 12 -34 26 -34c30 0 88 72 126 126c28 38 64 104 64 144zM587 556c6 0 10 -2 8 -6l-4 -24c-2 -6 -4 -8 -12 -8h-73c-53 -153 -130 -382 -140 -424c-7 -30 -8 -44 6 -44c16 0 58 44 64 50c4 4 8 4 11 1
l13 -11c2 -2 2 -6 0 -10c-8 -10 -80 -90 -160 -90c-22 0 -34 8 -34 26c0 24 20 84 40 140l-10 4c-48 -78 -126 -170 -198 -170c-44 0 -74 40 -74 82c0 70 46 184 129 267c26 26 79 77 149 77c28 0 54 -12 71 -32l41 134h-117c-6 0 -10 4 -10 8l4 24c2 4 4 6 10 6h125l14 45
c6 18 0 38 -26 38h-30c-8 0 -8 3 -8 6l4 24c1 4 4 6 16 6h146c14 0 18 -10 15 -17c-4 -9 -18 -48 -37 -102h67z" />
    <glyph glyph-name="ecaron" unicode="&#x11b;" horiz-adv-x="370" 
d="M300 110l15 -11c5 -3 5 -5 3 -9c-22 -36 -90 -100 -178 -100c-66 0 -106 36 -106 106c0 78 42 184 124 258c40 36 96 62 150 62c46 0 70 -30 70 -59c0 -51 -34 -97 -92 -129c-54 -28 -108 -40 -146 -42c-4 -10 -10 -38 -10 -74c0 -40 26 -64 54 -64c46 0 86 30 108 60
c2 2 6 4 8 2zM260 368c-50 0 -100 -96 -112 -150c18 0 66 12 100 38c22 18 42 48 42 76c0 18 -8 36 -30 36zM325 568l104 65c2 1 5 1 7 -2l7 -9c1 -2 1 -4 -3 -8l-129 -142c-6 -4 -12 -2 -14 4l-49 146c-1 2 -1 7 1 8l9 6c2 1 5 0 7 -2z" />
    <glyph glyph-name="edotaccent" unicode="&#x117;" horiz-adv-x="370" 
d="M300 110l15 -11c5 -3 5 -5 3 -9c-22 -36 -90 -100 -178 -100c-66 0 -106 36 -106 106c0 78 42 184 124 258c40 36 96 62 150 62c46 0 70 -30 70 -59c0 -51 -34 -97 -92 -129c-54 -28 -108 -40 -146 -42c-4 -10 -10 -38 -10 -74c0 -40 26 -64 54 -64c46 0 86 30 108 60
c2 2 6 4 8 2zM260 368c-50 0 -100 -96 -112 -150c18 0 66 12 100 38c22 18 42 48 42 76c0 18 -8 36 -30 36zM318 537c-40 0 -58 29 -58 54c0 27 25 54 56 54c40 0 61 -25 61 -50c0 -23 -23 -58 -59 -58z" />
    <glyph glyph-name="emacron" unicode="&#x113;" horiz-adv-x="370" 
d="M300 110l15 -11c5 -3 5 -5 3 -9c-22 -36 -90 -100 -178 -100c-66 0 -106 36 -106 106c0 78 42 184 124 258c40 36 96 62 150 62c46 0 70 -30 70 -59c0 -51 -34 -97 -92 -129c-54 -28 -108 -40 -146 -42c-4 -10 -10 -38 -10 -74c0 -40 26 -64 54 -64c46 0 86 30 108 60
c2 2 6 4 8 2zM260 368c-50 0 -100 -96 -112 -150c18 0 66 12 100 38c22 18 42 48 42 76c0 18 -8 36 -30 36zM192 560h192c6 0 10 0 10 -6v-38c0 -4 -4 -6 -10 -6h-194c-6 0 -8 2 -8 6v38c0 6 4 6 10 6z" />
    <glyph glyph-name="eogonek" unicode="&#x119;" horiz-adv-x="370" 
d="M378 357c0 -51 -34 -98 -92 -129c-54 -29 -108 -40 -146 -42c-4 -10 -10 -38 -10 -74c0 -40 26 -64 54 -64c46 0 86 30 108 60c2 2 6 4 8 2l15 -11c5 -3 5 -5 2 -9c-16 -27 -59 -64 -111 -93c-49 -27 -90 -64 -90 -123c0 -44 45 -56 69 -56c8 0 27 9 32 9c4 0 8 -9 8 -14
c0 -6 -28 -25 -60 -25c-76 0 -136 4 -136 72c0 61 76 107 123 130h-12c-66 0 -106 36 -106 106c0 78 42 184 124 258c40 36 96 62 150 62c46 0 70 -30 70 -59zM290 332c0 18 -8 36 -30 36c-50 0 -100 -96 -112 -150c18 0 66 12 100 38c22 18 42 48 42 76z" />
    <glyph glyph-name="gbreve" unicode="&#x11f;" horiz-adv-x="450" 
d="M150 -297c-118 0 -216 60 -216 124c0 32 12 52 42 76c40 34 96 56 126 68c-30 22 -38 40 -38 60c0 22 28 46 86 74l2 4c-46 18 -82 48 -82 117c0 74 70 190 196 190c60 0 88 -32 98 -43c16 12 50 33 84 33c32 0 44 -26 44 -44s-12 -36 -36 -36c-16 0 -26 6 -34 14
c-4 6 -10 10 -18 10s-20 -6 -24 -12c4 -12 6 -34 6 -51c0 -48 -42 -164 -158 -182c-22 -4 -36 -6 -38 -6c-20 -10 -42 -30 -42 -46c0 -10 12 -22 20 -28c18 -13 68 -38 138 -80c60 -36 76 -70 76 -100c0 -24 -10 -72 -72 -106c-38 -22 -84 -36 -160 -36zM196 136
c62 0 100 116 100 187c0 39 -8 61 -36 61c-22 0 -38 -12 -55 -39c-39 -62 -45 -102 -45 -153c0 -38 12 -56 36 -56zM174 -261c50 0 112 23 112 70c0 44 -28 63 -70 88c-10 6 -74 44 -89 54c-61 -28 -99 -62 -99 -108c0 -70 72 -104 146 -104zM409 588l10 -4c4 -2 4 -6 0 -14
c-24 -46 -68 -94 -138 -94c-46 0 -88 32 -94 98c0 8 0 10 4 12l10 2c4 2 6 -2 10 -8c16 -30 52 -42 86 -42c52 0 84 26 100 44c6 6 8 10 12 6z" />
    <glyph glyph-name="gcommaaccent" unicode="&#x123;" horiz-adv-x="450" 
d="M150 -297c-118 0 -216 60 -216 124c0 32 12 52 42 76c40 34 96 56 126 68c-30 22 -38 40 -38 60c0 22 28 46 86 74l2 4c-46 18 -82 48 -82 117c0 74 70 190 196 190c60 0 88 -32 98 -43c16 12 50 33 84 33c32 0 44 -26 44 -44s-12 -36 -36 -36c-16 0 -26 6 -34 14
c-4 6 -10 10 -18 10s-20 -6 -24 -12c4 -12 6 -34 6 -51c0 -48 -42 -164 -158 -182c-22 -4 -36 -6 -38 -6c-20 -10 -42 -30 -42 -46c0 -10 12 -22 20 -28c18 -13 68 -38 138 -80c60 -36 76 -70 76 -100c0 -24 -10 -72 -72 -106c-38 -22 -84 -36 -160 -36zM196 136
c62 0 100 116 100 187c0 39 -8 61 -36 61c-22 0 -38 -12 -55 -39c-39 -62 -45 -102 -45 -153c0 -38 12 -56 36 -56zM174 -261c50 0 112 23 112 70c0 44 -28 63 -70 88c-10 6 -74 44 -89 54c-61 -28 -99 -62 -99 -108c0 -70 72 -104 146 -104zM237 561c0 99 101 132 124 132
c6 0 8 -3 8 -10c0 -5 -3 -8 -9 -10c-22 -6 -69 -33 -68 -73c0 -21 7 -29 20 -44c4 -4 24 -17 24 -37c0 -21 -14 -40 -37 -40c-40 0 -62 42 -62 82z" />
    <glyph glyph-name="imacron" unicode="&#x12b;" horiz-adv-x="292" 
d="M232 280l-56 -152c-14 -38 -18 -54 -18 -64c0 -8 4 -14 12 -14c20 2 72 56 78 64c2 4 6 4 9 1l11 -11c4 -4 6 -6 2 -10c-6 -8 -76 -104 -185 -104c-21 0 -29 12 -29 28c0 20 18 66 56 178l28 78c8 28 16 46 16 58c0 8 -4 12 -12 12c-16 0 -62 -52 -76 -68
c-4 -4 -8 -4 -12 0l-10 9c-4 3 -6 5 -4 9c6 6 96 122 184 122c24 0 36 -12 36 -32s-12 -57 -30 -104zM118 560h192c6 0 10 0 10 -6v-38c0 -4 -4 -6 -10 -6h-194c-6 0 -8 2 -8 6v38c0 6 4 6 10 6z" />
    <glyph glyph-name="iogonek" unicode="&#x12f;" horiz-adv-x="292" 
d="M314 629c0 -26 -26 -64 -66 -64c-44 0 -64 32 -64 60c0 30 28 60 62 60c44 0 68 -28 68 -56zM270 94c-5 -6 -57 -55 -122 -98c-50 -33 -89 -58 -89 -122c0 -44 45 -56 69 -56c8 0 27 9 32 9c4 0 8 -9 8 -14c0 -6 -28 -25 -60 -25c-76 0 -136 4 -136 72
c0 66 75 101 122 130h-9c-21 0 -29 12 -29 28c0 20 16 67 56 178l28 78c10 27 16 46 16 58c0 8 -4 12 -12 12c-16 0 -62 -52 -76 -68c-4 -4 -8 -4 -12 0l-10 9c-4 3 -6 5 -4 9c6 6 96 122 184 122c24 0 36 -12 36 -32s-13 -57 -30 -104l-56 -152c-14 -38 -18 -54 -18 -64
c0 -8 4 -14 12 -14c20 2 72 56 78 64c2 4 6 4 9 1l11 -11c4 -4 6 -6 2 -10z" />
    <glyph glyph-name="kcommaaccent" unicode="&#x137;" horiz-adv-x="456" 
d="M212 314l6 -2c32 42 103 104 171 104c35 0 63 -16 63 -59c0 -77 -136 -154 -182 -172v-6l68 -107c16 -24 30 -38 43 -38c17 0 33 16 43 26c2 4 6 2 8 0l12 -12c2 -2 2 -6 -2 -10c-16 -16 -50 -48 -102 -48s-72 16 -94 60l-48 102c-6 14 -22 16 -40 14l-60 -158
c-2 -6 -6 -8 -14 -8h-68c-6 0 -10 6 -6 14l228 583c9 24 0 42 -32 42h-26c-6 0 -8 4 -6 10l8 18c2 6 2 8 10 8h160c10 0 11 -10 7 -19zM190 248l-22 -56c86 -14 194 88 194 140c0 15 -10 26 -28 26c-36 0 -102 -58 -114 -74c-10 -10 -22 -24 -30 -36zM245 -142
c0 -99 -101 -132 -124 -132c-6 0 -8 3 -8 10c0 5 3 8 9 10c22 6 69 33 68 73c0 21 -7 29 -20 44c-4 4 -24 17 -24 37c0 21 14 40 37 40c40 0 62 -42 62 -82z" />
    <glyph glyph-name="lacute" unicode="&#x13a;" horiz-adv-x="258" 
d="M52 126l166 452c13 35 12 61 -18 61h-32c-4 0 -5 3 -4 8l6 23c1 3 3 5 8 5h154c9 0 11 -6 8 -15l-202 -546c-10 -26 -20 -60 0 -60s60 38 72 52c4 2 6 2 10 -2l12 -10c2 -4 4 -6 0 -12s-90 -92 -178 -92c-18 0 -34 16 -34 36c0 16 22 72 32 100zM258 729l-6 10
c-2 4 0 7 3 10l143 115c9 7 22 11 34 11c36 0 52 -61 8 -79l-174 -68c-4 -2 -7 -1 -8 1z" />
    <glyph glyph-name="lcaron" unicode="&#x13e;" horiz-adv-x="357" 
d="M52 126l166 452c13 35 12 61 -18 61h-32c-4 0 -5 3 -4 8l6 23c1 3 3 5 8 5h154c9 0 11 -6 8 -15l-202 -546c-10 -26 -20 -60 0 -60s60 38 72 52c4 2 6 2 10 -2l12 -10c2 -4 4 -6 0 -12s-90 -92 -178 -92c-18 0 -34 16 -34 36c0 16 22 72 32 100zM486 593
c0 -99 -101 -132 -124 -132c-6 0 -8 3 -8 10c0 5 3 8 9 10c22 6 69 33 68 73c0 21 -7 29 -20 44c-4 4 -24 17 -24 37c0 21 14 40 37 40c40 0 62 -42 62 -82z" />
    <glyph glyph-name="lcommaaccent" unicode="&#x13c;" horiz-adv-x="258" 
d="M52 126l166 452c13 35 12 61 -18 61h-32c-4 0 -5 3 -4 8l6 23c1 3 3 5 8 5h154c9 0 11 -6 8 -15l-202 -546c-10 -26 -20 -60 0 -60s60 38 72 52c4 2 6 2 10 -2l12 -10c2 -4 4 -6 0 -12s-90 -92 -178 -92c-18 0 -34 16 -34 36c0 16 22 72 32 100zM106 -142
c0 -99 -101 -132 -124 -132c-6 0 -8 3 -8 10c0 5 3 8 9 10c22 6 69 33 68 73c0 21 -7 29 -20 44c-4 4 -24 17 -24 37c0 21 14 40 37 40c40 0 62 -42 62 -82z" />
    <glyph glyph-name="nacute" unicode="&#x144;" horiz-adv-x="530" 
d="M162 98l-32 -92c-2 -4 -4 -6 -14 -6h-64c-9 0 -10 7 -8 13l68 185c22 64 46 126 46 140c0 10 -6 16 -15 16c-18 0 -57 -36 -73 -52c-2 -4 -6 -4 -9 -1l-11 11c-4 2 -6 6 -2 10c14 18 80 94 171 94c29 0 38 -20 38 -34c0 -22 -29 -90 -47 -134l6 -4c30 46 122 172 217 172
c37 0 57 -28 57 -56c0 -26 -13 -73 -54 -176c-26 -66 -40 -104 -40 -118c0 -10 4 -16 12 -16c14 0 52 34 62 48c4 2 8 2 12 -2l10 -8c4 -2 4 -6 0 -12c-12 -16 -82 -86 -166 -86c-22 0 -34 12 -34 30s28 86 60 174c15 42 43 118 43 130c0 16 -9 24 -23 24
c-30 0 -114 -80 -156 -148c-20 -32 -38 -62 -54 -102zM451 536l-152 -66c-4 -2 -7 -2 -8 0l-7 9c-2 3 -1 5 1 7l120 106c14 12 28 20 42 20c32 0 52 -55 4 -76z" />
    </font>
</defs>
</svg>
