<?xml version="1.0" standalone="no"?>
<!DOCTYPE svg PUBLIC "-//W3C//DTD SVG 1.1//EN" "http://www.w3.org/Graphics/SVG/1.1/DTD/svg11.dtd" >
<svg xmlns="http://www.w3.org/2000/svg" xmlns:xlink="http://www.w3.org/1999/xlink" version="1.1">
<metadata>
Created by FontForge 20170812 at Tue Oct  9 20:49:11 2001
 By www-data
Copyright 2000, 2001 Adobe Systems Incorporated. All Rights Reserved.Adobe Caslon is either a registered trademark or a trademark of Adobe Systems Incorporated in the United States and/or other countries.
</metadata>
<defs>
<font id="ACaslonPro-Italic" horiz-adv-x="500" >
  <font-face 
    font-family="Adobe Caslon Pro"
    font-weight="400"
    font-style="italic"
    font-stretch="normal"
    units-per-em="1000"
    panose-1="2 5 5 2 5 5 11 9 10 3"
    ascent="735"
    descent="-265"
    x-height="416"
    cap-height="673"
    bbox="-225 -700 1501.19 1002"
    underline-thickness="50"
    underline-position="-100"
    slope="-22"
    stemh="37"
    stemv="72"
    unicode-range="U+0020-FB06"
  />
<missing-glyph 
d="M0 0v700h500v-700h-500zM250 395l170 255h-340zM280 350l170 -255v510zM80 50h340l-170 255zM50 605v-510l170 255z" />
    <glyph glyph-name="fi" unicode="fi" horiz-adv-x="505" 
d="M161 352h-81c-5 0 -7 2 -6 7l6 20c2 9 4 10 9 10h84c38 91 77 185 143 243c38 34 80 53 146 53c82 0 105 -53 105 -68c0 -27 -17 -45 -37 -45c-35 0 -44 25 -44 42c0 10 2 20 -6 28c-7 7 -14 13 -41 13c-26 0 -50 -9 -75 -31c-46 -40 -92 -147 -121 -235h179
c32 0 51 11 62 11c7 0 7 -8 -1 -29l-109 -273c-15 -37 -10 -45 3 -45c15 0 82 72 93 88c1 3 4 3 9 -1l13 -11c2 -2 3 -4 1 -6c-10 -16 -115 -133 -179 -133c-21 0 -31 9 -31 21c0 13 23 70 37 105l79 204c10 27 -5 32 -32 32h-135c-25 -59 -53 -149 -93 -257
c-58 -157 -119 -392 -285 -392c-49 0 -77 33 -77 63c0 21 18 39 40 41c22 -1 37 -21 39 -37c1 -15 11 -29 34 -29c78 0 122 186 173 335c45 131 76 218 98 276z" />
    <glyph glyph-name="fl" unicode="fl" horiz-adv-x="507" 
d="M414 353h-187l-75 -232c-38 -119 -82 -268 -167 -355c-42 -43 -83 -63 -129 -63c-53 0 -75 37 -75 54c0 24 18 45 40 45c23 0 35 -18 40 -32c7 -17 15 -27 28 -27c17 0 42 13 55 28c63 74 107 248 143 361l70 221h-84c-5 0 -8 3 -6 8l8 21c2 4 3 8 10 8h85
c36 100 62 163 131 233c39 40 85 62 151 62c59 0 117 -12 136 -20c6 -3 12 -8 12 -14c0 -10 -21 -46 -50 -118l-169 -417c-6 -14 -10 -28 -10 -36c0 -7 3 -11 11 -11c16 0 81 69 84 74c2 3 6 3 10 0l10 -8c4 -3 4 -6 2 -11c-4 -9 -127 -134 -189 -134c-14 0 -20 8 -20 17
s8 38 23 71zM237 390h192l69 170c9 21 10 34 10 45c0 14 -13 46 -77 46c-31 0 -56 -8 -79 -27c-34 -28 -58 -78 -115 -234z" />
    <glyph glyph-name="ff" unicode="ff" horiz-adv-x="531" 
d="M79 389h88c34 103 59 167 115 223c37 37 86 63 161 63c65 0 96 -27 107 -43c17 16 37 29 59 39c22 9 47 14 74 14c58 0 90 -35 90 -59c0 -31 -20 -46 -40 -46c-32 0 -41 18 -44 40c-1 10 -11 29 -41 29c-92 0 -128 -148 -161 -260h94c6 0 8 -3 6 -12l-5 -18
c-1 -5 -3 -7 -11 -7h-94c-26 -81 -71 -254 -121 -382c-61 -156 -129 -267 -245 -267c-81 0 -110 29 -131 51c-9 -11 -58 -51 -116 -51c-39 0 -71 27 -71 59c0 23 17 43 43 43c29 0 44 -28 47 -45c2 -10 9 -17 18 -17c47 0 101 84 156 269l100 340h-89c-5 0 -6 3 -5 9l4 18
c2 7 4 10 12 10zM411 352h-188c-6 -17 -34 -127 -76 -254c-42 -129 -100 -263 -128 -294l2 -2c14 -2 32 -10 45 -35c10 -20 25 -32 51 -32c34 0 58 10 77 29c55 53 92 154 137 314c26 92 51 172 80 274zM233 389h188c48 143 75 175 88 194c-20 2 -31 13 -43 28
c-14 17 -25 28 -57 28s-54 -5 -81 -31c-43 -39 -78 -160 -95 -219z" />
    <glyph glyph-name="ffi" unicode="ffi" horiz-adv-x="751" 
d="M79 389h88c34 103 59 167 115 223c37 37 86 63 165 63c50 0 89 -27 99 -43c16 16 41 29 63 39c22 9 47 14 84 14c63 0 95 -35 95 -59c0 -31 -20 -46 -40 -46c-32 0 -41 18 -44 40c-1 10 -11 29 -51 29c-92 0 -135 -148 -165 -260h180c32 0 51 11 62 11c7 0 7 -8 -1 -29
l-109 -273c-15 -37 -10 -45 3 -45c15 0 82 72 93 88c1 3 4 3 9 -1l13 -11c2 -2 3 -4 1 -6c-10 -16 -115 -133 -179 -133c-19 0 -29 9 -29 21c0 13 23 70 37 105l79 204c10 27 -5 32 -34 32h-137c-26 -81 -72 -254 -122 -382c-60 -156 -129 -267 -255 -267
c-82 0 -101 29 -119 51c-9 -11 -58 -51 -116 -51c-39 0 -71 27 -71 59c0 23 17 43 43 43c29 0 44 -28 47 -45c2 -10 9 -17 17 -17c48 0 102 84 156 269l101 340h-87c-5 0 -8 3 -7 9l4 18c2 7 4 10 12 10zM410 352h-187c-6 -21 -37 -126 -78 -255
c-40 -128 -98 -262 -126 -293l2 -2c17 -3 32 -15 41 -35s34 -32 50 -32c24 0 53 8 76 29c60 53 97 154 141 314c25 92 51 172 81 274zM233 389h187c48 143 75 175 84 189c-17 2 -29 14 -37 33c-9 20 -31 28 -68 28c-22 0 -44 -5 -71 -31c-43 -39 -78 -160 -95 -219z" />
    <glyph glyph-name="ffl" unicode="ffl" horiz-adv-x="758" 
d="M63 362l4 17c2 7 4 10 12 10h88c34 103 59 167 115 223c37 37 86 63 160 63c54 0 91 -27 104 -50c40 37 86 60 159 60c55 0 113 -12 133 -19c9 -3 13 -9 13 -15s-20 -45 -50 -119l-169 -417c-6 -14 -10 -28 -10 -36c0 -7 3 -11 11 -11c16 0 81 69 84 74c2 3 6 3 10 0
l10 -8c4 -3 4 -6 2 -11c-4 -9 -127 -134 -185 -134c-14 0 -22 8 -22 17s8 38 23 71l112 275h-190c-24 -81 -72 -254 -122 -383c-61 -157 -131 -266 -263 -266c-75 0 -97 29 -112 51c-9 -11 -58 -51 -116 -51c-39 0 -71 27 -71 59c0 23 17 43 43 43c29 0 44 -28 47 -45
c2 -10 9 -17 17 -17c48 0 102 84 156 269l101 340h-89c-5 0 -7 3 -5 10zM410 352h-187c-5 -17 -35 -127 -76 -254c-42 -129 -100 -263 -128 -294l2 -2c15 -2 33 -16 41 -35c9 -20 29 -32 45 -32c24 0 53 9 76 29c60 53 103 150 148 310c26 92 47 176 79 278zM233 389h187
c40 129 70 171 86 187c-16 3 -29 16 -39 36s-36 27 -68 27c-22 0 -44 -5 -71 -31c-43 -39 -78 -160 -95 -219zM487 389h195l69 172c9 21 10 34 10 45c0 19 -15 46 -77 46c-41 0 -66 -9 -90 -31c-33 -29 -63 -80 -107 -232z" />
    <glyph glyph-name="f_j" unicode="fj" horiz-adv-x="505" 
d="M20 -189l-1 1c-41 -64 -93 -109 -165 -109c-49 0 -77 33 -77 63c0 21 18 39 40 41c22 -1 37 -21 39 -37c1 -15 11 -29 34 -29c78 0 122 186 173 335c45 131 76 218 98 276h-81c-5 0 -7 2 -6 7l6 20c3 9 4 10 9 10h84c38 91 77 185 143 243c38 34 80 53 146 53
c82 0 105 -53 105 -68c0 -27 -17 -45 -37 -45c-35 0 -44 25 -44 42c0 10 2 20 -6 28c-7 7 -14 13 -41 13c-26 0 -50 -9 -75 -31c-46 -40 -92 -147 -121 -235h179c32 0 45 10 56 10c4 0 10 -1 10 -9c0 -9 -2 -17 -6 -31c-8 -26 -23 -83 -37 -121l-77 -204
c-3 -9 -103 -264 -243 -264c-54 0 -91 22 -105 41zM366 353h-135c-25 -59 -53 -149 -93 -257c-25 -68 -51 -150 -85 -222h2c29 0 41 -26 43 -40c3 -20 32 -29 44 -29c72 0 142 165 185 294l65 194c5 16 9 17 9 28c-1 15 -8 32 -35 32z" />
    <glyph glyph-name="f_f_j" unicode="ffj" horiz-adv-x="731" 
d="M689 238l-77 -204c-3 -9 -102 -264 -243 -264c-57 0 -87 19 -95 38c-45 -65 -100 -105 -175 -105c-82 0 -101 29 -119 51c-9 -11 -58 -51 -116 -51c-39 0 -71 27 -71 59c0 23 17 43 43 43c29 0 44 -28 47 -45c2 -10 9 -17 17 -17c48 0 101 84 156 269l101 340h-87
c-5 0 -8 3 -7 9l4 18c2 7 4 10 12 10h88c34 103 59 167 115 223c37 37 86 63 165 63c50 0 89 -27 99 -43c16 16 41 29 63 39c22 9 47 14 84 14c63 0 95 -35 95 -59c0 -31 -20 -46 -40 -46c-32 0 -41 18 -44 40c-1 10 -11 29 -51 29c-92 0 -135 -148 -165 -260h178
c32 6 45 10 56 10c4 0 10 -1 10 -9c0 -9 -3 -17 -7 -31c-6 -27 -22 -83 -36 -121zM504 578c-17 2 -29 14 -37 33c-9 20 -31 28 -68 28c-22 0 -44 -5 -71 -31c-43 -40 -78 -160 -95 -219h187c48 143 75 175 84 189zM410 352h-187c-6 -21 -37 -126 -78 -255
c-40 -128 -98 -262 -126 -293l2 -2c17 -3 32 -15 41 -35s34 -32 50 -32c24 0 53 8 76 29c60 53 97 154 141 314c25 92 51 172 81 274zM307 -135h6c29 0 41 -26 43 -40c3 -20 20 -21 32 -21c72 0 141 165 184 294l65 194c5 16 9 17 9 28c-1 15 -8 32 -35 32h-134
c-26 -81 -73 -254 -123 -383c-15 -38 -30 -73 -47 -104z" />
    <glyph glyph-name="T_h" unicode="Th" horiz-adv-x="960" 
d="M567 0h-43c-6 0 -8 3 -7 5l229 567c10 25 5 37 -2 41c-25 17 -163 25 -196 25h-21l-165 -518c-20 -64 -13 -86 43 -86h39c7 0 8 -5 7 -10l-4 -19c-1 -5 -3 -8 -13 -8c-14 0 -54 3 -150 3c-72 0 -125 -3 -136 -3c-8 0 -9 3 -8 10l3 19c1 5 3 8 11 8h27c60 0 78 27 102 103
l160 501h-26c-97 0 -151 -11 -180 -20c-40 -34 -86 -92 -102 -118c-3 -5 -7 -5 -13 -3l-13 6c-4 2 -4 6 -2 10c12 23 74 160 76 166s3 10 8 10c6 0 14 -5 37 -9c24 -5 62 -10 126 -10h357c29 0 60 4 98 13c14 3 18 6 28 6c8 0 12 -17 12 -26c0 -4 -3 -15 -9 -30l-157 -368
l5 -4c50 71 116 155 198 155c46 0 69 -38 69 -84c0 -81 -34 -167 -69 -232c-40 -75 -94 -132 -150 -132c-29 0 -51 21 -51 43c0 23 15 49 36 49c20 0 33 -16 35 -30c1 -9 6 -20 17 -20c22 0 55 65 74 116c22 57 40 133 40 181c0 25 -2 56 -30 56c-53 0 -141 -104 -168 -138
c-24 -30 -46 -68 -66 -116l-42 -102c-2 -6 -7 -7 -14 -7z" />
    <glyph glyph-name="T_h.swash" unicode="&#xe04f;h" horiz-adv-x="955" 
d="M271 135l157 485c-40 10 -133 11 -155 11c-115 0 -178 -61 -178 -135c0 -19 1 -32 10 -46c5 -7 9 -7 13 -3c10 11 25 14 34 14c20 0 44 -19 44 -50c0 -19 -18 -44 -52 -44c-29 0 -83 22 -83 118c0 39 18 108 89 154c45 29 111 46 208 46c58 0 132 -8 197 -17
c65 -8 171 -17 193 -17c27 0 55 4 55 29c0 6 -3 16 -9 24c-5 6 -9 17 -9 26c0 13 9 32 35 32c25 0 34 -26 34 -51c0 -32 -5 -44 -19 -78l-157 -368l5 -4c50 71 116 155 198 155c46 0 69 -38 69 -84c0 -81 -34 -167 -69 -232c-40 -75 -94 -132 -150 -132c-29 0 -51 21 -51 43
c0 23 15 49 36 49c20 0 33 -16 35 -30c1 -9 6 -20 17 -20c22 0 55 65 74 116c22 57 40 133 40 181c0 25 -2 56 -30 56c-53 0 -141 -104 -168 -138c-24 -30 -46 -68 -66 -116l-42 -102c-2 -6 -7 -7 -14 -7h-43c-6 0 -8 3 -7 5l229 567c5 13 10 24 14 34c-16 -5 -35 -8 -55 -8
c-33 0 -162 9 -194 15l-156 -493c-20 -64 -13 -86 43 -86h39c7 0 8 -5 7 -10l-4 -19c-1 -5 -3 -8 -13 -8c-14 0 -54 3 -150 3c-72 0 -125 -3 -136 -3c-8 0 -9 3 -8 10l3 19c1 5 3 8 11 8h27c60 0 78 27 102 101z" />
    <glyph glyph-name="T_h.caron" unicode="&#x164;h" horiz-adv-x="960" 
d="M567 0h-43c-6 0 -8 3 -7 5l229 567c10 25 5 37 -2 41c-25 17 -163 25 -196 25h-21l-165 -518c-20 -64 -13 -86 43 -86h39c7 0 8 -5 7 -10l-4 -19c-1 -5 -3 -8 -13 -8c-14 0 -54 3 -150 3c-72 0 -125 -3 -136 -3c-8 0 -9 3 -8 10l3 19c1 5 3 8 11 8h27c60 0 78 27 102 103
l160 501h-26c-97 0 -151 -11 -180 -20c-40 -34 -86 -92 -102 -118c-3 -5 -7 -5 -13 -3l-13 6c-4 2 -4 6 -2 10c12 23 74 160 76 166s3 10 8 10c6 0 14 -5 37 -9c24 -5 62 -10 126 -10h357c29 0 60 4 98 13c14 3 18 6 28 6c8 0 12 -17 12 -26c0 -4 -3 -15 -9 -30l-157 -368
l5 -4c50 71 116 155 198 155c46 0 69 -38 69 -84c0 -81 -34 -167 -69 -232c-40 -75 -94 -132 -150 -132c-29 0 -51 21 -51 43c0 23 15 49 36 49c20 0 33 -16 35 -30c1 -9 6 -20 17 -20c22 0 55 65 74 116c22 57 40 133 40 181c0 25 -2 56 -30 56c-53 0 -141 -104 -168 -138
c-24 -30 -46 -68 -66 -116l-42 -102c-2 -6 -7 -7 -14 -7zM519 812l119 62c3 1 5 1 7 -2l7 -11c2 -2 0 -4 -2 -6l-139 -120c-4 -3 -10 -3 -13 2l-71 120c-2 3 -1 6 2 8l10 9c4 3 7 1 11 -2z" />
    <glyph glyph-name="T_h.caronswash" unicode="&#xe056;h" horiz-adv-x="955" 
d="M271 135l157 485c-40 10 -133 11 -155 11c-115 0 -178 -61 -178 -135c0 -19 1 -32 10 -46c5 -7 9 -7 13 -3c10 11 25 14 34 14c20 0 44 -19 44 -50c0 -19 -18 -44 -52 -44c-29 0 -83 22 -83 118c0 39 18 108 89 154c45 29 111 46 208 46c58 0 132 -8 197 -17
c65 -8 171 -17 193 -17c27 0 55 4 55 29c0 6 -3 16 -9 24c-5 6 -9 17 -9 26c0 13 9 32 35 32c25 0 34 -26 34 -51c0 -32 -5 -44 -19 -78l-157 -368l5 -4c50 71 116 155 198 155c46 0 69 -38 69 -84c0 -81 -34 -167 -69 -232c-40 -75 -94 -132 -150 -132c-29 0 -51 21 -51 43
c0 23 15 49 36 49c20 0 33 -16 35 -30c1 -9 6 -20 17 -20c22 0 55 65 74 116c22 57 40 133 40 181c0 25 -2 56 -30 56c-53 0 -141 -104 -168 -138c-24 -30 -46 -68 -66 -116l-42 -102c-2 -6 -7 -7 -14 -7h-43c-6 0 -8 3 -7 5l229 567c5 13 10 24 14 34c-16 -5 -35 -8 -55 -8
c-33 0 -162 9 -194 15l-156 -493c-20 -64 -13 -86 43 -86h39c7 0 8 -5 7 -10l-4 -19c-1 -5 -3 -8 -13 -8c-14 0 -54 3 -150 3c-72 0 -125 -3 -136 -3c-8 0 -9 3 -8 10l3 19c1 5 3 8 11 8h27c60 0 78 27 102 101zM507 812l119 62c3 1 5 1 7 -2l7 -11c2 -2 0 -4 -2 -6
l-139 -120c-4 -3 -10 -3 -13 2l-71 120c-2 3 -1 6 2 8l10 9c4 3 7 1 11 -2z" />
    <glyph glyph-name="T_h.commaaccentswash" unicode="&#xe057;h" horiz-adv-x="955" 
d="M271 135l157 485c-40 10 -133 11 -155 11c-115 0 -178 -61 -178 -135c0 -19 1 -32 10 -46c5 -7 9 -7 13 -3c10 11 25 14 34 14c20 0 44 -19 44 -50c0 -19 -18 -44 -52 -44c-29 0 -83 22 -83 118c0 39 18 108 89 154c45 29 111 46 208 46c58 0 132 -8 197 -17
c65 -8 171 -17 193 -17c27 0 55 4 55 29c0 6 -3 16 -9 24c-5 6 -9 17 -9 26c0 13 9 32 35 32c25 0 34 -26 34 -51c0 -32 -5 -44 -19 -78l-157 -368l5 -4c50 71 116 155 198 155c46 0 69 -38 69 -84c0 -81 -34 -167 -69 -232c-40 -75 -94 -132 -150 -132c-29 0 -51 21 -51 43
c0 23 15 49 36 49c20 0 33 -16 35 -30c1 -9 6 -20 17 -20c22 0 55 65 74 116c22 57 40 133 40 181c0 25 -2 56 -30 56c-53 0 -141 -104 -168 -138c-24 -30 -46 -68 -66 -116l-42 -102c-2 -6 -7 -7 -14 -7h-43c-6 0 -8 3 -7 5l229 567c5 13 10 24 14 34c-16 -5 -35 -8 -55 -8
c-33 0 -162 9 -194 15l-156 -493c-20 -64 -13 -86 43 -86h39c7 0 8 -5 7 -10l-4 -19c-1 -5 -3 -8 -13 -8c-14 0 -54 3 -150 3c-72 0 -125 -3 -136 -3c-8 0 -9 3 -8 10l3 19c1 5 3 8 11 8h27c60 0 78 27 102 101zM184 -255c-4 0 -8 -2 -9 7c-1 7 2 9 9 12c20 5 62 30 61 66
c0 19 -6 26 -18 39c-4 4 -22 17 -22 35c0 19 13 36 34 36c36 0 56 -48 57 -75c0 -92 -97 -120 -112 -120z" />
    <glyph glyph-name="T_h.commaaccent" unicode="&#x162;h" horiz-adv-x="960" 
d="M567 0h-43c-6 0 -8 3 -7 5l229 567c10 25 5 37 -2 41c-25 17 -163 25 -196 25h-21l-165 -518c-20 -64 -13 -86 43 -86h39c7 0 8 -5 7 -10l-4 -19c-1 -5 -3 -8 -13 -8c-14 0 -54 3 -150 3c-72 0 -125 -3 -136 -3c-8 0 -9 3 -8 10l3 19c1 5 3 8 11 8h27c60 0 78 27 102 103
l160 501h-26c-97 0 -151 -11 -180 -20c-40 -34 -86 -92 -102 -118c-3 -5 -7 -5 -13 -3l-13 6c-4 2 -4 6 -2 10c12 23 74 160 76 166s3 10 8 10c6 0 14 -5 37 -9c24 -5 62 -10 126 -10h357c29 0 60 4 98 13c14 3 18 6 28 6c8 0 12 -17 12 -26c0 -4 -3 -15 -9 -30l-157 -368
l5 -4c50 71 116 155 198 155c46 0 69 -38 69 -84c0 -81 -34 -167 -69 -232c-40 -75 -94 -132 -150 -132c-29 0 -51 21 -51 43c0 23 15 49 36 49c20 0 33 -16 35 -30c1 -9 6 -20 17 -20c22 0 55 65 74 116c22 57 40 133 40 181c0 25 -2 56 -30 56c-53 0 -141 -104 -168 -138
c-24 -30 -46 -68 -66 -116l-42 -102c-2 -6 -7 -7 -14 -7zM206 -255c-4 0 -8 -2 -9 7c-1 7 2 9 9 12c20 5 62 30 61 66c0 19 -6 26 -18 39c-4 4 -22 17 -22 35c0 19 13 36 34 36c36 0 56 -48 57 -75c0 -92 -97 -120 -112 -120z" />
    <glyph glyph-name=".notdef" 
d="M0 0v700h500v-700h-500zM250 395l170 255h-340zM280 350l170 -255v510zM80 50h340l-170 255zM50 605v-510l170 255z" />
    <glyph glyph-name="space" unicode=" " horiz-adv-x="230" 
 />
    <glyph glyph-name="exclam" unicode="!" horiz-adv-x="270" 
d="M80 -10c-14 0 -46 14 -46 52c0 29 22 54 52 54c31 0 48 -31 48 -50c0 -31 -21 -56 -54 -56zM129 183c-4 0 -10 6 -5 21c15 44 91 413 95 428c8 36 27 53 50 53c29 0 44 -23 44 -44c0 -9 -4 -25 -15 -52c-5 -12 -152 -389 -157 -398c-4 -8 -6 -8 -12 -8z" />
    <glyph glyph-name="quotedbl" unicode="&#x22;" horiz-adv-x="234" 
d="M157 460l-25 8c8 30 30 160 40 188c9 26 27 29 45 29c16 0 30 -13 30 -31c0 -14 -80 -165 -90 -194zM277 460l-25 8c8 30 30 160 40 188c9 26 27 29 45 29c16 0 30 -13 30 -31c0 -14 -80 -165 -90 -194z" />
    <glyph glyph-name="numbersign" unicode="#" 
d="M306 248l50 146h-98l-50 -146h98zM292 198h-98l-68 -198c-4 -11 -5 -15 -10 -15h-41c-5 0 -6 4 -3 13l69 200h-94c-5 0 -7 2 -5 8l12 35c3 7 5 7 11 7h91l50 146h-95c-11 0 -14 2 -13 7l12 37c1 5 5 6 11 6h97l66 192c2 6 5 9 10 9h40c6 0 4 -8 2 -14l-64 -187h97l64 188
c3 8 6 13 12 13h38c5 0 6 -4 3 -13l-64 -188h93c5 0 9 -2 8 -6l-12 -37c-2 -7 -4 -7 -14 -7h-89l-50 -146h102c7 0 11 -2 9 -8l-12 -38c-1 -4 -5 -4 -13 -4h-100l-69 -202c-2 -7 -5 -11 -10 -11h-41c-3 0 -4 4 -2 10z" />
    <glyph glyph-name="dollar" unicode="$" 
d="M58 68l63 178c2 6 5 8 8 7l11 -3c5 -2 6 -5 4 -12c-19 -76 5 -126 39 -153l61 243c-42 42 -70 80 -70 136s47 138 140 146l20 78c1 5 2 8 8 7l18 -3c3 -2 4 -5 2 -12l-18 -70c18 -1 34 -6 45 -10l20 83c1 4 3 7 9 6l16 -3c4 -1 5 -4 3 -12l-21 -87c13 -6 28 -18 36 -18
c7 0 13 6 18 27c1 4 2 5 6 5h9c4 0 4 -4 3 -9l-25 -155c-1 -4 -2 -6 -5 -6h-14c-4 0 -5 2 -5 9c1 29 -5 74 -32 108l-54 -224c36 -34 69 -76 69 -135c0 -99 -68 -151 -141 -160l-23 -95c-2 -8 -5 -11 -10 -9l-16 5c-4 1 -5 5 -3 14l21 84c-18 1 -34 3 -48 7l-26 -104
c-1 -4 -3 -6 -8 -5l-17 4c-4 1 -5 5 -3 12l26 105c-36 16 -53 48 -66 48c-10 0 -19 -7 -33 -36c-2 -4 -4 -5 -7 -4l-8 4c-4 2 -4 4 -2 9zM268 303l-58 -236c14 -7 36 -10 47 -10l51 208c-10 9 -37 36 -40 38zM328 345l53 224c-12 7 -25 11 -44 12l-49 -201
c10 -9 32 -30 40 -35zM265 404l42 175c-45 -9 -71 -50 -71 -91c0 -39 11 -62 29 -84zM332 239l-43 -177c44 11 75 49 75 96c0 35 -14 61 -32 81z" />
    <glyph glyph-name="percent" unicode="%" horiz-adv-x="700" 
d="M177 278c86 0 151 182 151 277c0 38 -23 60 -50 60c-77 0 -147 -173 -147 -263c0 -49 26 -74 46 -74zM181 251c-70 0 -105 48 -105 121c0 118 90 273 206 273c68 0 101 -46 101 -109c0 -131 -91 -285 -202 -285zM186 -12l-19 13c-2 1 -3 3 -3 5c0 3 1 7 4 12l408 623
c2 3 4 4 6 4s5 -1 7 -2l22 -14c3 -1 4 -3 4 -5s-1 -4 -3 -7l-410 -625c-3 -5 -5 -7 -8 -7c-2 0 -4 0 -8 3zM504 -7c-70 0 -105 48 -105 121c0 118 90 273 206 273c68 0 101 -46 101 -109c0 -131 -91 -285 -202 -285zM500 20c86 0 151 182 151 277c0 38 -23 60 -50 60
c-77 0 -147 -173 -147 -263c0 -49 26 -74 46 -74z" />
    <glyph glyph-name="ampersand" unicode="&#x26;" horiz-adv-x="852" 
d="M448 -22c-279 0 -348 156 -348 258c0 120 75 187 116 205c-26 35 -37 74 -37 119c0 74 57 144 150 144c55 0 97 -30 97 -79c0 -43 -35 -66 -47 -66c-4 0 -5 7 -3 18c8 42 -26 68 -60 68c-54 0 -96 -47 -96 -115c0 -28 9 -57 25 -79c9 3 20 5 35 5c18 0 51 -9 51 -24
c0 -24 -13 -47 -29 -47s-48 13 -56 20c-13 11 -17 13 -30 5c-34 -22 -58 -74 -58 -135c0 -123 108 -222 293 -222c183 0 280 119 280 214c0 79 -61 156 -149 156c-79 0 -94 -72 -94 -92c0 -46 23 -72 32 -72c5 0 9 6 9 15c0 12 12 40 43 40c29 0 47 -21 47 -51
c0 -17 -16 -49 -61 -49c-39 0 -106 39 -106 123c0 67 48 142 153 142c38 0 89 -7 107 -7c108 0 160 32 160 88c0 36 -30 70 -57 70c-13 0 -13 -13 -11 -22c2 -13 -8 -42 -41 -42s-43 23 -43 36c0 42 39 62 76 62c68 0 115 -52 115 -105c0 -93 -62 -139 -163 -152
c-23 -3 -25 -10 -14 -27c13 -20 36 -60 36 -130c0 -170 -150 -272 -322 -272z" />
    <glyph glyph-name="quoteright" unicode="&#x2019;" horiz-adv-x="180" 
d="M113 458c-5 0 -9 -2 -11 8c-1 9 3 11 10 13c22 6 72 36 72 78c0 21 -7 30 -21 46c-5 4 -26 19 -26 40c0 22 15 42 40 42c42 0 65 -56 65 -88c0 -106 -112 -139 -129 -139z" />
    <glyph glyph-name="parenleft" unicode="(" horiz-adv-x="344" 
d="M86 69c0 257 133 492 341 648c8 6 12 4 19 -7c7 -10 6 -14 -5 -23c-171 -140 -296 -383 -296 -643c0 -151 14 -202 21 -233c2 -8 -1 -10 -13 -14c-13 -5 -16 -3 -19 3c-20 43 -48 166 -48 269z" />
    <glyph glyph-name="parenright" unicode=")" horiz-adv-x="344" 
d="M315 445c0 -257 -133 -492 -341 -648c-8 -6 -12 -4 -19 7c-7 10 -6 14 5 23c171 140 296 383 296 643c0 151 -14 202 -21 233c-2 8 1 10 13 14c13 5 16 3 19 -3c20 -43 48 -166 48 -269z" />
    <glyph glyph-name="asterisk" unicode="*" horiz-adv-x="300" 
d="M260 685c19 0 26 -7 26 -19c0 -22 -35 -100 -48 -127l1 -2c21 14 94 85 117 85c19 0 27 -17 27 -30c0 -8 -3 -22 -40 -33c-21 -6 -81 -20 -104 -25v-3c5 -1 103 -29 111 -33c6 -3 17 -9 17 -18c0 -13 -19 -38 -40 -38c-25 0 -53 39 -89 84l-2 -2c1 -4 9 -101 7 -114
c-2 -14 -10 -33 -36 -33c-20 0 -25 11 -25 22c0 22 33 92 48 125l-2 2c-34 -30 -94 -88 -118 -88c-9 0 -26 6 -26 25c0 17 12 27 25 34c12 6 114 34 119 34v2c-5 1 -92 24 -99 27c-10 4 -26 9 -26 25c0 17 16 36 34 36c25 0 56 -42 94 -84l1 2c0 3 -10 99 -8 115
c2 14 14 31 36 31z" />
    <glyph glyph-name="plus" unicode="+" 
d="M296 40h-59v173h-165v54h165v173h59v-173h164v-54h-164v-173z" />
    <glyph glyph-name="comma" unicode="," horiz-adv-x="250" 
d="M11 -127c-5 0 -10 -2 -12 9c-1 10 3 12 11 14c25 7 80 40 80 86c0 24 -8 34 -24 51c-5 5 -28 21 -28 45s16 46 44 46c46 0 72 -62 72 -97c0 -118 -124 -154 -143 -154z" />
    <glyph glyph-name="hyphen" unicode="-" horiz-adv-x="418" 
d="M63 224v37c0 7 2 10 8 10h323c5 0 9 -2 9 -8v-34c0 -10 -4 -12 -9 -12h-323c-6 0 -8 2 -8 7z" />
    <glyph glyph-name="period" unicode="." horiz-adv-x="250" 
d="M94 -10c-31 0 -53 23 -53 54c0 20 16 52 52 52c45 0 57 -40 57 -52c0 -26 -23 -54 -56 -54z" />
    <glyph glyph-name="slash" unicode="/" horiz-adv-x="330" 
d="M-50 16l480 661c4 6 9 8 14 6l29 -13c5 -2 4 -8 0 -14l-481 -662c-6 -9 -12 -10 -15 -8l-30 17c-3 2 -3 5 3 13z" />
    <glyph glyph-name="zero" unicode="0" 
d="M209 -15c-100 0 -156 80 -156 202c0 196 151 458 327 458c97 0 149 -76 149 -184c0 -220 -152 -476 -320 -476zM205 25c146 0 255 308 255 471c0 71 -34 108 -86 108c-132 0 -249 -297 -249 -450c0 -88 38 -129 80 -129z" />
    <glyph glyph-name="one" unicode="1" 
d="M43 4l6 23c1 6 5 7 12 7h53c35 0 57 4 79 51c5 12 25 70 48 143l57 185c19 60 30 89 30 99c0 11 -4 19 -16 19c-11 0 -30 -9 -62 -22l-54 -23c-6 -3 -11 -2 -14 3l-8 16c-2 5 -1 8 7 12l225 118c16 7 22 10 30 10c5 0 11 -4 11 -10c0 -4 -2 -13 -8 -27
c-3 -8 -47 -131 -79 -232l-55 -175c-16 -49 -32 -102 -37 -119c-13 -36 -5 -48 43 -48h54c6 0 7 -4 6 -10l-4 -21c-1 -5 -2 -6 -9 -6c-8 0 -151 3 -162 3c-15 0 -140 -3 -148 -3c-4 0 -6 3 -5 7z" />
    <glyph glyph-name="two" unicode="2" 
d="M113 66h179c62 0 91 38 118 76c4 7 6 9 10 7l15 -7c2 -4 1 -6 -3 -12c-25 -36 -67 -131 -69 -139c-4 -8 -6 -10 -12 -10c-9 0 -13 3 -19 12c-6 7 -30 7 -47 7h-227c-11 0 -22 -1 -33 -1c-10 -1 -18 -2 -24 -2s-8 3 -8 10c0 4 3 11 14 20c132 105 398 286 400 440
c0 36 -11 118 -99 118c-81 0 -123 -82 -141 -112c-6 -10 -8 -13 -12 -11l-16 8c-3 2 -3 5 0 14c21 55 97 161 208 161c87 0 143 -62 143 -151c0 -176 -261 -343 -377 -426v-2z" />
    <glyph glyph-name="three" unicode="3" 
d="M161 -15c-100 0 -153 59 -153 111c0 15 12 40 34 40c36 0 41 -38 38 -57c-3 -26 31 -63 84 -63c101 0 184 88 184 199c0 55 -31 107 -76 123c-15 5 -18 8 -18 17c0 8 3 9 18 12c43 8 140 61 140 146c0 19 -12 78 -85 78c-64 0 -116 -66 -128 -87c-4 -7 -9 -9 -14 -6
l-12 8c-4 5 -1 11 3 18c24 39 85 121 192 121c81 0 118 -58 118 -97c0 -85 -65 -137 -130 -177c49 -29 74 -80 74 -144c0 -139 -148 -242 -269 -242z" />
    <glyph glyph-name="four" unicode="4" 
d="M276 0h-45c-6 0 -7 8 -1 24l64 162h-265c-9 0 -16 7 -16 15c0 7 7 15 23 29l456 402c8 7 18 13 28 13c11 0 15 -11 6 -35l-141 -371h104c8 0 8 -6 7 -11l-15 -30c-4 -8 -10 -12 -16 -12h-101l-64 -166c-6 -17 -10 -20 -24 -20zM121 239h194l105 263c7 18 1 24 -11 13
l-290 -258c-10 -8 -9 -18 2 -18z" />
    <glyph glyph-name="five" unicode="5" 
d="M262 559l-55 -141l3 -2c12 0 79 -7 123 -29c73 -37 94 -99 94 -153c0 -98 -99 -249 -287 -249c-46 0 -111 13 -111 46c0 15 9 29 25 29c18 0 34 -9 51 -22c9 -7 30 -13 55 -13c116 0 191 94 191 173c0 63 -31 107 -80 133c-19 11 -65 21 -91 21c-18 0 -26 1 -29 5
c-4 3 -6 8 -2 18l94 246c3 8 8 9 15 9h182c37 0 48 17 65 40c4 5 7 4 15 -2c9 -6 11 -9 7 -15l-57 -86c-5 -7 -15 -8 -31 -8h-177z" />
    <glyph glyph-name="six" unicode="6" 
d="M225 -15c-103 0 -151 76 -151 168c0 228 223 427 374 485c8 3 20 7 26 7c7 0 12 -5 12 -13c0 -7 -6 -11 -10 -13c-134 -67 -203 -153 -267 -268l2 -2c40 26 72 37 121 37c83 0 133 -62 133 -138c0 -137 -115 -263 -240 -263zM230 19c103 0 155 151 155 227
c0 52 -31 101 -91 101c-35 0 -80 -19 -102 -49c-38 -51 -47 -115 -49 -162c-1 -45 12 -117 87 -117z" />
    <glyph glyph-name="seven" unicode="7" 
d="M269 630h261c6 0 9 -2 9 -8s-1 -6 -5 -12s-87 -145 -97 -164s-178 -334 -205 -391c-15 -32 -33 -70 -60 -70c-13 0 -32 5 -32 32c0 16 14 37 21 48c6 9 108 158 158 246c27 47 127 225 145 252h-193c-76 0 -91 -37 -125 -82c-4 -6 -10 -6 -18 0c-7 5 -8 8 -5 14l80 159
c6 11 7 13 17 9c8 -3 8 -6 7 -14c-2 -16 9 -19 42 -19z" />
    <glyph glyph-name="eight" unicode="8" 
d="M212 -15c-128 0 -152 96 -152 134c0 110 121 160 184 194c-26 34 -80 90 -80 150c0 79 80 182 215 182c90 0 143 -58 143 -118c0 -109 -125 -182 -178 -208c32 -40 74 -86 74 -144c0 -99 -85 -190 -206 -190zM215 12c90 0 127 83 127 127c0 72 -49 118 -76 151
c-51 -29 -138 -64 -138 -176c0 -65 50 -102 87 -102zM319 343c77 40 138 86 138 172c0 33 -25 97 -98 97c-60 0 -122 -40 -122 -116c0 -53 32 -100 82 -153z" />
    <glyph glyph-name="nine" unicode="9" 
d="M352 645c102 0 150 -67 150 -170c0 -228 -216 -434 -395 -485c-7 -2 -14 -5 -19 -5c-8 0 -14 7 -14 13c0 7 3 11 7 13c158 73 224 160 281 258l-2 2c-31 -26 -56 -36 -108 -36c-113 0 -136 109 -136 149c0 118 93 261 236 261zM347 611c-108 0 -154 -159 -154 -236
c0 -46 21 -103 83 -103c35 0 79 21 104 54c39 53 53 126 53 177c0 42 -12 108 -86 108z" />
    <glyph glyph-name="colon" unicode=":" horiz-adv-x="250" 
d="M81 -10c-31 0 -53 23 -53 54c0 20 16 52 52 52c45 0 57 -40 57 -52c0 -26 -23 -54 -56 -54zM192 310c-31 0 -53 23 -53 54c0 20 16 52 52 52c45 0 57 -40 57 -52c0 -26 -23 -54 -56 -54z" />
    <glyph glyph-name="semicolon" unicode=";" horiz-adv-x="250" 
d="M14 -127c-5 0 -10 -2 -12 9c-1 10 3 12 11 14c25 7 80 40 80 86c0 24 -8 34 -24 51c-5 5 -28 21 -28 45s16 46 44 46c46 0 72 -62 72 -97c0 -118 -124 -154 -143 -154zM175 310c-31 0 -53 23 -53 54c0 20 16 52 52 52c45 0 57 -40 57 -52c0 -26 -23 -54 -56 -54z" />
    <glyph glyph-name="less" unicode="&#x3c;" 
d="M395 40l-311 185v32l311 183v-66l-221 -128v-5l221 -133v-68z" />
    <glyph glyph-name="equal" unicode="=" 
d="M72 346h388v-54h-388v54zM72 195h388v-54h-388v54z" />
    <glyph glyph-name="greater" unicode="&#x3e;" 
d="M125 440l311 -185v-32l-311 -183v66l221 128v5l-221 133v68z" />
    <glyph glyph-name="question" unicode="?" horiz-adv-x="429" 
d="M317 685c126 0 147 -95 147 -131c0 -126 -108 -178 -186 -218c-73 -37 -117 -59 -117 -103c0 -31 31 -50 70 -50c37 0 70 25 80 37c3 3 6 2 9 -2l7 -8c3 -3 3 -6 2 -8c-15 -17 -58 -57 -107 -57s-98 32 -98 104c0 83 108 132 159 164c71 44 128 77 128 155
c0 31 -29 82 -100 82c-63 0 -117 -39 -117 -91c0 -32 20 -45 30 -45c7 0 13 2 16 9c-2 7 -1 10 -1 15c0 15 14 46 50 46c26 0 37 -21 37 -34c0 -43 -43 -70 -80 -70c-36 0 -82 18 -82 77c0 56 54 128 153 128zM181 -10c-23 0 -52 17 -52 49c0 23 16 52 50 52
c30 0 51 -24 51 -52c0 -18 -19 -49 -49 -49z" />
    <glyph glyph-name="at" unicode="@" horiz-adv-x="700" 
d="M280 239c0 -19 8 -30 23 -30c58 0 167 139 182 170c17 34 25 58 25 74c0 27 -15 51 -39 51c-79 0 -191 -183 -191 -265zM546 61l13 -24c-30 -26 -119 -52 -207 -52c-185 0 -295 110 -295 265c0 225 213 435 426 435c165 0 252 -99 252 -253c0 -124 -101 -266 -269 -266
c-18 0 -35 15 -35 31c0 14 7 49 33 113l-4 2c-38 -53 -126 -146 -198 -146c-24 0 -48 18 -48 55c0 126 159 310 269 310c37 0 51 -20 58 -33l12 18c4 6 6 7 9 7h36c8 0 7 -6 5 -10c-13 -23 -63 -147 -69 -160c-12 -28 -40 -101 -40 -131c0 -13 11 -19 28 -19
c51 0 155 77 155 239c0 139 -77 208 -205 208c-193 0 -345 -202 -345 -386c0 -154 104 -243 239 -242c61 0 126 5 180 39z" />
    <glyph glyph-name="A" unicode="A" horiz-adv-x="619" 
d="M472 301h-178l-140 -176c-21 -27 -41 -53 -41 -67c0 -15 13 -24 35 -24h36c5 0 9 -2 7 -10l-4 -19c-1 -5 -3 -8 -10 -8c-10 0 -53 3 -131 3c-66 0 -101 -3 -112 -3c-5 0 -10 2 -9 7l5 22c1 6 3 8 7 8h15c43 0 85 30 121 73l463 553c5 7 9 9 28 10c14 1 37 4 47 7
c11 3 25 8 33 8s12 -3 10 -10l-147 -555c-4 -17 -10 -42 -10 -58s17 -28 37 -28h27c6 0 9 -3 8 -10l-3 -18c-1 -6 -3 -9 -12 -9c-12 0 -52 3 -120 3c-70 0 -101 -3 -117 -3c-9 0 -11 4 -10 10l4 19c1 4 3 8 8 8h19c38 0 64 7 84 82zM320 336h163l77 264c4 14 -14 16 -22 7z
" />
    <glyph glyph-name="B" unicode="B" horiz-adv-x="619" 
d="M128 95l127 475c4 15 6 28 6 36c0 18 -18 27 -55 27h-26c-6 0 -9 4 -8 9l4 21c1 6 4 7 13 7c6 0 40 0 81 1c59 1 106 2 141 2c13 0 100 0 155 -33c35 -21 63 -56 63 -103c0 -126 -112 -178 -199 -193c-6 -1 -6 -4 -2 -6c79 -25 136 -79 136 -162c0 -11 -3 -70 -58 -121
c-37 -34 -99 -58 -211 -58c-45 0 -90 3 -135 3c-46 0 -93 -3 -139 -3c-7 0 -10 2 -9 8l4 21c1 5 3 8 9 8h39c38 0 54 23 64 61zM273 328l-61 -230c-9 -35 -8 -45 11 -57c11 -6 47 -12 62 -12c133 0 190 80 190 162c0 107 -113 137 -188 137h-14zM356 639l-74 -277
c17 -3 47 -4 60 -4c107 0 198 50 199 164c0 63 -60 119 -156 119c-12 0 -21 -1 -29 -2z" />
    <glyph glyph-name="C" unicode="C" horiz-adv-x="666" 
d="M638 197l-71 -214c-2 -5 -5 -6 -9 -5l-18 5c-3 1 -5 3 -3 8c1 5 3 10 3 17c0 11 -7 19 -16 19s-26 -6 -44 -14c-22 -11 -90 -28 -138 -28c-133 0 -240 92 -240 238c0 114 53 247 145 347c65 71 155 115 241 115c48 0 84 -10 132 -43c13 -9 31 -28 50 -28c12 0 20 8 26 31
c2 6 5 8 9 6l13 -3c6 -1 8 -4 6 -10l-53 -207c-2 -6 -4 -8 -11 -6l-14 2c-5 1 -7 3 -6 10c21 98 -30 212 -145 212c-81 0 -135 -40 -192 -122c-75 -110 -99 -234 -99 -314c0 -143 95 -187 153 -187c84 0 188 29 249 177c4 9 5 10 10 8l17 -5c6 -2 6 -4 5 -9z" />
    <glyph glyph-name="D" unicode="D" horiz-adv-x="777" 
d="M134 113l115 470c10 39 -16 50 -51 50h-45c-10 0 -12 2 -10 8l6 22c2 6 4 7 16 7s44 1 83 3c42 1 88 3 108 3c127 0 267 -14 351 -97c62 -63 75 -120 75 -181c0 -196 -124 -295 -185 -330c-126 -71 -261 -71 -327 -71c-27 0 -118 3 -146 3c-75 0 -104 -3 -112 -3
c-7 0 -9 3 -8 8l6 22c1 4 3 7 10 7h30c36 0 68 13 84 79zM346 636l-129 -530c-4 -18 -7 -32 -7 -42c0 -21 28 -30 71 -30c107 0 212 20 286 83c61 51 122 163 122 278c0 65 -27 128 -64 166c-33 34 -75 54 -114 65c-54 14 -95 13 -109 13c-16 0 -46 0 -56 -3z" />
    <glyph glyph-name="E" unicode="E" horiz-adv-x="669" 
d="M117 90l152 475c18 56 -21 71 -55 71h-32c-6 0 -8 3 -6 11l5 19c2 6 5 7 12 7c6 0 17 -1 38 -1c21 -1 52 -2 100 -2h64c76 0 133 1 174 2c41 0 66 1 77 1c15 0 17 -3 21 -19l32 -137c1 -5 0 -6 -6 -9l-11 -4c-5 -2 -6 -2 -10 3l-94 121c-4 6 -9 8 -16 8h-182l-86 -263h96
c58 0 91 2 119 84c1 4 3 6 7 5l15 -3c4 -1 7 -3 6 -8l-54 -199c-1 -6 -3 -7 -7 -6l-16 2c-5 1 -5 2 -4 8c7 83 -33 85 -112 85h-60l-97 -307h259c36 0 60 16 80 42l80 101c3 4 7 6 12 2l10 -6c4 -3 6 -5 3 -14l-51 -145c-5 -15 -10 -17 -22 -17c-8 0 -52 1 -111 2
c-59 0 -133 1 -202 1h-116c-46 0 -75 -1 -94 -1c-18 -1 -26 -2 -30 -2c-7 0 -10 2 -8 8l3 21c2 6 3 8 8 8h37c41 0 61 21 72 56z" />
    <glyph glyph-name="F" unicode="F" horiz-adv-x="620" 
d="M121 95l157 503c8 26 -1 38 -28 38h-34c-7 0 -9 2 -7 9l6 20c1 5 4 8 12 8c15 0 56 -3 110 -3c151 0 223 2 267 3c49 2 76 10 87 10c8 0 10 -7 10 -16c1 -26 18 -145 20 -156c1 -5 -1 -8 -5 -9l-15 -6c-4 -2 -7 0 -8 5c-4 15 -52 99 -62 112c-14 18 -10 16 -37 18
c-19 2 -198 5 -218 5l-84 -268l149 2c66 1 76 38 95 103c2 7 7 6 12 5l16 -3c4 -1 6 -3 4 -9l-59 -251c-2 -5 -5 -7 -10 -5l-17 2c-5 1 -7 3 -6 9c12 73 11 106 -45 108l-150 6l-68 -227c-18 -62 -7 -74 28 -74h28c7 0 10 -3 9 -8l-7 -23c-1 -5 -5 -6 -12 -6
c-12 0 -42 3 -122 3c-84 0 -110 -3 -121 -3c-5 0 -8 2 -7 8l4 21c1 5 3 8 10 8h29c32 0 56 20 69 61z" />
    <glyph glyph-name="G" unicode="G" horiz-adv-x="709" 
d="M636 206l-35 -154c-4 -13 -7 -17 -18 -22c-29 -12 -116 -45 -194 -45c-176 0 -287 124 -287 280c0 237 195 420 409 420c86 0 142 -34 162 -50c13 -10 22 -12 27 -12c14 0 20 10 26 32c1 4 3 6 10 4l12 -3c4 -1 7 -3 6 -8l-57 -201c-2 -6 -4 -7 -12 -6l-13 2
c-5 1 -8 4 -6 10c22 86 -30 198 -155 198c-181 0 -312 -186 -312 -405c0 -158 93 -225 185 -225c64 0 107 27 125 42c9 8 14 21 18 34l20 97c9 40 -7 48 -40 48h-37c-8 0 -9 3 -7 10l4 19c1 6 3 8 11 8c15 0 50 -3 116 -3c68 0 92 3 106 3c7 0 10 -3 9 -10l-3 -19
c-1 -6 -3 -8 -9 -8h-16c-24 0 -39 -8 -45 -36z" />
    <glyph glyph-name="H" unicode="H" horiz-adv-x="784" 
d="M628 324h-365l-72 -224c-18 -56 -6 -66 30 -66h35c6 0 9 -4 8 -8l-4 -20c-1 -6 -5 -9 -11 -9c-11 0 -50 3 -127 3c-69 0 -104 -3 -113 -3c-5 0 -9 4 -7 12l4 17c2 6 3 8 9 8h24c32 0 51 23 68 76l156 479c10 31 -8 47 -35 47h-36c-5 0 -8 4 -6 10l5 19c2 6 4 8 10 8
c8 0 62 -3 126 -3c60 0 110 3 120 3c7 0 11 -3 9 -8l-7 -22c-1 -5 -3 -7 -9 -7h-26c-42 0 -53 -13 -66 -53l-72 -223h363l74 233c9 30 -8 43 -32 43h-24c-5 0 -8 4 -7 10l5 21c1 4 4 6 10 6c9 0 60 -3 113 -3c55 0 97 3 108 3c8 0 11 -4 10 -7l-6 -22c-2 -5 -4 -8 -9 -8h-29
c-27 0 -41 -12 -54 -53l-155 -479c-13 -39 -8 -70 24 -70h36c7 0 10 -3 8 -10l-5 -20c-1 -5 -4 -7 -12 -7c-10 0 -43 3 -122 3c-73 0 -112 -3 -123 -3c-7 0 -9 4 -8 12l2 15c1 6 3 10 9 10h28c41 0 60 18 82 87z" />
    <glyph glyph-name="I" unicode="I" horiz-adv-x="359" 
d="M130 108l125 462c13 49 -1 66 -36 66h-46c-8 0 -10 2 -9 8l5 23c1 4 4 6 13 6c12 0 65 -3 135 -3c82 0 125 3 139 3c10 0 13 -4 11 -10l-5 -19c-1 -5 -3 -8 -11 -8h-19c-61 0 -76 -10 -93 -71l-125 -463c-13 -48 1 -68 53 -68h35c6 0 7 -4 6 -10l-3 -19
c-1 -6 -2 -8 -12 -8c-11 0 -58 3 -145 3c-81 0 -137 -3 -148 -3c-7 0 -9 3 -8 8l4 19c2 8 3 10 9 10h43c59 0 67 20 82 74z" />
    <glyph glyph-name="J" unicode="J" horiz-adv-x="345" 
d="M347 554l-129 -452c-20 -70 -57 -168 -95 -218c-44 -57 -95 -84 -157 -84c-76 0 -96 46 -96 67c0 29 18 53 45 53c29 0 44 -25 44 -42c0 -8 -2 -19 -6 -25c-3 -4 -2 -9 0 -12c3 -3 10 -7 34 -7c55 0 93 93 117 176l163 564c10 33 11 62 -37 62h-33c-6 0 -10 2 -9 8l5 21
c1 6 4 8 10 8c8 0 54 -3 127 -3s114 3 123 3c7 0 10 -3 9 -10l-4 -20c-1 -5 -3 -7 -10 -7h-26c-32 0 -55 -13 -75 -82z" />
    <glyph glyph-name="K" unicode="K" horiz-adv-x="684" 
d="M276 319l-71 -219c-14 -44 2 -66 34 -66h25c5 0 8 -3 7 -10l-4 -19c-1 -5 -4 -8 -13 -8c-11 0 -55 3 -123 3c-75 0 -105 -3 -112 -3c-6 0 -9 5 -8 11l4 18c1 5 3 8 11 8h28c26 0 51 19 64 60l154 478c14 44 5 64 -33 64h-25c-8 0 -11 4 -9 10l7 21c2 5 5 6 12 6
c9 0 45 -3 112 -3c80 0 110 3 122 3c6 0 7 -4 6 -10l-3 -19c-1 -7 -4 -8 -12 -8h-24c-34 0 -53 -16 -65 -53l-75 -236c43 0 56 3 83 28c89 79 205 179 244 228c14 18 10 34 -17 34h-12c-7 0 -9 5 -8 10l4 18c2 6 5 8 11 8c10 0 52 -3 110 -3c60 0 88 3 97 3s12 -4 11 -9
l-4 -18c-2 -6 -3 -10 -10 -10h-31c-30 0 -56 -15 -79 -33c-41 -32 -287 -252 -301 -268c7 -14 154 -227 178 -256c18 -21 50 -45 72 -45h29c7 0 10 -5 9 -10l-4 -17c-2 -8 -4 -10 -13 -10c-12 0 -39 3 -102 3c-59 0 -114 -3 -126 -3c-7 0 -10 3 -9 11l2 16c1 7 3 10 9 10h15
c22 0 39 14 30 28c-8 12 -139 214 -162 243c-9 11 -15 14 -35 14z" />
    <glyph glyph-name="L" unicode="L" horiz-adv-x="625" 
d="M121 108l144 466c14 44 6 62 -43 62h-37c-7 0 -9 3 -8 8l7 23c1 5 4 6 12 6c11 0 54 -3 138 -3c85 0 131 3 142 3c6 0 9 -3 8 -8l-5 -21c-2 -6 -5 -8 -12 -8h-45c-38 0 -54 -11 -72 -69l-156 -504c-7 -22 3 -29 25 -29h40c65 0 188 1 207 4c18 3 27 9 35 16
c20 18 76 107 80 115c1 3 4 5 10 2l10 -4c6 -2 8 -4 6 -9c-4 -11 -38 -131 -42 -157c-2 -10 -7 -16 -12 -16c-6 0 -15 3 -26 6s-24 6 -37 6c-22 0 -148 3 -234 3c-112 0 -236 -3 -247 -3c-6 0 -9 2 -8 10l4 19c1 5 3 8 9 8h25c44 0 62 11 82 74z" />
    <glyph glyph-name="M" unicode="M" horiz-adv-x="938" 
d="M106 103l164 472c4 11 7 24 7 33c0 19 -23 28 -52 28h-36c-9 0 -13 4 -12 10l4 17c2 7 4 10 11 10c10 0 51 -3 196 -3c16 0 18 -6 20 -23l48 -483c3 -26 12 -26 25 -8l353 498c7 10 13 16 26 16c111 0 143 3 156 3c7 0 10 -3 9 -8l-4 -21c-1 -6 -3 -8 -10 -8h-30
c-24 0 -37 -25 -51 -74l-129 -466c-11 -43 4 -62 30 -62h31c6 0 8 -3 7 -8l-4 -21c-1 -6 -2 -8 -12 -8c-12 0 -45 3 -116 3c-81 0 -120 -3 -130 -3c-9 0 -10 3 -9 10l2 17c1 6 3 10 11 10h26c50 0 71 28 83 71l134 483c4 16 -9 16 -16 6l-410 -579c-15 -22 -38 -22 -40 7
l-57 563c-2 19 -11 19 -16 5l-164 -485c-20 -58 0 -71 22 -71h35c7 0 8 -3 7 -10l-3 -19c-1 -5 -4 -8 -12 -8c-11 0 -42 3 -103 3c-56 0 -86 -3 -97 -3c-5 0 -7 3 -6 8l4 21c1 6 2 8 7 8h20c54 0 67 29 81 69z" />
    <glyph glyph-name="N" unicode="N" horiz-adv-x="746" 
d="M118 137l138 440c10 31 7 59 -58 59h-38c-6 0 -10 4 -8 12l4 15c2 7 3 10 11 10c13 0 53 -3 172 -3c15 0 16 -15 21 -26l215 -480c8 -17 11 -17 25 23l131 391c13 38 0 58 -32 58h-35c-9 0 -12 3 -11 11l3 18c1 5 3 8 10 8c12 0 43 -3 114 -3c52 0 72 3 86 3
c8 0 11 -5 9 -13l-3 -16c-1 -7 -3 -8 -9 -8h-25c-25 0 -38 -7 -55 -55l-194 -555c-11 -33 -29 -32 -41 -6l-238 531c-6 13 -14 13 -18 -1l-128 -423c-18 -60 -11 -93 34 -93h39c7 0 10 -4 9 -10l-3 -19c-2 -6 -3 -8 -12 -8c-10 0 -53 3 -126 3c-69 0 -102 -3 -112 -3
c-6 0 -9 4 -8 11l3 18c1 5 3 8 9 8h27c49 0 70 28 94 103z" />
    <glyph glyph-name="O" unicode="O" horiz-adv-x="709" 
d="M360 -15c-19 0 -106 -3 -174 68c-59 60 -84 138 -84 235c0 205 165 397 350 397c151 0 263 -121 263 -300c0 -186 -129 -400 -355 -400zM337 24c164 0 300 222 300 426c0 107 -55 191 -166 191c-61 0 -104 -29 -147 -72c-89 -89 -146 -243 -146 -346
c0 -142 85 -199 159 -199z" />
    <glyph glyph-name="P" unicode="P" horiz-adv-x="590" 
d="M133 114l119 452c9 32 13 67 -32 67h-47c-5 0 -6 5 -5 10l5 19c2 7 4 8 14 8s188 3 209 3c95 0 150 -7 198 -47c44 -37 60 -68 60 -136c0 -101 -86 -212 -288 -212c-44 0 -86 7 -101 12l-49 -183c-10 -38 -8 -73 32 -73h38c7 0 9 -4 8 -10l-3 -19c-1 -6 -3 -8 -12 -8
c-12 0 -53 3 -133 3c-68 0 -104 -3 -118 -3c-6 0 -9 3 -8 10l2 17c1 6 4 10 11 10h21c54 0 68 37 79 80zM357 639l-85 -313c16 -11 44 -16 85 -16c150 0 209 104 209 188c0 119 -102 143 -170 143c-11 0 -32 0 -39 -2z" />
    <glyph glyph-name="Q" unicode="Q" horiz-adv-x="740" 
d="M489 685c141 0 257 -92 257 -280c0 -96 -44 -215 -118 -303c-55 -65 -135 -98 -180 -109c-86 -21 -198 -55 -236 -75l2 -5c22 2 54 6 92 6c114 0 166 -49 199 -93c20 -28 37 -42 59 -42c26 0 38 19 38 33c0 7 -2 10 -6 19c-5 9 -8 16 -8 33c0 20 17 39 41 39
c29 0 37 -28 37 -39c0 -77 -78 -119 -136 -119c-36 0 -69 13 -100 46c-44 47 -92 83 -212 83c-30 0 -44 -3 -53 -12c-10 -10 -26 -22 -39 -22c-16 0 -24 16 -24 34c0 39 152 97 214 113v4c-117 22 -205 119 -205 287c0 139 88 263 138 306c59 51 112 96 240 96zM362 25
c154 0 299 223 299 438c0 110 -63 186 -163 186c-193 0 -305 -281 -305 -416c0 -200 128 -208 169 -208z" />
    <glyph glyph-name="R" unicode="R" horiz-adv-x="694" 
d="M110 84l159 499c11 32 7 50 -29 50h-39c-8 0 -9 3 -8 8l5 21c1 6 3 8 13 8c105 0 208 3 224 3c72 0 226 -7 226 -143c0 -100 -108 -180 -225 -194v-2c24 -8 39 -39 50 -60c5 -10 74 -152 92 -182c25 -41 45 -58 88 -58h25c7 0 8 -4 7 -10l-3 -19c-1 -5 -3 -8 -10 -8
c-10 0 -26 3 -74 3c-44 0 -63 -3 -74 -3c-8 0 -13 8 -27 32s-103 221 -115 245c-29 56 -85 51 -123 51l-71 -219c-18 -57 -5 -72 37 -72h41c6 0 8 -3 7 -8l-3 -23c-1 -5 -5 -6 -12 -6c-11 0 -56 3 -140 3c-59 0 -98 -3 -110 -3c-6 0 -7 3 -6 8l4 21c1 6 3 8 10 8h19
c36 0 53 22 62 50zM371 640l-89 -283c51 0 111 -5 184 25c59 24 105 78 105 148c0 42 -37 111 -159 111c-18 0 -29 0 -41 -1z" />
    <glyph glyph-name="S" unicode="S" horiz-adv-x="504" 
d="M57 33l74 218c2 5 5 5 11 4l10 -3c5 -2 9 -4 7 -11c-36 -149 53 -217 115 -217c64 0 116 51 116 118s-49 106 -93 154c-62 68 -111 119 -111 213c0 72 57 176 170 176c55 0 102 -34 118 -45c5 -3 8 -5 14 -5c8 0 12 14 16 35c1 3 3 4 10 3l13 -1c6 -1 8 -3 7 -7l-36 -190
c-1 -4 -3 -6 -8 -6l-14 1c-6 1 -10 3 -9 9c6 40 -7 167 -111 167c-62 0 -99 -55 -99 -109c0 -75 44 -105 90 -152c46 -46 109 -102 109 -207c0 -132 -93 -193 -181 -193c-64 0 -107 36 -147 76c-8 8 -17 7 -23 -2c-6 -8 -14 -23 -21 -38c-2 -4 -4 -6 -10 -3l-13 5
c-5 2 -6 3 -4 10z" />
    <glyph glyph-name="T" unicode="T" horiz-adv-x="664" 
d="M354 670h299c49 0 78 5 96 10c17 4 24 9 26 9c4 0 7 -2 6 -10c-2 -14 -12 -158 -9 -198c0 -6 -2 -7 -8 -8l-13 -1c-9 -1 -11 2 -13 13c-5 33 -23 103 -37 132c-28 11 -120 21 -153 21h-21l-165 -518c-20 -64 -13 -86 43 -86h39c7 0 8 -5 7 -10l-4 -19c-1 -5 -3 -8 -13 -8
c-14 0 -54 3 -150 3c-72 0 -125 -3 -136 -3c-8 0 -9 3 -8 10l3 19c1 5 3 8 11 8h27c60 0 78 27 102 103l160 501h-26c-97 0 -151 -11 -180 -20c-40 -34 -86 -92 -102 -118c-3 -5 -7 -5 -13 -3l-13 6c-4 2 -4 6 -2 10c12 23 74 160 76 166s3 10 8 10c11 0 34 -19 163 -19z
" />
    <glyph glyph-name="U" unicode="U" horiz-adv-x="731" 
d="M761 590l-98 -311c-57 -185 -146 -294 -303 -294c-134 0 -233 59 -233 183c0 42 15 104 21 125l85 281c15 45 4 62 -28 62h-36c-5 0 -8 2 -7 8l5 21c1 6 3 8 13 8c12 0 47 -3 119 -3c81 0 115 3 125 3c8 0 10 -3 9 -10l-4 -19c-1 -5 -4 -8 -10 -8h-32
c-24 0 -48 -4 -64 -57l-82 -267c-6 -22 -29 -96 -29 -141c0 -126 123 -141 158 -141c44 0 98 21 130 50c46 41 78 96 112 207l88 288c15 48 -6 61 -37 61h-38c-9 0 -10 3 -9 8l3 19c2 7 4 10 13 10c12 0 50 -3 122 -3c58 0 81 3 91 3c9 0 10 -3 9 -10l-3 -19
c-1 -5 -3 -8 -11 -8h-21c-32 0 -47 -19 -58 -46z" />
    <glyph glyph-name="V" unicode="V" horiz-adv-x="612" 
d="M321 592l-66 -424c-4 -25 8 -25 24 -4l306 407c27 35 26 65 -2 65h-31c-9 0 -12 3 -10 12l4 17c1 6 4 8 13 8c13 0 47 -3 108 -3c57 0 83 3 96 3c10 0 12 -5 11 -10l-4 -17c-2 -7 -4 -10 -9 -10h-30c-36 0 -70 -36 -104 -79l-434 -560c-6 -8 -17 -17 -29 -17
c-13 0 -18 13 -15 35l82 566c5 31 -4 55 -44 55h-31c-8 0 -13 2 -12 7l6 20c2 7 2 10 11 10c13 0 56 -3 128 -3c73 0 114 3 126 3c10 0 12 -3 11 -8l-4 -21c-1 -6 -3 -8 -11 -8h-32c-36 0 -53 -12 -58 -44z" />
    <glyph glyph-name="W" unicode="W" horiz-adv-x="874" 
d="M324 580l-79 -432c-2 -10 4 -13 15 -2c16 16 265 364 275 378c25 36 33 66 33 83c0 14 -11 29 -31 29h-17c-6 0 -9 2 -8 6l5 23c1 6 3 8 12 8c10 0 36 -3 86 -3c56 0 82 3 94 3c7 0 11 -3 9 -10l-5 -19c-2 -6 -4 -8 -11 -8h-22c-21 0 -30 -12 -35 -50l-53 -440
c-2 -13 3 -15 10 -9c23 20 137 209 151 233c45 76 106 185 116 212c10 28 8 54 -20 54h-16c-5 0 -7 2 -6 8l4 19c1 7 4 10 11 10c13 0 37 -3 84 -3c54 0 80 3 95 3c7 0 10 -4 9 -10l-4 -19c-1 -6 -4 -8 -8 -8h-17c-22 0 -41 -7 -58 -29c-12 -17 -160 -264 -185 -303
c-28 -46 -164 -248 -207 -298c-9 -10 -21 -26 -33 -26c-13 0 -18 12 -16 30l48 448c2 14 -5 16 -12 7c-10 -13 -308 -422 -345 -462c-11 -12 -20 -23 -35 -23c-10 0 -13 13 -8 44l89 559c6 35 1 53 -32 53h-24c-8 0 -11 2 -10 10l4 19c1 5 3 8 12 8c10 0 50 -3 102 -3
c62 0 100 3 112 3c9 0 11 -3 10 -10l-4 -19c-1 -5 -3 -8 -10 -8h-22c-34 0 -45 -13 -53 -56z" />
    <glyph glyph-name="X" unicode="X" horiz-adv-x="691" 
d="M380 584l64 -188c32 29 178 175 192 198c11 18 4 42 -24 42h-15c-7 0 -9 1 -8 8l3 19c1 8 3 10 12 10c13 0 50 -3 102 -3c53 0 82 3 93 3c9 0 11 -3 10 -8l-3 -21c-1 -6 -2 -8 -9 -8h-17c-24 0 -53 -19 -79 -38c-12 -9 -215 -209 -245 -236l99 -276c11 -30 39 -52 69 -52
h23c7 0 8 -3 8 -10l-1 -17c-1 -8 -2 -10 -11 -10c-11 0 -41 3 -104 3c-64 0 -101 -3 -116 -3c-11 0 -13 3 -11 12l3 17c1 4 2 8 9 8h18c30 0 34 21 28 40c-4 14 -74 216 -81 236c-12 -15 -177 -174 -221 -230c-16 -20 -14 -46 14 -46h19c6 0 6 -5 5 -10l-2 -17
c-1 -6 -2 -10 -12 -10c-12 0 -49 3 -112 3c-49 0 -91 -3 -103 -3c-6 0 -10 3 -9 8l4 19c2 7 3 10 10 10h22c48 0 74 33 106 58c18 14 240 224 266 250l-81 232c-13 37 -25 62 -63 62h-26c-7 0 -9 3 -8 10l3 17c1 7 2 10 13 10c12 0 57 -3 105 -3c62 0 94 3 107 3
c9 0 10 -4 9 -10l-3 -19c-1 -5 -2 -8 -9 -8h-19c-32 0 -33 -27 -24 -52z" />
    <glyph glyph-name="Y" unicode="Y" horiz-adv-x="540" 
d="M217 87l33 148c3 14 -2 45 -5 54l-108 309c-8 23 -26 38 -61 38h-23c-6 0 -8 2 -7 8l4 21c1 7 3 8 10 8c13 0 39 -3 105 -3c76 0 110 3 123 3c7 0 10 -2 9 -8l-2 -21c-1 -6 -3 -8 -9 -8h-26c-38 0 -40 -25 -32 -48l93 -278c4 -13 8 -13 15 -4c22 30 173 245 184 276
c13 38 3 54 -37 54h-20c-6 0 -8 4 -7 10l2 19c1 7 3 8 12 8c14 0 53 -3 110 -3c55 0 85 3 98 3c9 0 11 -3 10 -8l-3 -19c-1 -8 -3 -10 -8 -10h-19c-34 0 -52 -16 -78 -49c-14 -18 -197 -275 -211 -295c-22 -31 -32 -44 -42 -89l-25 -113c-11 -51 6 -56 39 -56h30
c6 0 8 -3 7 -8l-3 -21c-1 -5 -3 -8 -11 -8c-15 0 -47 3 -121 3c-83 0 -114 -3 -125 -3c-6 0 -9 2 -8 8l4 21c0 5 2 8 9 8h29c47 0 58 23 65 53z" />
    <glyph glyph-name="Z" unicode="Z" horiz-adv-x="677" 
d="M389 0h-316c-18 0 -13 16 -8 22l527 612c-144 0 -269 -3 -305 -7c-48 -5 -82 -45 -95 -74c-3 -5 -6 -6 -9 -5l-14 5c-5 2 -5 4 -4 8l38 114c1 4 5 10 10 10s10 -2 17 -6s116 -9 144 -9h324c17 0 14 -15 8 -22l-523 -611c184 0 264 1 333 14c54 10 79 36 110 88
c3 5 6 5 10 3l14 -7c3 -1 5 -4 3 -10l-47 -131c-2 -5 -5 -6 -9 -6c-6 0 -14 2 -19 4c-18 5 -160 8 -189 8z" />
    <glyph glyph-name="bracketleft" unicode="[" horiz-adv-x="324" 
d="M223 -197h-203c-6 0 -8 5 -5 14l244 896c2 8 6 10 16 10h195c6 0 9 -3 8 -7l-7 -25c-1 -4 -5 -5 -14 -5h-128c-6 0 -11 -3 -14 -15l-225 -821c-1 -5 -1 -10 6 -10h141c5 0 8 -2 7 -7l-6 -23c-1 -6 -4 -7 -15 -7z" />
    <glyph glyph-name="backslash" unicode="\" horiz-adv-x="320" 
d="M292 -2l-34 -10c-6 -2 -7 2 -9 12l-135 662c-1 5 -1 10 6 12l34 9c5 1 8 -1 9 -5l134 -668c2 -8 0 -11 -5 -12z" />
    <glyph glyph-name="bracketright" unicode="]" horiz-adv-x="324" 
d="M168 723h203c6 0 8 -5 5 -14l-244 -896c-2 -8 -6 -10 -16 -10h-195c-6 0 -9 3 -8 7l7 25c1 4 5 5 10 5h132c6 0 11 3 14 15l225 821c1 5 1 10 -6 10h-141c-5 0 -8 2 -7 7l6 23c1 6 4 7 15 7z" />
    <glyph glyph-name="asciicircum" unicode="^" 
d="M48 260l211 425h32l212 -425h-65l-164 328h-5l-159 -328h-62z" />
    <glyph glyph-name="underscore" unicode="_" 
d="M0 -125v50h500v-50h-500z" />
    <glyph glyph-name="quoteleft" unicode="&#x2018;" horiz-adv-x="180" 
d="M273 685c5 0 9 2 11 -8c1 -9 -3 -11 -10 -13c-22 -6 -72 -36 -72 -78c0 -21 7 -30 21 -46c5 -4 26 -19 26 -40c0 -22 -15 -42 -40 -42c-42 0 -65 56 -65 88c0 106 112 139 129 139z" />
    <glyph glyph-name="a" unicode="a" horiz-adv-x="455" 
d="M420 416h35c4 0 5 -5 3 -9c-19 -41 -70 -179 -75 -195c-6 -17 -48 -141 -48 -150s5 -12 11 -12c12 0 63 52 70 61c3 3 6 5 8 2l9 -10c3 -3 4 -5 2 -8c-11 -20 -98 -105 -155 -105c-12 0 -21 4 -21 17c0 15 10 46 48 152l-5 2c-42 -64 -143 -171 -214 -171
c-23 0 -54 19 -54 64c0 146 164 362 286 362c42 0 61 -18 71 -34l19 27c3 4 6 7 10 7zM134 43c50 0 177 162 195 199c14 29 24 54 24 83c0 27 -10 59 -47 59c-92 0 -199 -211 -199 -306c0 -23 10 -35 27 -35z" />
    <glyph glyph-name="b" unicode="b" horiz-adv-x="446" 
d="M236 641h-29c-8 0 -11 4 -9 10l6 16c2 6 4 8 10 8h127c9 0 11 -9 7 -18l-161 -363l6 -2c49 62 126 124 181 124c51 0 71 -32 71 -76c0 -57 -33 -155 -131 -253c-53 -52 -117 -97 -212 -97c-41 0 -67 29 -67 66c0 16 7 40 15 58c74 172 143 332 207 485c5 12 7 20 7 27
c0 9 -11 15 -28 15zM107 67c0 -40 21 -43 43 -43c80 0 223 170 223 300c0 31 -16 43 -34 43c-38 0 -112 -63 -163 -134c-39 -55 -69 -137 -69 -166z" />
    <glyph glyph-name="c" unicode="c" horiz-adv-x="302" 
d="M118 -10c-35 0 -75 25 -75 92c0 136 111 334 227 334c47 0 57 -38 57 -56c0 -24 -23 -42 -41 -42c-13 0 -22 7 -26 22c-3 11 -15 26 -31 26c-25 0 -51 -24 -73 -69c-27 -58 -43 -144 -43 -175c0 -73 22 -83 40 -83c39 0 77 40 88 54c3 4 6 6 9 4l11 -10c3 -2 5 -5 1 -11
c-14 -21 -80 -86 -144 -86z" />
    <glyph glyph-name="d" unicode="d" horiz-adv-x="471" 
d="M447 641h-31c-8 0 -9 4 -8 7l6 21c1 4 3 6 12 6h123c14 0 16 -10 12 -18c-15 -35 -190 -503 -207 -563c-9 -31 -10 -46 4 -46c17 0 65 46 70 52c4 3 8 3 11 -1l10 -10c3 -2 3 -6 0 -10c-7 -9 -93 -89 -146 -89c-16 0 -27 5 -27 23c0 20 22 88 44 145l-8 2
c-49 -78 -143 -170 -211 -170c-34 0 -64 23 -64 66c0 79 56 198 138 279c32 31 90 81 157 81c27 0 46 -13 63 -33l77 219c7 19 2 39 -25 39zM139 41c42 0 119 82 159 137c28 38 65 101 65 140c0 47 -21 66 -53 66c-94 0 -200 -219 -200 -311c0 -21 15 -32 29 -32z" />
    <glyph glyph-name="e" unicode="e" horiz-adv-x="349" 
d="M137 -10c-65 0 -93 32 -93 98c0 84 55 189 128 261c32 32 86 67 134 67c39 0 57 -29 57 -53c0 -49 -37 -101 -93 -130c-54 -27 -108 -38 -145 -41c-5 -12 -13 -45 -13 -92c0 -45 33 -63 52 -63c49 0 93 37 114 71c2 3 5 5 9 1l11 -9c5 -3 5 -6 1 -9
c-25 -35 -85 -101 -162 -101zM267 372c-64 0 -126 -115 -134 -151c35 -3 166 39 166 113c0 20 -10 38 -32 38z" />
    <glyph glyph-name="f" unicode="f" horiz-adv-x="279" 
d="M157 352h-89c-5 0 -7 3 -5 10l4 17c2 7 4 10 12 10h87c30 86 64 169 117 228c28 32 83 68 148 68c58 0 90 -35 90 -59c0 -31 -20 -46 -40 -46c-32 0 -41 18 -44 40c-1 10 -11 29 -41 29c-93 0 -129 -148 -162 -260h97c6 0 8 -3 6 -12l-5 -18c-1 -6 -3 -7 -11 -7h-95
c-26 -81 -72 -254 -122 -382c-61 -156 -132 -267 -239 -267c-40 0 -72 27 -72 59c0 23 17 43 43 43c29 0 44 -28 47 -45c2 -10 9 -17 17 -17c48 0 102 84 156 269z" />
    <glyph glyph-name="g" unicode="g" horiz-adv-x="432" 
d="M153 -297c-104 0 -205 59 -205 131c0 74 120 123 169 144c-29 21 -38 39 -38 58s18 36 85 74c-27 7 -78 43 -78 115c0 75 66 191 177 191c50 0 76 -32 85 -47c11 11 48 37 85 37c33 0 42 -27 42 -39c0 -11 -7 -31 -32 -31c-19 0 -27 8 -33 15c-5 5 -13 7 -19 7
c-9 0 -25 -7 -29 -14c4 -10 8 -41 8 -56c0 -48 -28 -160 -143 -180c-18 -3 -27 -5 -30 -7c-19 -8 -52 -31 -52 -48c0 -11 10 -22 17 -27c17 -12 65 -42 130 -85c58 -38 74 -71 74 -108c0 -16 -17 -130 -213 -130zM197 131c73 0 109 121 109 193c0 46 -18 67 -45 67
c-60 0 -111 -117 -111 -192c0 -45 17 -68 47 -68zM17 -159c0 -69 89 -107 156 -107c68 0 125 24 125 80c0 44 -42 71 -67 88c-9 6 -74 48 -88 57c-82 -33 -126 -71 -126 -118z" />
    <glyph glyph-name="h" unicode="h" horiz-adv-x="467" 
d="M74 0h-43c-6 0 -8 3 -7 5l229 567c12 30 13 41 13 49c0 12 -14 20 -33 20h-31c-6 0 -11 3 -9 9l5 17c2 5 3 8 11 8h135c8 0 12 -3 12 -12c0 -4 -3 -15 -9 -30l-157 -368l5 -4c50 71 116 155 198 155c46 0 69 -38 69 -84c0 -81 -34 -167 -69 -232
c-40 -75 -94 -132 -150 -132c-29 0 -51 21 -51 43c0 23 15 49 36 49c20 0 33 -16 35 -30c1 -9 6 -20 17 -20c22 0 55 65 74 116c22 57 40 133 40 181c0 25 -2 56 -30 56c-53 0 -141 -104 -168 -138c-24 -30 -46 -68 -66 -116l-42 -102c-2 -6 -7 -7 -14 -7z" />
    <glyph glyph-name="i" unicode="i" horiz-adv-x="287" 
d="M92 -10c-10 1 -17 9 -17 25c0 23 17 69 59 181l29 78c10 27 18 47 18 59c0 9 -6 13 -14 13c-17 0 -64 -54 -80 -70c-4 -4 -8 -4 -11 -1l-8 9c-4 3 -6 5 -3 9c4 6 106 126 170 123c12 0 24 -8 24 -25c0 -18 -16 -63 -34 -111l-58 -152c-14 -37 -18 -59 -18 -66
c0 -9 3 -15 11 -17c21 4 75 61 80 70c2 3 6 3 11 -2l8 -7c4 -5 5 -7 2 -12c-6 -8 -86 -104 -169 -104zM253 550c-44 0 -52 37 -52 48c0 27 21 50 52 50c35 0 53 -25 53 -48c0 -15 -12 -50 -53 -50z" />
    <glyph glyph-name="j" unicode="j" horiz-adv-x="271" 
d="M220 238l-77 -204c-3 -9 -84 -264 -225 -264c-69 0 -91 36 -91 57c0 23 17 46 42 46c29 0 41 -26 43 -40c3 -20 13 -29 25 -29c72 0 121 165 166 294l67 194c6 16 9 30 9 39c0 10 -3 15 -11 15c-17 0 -64 -42 -76 -54c-3 -3 -6 -2 -8 0l-10 11c-2 2 -3 5 -1 8
c16 18 108 105 174 105c16 0 21 -12 21 -19c0 -27 -34 -121 -48 -159zM275 550c-32 0 -54 22 -54 45c0 27 20 56 57 56s50 -31 50 -49c0 -31 -27 -52 -53 -52z" />
    <glyph glyph-name="k" unicode="k" horiz-adv-x="434" 
d="M177 244l-23 -55c95 -11 211 86 211 148c0 16 -12 30 -28 30c-51 0 -119 -70 -133 -86c-8 -9 -21 -25 -27 -37zM68 0h-43c-6 0 -8 4 -5 11l236 586c11 27 1 44 -36 44h-27c-6 0 -7 4 -5 10l6 16c3 5 4 8 12 8h133c10 0 10 -11 8 -17l-144 -347l5 -2
c31 40 103 107 170 107c21 0 52 -11 52 -59c0 -79 -140 -159 -185 -176v-4l65 -105c15 -25 32 -41 50 -41c19 0 36 15 47 26c3 4 7 4 9 1l10 -11c2 -2 2 -5 -1 -9c-5 -6 -43 -48 -84 -48c-50 0 -67 13 -91 59l-55 105c-7 13 -22 14 -50 11l-62 -158c-2 -6 -6 -7 -15 -7z" />
    <glyph glyph-name="l" unicode="l" horiz-adv-x="254" 
d="M72 127l175 451c15 38 14 63 -15 63h-29c-7 0 -8 4 -6 9l6 18c2 6 4 7 10 7h124c9 0 12 -6 9 -15l-208 -529c-9 -23 -33 -78 -12 -78c16 0 62 39 74 52c4 4 6 3 9 0l11 -12c2 -2 3 -6 -1 -10c-5 -8 -98 -93 -162 -93c-13 0 -22 6 -22 29c0 15 25 78 37 108z" />
    <glyph glyph-name="m" unicode="m" horiz-adv-x="731" 
d="M101 0h-38c-5 0 -9 2 -6 10l76 181c26 63 56 132 58 150c0 10 -3 16 -10 16c-14 0 -75 -59 -84 -71c-3 -4 -8 -3 -12 1l-9 9c-3 3 -4 6 -1 9c23 27 101 111 164 111c14 0 24 -12 24 -28c0 -24 -61 -156 -71 -183l5 -1c46 71 149 212 234 212c33 0 44 -25 44 -43
c0 -37 -40 -133 -57 -173l5 -1c55 84 145 217 230 217c31 0 48 -26 48 -48c0 -34 -19 -76 -61 -178c-23 -57 -42 -99 -42 -117c0 -7 3 -13 11 -13c18 0 73 64 79 72c3 5 8 4 12 0l8 -8c3 -3 4 -6 2 -11c-3 -7 -108 -123 -173 -123c-10 0 -18 9 -18 24c0 25 28 92 68 190
c29 71 48 113 48 142c0 12 -8 19 -21 19c-34 0 -132 -111 -193 -200c-7 -11 -28 -36 -41 -71l-34 -88c-2 -5 -6 -6 -14 -6h-40c-8 0 -12 2 -9 8l68 166c28 69 58 140 58 168c0 13 -8 20 -20 20c-34 0 -129 -102 -186 -182c-15 -21 -35 -49 -50 -85l-36 -89
c-4 -6 -7 -6 -16 -6z" />
    <glyph glyph-name="n" unicode="n" horiz-adv-x="519" 
d="M111 0h-39c-11 0 -13 2 -11 9l71 185c24 62 52 134 52 151c0 10 -4 17 -15 17c-19 0 -67 -48 -84 -67c-3 -3 -6 -3 -10 1l-9 9c-4 4 -5 6 -2 10c15 18 89 101 161 101c23 0 32 -17 32 -30c0 -31 -43 -126 -51 -149l4 -2c30 48 139 181 228 181c30 0 50 -15 50 -41
c0 -44 -23 -96 -56 -177c-27 -66 -51 -122 -51 -138c0 -6 4 -13 12 -13c15 0 59 37 72 51c4 3 8 2 11 -2l7 -8c4 -4 5 -6 1 -11c-12 -16 -93 -87 -160 -87c-13 0 -24 5 -24 20c0 19 36 98 67 184c14 39 50 122 50 144c0 14 -7 23 -25 23c-39 0 -138 -92 -182 -163
c-18 -29 -34 -55 -60 -125l-25 -67c-2 -4 -4 -6 -14 -6z" />
    <glyph glyph-name="o" unicode="o" horiz-adv-x="397" 
d="M155 -10c-55 0 -103 53 -103 129c0 126 95 297 228 297c67 0 107 -49 107 -117c0 -110 -87 -309 -232 -309zM140 38c104 0 207 210 207 276c1 31 -17 56 -50 56c-42 0 -95 -38 -145 -119c-34 -54 -58 -115 -58 -162c0 -32 22 -51 46 -51z" />
    <glyph glyph-name="p" unicode="p" horiz-adv-x="461" 
d="M207 399l32 93c3 8 6 11 13 14l62 22c2 1 5 1 7 1s3 -2 3 -4s0 -5 -2 -8l-46 -104c6 1 13 2 20 2c7 1 15 1 20 1c95 0 138 -68 138 -133c0 -70 -31 -142 -119 -208c-44 -32 -126 -66 -208 -75l-71 -198c-18 -54 -10 -68 32 -68h28c5 0 8 -5 7 -8l-7 -20
c-2 -3 -4 -6 -12 -6c-11 0 -41 3 -105 3c-69 0 -96 -3 -107 -3c-6 0 -8 2 -7 6l6 20c1 4 2 8 7 8h23c39 0 55 23 76 81l196 539c-49 -14 -103 -64 -124 -90c-3 -4 -7 -3 -9 -1l-11 10c-3 3 -4 6 -1 9c35 42 82 88 159 117zM262 372l-123 -342c120 19 245 107 245 230
c0 77 -46 115 -90 115c-15 0 -25 -2 -32 -3z" />
    <glyph glyph-name="q" unicode="q" horiz-adv-x="454" 
d="M178 -214l100 257h-4c-32 -30 -71 -53 -125 -53c-30 0 -98 7 -98 115c0 20 11 153 119 255c45 42 87 56 128 56c45 0 70 -21 88 -36c4 -3 10 -3 14 0l51 33c6 4 12 6 17 6c8 0 9 -5 4 -18l-229 -616c-14 -38 -4 -51 17 -51h28c6 0 8 -3 7 -8l-6 -18c-2 -5 -4 -8 -11 -8
c-12 0 -44 3 -98 3c-58 0 -92 -3 -103 -3c-7 0 -9 3 -8 8l4 18c2 6 4 8 9 8h25c36 0 54 9 71 52zM159 16c129 0 208 260 208 304c0 34 -23 58 -54 58c-27 0 -52 -13 -80 -41c-68 -68 -121 -187 -121 -258c0 -38 17 -63 47 -63z" />
    <glyph glyph-name="r" unicode="r" horiz-adv-x="356" 
d="M107 0h-40c-7 0 -11 4 -9 9l56 162c18 56 49 161 49 175c0 9 -8 15 -17 15c-20 0 -65 -45 -79 -62c-2 -3 -6 -2 -8 0l-10 10c-2 2 -2 5 0 8c21 31 81 99 149 99c20 0 28 -17 28 -35c1 -19 -16 -75 -36 -142l5 -2c27 56 107 179 163 179c29 0 47 -18 47 -45
c0 -26 -20 -46 -39 -46c-9 0 -17 2 -25 10s-13 12 -26 12c-27 0 -83 -86 -123 -152c-12 -19 -24 -42 -39 -87l-33 -101c-2 -7 -5 -7 -13 -7z" />
    <glyph glyph-name="s" unicode="s" horiz-adv-x="294" 
d="M106 -10c-58 0 -94 23 -94 56c0 14 13 33 34 33c22 0 35 -15 41 -32s11 -28 36 -28c29 0 56 26 56 61c0 43 -30 84 -43 116c-7 17 -30 52 -29 98c0 58 55 122 126 122c30 0 71 -12 71 -51c0 -18 -16 -32 -31 -32c-12 0 -27 7 -34 24c-5 12 -6 28 -26 28s-49 -27 -49 -63
c0 -37 30 -79 36 -93c6 -12 38 -61 38 -114c0 -78 -63 -125 -132 -125z" />
    <glyph glyph-name="t" unicode="t" horiz-adv-x="314" 
d="M53 61l126 291h-70c-6 0 -8 2 -6 8l8 22c2 5 5 7 11 7h72l52 116c5 10 8 12 16 15c11 3 37 13 45 17c6 3 11 6 15 6c6 0 8 -6 1 -20l-66 -134h102c5 0 7 -3 4 -11l-9 -21c-1 -3 -5 -5 -9 -5h-102l-97 -225c-12 -28 -23 -53 -23 -64s4 -17 13 -17c29 0 94 57 100 64
c3 4 6 3 9 0l11 -12c3 -3 3 -5 1 -9c-13 -16 -106 -99 -183 -99c-25 0 -32 10 -32 24c0 15 5 32 11 47z" />
    <glyph glyph-name="u" unicode="u" horiz-adv-x="484" 
d="M434 406h41c9 0 11 -3 9 -9l-77 -208c-29 -78 -42 -124 -42 -130c0 -9 1 -9 8 -12c15 0 70 50 78 62c2 3 6 4 9 0l10 -10c3 -3 3 -5 0 -9s-96 -100 -165 -100c-14 0 -19 11 -19 23s51 137 64 171l-6 3c-42 -61 -148 -197 -247 -197c-20 0 -36 17 -37 41
c1 32 32 94 71 187c26 62 49 109 49 127c0 9 -7 14 -16 14c-18 0 -68 -45 -78 -57c-3 -3 -6 -3 -9 0l-9 9c-3 2 -3 5 1 9c7 9 90 96 154 96c20 0 29 -20 29 -36c0 -25 -24 -84 -65 -173c-27 -59 -53 -123 -53 -145c0 -11 7 -17 17 -17c53 0 159 131 188 173
c19 28 35 55 46 85l35 96c2 6 7 7 14 7z" />
    <glyph glyph-name="v" unicode="v" horiz-adv-x="524" 
d="M197 353h-52c-32 0 -54 -22 -55 -52c1 -18 13 -24 22 -29c7 -4 22 -14 22 -30s-11 -33 -37 -33c-19 0 -46 14 -46 57c0 39 25 81 39 97c20 22 42 48 114 48c102 0 114 5 125 5c13 0 23 -6 13 -19c-21 -26 -118 -161 -118 -261c0 -68 36 -93 71 -93c86 0 173 135 173 236
c0 16 -1 36 -8 52c-8 18 -15 29 -15 41c0 27 16 44 45 44c28 0 39 -29 39 -53c0 -48 -22 -148 -66 -224c-45 -78 -126 -149 -208 -149c-50 0 -99 31 -99 103c0 93 83 216 141 284l-7 3c-21 -18 -74 -27 -93 -27z" />
    <glyph glyph-name="w" unicode="w" horiz-adv-x="737" 
d="M214 349h-79c-19 0 -36 -14 -36 -33c-1 -18 10 -24 19 -30c6 -4 21 -11 21 -31c0 -18 -12 -33 -38 -33c-17 0 -47 16 -47 59c0 36 21 64 44 90c13 15 45 35 76 35h73l92 6c13 1 20 -8 8 -20c-30 -33 -118 -175 -118 -269c0 -47 26 -73 60 -73c45 0 88 25 117 70
c17 27 32 86 40 128c7 39 9 87 17 123c8 25 26 32 45 32c18 0 25 -12 25 -24c0 -17 -25 -78 -52 -154c-12 -36 -23 -65 -23 -91c0 -44 40 -82 88 -82c67 0 140 74 140 209c0 17 -7 52 -15 61c-9 9 -33 29 -33 54c0 24 20 40 44 40s50 -16 50 -103c0 -72 -22 -168 -68 -231
c-28 -36 -71 -92 -147 -92c-61 0 -97 58 -101 92c-19 -24 -87 -92 -163 -92c-43 0 -91 34 -91 102c-1 83 92 219 132 267l-7 7c-12 -6 -50 -17 -73 -17z" />
    <glyph glyph-name="x" unicode="x" horiz-adv-x="471" 
d="M228 200l-43 126c-4 12 -10 18 -18 18c-20 0 -42 -34 -63 -75c-2 -4 -6 -5 -10 -3l-14 7c-3 1 -3 4 -2 8c4 12 68 135 117 135c21 0 32 -9 46 -55l34 -115c44 56 79 106 104 131c16 16 40 39 69 39c18 0 29 -14 29 -31c0 -31 -12 -83 -27 -118c-2 -4 -5 -6 -10 -4l-12 4
c-6 2 -8 4 -7 8c18 53 16 78 -2 78c-21 0 -79 -73 -132 -139l47 -134c6 -17 16 -27 26 -27c24 0 61 57 65 68c1 3 4 3 9 1l12 -6c4 -2 5 -6 3 -10c-12 -22 -64 -116 -122 -116c-21 0 -37 14 -46 43l-42 135c-63 -84 -131 -178 -174 -178c-26 0 -37 13 -37 35
c0 23 12 81 22 106c1 3 4 5 8 4l15 -4c4 -1 5 -4 4 -8c-20 -61 -3 -72 8 -72c23 0 96 89 143 149z" />
    <glyph glyph-name="y" unicode="y" horiz-adv-x="409" 
d="M59 266l-14 6c-2 1 -3 4 -1 9c6 12 59 135 120 135c31 0 42 -25 50 -113c10 -114 17 -231 19 -296l4 1c28 45 88 164 102 212c5 17 15 44 15 87c0 11 -2 29 -5 37c-4 9 -11 23 -11 36c0 16 9 36 41 36c27 0 40 -25 40 -50c0 -65 -38 -149 -67 -212
c-44 -96 -149 -275 -236 -360c-27 -28 -93 -91 -152 -91c-39 0 -56 24 -56 47c0 25 22 40 40 41c17 1 26 -7 37 -16c7 -6 17 -12 25 -12c10 0 27 6 47 21c55 41 94 99 110 135c8 19 9 41 8 56c-2 23 -21 295 -32 347c-4 19 -9 28 -17 28c-18 0 -50 -59 -58 -81
c-2 -4 -6 -4 -9 -3z" />
    <glyph glyph-name="z" unicode="z" horiz-adv-x="477" 
d="M408 337l-233 -231l3 -5c30 0 57 -13 104 -44c42 -28 63 -45 90 -45c21 0 36 16 36 29c0 7 0 16 -6 28c-9 16 -11 25 -11 32c0 23 17 36 33 36c27 0 41 -20 41 -49c0 -44 -39 -108 -122 -108c-44 0 -90 21 -126 38c-14 6 -50 32 -76 32c-25 0 -32 -11 -40 -36
c-5 -15 -20 -29 -43 -29c-12 0 -21 9 -21 22c0 41 56 79 80 92l209 208l-4 4c-45 -3 -73 18 -90 29c-16 11 -49 46 -79 46c-22 0 -30 -11 -30 -18c0 -8 5 -13 14 -18c7 -5 13 -13 13 -29c0 -18 -13 -35 -33 -35s-44 16 -44 49c0 30 26 81 98 81c43 0 68 -13 117 -36
c21 -10 53 -23 75 -23c21 0 31 17 37 36c6 18 23 46 51 46c13 0 19 -14 19 -24c0 -35 -46 -68 -62 -78z" />
    <glyph glyph-name="braceleft" unicode="{" horiz-adv-x="324" 
d="M92 285c0 10 6 14 13 14c13 0 23 2 36 7c34 14 57 40 60 74c6 60 0 103 8 170c12 98 114 159 196 170c20 3 37 3 46 3c12 0 17 -5 17 -14c0 -11 -3 -18 -12 -18c-8 0 -21 -1 -32 -2c-74 -10 -135 -52 -148 -139c-7 -48 -7 -97 -14 -141c-7 -49 -26 -70 -51 -91
c-24 -19 -49 -28 -49 -41c0 -9 21 -19 30 -33c11 -16 15 -29 15 -49c0 -37 -15 -74 -30 -113c-16 -41 -32 -75 -32 -123c0 -66 43 -109 91 -120c13 -3 29 -4 35 -4s7 -6 7 -17c0 -9 -2 -15 -7 -15c-6 0 -20 0 -45 4c-47 6 -148 46 -148 152c0 48 19 88 38 129
c18 41 37 78 37 112c0 30 -8 42 -15 51c-8 11 -20 16 -33 18c-7 1 -13 5 -13 16z" />
    <glyph glyph-name="bar" unicode="|" horiz-adv-x="250" 
d="M191 -260h-42c-5 0 -6 4 -6 10v1003c0 6 1 9 6 9h40c5 0 7 -4 7 -12v-1000c0 -5 -1 -10 -5 -10z" />
    <glyph glyph-name="braceright" unicode="}" horiz-adv-x="324" 
d="M314 241c0 -10 -6 -14 -13 -14c-13 0 -23 -2 -36 -7c-34 -14 -57 -40 -60 -74c-6 -60 0 -103 -8 -170c-12 -98 -114 -159 -196 -170c-20 -3 -37 -3 -46 -3c-12 0 -17 5 -17 14c0 11 3 18 12 18c8 0 21 1 32 2c74 10 135 52 148 139c7 48 7 97 14 141c7 49 26 70 51 91
c24 19 49 28 49 41c0 9 -21 19 -30 33c-11 16 -15 29 -15 49c0 37 15 74 30 113c16 41 32 75 32 123c0 66 -43 109 -91 120c-13 3 -29 4 -35 4s-7 6 -7 17c0 9 2 15 7 15c6 0 20 0 45 -4c47 -6 148 -46 148 -152c0 -48 -19 -88 -38 -129c-18 -41 -37 -78 -37 -112
c0 -30 8 -42 15 -51c8 -11 20 -16 33 -18c7 -1 13 -5 13 -16z" />
    <glyph glyph-name="asciitilde" unicode="~" 
d="M405 309h53c0 -88 -47 -140 -99 -140c-31 0 -55 15 -83 33l-39 27c-25 16 -43 22 -66 22c-18 0 -46 -20 -46 -80h-53c0 88 47 140 99 140c29 0 51 -6 80 -24l42 -28c18 -11 40 -30 63 -30c25 0 49 22 49 80z" />
    <glyph glyph-name="exclamdown" unicode="&#xa1;" horiz-adv-x="270" 
d="M188 310c-14 0 -46 14 -46 52c0 29 22 54 52 54c31 0 48 -31 48 -50c0 -31 -21 -56 -54 -56zM9 -297c-29 0 -44 23 -44 44c0 9 4 25 15 52c5 12 152 389 157 398c4 8 6 8 12 8c4 0 10 -6 5 -21c-15 -44 -91 -413 -95 -428c-8 -36 -27 -53 -50 -53z" />
    <glyph glyph-name="cent" unicode="&#xa2;" 
d="M242 157l79 323c-27 -7 -51 -25 -71 -51c-36 -50 -67 -134 -67 -193c0 -47 24 -74 59 -79zM204 5l26 105c-68 1 -118 34 -118 113c0 99 93 252 219 299l28 116c1 4 3 7 9 6l23 -5c5 -1 6 -4 4 -10l-24 -96c11 2 23 3 35 3c28 0 62 -13 62 -43c0 -26 -23 -38 -41 -38
c-7 0 -16 4 -23 12c-8 8 -20 15 -45 16l-81 -327c40 4 70 21 94 37c8 5 11 2 15 -2l4 -7c4 -5 5 -12 -4 -18c-15 -9 -55 -44 -120 -53l-30 -120c-1 -4 -4 -8 -9 -7l-21 6c-6 2 -4 7 -3 13z" />
    <glyph glyph-name="sterling" unicode="&#xa3;" 
d="M200 251h145c7 0 10 -2 9 -6l-5 -24c-1 -5 -4 -7 -12 -7h-156c-8 -14 -39 -65 -57 -85l1 -2c87 10 134 -7 194 -74c17 -19 41 -33 74 -33c23 0 40 19 45 30c7 16 5 19 -15 19c-31 0 -50 17 -50 32c0 13 10 40 45 40c37 0 71 -26 71 -64c0 -30 -31 -92 -132 -92
c-52 0 -98 23 -136 68c-35 42 -74 51 -112 49c-13 -27 -50 -102 -95 -102c-13 0 -21 8 -21 16c0 34 52 88 90 106c12 13 38 72 44 92h-72c-6 0 -10 3 -9 7l4 24c1 4 4 6 10 6h79c9 27 54 154 81 223c36 93 110 171 207 171c72 0 108 -45 108 -68s-20 -37 -39 -38
c-23 0 -41 10 -54 37c-4 8 -6 36 -46 36c-38 0 -69 -42 -107 -158c-24 -73 -79 -188 -89 -203z" />
    <glyph glyph-name="fraction" unicode="&#x2044;" horiz-adv-x="100" 
d="M-115 -12l-19 13c-2 1 -3 3 -3 5c0 3 1 7 4 12l408 623c2 3 4 4 6 4s5 -1 7 -2l22 -14c3 -1 4 -3 4 -5s-1 -4 -3 -7l-410 -625c-3 -5 -5 -7 -8 -7c-2 0 -4 0 -8 3z" />
    <glyph glyph-name="yen" unicode="&#xa5;" 
d="M288 164l-16 -79c-10 -48 6 -54 32 -54h30c6 0 8 -3 7 -8l-3 -18c-1 -5 -3 -8 -10 -8c-14 0 -44 3 -102 3c-73 0 -102 -3 -112 -3c-6 0 -9 2 -8 8l3 18c1 5 3 8 9 8h22c46 0 56 23 63 51l17 82h-142c-4 0 -6 1 -5 5l3 20c0 6 4 7 9 7h143l13 63h-145c-6 0 -9 1 -8 7l2 19
c1 6 5 6 10 6h131l-86 272c-6 19 -23 36 -56 36h-22c-5 0 -7 2 -6 6l4 20c1 7 2 8 9 8c12 0 37 -3 89 -3c71 0 103 3 115 3c7 0 10 -2 9 -8l-2 -20c-1 -4 -3 -6 -9 -6h-24c-38 0 -38 -25 -32 -46l72 -245c3 -13 12 -12 16 -5c15 25 148 215 158 244c12 36 3 51 -34 51h-19
c-6 1 -7 5 -7 9l2 18c1 7 3 8 11 8c14 0 50 -3 99 -3c51 0 80 3 92 3c8 0 10 -3 9 -8l-2 -18c-1 -6 -3 -8 -8 -8h-18c-32 0 -49 -16 -69 -46c-12 -18 -176 -245 -188 -262h134c6 0 9 -2 8 -6l-4 -20c-1 -5 -5 -6 -13 -6h-146l-15 -63h159c5 0 7 -2 6 -7l-4 -20
c-1 -4 -6 -5 -14 -5h-157z" />
    <glyph glyph-name="florin" unicode="&#x192;" 
d="M396 318h-98l-51 -168c-60 -199 -131 -279 -232 -279c-55 0 -84 27 -84 57c0 16 18 38 38 38c26 0 39 -20 48 -40c5 -11 14 -18 33 -18c60 0 73 64 119 224l54 186h-75c-6 0 -8 5 -6 9l10 22c2 5 4 6 10 6h72c28 84 50 154 112 220c38 41 88 70 153 70
c63 0 93 -32 93 -62c0 -16 -20 -37 -47 -37s-34 22 -40 38c-3 9 -12 24 -45 24c-64 0 -104 -69 -151 -253h101c6 0 10 -2 8 -6l-10 -25c-2 -5 -7 -6 -12 -6z" />
    <glyph glyph-name="section" unicode="&#xa7;" 
d="M467 243c0 -76 -55 -160 -149 -207c-15 -59 -35 -98 -88 -136c-38 -27 -84 -40 -144 -40c-47 0 -82 22 -82 45c0 25 15 42 39 42c20 0 34 -10 44 -25c11 -16 27 -25 47 -25c41 0 121 39 121 125c0 69 -36 108 -100 176c-33 35 -58 76 -58 131c0 60 55 148 147 186
c6 27 20 75 69 119c47 43 102 51 144 51c53 0 82 -24 82 -45c0 -28 -17 -43 -42 -43c-27 0 -34 12 -45 32c-9 16 -22 23 -41 23c-47 0 -102 -55 -102 -117c0 -51 17 -80 93 -155c32 -31 65 -77 65 -137zM244 487c-56 -29 -87 -75 -87 -127c0 -34 16 -64 36 -88
c57 -66 125 -128 127 -202c55 37 81 86 81 130c0 43 -12 75 -52 122c-34 40 -102 91 -105 165z" />
    <glyph glyph-name="currency" unicode="&#xa4;" 
d="M495 547l19 -20c3 -3 4 -7 0 -11l-94 -89c23 -22 40 -67 41 -104c-2 -44 -15 -82 -40 -113l93 -87c4 -4 4 -8 2 -11l-21 -24c-3 -3 -7 -2 -9 0l-99 90c-28 -20 -69 -32 -105 -32c-39 0 -79 14 -104 36l-91 -91c-5 -5 -8 -5 -11 -2l-22 23c-3 4 -2 8 2 12l92 90
c-21 26 -34 60 -34 97c0 42 16 87 41 112l-98 93c-2 2 -3 6 1 10l19 20c3 4 8 3 10 1l100 -94c27 24 68 34 108 34c33 0 73 -13 94 -31l97 90c3 4 7 3 9 1zM287 187c65 0 116 50 116 130c0 76 -47 129 -116 129c-82 0 -116 -67 -116 -129c0 -66 36 -130 116 -130z" />
    <glyph glyph-name="quotesingle" unicode="'" horiz-adv-x="144" 
d="M162 460l-25 8c8 30 30 160 40 188c9 26 27 29 45 29c16 0 30 -13 30 -31c0 -14 -80 -165 -90 -194z" />
    <glyph glyph-name="quotedblleft" unicode="&#x201c;" horiz-adv-x="320" 
d="M273 685c5 0 9 2 11 -8c1 -9 -3 -11 -10 -13c-22 -6 -72 -36 -72 -78c0 -21 7 -30 21 -46c5 -4 26 -19 26 -40c0 -22 -15 -42 -40 -42c-42 0 -65 56 -65 88c0 106 112 139 129 139zM413 685c5 0 9 2 11 -8c1 -9 -3 -11 -10 -13c-22 -6 -72 -36 -72 -78
c0 -21 7 -30 21 -46c5 -4 26 -19 26 -40c0 -22 -15 -42 -40 -42c-42 0 -65 56 -65 88c0 106 112 139 129 139z" />
    <glyph glyph-name="guillemotleft" unicode="&#xab;" horiz-adv-x="360" 
d="M185 70l-125 136c-2 2 -4 4 -4 6s2 4 5 7l155 145c2 2 4 4 6 4s3 -1 5 -3l11 -11c2 -2 4 -5 4 -7s-2 -4 -6 -8l-105 -122l76 -123c3 -5 5 -6 5 -8s-2 -5 -4 -7l-12 -11c-1 -1 -3 -2 -4 -2c-2 0 -5 1 -7 4zM315 70l-125 136c-2 2 -4 4 -4 6s2 4 5 7l155 145c2 2 4 4 6 4
s3 -1 5 -3l11 -11c2 -2 4 -5 4 -7s-2 -4 -6 -8l-105 -122l76 -123c3 -5 5 -6 5 -8s-2 -5 -4 -7l-12 -11c-1 -1 -3 -2 -4 -2c-2 0 -5 1 -7 4z" />
    <glyph glyph-name="guilsinglleft" unicode="&#x2039;" horiz-adv-x="230" 
d="M180 70l-125 136c-2 2 -4 4 -4 6s2 4 5 7l155 145c2 2 4 4 6 4s3 -1 5 -3l11 -11c2 -2 4 -5 4 -7s-2 -4 -6 -8l-105 -122l76 -123c3 -5 5 -6 5 -8s-2 -5 -4 -7l-12 -11c-1 -1 -3 -2 -4 -2c-2 0 -5 1 -7 4z" />
    <glyph glyph-name="guilsinglright" unicode="&#x203a;" horiz-adv-x="230" 
d="M87 364l125 -136c2 -2 4 -4 4 -6s-2 -4 -5 -7l-155 -145c-2 -2 -4 -4 -6 -4s-3 1 -5 3l-11 11c-2 2 -4 5 -4 7s2 4 6 8l105 122l-76 123c-3 5 -5 6 -5 8s2 5 4 7l12 11c1 1 3 2 4 2c2 0 5 -1 7 -4z" />
    <glyph glyph-name="endash" unicode="&#x2013;" 
d="M525 217h-500v54h500v-54z" />
    <glyph glyph-name="dagger" unicode="&#x2020;" 
d="M381 685c31 0 35 -22 35 -36c0 -28 -67 -157 -88 -234c62 0 147 22 172 22c24 0 34 -16 34 -32c0 -20 -16 -43 -42 -43s-109 27 -171 27c-17 -72 -4 -100 4 -115c-30 -50 -121 -315 -143 -405c-1 -6 -3 -9 -9 -9h-15c-6 0 -6 4 -4 12c25 101 72 352 65 397
c15 17 46 44 64 120c-60 0 -154 -27 -176 -27c-26 0 -35 14 -35 31c0 21 20 45 51 45c26 0 105 -23 167 -23c19 77 21 182 30 216c8 33 32 54 61 54z" />
    <glyph glyph-name="daggerdbl" unicode="&#x2021;" 
d="M386 685c32 0 36 -17 36 -35c0 -28 -69 -158 -89 -234c62 0 158 21 175 21c29 0 32 -13 32 -29c0 -22 -24 -45 -50 -45c-24 0 -103 27 -163 27c-12 -49 -13 -88 -5 -121c-20 -26 -42 -67 -56 -112c60 0 152 25 179 25c21 0 30 -12 30 -28c0 -29 -21 -46 -49 -46
s-105 22 -169 22c-19 -77 -21 -181 -30 -218c-8 -33 -36 -52 -58 -52c-25 0 -34 15 -34 37c0 35 66 156 86 233c-61 0 -158 -22 -175 -22c-20 0 -31 14 -31 30c0 22 18 44 47 44c23 0 105 -25 167 -25c12 43 12 88 6 112c25 31 44 72 55 121c-62 0 -156 -27 -179 -27
c-26 0 -33 13 -33 27c0 29 24 48 57 47c21 0 99 -21 161 -21c20 76 18 181 27 215c8 34 36 54 63 54z" />
    <glyph glyph-name="periodcentered" unicode="&#xb7;" horiz-adv-x="250" 
d="M169 290c-31 0 -53 23 -53 54c0 20 16 52 52 52c45 0 57 -40 57 -52c0 -26 -23 -54 -56 -54z" />
    <glyph glyph-name="paragraph" unicode="&#xb6;" 
d="M454 630l-195 -756c-3 -11 -4 -14 -10 -14h-27c-3 0 -4 5 -1 16l86 329c-115 0 -270 49 -215 234c46 156 271 216 433 237c49 6 72 9 90 9c6 0 8 -2 7 -7l-4 -17c-2 -6 -4 -7 -10 -8c-12 -1 -44 -5 -55 -7l-203 -778c-1 -6 -3 -8 -9 -8h-24c-6 0 -7 2 -4 12l200 770
c-13 -2 -45 -8 -59 -12z" />
    <glyph glyph-name="bullet" unicode="&#x2022;" horiz-adv-x="354" 
d="M108 317c0 64 50 113 111 113c66 0 109 -38 109 -104c0 -65 -53 -108 -115 -108c-52 0 -105 37 -105 99z" />
    <glyph glyph-name="quotesinglbase" unicode="&#x201a;" horiz-adv-x="180" 
d="M13 -107c-5 0 -9 -2 -11 8c-1 9 3 11 10 13c22 6 72 36 72 78c0 21 -7 30 -21 46c-5 4 -26 19 -26 40c0 22 15 42 40 42c42 0 65 -56 65 -88c0 -106 -112 -139 -129 -139z" />
    <glyph glyph-name="quotedblbase" unicode="&#x201e;" horiz-adv-x="320" 
d="M13 -107c-5 0 -9 -2 -11 8c-1 9 3 11 10 13c22 6 72 36 72 78c0 21 -7 30 -21 46c-5 4 -26 19 -26 40c0 22 15 42 40 42c42 0 65 -56 65 -88c0 -106 -112 -139 -129 -139zM153 -107c-5 0 -9 -2 -11 8c-1 9 3 11 10 13c22 6 72 36 72 78c0 21 -7 30 -21 46
c-5 4 -26 19 -26 40c0 22 15 42 40 42c42 0 65 -56 65 -88c0 -106 -112 -139 -129 -139z" />
    <glyph glyph-name="quotedblright" unicode="&#x201d;" horiz-adv-x="320" 
d="M113 458c-5 0 -9 -2 -11 8c-1 9 3 11 10 13c22 6 72 36 72 78c0 21 -7 30 -21 46c-5 4 -26 19 -26 40c0 22 15 42 40 42c42 0 65 -56 65 -88c0 -106 -112 -139 -129 -139zM253 458c-5 0 -9 -2 -11 8c-1 9 3 11 10 13c22 6 72 36 72 78c0 21 -7 30 -21 46
c-5 4 -26 19 -26 40c0 22 15 42 40 42c42 0 65 -56 65 -88c0 -106 -112 -139 -129 -139z" />
    <glyph glyph-name="guillemotright" unicode="&#xbb;" horiz-adv-x="360" 
d="M87 364l125 -136c2 -2 4 -4 4 -6s-2 -4 -5 -7l-155 -145c-2 -2 -4 -4 -6 -4s-3 1 -5 3l-11 11c-2 2 -4 5 -4 7s2 4 6 8l105 122l-76 123c-3 5 -5 6 -5 8s2 5 4 7l12 11c1 1 3 2 4 2c2 0 5 -1 7 -4zM217 364l125 -136c2 -2 4 -4 4 -6s-2 -4 -5 -7l-155 -145
c-2 -2 -4 -4 -6 -4s-3 1 -5 3l-11 11c-2 2 -4 5 -4 7s2 4 6 8l105 122l-76 123c-3 5 -5 6 -5 8s2 5 4 7l12 11c1 1 3 2 4 2c2 0 5 -1 7 -4z" />
    <glyph glyph-name="ellipsis" unicode="&#x2026;" horiz-adv-x="1000" 
d="M130 -10c-31 0 -53 23 -53 54c0 20 16 52 52 52c45 0 57 -40 57 -52c0 -26 -23 -54 -56 -54zM798 -10c-31 0 -53 23 -53 54c0 20 16 52 52 52c45 0 57 -40 57 -52c0 -26 -23 -54 -56 -54zM464 -10c-31 0 -53 23 -53 54c0 20 16 52 52 52c45 0 57 -40 57 -52
c0 -26 -23 -54 -56 -54z" />
    <glyph glyph-name="perthousand" unicode="&#x2030;" horiz-adv-x="1030" 
d="M177 278c86 0 151 182 151 277c0 38 -23 60 -50 60c-77 0 -147 -173 -147 -263c0 -49 26 -74 46 -74zM181 251c-70 0 -105 48 -105 121c0 118 90 273 206 273c68 0 101 -46 101 -109c0 -131 -91 -285 -202 -285zM186 -12l-19 13c-2 1 -3 3 -3 5c0 3 1 7 4 12l408 623
c2 3 4 4 6 4s5 -1 7 -2l22 -14c3 -1 4 -3 4 -5s-1 -4 -3 -7l-410 -625c-3 -5 -5 -7 -8 -7c-2 0 -4 0 -8 3zM504 -7c-70 0 -105 48 -105 121c0 118 90 273 206 273c68 0 101 -46 101 -109c0 -131 -91 -285 -202 -285zM500 20c86 0 151 182 151 277c0 38 -23 60 -50 60
c-77 0 -147 -173 -147 -263c0 -49 26 -74 46 -74zM832 -7c-70 0 -105 48 -105 121c0 118 90 273 206 273c68 0 101 -46 101 -109c0 -131 -91 -285 -202 -285zM828 20c86 0 151 182 151 277c0 38 -23 60 -50 60c-77 0 -147 -173 -147 -263c0 -49 26 -74 46 -74z" />
    <glyph glyph-name="questiondown" unicode="&#xbf;" horiz-adv-x="429" 
d="M262 248c49 0 98 -32 98 -106c0 -86 -108 -135 -159 -167c-71 -44 -128 -77 -128 -155c0 -31 29 -82 100 -82c63 0 117 39 117 91c0 32 -20 45 -30 45c-7 0 -13 -2 -16 -9c2 -7 1 -10 1 -15c0 -15 -14 -46 -50 -46c-26 0 -37 21 -37 34c0 43 43 70 80 70
c36 0 82 -18 82 -77c0 -56 -54 -128 -153 -128c-126 0 -147 95 -147 131c0 126 108 178 186 218c73 37 117 59 117 102c0 37 -32 56 -70 56c-37 0 -70 -25 -80 -37c-3 -3 -6 -2 -9 2l-7 8c-3 3 -3 6 -2 8c15 17 58 57 107 57zM301 315c-23 0 -52 17 -52 49c0 23 16 52 50 52
c30 0 51 -24 51 -52c0 -18 -19 -49 -49 -49z" />
    <glyph glyph-name="grave" unicode="`" horiz-adv-x="235" 
d="M275 475l-7 -8c-2 -3 -6 -3 -9 0l-120 91c-27 21 -10 60 17 60c17 0 24 -10 35 -24l84 -111c3 -3 3 -5 0 -8z" />
    <glyph glyph-name="acute" unicode="&#xb4;" horiz-adv-x="225" 
d="M104 467l-7 10c-2 2 1 5 4 8l126 103c11 10 21 15 35 15c27 0 43 -46 1 -66l-151 -71c-4 -2 -7 -1 -8 1z" />
    <glyph glyph-name="circumflex" unicode="&#x2c6;" horiz-adv-x="255" 
d="M275 472l-53 66l-100 -65c-2 -1 -5 -2 -7 1l-6 9c-2 2 0 4 3 7l125 128c4 3 8 2 10 -4l45 -130c2 -3 2 -6 -1 -8l-8 -4c-3 -2 -6 -2 -8 0z" />
    <glyph glyph-name="tilde" unicode="&#x2dc;" horiz-adv-x="285" 
d="M115 477l-13 8c-2 2 -2 4 1 10c15 37 49 72 83 72c17 0 31 -4 50 -10c11 -3 23 -6 46 -6c21 0 37 18 45 32c2 4 5 6 8 4l15 -8c4 -2 3 -6 -4 -17c-17 -31 -49 -60 -76 -60c-21 0 -38 5 -57 10c-14 4 -25 6 -39 6c-17 0 -41 -19 -52 -38c-2 -3 -4 -5 -7 -3z" />
    <glyph glyph-name="macron" unicode="&#xaf;" horiz-adv-x="255" 
d="M109 516v30c0 5 4 6 10 6h180c7 0 10 -1 10 -7v-29c0 -4 -3 -7 -9 -7h-183c-6 0 -8 2 -8 7z" />
    <glyph glyph-name="breve" unicode="&#x2d8;" horiz-adv-x="275" 
d="M207 476c-41 0 -83 32 -88 94c-1 8 0 11 4 12l10 3c4 1 6 -3 9 -9c17 -31 52 -47 81 -47c47 0 78 29 94 49c6 7 8 10 12 7l11 -5c4 -2 3 -5 -1 -13c-23 -44 -68 -91 -132 -91z" />
    <glyph glyph-name="dotaccent" unicode="&#x2d9;" horiz-adv-x="150" 
d="M159 550c-44 0 -52 37 -52 48c0 27 21 50 52 50c35 0 53 -25 53 -48c0 -15 -12 -50 -53 -50z" />
    <glyph glyph-name="dieresis" unicode="&#xa8;" horiz-adv-x="285" 
d="M204 550c-18 0 -46 8 -46 43c0 13 9 39 46 39c22 0 41 -15 41 -42c0 -25 -18 -40 -41 -40zM340 550c-18 0 -46 8 -46 43c0 13 9 39 46 39c22 0 41 -15 41 -42c0 -25 -18 -40 -41 -40z" />
    <glyph glyph-name="ring" unicode="&#x2da;" horiz-adv-x="255" 
d="M213 480c-54 0 -95 27 -95 69c0 51 50 79 102 79s92 -24 92 -75c0 -44 -42 -73 -99 -73zM217 503c23 0 47 17 47 51c0 38 -30 50 -49 50c-23 0 -49 -16 -49 -52c0 -32 26 -49 51 -49z" />
    <glyph glyph-name="cedilla" unicode="&#xb8;" horiz-adv-x="215" 
d="M33 0h37l-47 -67c25 -12 41 -30 41 -58c0 -53 -98 -85 -128 -85c-15 0 -19 8 -19 18c0 11 7 16 18 16c37 0 74 23 74 47c0 16 -14 33 -38 42z" />
    <glyph glyph-name="hungarumlaut" unicode="&#x2dd;" horiz-adv-x="305" 
d="M211 469l-7 9c-3 3 0 6 4 9l106 101c8 8 20 18 32 18c24 0 43 -38 10 -57l-136 -80c-3 -2 -6 -3 -9 0zM103 468l-9 8c-3 3 -1 6 3 10l95 110c7 8 18 19 31 19c31 0 32 -40 15 -52l-126 -93c-3 -3 -6 -5 -9 -2z" />
    <glyph glyph-name="ogonek" unicode="&#x2db;" horiz-adv-x="215" 
d="M80 -182c0 -9 -16 -28 -58 -28c-46 0 -95 22 -95 63c0 66 93 130 122 147h30c-35 -29 -89 -75 -89 -126c0 -43 39 -54 54 -54c9 0 22 10 28 10c5 0 8 -6 8 -12z" />
    <glyph glyph-name="caron" unicode="&#x2c7;" horiz-adv-x="255" 
d="M208 552l100 65c2 1 5 2 7 -1l6 -9c2 -2 0 -4 -3 -7l-125 -128c-4 -3 -8 -2 -10 4l-45 130c-2 3 -2 6 1 8l8 4c3 2 6 2 8 0z" />
    <glyph glyph-name="emdash" unicode="&#x2014;" horiz-adv-x="1000" 
d="M1025 271v-54h-1000v54h1000z" />
    <glyph glyph-name="AE" unicode="&#xc6;" horiz-adv-x="917" 
d="M291 344h164l82 256c5 15 -4 16 -13 7zM534 312l-89 -278h249c38 0 51 8 80 42l80 101c3 4 7 6 12 2l10 -6c4 -3 6 -5 3 -14l-51 -145c-5 -15 -10 -17 -22 -17c-9 0 -58 1 -123 2c-65 0 -144 1 -214 1h-82c-46 0 -75 -1 -92 -1c-18 -1 -25 -2 -30 -2c-7 0 -11 4 -10 11
l3 18c1 6 3 8 8 8h37c41 0 61 21 72 56l71 222h-184l-159 -186c-24 -28 -46 -53 -46 -68s14 -24 36 -24h33c5 0 7 -3 6 -10l-3 -19c-1 -5 -3 -8 -11 -8c-10 0 -53 3 -131 3c-66 0 -101 -3 -112 -3c-5 0 -9 3 -8 10l4 19c1 6 3 8 8 8h18c43 0 89 29 129 73l460 511
c7 7 7 18 -6 18h-65c-6 0 -8 4 -6 8l9 24c2 4 5 5 11 5c8 0 26 -1 47 -1c21 -1 46 -2 68 -2h100c84 0 142 1 181 2c39 0 59 1 69 1c15 0 17 -3 21 -19l32 -137c1 -5 0 -6 -6 -9l-11 -4c-5 -2 -6 -2 -10 3l-94 121c-5 6 -10 8 -17 8h-171l-95 -292h105c58 0 91 2 119 83
c1 4 3 6 7 5l15 -3c4 -1 7 -3 6 -8l-54 -199c-1 -6 -3 -7 -7 -6l-16 2c-5 1 -5 2 -4 8c7 82 -33 86 -112 86h-68z" />
    <glyph glyph-name="ordfeminine" unicode="&#xaa;" horiz-adv-x="324" 
d="M341 533h32c4 0 5 -4 3 -8c-9 -18 -40 -97 -53 -127c-12 -28 -33 -91 -33 -95c0 -6 3 -9 7 -9c11 0 42 30 49 38c2 3 4 3 7 1l10 -10c2 -2 2 -6 0 -8c-9 -13 -69 -64 -112 -64c-13 0 -22 6 -22 14c0 12 5 29 29 89l-4 2c-21 -34 -93 -105 -146 -105c-36 0 -53 22 -53 63
c0 91 117 225 215 225c35 0 46 -16 50 -27l9 15c3 5 6 6 12 6zM293 480c0 20 -8 30 -32 30c-71 0 -146 -128 -146 -178c0 -19 6 -39 24 -39c38 0 118 89 135 127c12 26 19 46 19 60z" />
    <glyph glyph-name="Lslash" unicode="&#x141;" horiz-adv-x="625" 
d="M607 158c-4 -11 -38 -131 -42 -157c-2 -10 -7 -16 -12 -16c-6 0 -15 3 -26 6s-24 6 -37 6c-22 0 -148 3 -234 3c-112 0 -236 -3 -247 -3c-6 0 -10 2 -8 10l4 19c1 5 3 8 9 8h25c44 0 62 11 82 74l63 202l-93 -26c-6 -2 -8 0 -9 4l-8 25c-1 4 1 6 5 7l118 34l68 220
c14 44 6 62 -43 62h-37c-7 0 -9 3 -8 8l7 23c1 5 4 6 12 6c11 0 54 -3 138 -3c85 0 131 3 142 3c6 0 9 -3 8 -8l-5 -21c-2 -6 -5 -8 -12 -8h-45c-38 0 -54 -11 -72 -69l-58 -186l163 46c4 1 8 1 10 -4l7 -21c1 -5 -1 -9 -5 -11l-189 -54l-84 -274c-7 -22 3 -29 25 -29h40
c65 0 188 1 207 4c18 3 27 9 35 16c20 18 76 107 80 115c1 3 4 4 10 2l10 -4c6 -2 8 -4 6 -9z" />
    <glyph glyph-name="Oslash" unicode="&#xd8;" horiz-adv-x="709" 
d="M608 565l-390 -479c31 -43 77 -62 119 -62c164 0 300 222 300 426c0 44 -9 84 -29 115zM196 124l386 475c-26 27 -64 42 -111 42c-61 0 -104 -29 -147 -72c-89 -89 -146 -243 -146 -346c0 -40 7 -73 18 -99zM189 50l-47 -58c-4 -5 -8 -6 -11 -3l-21 19c-4 4 -2 7 -1 9
l53 65c-42 54 -60 123 -60 206c0 205 165 397 350 397c60 0 115 -19 157 -53l39 48c3 5 6 5 10 3l23 -17c5 -3 3 -8 -4 -16l-38 -47c48 -52 76 -128 76 -218c0 -186 -129 -400 -355 -400c-19 0 -103 -3 -171 65z" />
    <glyph glyph-name="OE" unicode="&#x152;" horiz-adv-x="1064" 
d="M689 341l-97 -307h249c38 0 52 7 80 42l80 101c3 4 7 6 12 2l10 -6c4 -3 6 -5 3 -14l-51 -145c-5 -15 -10 -17 -22 -17c-8 0 -46 1 -99 2c-53 0 -121 1 -189 1h-153c-29 0 -56 -4 -83 -7c-28 -4 -55 -8 -84 -8c-57 0 -124 21 -165 60c-56 52 -88 121 -88 211
c0 150 80 255 143 313c64 59 168 116 296 116c41 0 74 -4 106 -7c31 -4 60 -8 90 -8h87c68 0 119 1 156 2c37 0 60 1 71 1c15 0 17 -3 21 -19l32 -137c1 -5 0 -6 -6 -9l-11 -4c-5 -2 -6 -2 -10 3l-94 121c-4 6 -9 8 -16 8h-172l-86 -263h96c58 0 91 2 119 84c1 4 3 6 7 5
l15 -3c4 -1 7 -3 6 -8l-54 -199c-1 -6 -3 -7 -7 -6l-16 2c-5 1 -5 2 -4 8c7 83 -33 85 -112 85h-60zM332 24c84 0 179 23 209 118l136 434c14 46 -46 70 -126 70c-98 0 -170 -45 -233 -103c-88 -83 -138 -217 -138 -320c0 -141 80 -199 152 -199z" />
    <glyph glyph-name="ordmasculine" unicode="&#xba;" horiz-adv-x="324" 
d="M167 251c-39 0 -88 19 -88 91c0 78 57 197 175 197c54 0 90 -38 90 -83c0 -68 -49 -205 -177 -205zM172 282c46 0 127 121 125 183c1 25 -12 41 -43 41c-61 0 -122 -110 -122 -184c0 -21 12 -40 40 -40z" />
    <glyph glyph-name="ae" unicode="&#xe6;" horiz-adv-x="540" 
d="M477 109l11 -9c5 -4 4 -5 1 -9c-25 -35 -85 -101 -162 -101c-68 0 -90 36 -93 85c-44 -36 -110 -85 -172 -85c-29 0 -46 26 -46 50c0 136 244 376 457 376c59 0 81 -29 81 -62c0 -48 -38 -90 -89 -128c-60 -45 -114 -77 -162 -107c-1 -49 19 -82 52 -82
c49 0 92 37 113 71c2 3 5 4 9 1zM455 372c-59 0 -131 -100 -149 -222c43 27 182 110 182 184c0 21 -12 38 -33 38zM346 358c-58 0 -255 -179 -257 -284c0 -22 11 -33 26 -33c31 0 79 34 118 64c27 133 86 199 117 233c14 14 9 20 -4 20z" />
    <glyph glyph-name="dotlessi" unicode="&#x131;" horiz-adv-x="287" 
d="M92 -10c-10 1 -17 9 -17 25c0 23 18 69 59 181l29 78c10 27 18 47 18 59c0 9 -6 13 -14 13c-17 0 -64 -54 -80 -70c-4 -4 -8 -4 -11 -1l-8 9c-4 3 -6 5 -3 9c4 6 106 126 170 123c12 0 24 -8 24 -25c0 -18 -16 -63 -34 -111l-58 -152c-13 -37 -18 -59 -18 -66
c0 -9 3 -15 11 -17c21 4 75 61 80 70c2 3 6 3 11 -2l8 -7c4 -5 5 -7 2 -12c-6 -8 -86 -104 -169 -104z" />
    <glyph glyph-name="lslash" unicode="&#x142;" horiz-adv-x="264" 
d="M346 660l-107 -269l76 18c4 1 7 0 8 -4l4 -24c1 -5 -2 -7 -8 -8l-96 -22l-85 -220c-9 -23 -33 -78 -12 -78c16 0 62 39 74 52c4 4 6 3 9 0l11 -12c2 -2 3 -6 -1 -10c-5 -8 -98 -93 -162 -93c-13 0 -22 6 -22 29c0 15 25 78 37 108l82 207l-77 -18c-5 -1 -9 -1 -10 6
l-4 21c-1 4 1 6 5 7l102 24l77 204c14 38 14 63 -15 63h-29c-7 0 -8 4 -6 9l6 18c2 6 4 7 10 7h124c9 0 13 -6 9 -15z" />
    <glyph glyph-name="oslash" unicode="&#xf8;" horiz-adv-x="397" 
d="M157 -10c-33 0 -56 14 -73 35l-41 -43c-2 -2 -5 -2 -7 0l-18 19c-1 2 -1 5 2 8l45 45c-6 18 -13 41 -13 65c0 129 96 297 230 297c36 0 63 -15 79 -36l36 42c3 3 6 5 9 2l20 -16c3 -2 2 -6 0 -8l-47 -52c3 -12 8 -29 8 -49c0 -110 -86 -309 -230 -309zM345 320l-237 -268
c8 -10 20 -14 34 -14c99 0 201 198 205 280zM94 84l242 269c-6 9 -19 17 -37 17c-41 0 -93 -33 -148 -120c-41 -65 -60 -136 -57 -166z" />
    <glyph glyph-name="oe" unicode="&#x153;" horiz-adv-x="585" 
d="M523 109l11 -9c5 -3 5 -6 1 -9c-25 -35 -85 -101 -162 -101c-42 0 -76 26 -89 75c-31 -48 -93 -75 -126 -75c-17 0 -106 9 -106 134c0 128 99 292 222 292c53 0 98 -34 100 -101h2c41 56 110 101 166 101c39 0 57 -29 57 -53c0 -51 -37 -101 -93 -130
c-54 -27 -108 -38 -146 -41c-5 -12 -13 -45 -13 -92c0 -45 33 -63 53 -63c49 0 93 37 114 71c2 3 5 5 9 1zM368 221c36 -3 167 39 167 113c0 20 -10 38 -32 38c-64 0 -127 -115 -135 -151zM94 92c0 -36 20 -54 46 -54c118 0 200 192 200 280c0 32 -20 51 -46 51
c-35 0 -89 -33 -142 -117c-24 -37 -58 -100 -58 -160z" />
    <glyph glyph-name="germandbls" unicode="&#xdf;" horiz-adv-x="458" 
d="M413 685c57 0 100 -33 100 -81c0 -66 -38 -115 -91 -165c-21 -21 -68 -55 -68 -109c0 -45 30 -87 36 -101c6 -12 38 -61 38 -114c0 -78 -63 -125 -132 -125c-58 0 -94 23 -94 56c0 14 13 33 34 33c22 0 35 -15 41 -32s11 -28 36 -28c29 0 56 26 56 61
c0 43 -30 84 -43 116c-7 17 -30 51 -30 99c0 69 63 120 90 147c41 41 56 83 56 138c0 38 -25 69 -64 69c-94 0 -120 -128 -166 -278c-31 -100 -78 -273 -126 -402c-59 -160 -136 -266 -247 -266c-31 0 -64 27 -64 59c0 23 17 43 42 43c23 0 39 -23 42 -39
c3 -14 11 -23 23 -23c44 0 89 68 122 167c56 169 91 331 143 479c31 89 65 172 120 229c28 29 81 67 146 67z" />
    <glyph glyph-name="onesuperior" unicode="&#xb9;" horiz-adv-x="325" 
d="M80 410h32c21 0 36 2 49 28c3 7 9 24 22 64l42 132c12 36 18 53 18 58s-3 8 -8 8c-6 0 -21 -5 -41 -13l-32 -13c-4 -2 -5 0 -7 4l-6 12c-1 3 -1 4 4 7l142 70c11 5 17 7 22 7s9 -4 9 -7s0 -8 -3 -16c-12 -31 -38 -102 -54 -152l-28 -89c-12 -39 -19 -61 -20 -69
c-7 -24 -1 -31 19 -31h27c5 0 6 -2 5 -5l-3 -16c-1 -3 -3 -5 -7 -5c-5 0 -81 3 -95 3c-15 0 -89 -3 -94 -3c-3 0 -4 3 -3 5l3 16c1 3 3 5 7 5z" />
    <glyph glyph-name="logicalnot" unicode="&#xac;" 
d="M72 292v54h388v-224h-58v170h-330z" />
    <glyph glyph-name="mu" unicode="&#xb5;" 
d="M83 -8l-22 -60c-21 -59 -31 -82 -41 -109c-8 -23 -42 -41 -72 -41c-18 0 -27 15 -4 38c45 45 76 148 104 213c12 28 36 93 101 251c24 58 21 99 21 110c0 14 13 22 43 22c22 0 34 -19 34 -36c0 -25 -32 -83 -68 -172c-24 -60 -50 -124 -50 -146c0 -11 7 -17 17 -17
c53 0 159 131 188 173c19 28 35 55 47 83c22 54 24 82 24 93c0 14 13 22 41 22c23 0 29 -12 29 -30c0 -22 -33 -90 -73 -197c-29 -78 -37 -105 -37 -123c0 -12 11 -19 18 -19c17 0 55 50 63 62c2 3 6 4 9 0l10 -10c3 -3 3 -5 0 -9s-70 -100 -143 -100c-19 0 -31 11 -31 32
c0 24 41 128 54 162l-6 3c-41 -59 -145 -202 -256 -195z" />
    <glyph glyph-name="mu" unicode="&#x3bc;" 
d="M83 -8l-22 -60c-21 -59 -31 -82 -41 -109c-8 -23 -42 -41 -72 -41c-18 0 -27 15 -4 38c45 45 76 148 104 213c12 28 36 93 101 251c24 58 21 99 21 110c0 14 13 22 43 22c22 0 34 -19 34 -36c0 -25 -32 -83 -68 -172c-24 -60 -50 -124 -50 -146c0 -11 7 -17 17 -17
c53 0 159 131 188 173c19 28 35 55 47 83c22 54 24 82 24 93c0 14 13 22 41 22c23 0 29 -12 29 -30c0 -22 -33 -90 -73 -197c-29 -78 -37 -105 -37 -123c0 -12 11 -19 18 -19c17 0 55 50 63 62c2 3 6 4 9 0l10 -10c3 -3 3 -5 0 -9s-70 -100 -143 -100c-19 0 -31 11 -31 32
c0 24 41 128 54 162l-6 3c-41 -59 -145 -202 -256 -195z" />
    <glyph glyph-name="trademark" unicode="&#x2122;" horiz-adv-x="835" 
d="M301 644l-43 -178c-12 -48 -19 -82 -21 -94c-1 -12 0 -19 12 -19h25c3 0 5 -1 4 -5l-5 -18c0 -3 -2 -5 -6 -5s-49 2 -68 2c-21 0 -68 -2 -74 -2c-5 0 -6 2 -5 5l4 18c1 4 3 5 6 5h27c10 0 17 5 19 12c4 13 12 45 22 88l45 191c-6 0 -53 1 -78 -6c-23 -8 -43 -32 -55 -47
c-1 -5 -4 -6 -8 -4l-9 4c-2 0 -2 1 0 3c8 18 36 81 38 85c3 7 6 9 7 9c3 0 4 -1 5 -2l6 -5c9 -5 13 -7 26 -8c31 -1 62 -3 101 -3c37 0 81 2 111 3c12 1 18 2 28 6l11 7c3 1 3 2 5 2s3 -2 3 -9c-1 -5 -8 -65 -9 -87c0 -3 -2 -5 -4 -6l-8 -1c-5 -1 -6 0 -7 5
c-2 9 -10 37 -24 46c-17 9 -73 8 -81 8zM599 665l37 -240l160 241c4 7 10 8 19 8c76 0 93 1 98 1c2 0 3 -2 2 -5l-3 -17c-2 -5 -3 -7 -6 -7h-10c-19 0 -23 -8 -26 -19c-7 -25 -21 -87 -31 -129c-10 -40 -18 -85 -27 -119c-3 -14 0 -26 11 -26h23c4 0 3 -1 2 -5l-3 -17
c-1 -3 -2 -5 -7 -5c-6 0 -48 1 -68 1c-19 0 -65 -1 -71 -1c-3 0 -4 2 -3 5l3 16c1 4 3 6 7 6h19c15 0 22 8 26 17c12 24 20 85 28 121l36 148h-4l-197 -294c-5 -5 -10 -12 -15 -12c-6 0 -8 3 -8 9l-49 299h-5l-30 -134c-8 -31 -22 -83 -28 -119c-3 -27 5 -35 23 -35h13
c3 0 3 -2 2 -6l-4 -16c-1 -3 -2 -5 -6 -5c-6 0 -40 1 -60 1c-15 0 -59 -2 -63 -2c-4 2 -4 0 -4 6l4 16c1 3 2 6 5 6h12c16 0 31 12 38 29c14 35 32 111 44 160l18 78c4 20 -5 26 -21 26h-14c-3 0 -4 2 -3 6l4 17c1 4 4 6 6 6c4 0 44 -2 60 -2c19 0 36 1 50 2
c10 1 15 1 16 -10z" />
    <glyph glyph-name="Eth" unicode="&#xd0;" horiz-adv-x="777" 
d="M271 328l-54 -222c-4 -18 -7 -32 -7 -42c0 -21 28 -30 71 -30c107 0 212 20 286 83c61 51 122 163 122 278c0 65 -27 128 -64 166c-33 34 -75 54 -114 65c-54 14 -95 13 -109 13c-16 0 -46 0 -56 -3l-65 -271h143c11 0 13 -4 10 -11l-7 -18c-2 -6 -5 -8 -18 -8h-138z
M134 113l52 215h-108c-9 0 -13 2 -11 9l8 22c1 4 4 6 13 6h108l53 218c10 39 -16 50 -51 50h-45c-10 0 -12 2 -10 8l6 22c2 6 4 7 16 7s44 1 83 3c42 1 88 3 108 3c127 0 267 -14 351 -97c62 -63 75 -120 75 -181c0 -196 -124 -295 -185 -330c-126 -71 -261 -71 -327 -71
c-27 0 -118 3 -146 3c-75 0 -104 -3 -112 -3c-7 0 -9 3 -8 8l6 22c1 4 3 7 10 7h30c36 0 68 13 84 79z" />
    <glyph glyph-name="onehalf" unicode="&#xbd;" horiz-adv-x="700" 
d="M175 -12l-19 13c-2 1 -3 3 -3 5c0 3 1 7 4 12l408 623c2 3 4 4 6 4s5 -1 7 -2l22 -14c3 -1 4 -3 4 -5s-1 -4 -3 -7l-410 -625c-3 -5 -5 -7 -8 -7c-2 0 -4 0 -8 3zM473 44h112c33 0 50 18 65 42c4 5 7 5 10 4l8 -5c3 -1 3 -5 1 -7c-15 -22 -40 -79 -41 -83
c-2 -5 -4 -6 -9 -6c-4 0 -6 1 -10 7c-3 4 -18 4 -38 4h-163c-10 0 -12 3 -12 8c0 4 3 9 8 13c75 61 235 166 235 259c0 28 -14 65 -55 65s-65 -42 -77 -62c-5 -8 -8 -9 -11 -8l-11 6c-3 2 -4 6 -3 9c11 29 53 97 129 97c61 0 93 -37 93 -91c0 -105 -150 -199 -229 -250
l-2 -1v-1zM50 281h32c21 0 36 2 49 28c3 7 9 24 22 64l42 132c12 36 18 53 18 58s-3 8 -8 8c-6 0 -21 -5 -41 -13l-32 -13c-4 -2 -5 0 -7 4l-6 12c-1 3 -1 4 4 7l142 70c11 5 17 7 22 7s9 -4 9 -7s0 -8 -3 -16c-12 -31 -38 -102 -54 -152l-28 -89c-13 -39 -19 -61 -20 -69
c-7 -24 -1 -31 19 -31h27c5 0 6 -2 5 -5l-3 -16c-1 -3 -3 -5 -7 -5c-5 0 -81 3 -95 3c-15 0 -89 -3 -94 -3c-3 0 -4 3 -3 5l3 16c1 3 3 5 7 5z" />
    <glyph glyph-name="plusminus" unicode="&#xb1;" 
d="M296 147h-59v143h-165v54h165v138h59v-138h164v-54h-164v-143zM72 65h388v-54h-388v54z" />
    <glyph glyph-name="Thorn" unicode="&#xde;" horiz-adv-x="614" 
d="M133 114l119 452c9 32 13 70 -32 70h-46c-5 0 -7 5 -6 10l6 20c1 4 4 7 11 7c14 0 49 -3 127 -3c68 0 104 3 118 3c13 0 15 -2 14 -10l-3 -17c-1 -7 -3 -10 -11 -10h-30c-32 0 -52 -24 -63 -62l-9 -30c8 -1 16 -1 33 -1c95 0 150 -7 198 -47c44 -37 60 -68 60 -136
c0 -101 -86 -212 -288 -212c-45 0 -79 2 -105 7l-12 -48c-9 -38 -6 -73 34 -73h38c7 0 9 -4 8 -10l-3 -19c-2 -6 -3 -8 -12 -8c-12 0 -53 3 -133 3c-68 0 -104 -3 -116 -3c-8 0 -11 3 -10 10l2 17c1 7 3 10 11 10h21c54 0 68 37 79 80zM320 509l-86 -320c19 -6 61 -9 88 -9
c150 0 209 104 209 188c0 119 -102 143 -170 143c-11 0 -32 0 -41 -2z" />
    <glyph glyph-name="onequarter" unicode="&#xbc;" horiz-adv-x="700" 
d="M548 0h-42c-4 0 -5 5 -1 14l38 90h-153c-11 0 -15 6 -15 15c0 6 4 10 14 19l277 241c4 4 13 8 22 8c11 0 17 -12 13 -21l-88 -223h63c3 0 5 -4 2 -9l-9 -21c-2 -4 -6 -9 -10 -9h-59l-37 -92c-5 -12 -9 -12 -15 -12zM446 143h109l58 138c6 14 2 18 -11 6l-150 -129
c-12 -11 -12 -15 -6 -15zM175 -12l-19 13c-2 1 -3 3 -3 5c0 3 1 7 4 12l408 623c2 3 4 4 6 4s5 -1 7 -2l22 -14c3 -1 4 -3 4 -5s-1 -4 -3 -7l-410 -625c-3 -5 -5 -7 -8 -7c-2 0 -4 0 -8 3zM50 281h32c21 0 36 2 49 28c3 7 9 24 22 64l42 132c12 36 18 53 18 58s-3 8 -8 8
c-6 0 -21 -5 -41 -13l-32 -13c-4 -2 -5 0 -7 4l-6 12c-1 3 -1 4 4 7l142 70c11 5 17 7 22 7s9 -4 9 -7s0 -8 -3 -16c-12 -31 -38 -102 -54 -152l-28 -89c-13 -39 -19 -61 -20 -69c-7 -24 -1 -31 19 -31h27c5 0 6 -2 5 -5l-3 -16c-1 -3 -3 -5 -7 -5c-5 0 -81 3 -95 3
c-15 0 -89 -3 -94 -3c-3 0 -4 3 -3 5l3 16c1 3 3 5 7 5z" />
    <glyph glyph-name="divide" unicode="&#xf7;" 
d="M72 267h388v-54h-388v54zM267 344c-32 0 -56 23 -56 52c0 30 24 52 56 52c31 0 55 -22 55 -52c0 -29 -24 -52 -55 -52zM267 32c-32 0 -56 22 -56 51s24 53 56 53c31 0 55 -24 55 -53s-24 -51 -55 -51z" />
    <glyph glyph-name="brokenbar" unicode="&#xa6;" horiz-adv-x="250" 
d="M152 175h38c5 0 6 -4 6 -10v-330c0 -5 -2 -10 -9 -10h-38c-5 0 -6 4 -6 10v330c0 5 2 10 9 10zM187 325h-38c-5 0 -6 4 -6 10v331c0 6 1 9 6 9h40c5 0 7 -4 7 -12v-328c0 -5 -2 -10 -9 -10z" />
    <glyph glyph-name="degree" unicode="&#xb0;" horiz-adv-x="250" 
d="M215 685c64 0 102 -40 102 -91c0 -48 -42 -93 -102 -93c-63 0 -101 39 -101 93c0 47 42 91 101 91zM215 653c-33 0 -57 -26 -57 -57c0 -38 27 -64 57 -64c32 0 58 26 58 64c0 31 -25 57 -58 57z" />
    <glyph glyph-name="thorn" unicode="&#xfe;" horiz-adv-x="461" 
d="M211 399l100 249c3 8 7 11 14 14l57 22c2 1 5 1 7 1s3 -2 3 -4s-1 -5 -2 -8l-110 -260c6 1 14 2 23 2c10 1 19 1 26 1c78 0 123 -56 123 -126c0 -68 -35 -138 -97 -191c-70 -59 -155 -94 -238 -99l-78 -198c-20 -52 -12 -68 30 -68h28c5 0 7 -4 6 -8l-7 -20
c-2 -3 -4 -6 -12 -6c-11 0 -41 3 -105 3c-69 0 -96 -3 -107 -3c-6 0 -8 2 -7 6l5 18c2 7 4 10 9 10h23c39 0 55 23 78 81l214 539c-48 -14 -104 -64 -126 -90c-3 -4 -7 -3 -9 -1l-10 10c-3 3 -4 6 -1 9c36 42 85 88 163 117zM265 372l-135 -342c118 10 250 107 250 242
c0 73 -42 103 -85 103c-13 0 -23 -2 -30 -3z" />
    <glyph glyph-name="threequarters" unicode="&#xbe;" horiz-adv-x="700" 
d="M553 0h-42c-4 0 -5 5 -1 14l38 90h-153c-11 0 -15 6 -15 15c0 6 4 10 14 19l277 241c4 4 13 8 22 8c11 0 17 -12 13 -21l-88 -223h63c3 0 4 -4 2 -9l-9 -21c-2 -4 -6 -9 -10 -9h-59l-37 -92c-5 -12 -9 -12 -15 -12zM451 143h109l58 138c6 14 2 18 -11 6l-150 -129
c-12 -11 -12 -15 -6 -15zM185 -12l-19 13c-2 1 -3 3 -3 5c0 3 1 7 4 12l408 623c2 3 4 4 6 4s5 -1 7 -2l22 -14c3 -1 4 -3 4 -5s-1 -4 -3 -7l-410 -625c-3 -5 -5 -7 -8 -7c-2 0 -4 0 -8 3zM135 251c-60 0 -92 35 -92 67c0 12 9 27 26 27c24 0 27 -23 25 -38
c-2 -10 19 -29 43 -29c57 0 105 49 105 110c0 32 -18 58 -46 69c-9 4 -10 6 -10 11c0 3 1 8 10 10c27 6 84 35 84 86c0 15 -9 42 -48 42c-29 0 -52 -25 -65 -43c-6 -9 -11 -12 -15 -9l-10 8c-2 3 -1 6 1 10c14 24 51 73 116 73c59 0 81 -35 81 -58c0 -47 -39 -81 -87 -106
c38 -20 53 -50 53 -86c0 -82 -89 -144 -171 -144z" />
    <glyph glyph-name="twosuperior" unicode="&#xb2;" horiz-adv-x="325" 
d="M128 431h112c33 0 50 18 65 42c4 5 7 5 10 4l8 -5c3 -1 3 -5 1 -7c-15 -22 -40 -79 -41 -83c-2 -5 -4 -6 -9 -6c-4 0 -6 1 -10 7c-3 4 -18 4 -38 4h-163c-10 0 -12 3 -12 8c0 4 3 9 8 13c75 61 235 166 235 259c0 28 -14 65 -55 65s-65 -42 -77 -62c-5 -8 -8 -9 -11 -8
l-11 6c-3 2 -4 6 -3 9c11 29 53 97 129 97c61 0 93 -37 93 -91c0 -105 -150 -199 -229 -250l-2 -1v-1z" />
    <glyph glyph-name="registered" unicode="&#xae;" horiz-adv-x="540" 
d="M257 472l1 35c0 26 0 46 -1 56c0 12 -6 17 -20 17h-7c-1 0 -2 1 -2 3v12c0 2 0 3 2 3c4 0 41 -2 48 -2c6 0 57 2 64 2c35 0 60 -9 74 -21s19 -29 19 -42c0 -46 -38 -67 -66 -71v-2c8 -2 12 -8 15 -11c4 -5 29 -42 32 -46c2 -3 25 -33 32 -38c9 -6 18 -6 28 -6
c4 0 4 -2 4 -5v-9c0 -1 -1 -2 -3 -2c-3 0 -19 1 -30 1s-25 -1 -39 -1c-4 2 -13 14 -16 19c-4 5 -22 32 -27 41c-4 8 -17 30 -21 34c-10 11 -18 17 -33 17c-3 0 -8 0 -10 -1v-17c0 -21 0 -57 1 -63c0 -7 3 -14 12 -14h16c2 0 2 -1 2 -3v-10c0 -2 0 -3 -2 -3c-6 0 -37 1 -52 1
s-44 -1 -48 -1c-2 0 -3 1 -3 3v11c0 1 1 2 2 2h9c12 0 19 2 19 20v91zM301 578v-105c4 -1 13 -1 20 -1c58 0 67 43 67 57s-8 29 -20 37c-15 10 -31 14 -47 14c-5 0 -14 -1 -20 -2zM338 685c135 0 226 -89 226 -218c0 -122 -84 -218 -226 -218c-143 0 -226 96 -226 218
c0 124 96 218 226 218zM338 654c-102 0 -185 -69 -185 -184c0 -140 108 -190 185 -190c135 0 185 102 185 187c0 139 -110 187 -185 187z" />
    <glyph glyph-name="minus" unicode="&#x2212;" 
d="M72 267h388v-54h-388v54z" />
    <glyph glyph-name="eth" unicode="&#xf0;" horiz-adv-x="414" 
d="M161 20c90 2 171 218 171 305c0 41 -23 60 -52 60c-34 0 -92 -44 -138 -165c-21 -56 -30 -101 -30 -139c0 -19 13 -59 49 -61zM234 668l17 15c3 2 6 1 9 -1c15 -10 59 -56 76 -90l74 25c5 2 8 0 9 -3l7 -19c2 -4 0 -8 -4 -9l-71 -24c37 -74 48 -154 48 -222
c0 -133 -82 -350 -231 -350c-31 0 -112 10 -112 134c0 115 75 292 218 292c24 0 44 -7 57 -18c-2 31 -9 86 -31 146l-107 -36c-5 -2 -8 0 -9 4l-6 22c-1 4 1 6 5 7l107 35c-14 29 -37 65 -54 82c-5 4 -4 8 -2 10z" />
    <glyph glyph-name="multiply" unicode="&#xd7;" 
d="M448 86l-41 -42l-145 146l-145 -146l-35 42l143 141l-142 140l40 41l143 -144l143 144l38 -37l-144 -142z" />
    <glyph glyph-name="threesuperior" unicode="&#xb3;" horiz-adv-x="325" 
d="M165 380c-60 0 -92 35 -92 67c0 12 9 27 26 27c24 0 27 -23 25 -38c-2 -10 19 -29 43 -29c57 0 105 49 105 110c0 32 -18 58 -46 69c-9 4 -10 6 -10 11c0 3 1 8 10 10c27 6 84 35 84 86c0 15 -9 42 -48 42c-29 0 -52 -25 -65 -43c-6 -9 -11 -12 -15 -9l-10 8
c-2 3 -1 6 1 10c14 24 51 73 116 73c59 0 81 -35 81 -58c0 -47 -39 -81 -87 -106c38 -20 53 -50 53 -86c0 -82 -89 -144 -171 -144z" />
    <glyph glyph-name="copyright" unicode="&#xa9;" horiz-adv-x="780" 
d="M440 126c-61 0 -116 19 -151 53c-42 41 -64 92 -64 159c0 53 19 107 61 151c30 30 84 57 149 57c53 0 99 -25 110 -31c6 -3 10 -3 12 0l4 16c1 3 6 3 14 3c6 0 9 -2 10 -9l14 -108c1 -4 1 -6 -2 -7l-11 -3c-3 -1 -6 -1 -8 2c-8 17 -20 42 -43 65c-26 25 -63 43 -102 43
c-97 0 -140 -92 -140 -165c1 -34 10 -93 53 -136c35 -37 72 -51 110 -51c69 0 118 38 146 75c2 2 4 0 8 -3l7 -5c2 -2 2 -6 -1 -10c-36 -50 -93 -96 -176 -96zM433 685c201 0 347 -142 347 -350c0 -196 -136 -350 -347 -350c-213 0 -347 155 -347 350c0 199 154 350 347 350
zM433 19c216 0 297 180 297 316c0 223 -177 316 -297 316c-164 0 -297 -130 -297 -316c0 -230 174 -316 297 -316z" />
    <glyph glyph-name="Aacute" unicode="&#xc1;" horiz-adv-x="619" 
d="M472 301h-178l-140 -176c-21 -27 -41 -53 -41 -67c0 -15 13 -24 35 -24h36c5 0 9 -2 7 -10l-4 -19c-1 -5 -3 -8 -10 -8c-10 0 -53 3 -131 3c-66 0 -101 -3 -112 -3c-5 0 -10 2 -9 7l5 22c1 6 3 8 7 8h15c43 0 85 30 121 73l463 553c5 7 9 9 28 10c14 1 37 4 47 7
c11 3 25 8 33 8s12 -3 10 -10l-147 -555c-4 -17 -10 -42 -10 -58s17 -28 37 -28h27c6 0 9 -3 8 -10l-3 -18c-1 -6 -3 -9 -12 -9c-12 0 -52 3 -120 3c-70 0 -101 -3 -117 -3c-9 0 -11 4 -10 10l4 19c1 4 3 8 8 8h19c38 0 64 7 84 82zM320 336h163l77 264c4 14 -14 16 -22 7z
M571 729l-6 10c-2 4 0 7 3 10l143 111c11 8 22 12 34 12c33 0 46 -57 8 -73l-174 -71c-4 -2 -7 -1 -8 1z" />
    <glyph glyph-name="Acircumflex" unicode="&#xc2;" horiz-adv-x="619" 
d="M472 301h-178l-140 -176c-21 -27 -41 -53 -41 -67c0 -15 13 -24 35 -24h36c5 0 9 -2 7 -10l-4 -19c-1 -5 -3 -8 -10 -8c-10 0 -53 3 -131 3c-66 0 -101 -3 -112 -3c-5 0 -10 2 -9 7l5 22c1 6 3 8 7 8h15c43 0 85 30 121 73l463 553c5 7 9 9 28 10c14 1 37 4 47 7
c11 3 25 8 33 8s12 -3 10 -10l-147 -555c-4 -17 -10 -42 -10 -58s17 -28 37 -28h27c6 0 9 -3 8 -10l-3 -18c-1 -6 -3 -9 -12 -9c-12 0 -52 3 -120 3c-70 0 -101 -3 -117 -3c-9 0 -11 4 -10 10l4 19c1 4 3 8 8 8h19c38 0 64 7 84 82zM320 336h163l77 264c4 14 -14 16 -22 7z
M612 792l-119 -62c-3 -1 -5 -1 -7 2l-7 11c-2 2 0 4 2 6l139 120c4 3 10 3 13 -2l71 -120c2 -3 1 -6 -2 -8l-10 -9c-4 -3 -7 -1 -11 2z" />
    <glyph glyph-name="Adieresis" unicode="&#xc4;" horiz-adv-x="619" 
d="M472 301h-178l-140 -176c-21 -27 -41 -53 -41 -67c0 -15 13 -24 35 -24h36c5 0 9 -2 7 -10l-4 -19c-1 -5 -3 -8 -10 -8c-10 0 -53 3 -131 3c-66 0 -101 -3 -112 -3c-5 0 -10 2 -9 7l5 22c1 6 3 8 7 8h15c43 0 85 30 121 73l463 553c5 7 9 9 28 10c14 1 37 4 47 7
c11 3 25 8 33 8s12 -3 10 -10l-147 -555c-4 -17 -10 -42 -10 -58s17 -28 37 -28h27c6 0 9 -3 8 -10l-3 -18c-1 -6 -3 -9 -12 -9c-12 0 -52 3 -120 3c-70 0 -101 -3 -117 -3c-9 0 -11 4 -10 10l4 19c1 4 3 8 8 8h19c38 0 64 7 84 82zM320 336h163l77 264c4 14 -14 16 -22 7z
M515 748c-20 0 -50 8 -50 47c0 14 9 42 50 42c24 0 45 -16 45 -45c0 -27 -20 -44 -45 -44zM693 748c-20 0 -50 8 -50 47c0 14 9 42 50 42c24 0 45 -16 45 -45c0 -27 -20 -44 -45 -44z" />
    <glyph glyph-name="Agrave" unicode="&#xc0;" horiz-adv-x="619" 
d="M472 301h-178l-140 -176c-21 -27 -41 -53 -41 -67c0 -15 13 -24 35 -24h36c5 0 9 -2 7 -10l-4 -19c-1 -5 -3 -8 -10 -8c-10 0 -53 3 -131 3c-66 0 -101 -3 -112 -3c-5 0 -10 2 -9 7l5 22c1 6 3 8 7 8h15c43 0 85 30 121 73l463 553c5 7 9 9 28 10c14 1 37 4 47 7
c11 3 25 8 33 8s12 -3 10 -10l-147 -555c-4 -17 -10 -42 -10 -58s17 -28 37 -28h27c6 0 9 -3 8 -10l-3 -18c-1 -6 -3 -9 -12 -9c-12 0 -52 3 -120 3c-70 0 -101 -3 -117 -3c-9 0 -11 4 -10 10l4 19c1 4 3 8 8 8h19c38 0 64 7 84 82zM320 336h163l77 264c4 14 -14 16 -22 7z
M638 737l-7 -10c-1 -1 -3 -2 -7 0l-156 81c-43 22 -15 70 13 70c12 0 28 -12 38 -22l117 -111c3 -2 4 -5 2 -8z" />
    <glyph glyph-name="Aring" unicode="&#xc5;" horiz-adv-x="619" 
d="M472 301h-178l-140 -176c-21 -27 -41 -53 -41 -67c0 -15 13 -24 35 -24h36c5 0 9 -2 7 -10l-4 -19c-1 -5 -3 -8 -10 -8c-10 0 -53 3 -131 3c-66 0 -101 -3 -112 -3c-5 0 -10 2 -9 7l5 22c1 6 3 8 7 8h15c43 0 85 30 121 73l463 553c5 7 9 9 21 9c21 0 44 3 54 5
c20 3 25 6 33 6c7 0 12 -4 9 -15l-146 -545c-4 -17 -10 -42 -10 -58s17 -28 37 -28h27c6 0 9 -3 8 -10l-3 -18c-1 -6 -3 -9 -12 -9c-12 0 -52 3 -120 3c-70 0 -101 -3 -117 -3c-9 0 -11 4 -10 10l4 19c1 4 3 8 8 8h19c38 0 64 7 84 82zM320 336h163l77 264
c4 14 -14 16 -22 7zM605 728c-54 0 -100 27 -100 69c0 56 55 84 107 84s100 -24 100 -80c0 -44 -50 -73 -107 -73zM609 753c23 0 50 15 50 52c0 39 -33 51 -52 51c-23 0 -49 -19 -49 -52c0 -36 26 -51 51 -51z" />
    <glyph glyph-name="Atilde" unicode="&#xc3;" horiz-adv-x="619" 
d="M472 301h-178l-140 -176c-21 -27 -41 -53 -41 -67c0 -15 13 -24 35 -24h36c5 0 9 -2 7 -10l-4 -19c-1 -5 -3 -8 -10 -8c-10 0 -53 3 -131 3c-66 0 -101 -3 -112 -3c-5 0 -10 2 -9 7l5 22c1 6 3 8 7 8h15c43 0 85 30 121 73l463 553c5 7 9 9 28 10c14 1 37 4 47 7
c11 3 25 8 33 8s12 -3 10 -10l-147 -555c-4 -17 -10 -42 -10 -58s17 -28 37 -28h27c6 0 9 -3 8 -10l-3 -18c-1 -6 -3 -9 -12 -9c-12 0 -52 3 -120 3c-70 0 -101 -3 -117 -3c-9 0 -11 4 -10 10l4 19c1 4 3 8 8 8h19c38 0 64 7 84 82zM320 336h163l77 264c4 14 -14 16 -22 7z
M482 747l-13 8c-2 2 -2 4 0 10c17 42 54 77 83 77s48 -6 75 -12c21 -4 41 -4 56 -4c27 0 43 18 51 32c2 4 5 6 8 4l15 -8c4 -2 3 -6 -3 -17c-19 -34 -48 -66 -82 -66c-19 0 -43 3 -66 8c-28 7 -50 8 -65 8c-17 0 -40 -19 -51 -37c-2 -3 -5 -5 -8 -3z" />
    <glyph glyph-name="Ccedilla" unicode="&#xc7;" horiz-adv-x="652" 
d="M616 197l-71 -214c-2 -5 -5 -6 -9 -5l-18 5c-3 1 -5 3 -4 6c2 7 4 12 4 22c0 8 -7 16 -16 16s-26 -6 -44 -14c-22 -11 -90 -28 -138 -28c-12 0 -23 1 -34 3l-33 -51c32 -12 49 -32 49 -62c0 -51 -79 -97 -138 -97c-13 0 -19 5 -19 15c0 9 4 16 12 16c20 1 84 12 84 59
c0 19 -26 35 -48 42l59 85c-100 25 -172 108 -172 228c0 114 53 247 145 347c65 71 155 115 241 115c48 0 84 -10 132 -43c13 -9 31 -28 50 -28c12 0 20 8 26 31c2 6 5 8 9 6l13 -3c6 -1 8 -4 6 -10l-53 -207c-2 -6 -4 -8 -11 -6l-14 2c-5 1 -7 3 -6 10
c21 98 -30 212 -145 212c-81 0 -135 -40 -192 -122c-75 -110 -99 -234 -99 -314c0 -143 95 -187 153 -187c84 0 188 29 249 177c4 9 5 10 10 8l17 -5c6 -2 6 -4 5 -9z" />
    <glyph glyph-name="Eacute" unicode="&#xc9;" horiz-adv-x="669" 
d="M117 90l152 475c18 56 -21 71 -55 71h-32c-6 0 -8 3 -6 11l5 19c2 6 5 7 12 7c6 0 17 -1 38 -1c21 -1 52 -2 100 -2h64c76 0 133 1 174 2c41 0 66 1 77 1c15 0 17 -3 21 -19l32 -137c1 -5 0 -6 -6 -9l-11 -4c-5 -2 -6 -2 -10 3l-94 121c-4 6 -9 8 -16 8h-182l-86 -263h96
c58 0 91 2 119 84c1 4 3 6 7 5l15 -3c4 -1 7 -3 6 -8l-54 -199c-1 -6 -3 -7 -7 -6l-16 2c-5 1 -5 2 -4 8c7 83 -33 85 -112 85h-60l-97 -307h259c36 0 60 16 80 42l80 101c3 4 7 6 12 2l10 -6c4 -3 6 -5 3 -14l-51 -145c-5 -15 -10 -17 -22 -17c-8 0 -52 1 -111 2
c-59 0 -133 1 -202 1h-116c-46 0 -75 -1 -94 -1c-18 -1 -26 -2 -30 -2c-7 0 -10 2 -8 8l3 21c2 6 3 8 8 8h37c41 0 61 21 72 56zM456 729l-6 10c-2 4 0 7 3 10l143 111c11 8 22 12 34 12c33 0 46 -57 8 -73l-174 -71c-4 -2 -7 -1 -8 1z" />
    <glyph glyph-name="Ecircumflex" unicode="&#xca;" horiz-adv-x="669" 
d="M117 90l152 475c18 56 -21 71 -55 71h-32c-6 0 -8 3 -6 11l5 19c2 6 5 7 12 7c6 0 17 -1 38 -1c21 -1 52 -2 100 -2h64c76 0 133 1 174 2c41 0 66 1 77 1c15 0 17 -3 21 -19l32 -137c1 -5 0 -6 -6 -9l-11 -4c-5 -2 -6 -2 -10 3l-94 121c-4 6 -9 8 -16 8h-182l-86 -263h96
c58 0 91 2 119 84c1 4 3 6 7 5l15 -3c4 -1 7 -3 6 -8l-54 -199c-1 -6 -3 -7 -7 -6l-16 2c-5 1 -5 2 -4 8c7 83 -33 85 -112 85h-60l-97 -307h259c36 0 60 16 80 42l80 101c3 4 7 6 12 2l10 -6c4 -3 6 -5 3 -14l-51 -145c-5 -15 -10 -17 -22 -17c-8 0 -52 1 -111 2
c-59 0 -133 1 -202 1h-116c-46 0 -75 -1 -94 -1c-18 -1 -26 -2 -30 -2c-7 0 -10 2 -8 8l3 21c2 6 3 8 8 8h37c41 0 61 21 72 56zM487 792l-119 -62c-3 -1 -5 -1 -7 2l-7 11c-2 2 0 4 2 6l139 120c4 3 10 3 13 -2l71 -120c2 -3 1 -6 -2 -8l-10 -9c-4 -3 -7 -1 -11 2z" />
    <glyph glyph-name="Edieresis" unicode="&#xcb;" horiz-adv-x="669" 
d="M117 90l152 475c18 56 -21 71 -55 71h-32c-6 0 -8 3 -6 11l5 19c2 6 5 7 12 7c6 0 17 -1 38 -1c21 -1 52 -2 100 -2h64c76 0 133 1 174 2c41 0 66 1 77 1c15 0 17 -3 21 -19l32 -137c1 -5 0 -6 -6 -9l-11 -4c-5 -2 -6 -2 -10 3l-94 121c-4 6 -9 8 -16 8h-182l-86 -263h96
c58 0 91 2 119 84c1 4 3 6 7 5l15 -3c4 -1 7 -3 6 -8l-54 -199c-1 -6 -3 -7 -7 -6l-16 2c-5 1 -5 2 -4 8c7 83 -33 85 -112 85h-60l-97 -307h259c36 0 60 16 80 42l80 101c3 4 7 6 12 2l10 -6c4 -3 6 -5 3 -14l-51 -145c-5 -15 -10 -17 -22 -17c-8 0 -52 1 -111 2
c-59 0 -133 1 -202 1h-116c-46 0 -75 -1 -94 -1c-18 -1 -26 -2 -30 -2c-7 0 -10 2 -8 8l3 21c2 6 3 8 8 8h37c41 0 61 21 72 56zM390 748c-20 0 -50 8 -50 47c0 14 9 42 50 42c24 0 45 -16 45 -45c0 -27 -20 -44 -45 -44zM568 748c-20 0 -50 8 -50 47c0 14 9 42 50 42
c24 0 45 -16 45 -45c0 -27 -20 -44 -45 -44z" />
    <glyph glyph-name="Egrave" unicode="&#xc8;" horiz-adv-x="669" 
d="M117 90l152 475c18 56 -21 71 -55 71h-32c-6 0 -8 3 -6 11l5 19c2 6 5 7 12 7c6 0 17 -1 38 -1c21 -1 52 -2 100 -2h64c76 0 133 1 174 2c41 0 66 1 77 1c15 0 17 -3 21 -19l32 -137c1 -5 0 -6 -6 -9l-11 -4c-5 -2 -6 -2 -10 3l-94 121c-4 6 -9 8 -16 8h-182l-86 -263h96
c58 0 91 2 119 84c1 4 3 6 7 5l15 -3c4 -1 7 -3 6 -8l-54 -199c-1 -6 -3 -7 -7 -6l-16 2c-5 1 -5 2 -4 8c7 83 -33 85 -112 85h-60l-97 -307h259c36 0 60 16 80 42l80 101c3 4 7 6 12 2l10 -6c4 -3 6 -5 3 -14l-51 -145c-5 -15 -10 -17 -22 -17c-8 0 -52 1 -111 2
c-59 0 -133 1 -202 1h-116c-46 0 -75 -1 -94 -1c-18 -1 -26 -2 -30 -2c-7 0 -10 2 -8 8l3 21c2 6 3 8 8 8h37c41 0 61 21 72 56zM533 737l-7 -10c-1 -1 -3 -2 -7 0l-156 81c-43 22 -15 70 13 70c12 0 28 -12 38 -22l117 -111c3 -2 4 -5 2 -8z" />
    <glyph glyph-name="Iacute" unicode="&#xcd;" horiz-adv-x="359" 
d="M130 108l125 462c13 49 -1 66 -36 66h-46c-8 0 -10 2 -9 8l5 23c1 4 4 6 13 6c12 0 65 -3 135 -3c82 0 125 3 139 3c10 0 13 -4 11 -10l-5 -19c-1 -5 -3 -8 -11 -8h-19c-61 0 -76 -10 -93 -71l-125 -463c-13 -48 1 -68 53 -68h35c6 0 7 -4 6 -10l-3 -19
c-1 -6 -2 -8 -12 -8c-11 0 -58 3 -145 3c-81 0 -137 -3 -148 -3c-7 0 -9 3 -8 8l4 19c2 8 3 10 9 10h43c59 0 67 20 82 74zM321 729l-6 10c-2 4 0 7 3 10l143 111c11 8 22 12 34 12c33 0 46 -57 8 -73l-174 -71c-4 -2 -7 -1 -8 1z" />
    <glyph glyph-name="Icircumflex" unicode="&#xce;" horiz-adv-x="359" 
d="M130 108l125 462c13 49 -1 66 -36 66h-46c-8 0 -10 2 -9 8l5 23c1 4 4 6 13 6c12 0 65 -3 135 -3c82 0 125 3 139 3c10 0 13 -4 11 -10l-5 -19c-1 -5 -3 -8 -11 -8h-19c-61 0 -76 -10 -93 -71l-125 -463c-13 -48 1 -68 53 -68h35c6 0 7 -4 6 -10l-3 -19
c-1 -6 -2 -8 -12 -8c-11 0 -58 3 -145 3c-81 0 -137 -3 -148 -3c-7 0 -9 3 -8 8l4 19c2 8 3 10 9 10h43c59 0 67 20 82 74zM352 792l-119 -62c-3 -1 -5 -1 -7 2l-7 11c-2 2 0 4 2 6l139 120c4 3 10 3 13 -2l71 -120c2 -3 1 -6 -2 -8l-10 -9c-4 -3 -7 -1 -11 2z" />
    <glyph glyph-name="Idieresis" unicode="&#xcf;" horiz-adv-x="359" 
d="M130 108l125 462c13 49 -1 66 -36 66h-46c-8 0 -10 2 -9 8l5 23c1 4 4 6 13 6c12 0 65 -3 135 -3c82 0 125 3 139 3c10 0 13 -4 11 -10l-5 -19c-1 -5 -3 -8 -11 -8h-19c-61 0 -76 -10 -93 -71l-125 -463c-13 -48 1 -68 53 -68h35c6 0 7 -4 6 -10l-3 -19
c-1 -6 -2 -8 -12 -8c-11 0 -58 3 -145 3c-81 0 -137 -3 -148 -3c-7 0 -9 3 -8 8l4 19c2 8 3 10 9 10h43c59 0 67 20 82 74zM255 748c-20 0 -50 8 -50 47c0 14 9 42 50 42c24 0 45 -16 45 -45c0 -27 -20 -44 -45 -44zM433 748c-20 0 -50 8 -50 47c0 14 9 42 50 42
c24 0 45 -16 45 -45c0 -27 -20 -44 -45 -44z" />
    <glyph glyph-name="Igrave" unicode="&#xcc;" horiz-adv-x="359" 
d="M130 108l125 462c13 49 -1 66 -36 66h-46c-8 0 -10 2 -9 8l5 23c1 4 4 6 13 6c12 0 65 -3 135 -3c82 0 125 3 139 3c10 0 13 -4 11 -10l-5 -19c-1 -5 -3 -8 -11 -8h-19c-61 0 -76 -10 -93 -71l-125 -463c-13 -48 1 -68 53 -68h35c6 0 7 -4 6 -10l-3 -19
c-1 -6 -2 -8 -12 -8c-11 0 -58 3 -145 3c-81 0 -137 -3 -148 -3c-7 0 -9 3 -8 8l4 19c2 8 3 10 9 10h43c59 0 67 20 82 74zM378 737l-7 -10c-1 -1 -3 -2 -7 0l-156 81c-43 22 -15 70 13 70c12 0 28 -12 38 -22l117 -111c3 -2 4 -5 2 -8z" />
    <glyph glyph-name="Ntilde" unicode="&#xd1;" horiz-adv-x="746" 
d="M118 137l138 440c10 31 7 59 -58 59h-38c-6 0 -10 4 -8 12l4 15c2 7 3 10 11 10c13 0 53 -3 172 -3c15 0 16 -15 21 -26l215 -480c8 -17 11 -17 25 23l131 391c13 38 0 58 -32 58h-35c-9 0 -12 3 -11 11l3 18c1 5 3 8 10 8c12 0 43 -3 114 -3c52 0 72 3 86 3
c8 0 11 -5 9 -13l-3 -16c-1 -7 -3 -8 -9 -8h-25c-25 0 -38 -7 -55 -55l-194 -555c-11 -33 -29 -32 -41 -6l-238 531c-6 13 -14 13 -18 -1l-128 -423c-18 -60 -11 -93 34 -93h39c7 0 10 -4 9 -10l-3 -19c-2 -6 -3 -8 -12 -8c-10 0 -53 3 -126 3c-69 0 -102 -3 -112 -3
c-6 0 -9 4 -8 11l3 18c1 5 3 8 9 8h27c49 0 70 28 94 103zM421 747l-13 8c-2 2 -2 4 0 10c17 42 54 77 83 77s48 -6 75 -12c21 -4 41 -4 56 -4c27 0 43 18 51 32c2 4 5 6 8 4l15 -8c4 -2 3 -6 -3 -17c-19 -34 -48 -66 -82 -66c-19 0 -43 3 -66 8c-28 7 -50 8 -65 8
c-17 0 -40 -19 -51 -37c-2 -3 -5 -5 -8 -3z" />
    <glyph glyph-name="Oacute" unicode="&#xd3;" horiz-adv-x="709" 
d="M360 -15c-19 0 -106 -3 -174 68c-59 60 -84 138 -84 235c0 205 165 397 350 397c151 0 263 -121 263 -300c0 -186 -129 -400 -355 -400zM337 24c164 0 300 222 300 426c0 107 -55 191 -166 191c-61 0 -104 -29 -147 -72c-89 -89 -146 -243 -146 -346
c0 -142 85 -199 159 -199zM466 729l-6 10c-2 4 0 7 3 10l143 111c11 8 22 12 34 12c33 0 46 -57 8 -73l-174 -71c-4 -2 -7 -1 -8 1z" />
    <glyph glyph-name="Ocircumflex" unicode="&#xd4;" horiz-adv-x="709" 
d="M360 -15c-19 0 -106 -3 -174 68c-59 60 -84 138 -84 235c0 205 165 397 350 397c151 0 263 -121 263 -300c0 -186 -129 -400 -355 -400zM337 24c164 0 300 222 300 426c0 107 -55 191 -166 191c-61 0 -104 -29 -147 -72c-89 -89 -146 -243 -146 -346
c0 -142 85 -199 159 -199zM477 792l-119 -62c-3 -1 -5 -1 -7 2l-7 11c-2 2 0 4 2 6l139 120c4 3 10 3 13 -2l71 -120c2 -3 1 -6 -2 -8l-10 -9c-4 -3 -7 -1 -11 2z" />
    <glyph glyph-name="Odieresis" unicode="&#xd6;" horiz-adv-x="709" 
d="M360 -15c-19 0 -106 -3 -174 68c-59 60 -84 138 -84 235c0 205 165 397 350 397c151 0 263 -121 263 -300c0 -186 -129 -400 -355 -400zM337 24c164 0 300 222 300 426c0 107 -55 191 -166 191c-61 0 -104 -29 -147 -72c-89 -89 -146 -243 -146 -346
c0 -142 85 -199 159 -199zM390 748c-20 0 -50 8 -50 47c0 14 9 42 50 42c24 0 45 -16 45 -45c0 -27 -20 -44 -45 -44zM568 748c-20 0 -50 8 -50 47c0 14 9 42 50 42c24 0 45 -16 45 -45c0 -27 -20 -44 -45 -44z" />
    <glyph glyph-name="Ograve" unicode="&#xd2;" horiz-adv-x="709" 
d="M360 -15c-19 0 -106 -3 -174 68c-59 60 -84 138 -84 235c0 205 165 397 350 397c151 0 263 -121 263 -300c0 -186 -129 -400 -355 -400zM337 24c164 0 300 222 300 426c0 107 -55 191 -166 191c-61 0 -104 -29 -147 -72c-89 -89 -146 -243 -146 -346
c0 -142 85 -199 159 -199zM523 737l-7 -10c-1 -1 -3 -2 -7 0l-156 81c-43 22 -15 70 13 70c12 0 28 -12 38 -22l117 -111c3 -2 4 -5 2 -8z" />
    <glyph glyph-name="Otilde" unicode="&#xd5;" horiz-adv-x="709" 
d="M360 -15c-19 0 -106 -3 -174 68c-59 60 -84 138 -84 235c0 205 165 397 350 397c151 0 263 -121 263 -300c0 -186 -129 -400 -355 -400zM337 24c164 0 300 222 300 426c0 107 -55 191 -166 191c-61 0 -104 -29 -147 -72c-89 -89 -146 -243 -146 -346
c0 -142 85 -199 159 -199zM357 747l-13 8c-2 2 -2 4 0 10c17 42 54 77 83 77s48 -6 75 -12c21 -4 41 -4 56 -4c27 0 43 18 51 32c2 4 5 6 8 4l15 -8c4 -2 3 -6 -3 -17c-19 -34 -48 -66 -82 -66c-19 0 -43 3 -66 8c-28 7 -50 8 -65 8c-17 0 -40 -19 -51 -37
c-2 -3 -5 -5 -8 -3z" />
    <glyph glyph-name="Scaron" unicode="&#x160;" horiz-adv-x="504" 
d="M57 33l74 218c2 5 5 5 11 4l10 -3c5 -2 9 -4 7 -11c-36 -149 53 -217 115 -217c64 0 116 51 116 118s-49 106 -93 154c-62 68 -111 119 -111 213c0 72 57 176 170 176c55 0 102 -34 118 -45c5 -3 8 -5 14 -5c8 0 12 14 16 35c1 3 3 4 10 3l13 -1c6 -1 8 -3 7 -7l-36 -190
c-1 -4 -3 -6 -8 -6l-14 1c-6 1 -10 3 -9 9c6 40 -7 167 -111 167c-62 0 -99 -55 -99 -109c0 -75 44 -105 90 -152c46 -46 109 -102 109 -207c0 -132 -93 -193 -181 -193c-64 0 -107 36 -147 76c-8 8 -17 7 -23 -2c-6 -8 -14 -23 -21 -38c-2 -4 -4 -6 -10 -3l-13 5
c-5 2 -6 3 -4 10zM404 812l119 62c3 1 5 1 7 -2l7 -11c2 -2 0 -4 -2 -6l-139 -120c-4 -3 -10 -3 -13 2l-71 120c-2 3 -1 6 2 8l10 9c4 3 7 1 11 -2z" />
    <glyph glyph-name="Uacute" unicode="&#xda;" horiz-adv-x="731" 
d="M761 590l-98 -311c-57 -185 -146 -294 -303 -294c-134 0 -233 59 -233 183c0 42 15 104 21 125l85 281c15 45 4 62 -28 62h-36c-5 0 -8 2 -7 8l5 21c1 6 3 8 13 8c12 0 47 -3 119 -3c81 0 115 3 125 3c8 0 10 -3 9 -10l-4 -19c-1 -5 -4 -8 -10 -8h-32
c-24 0 -48 -4 -64 -57l-82 -267c-6 -22 -29 -96 -29 -141c0 -126 123 -141 158 -141c44 0 98 21 130 50c46 41 78 96 112 207l88 288c15 48 -6 61 -37 61h-38c-9 0 -10 3 -9 8l3 19c2 7 4 10 13 10c12 0 50 -3 122 -3c58 0 81 3 91 3c9 0 10 -3 9 -10l-3 -19
c-1 -5 -3 -8 -11 -8h-21c-32 0 -47 -19 -58 -46zM527 729l-6 10c-2 4 0 7 3 10l143 111c11 8 22 12 34 12c33 0 46 -57 8 -73l-174 -71c-4 -2 -7 -1 -8 1z" />
    <glyph glyph-name="Ucircumflex" unicode="&#xdb;" horiz-adv-x="731" 
d="M761 590l-98 -311c-57 -185 -146 -294 -303 -294c-134 0 -233 59 -233 183c0 42 15 104 21 125l85 281c15 45 4 62 -28 62h-36c-5 0 -8 2 -7 8l5 21c1 6 3 8 13 8c12 0 47 -3 119 -3c81 0 115 3 125 3c8 0 10 -3 9 -10l-4 -19c-1 -5 -4 -8 -10 -8h-32
c-24 0 -48 -4 -64 -57l-82 -267c-6 -22 -29 -96 -29 -141c0 -126 123 -141 158 -141c44 0 98 21 130 50c46 41 78 96 112 207l88 288c15 48 -6 61 -37 61h-38c-9 0 -10 3 -9 8l3 19c2 7 4 10 13 10c12 0 50 -3 122 -3c58 0 81 3 91 3c9 0 10 -3 9 -10l-3 -19
c-1 -5 -3 -8 -11 -8h-21c-32 0 -47 -19 -58 -46zM578 792l-119 -62c-3 -1 -5 -1 -7 2l-7 11c-2 2 0 4 2 6l139 120c4 3 10 3 13 -2l71 -120c2 -3 1 -6 -2 -8l-10 -9c-4 -3 -7 -1 -11 2z" />
    <glyph glyph-name="Udieresis" unicode="&#xdc;" horiz-adv-x="731" 
d="M761 590l-98 -311c-57 -185 -146 -294 -303 -294c-134 0 -233 59 -233 183c0 42 15 104 21 125l85 281c15 45 4 62 -28 62h-36c-5 0 -8 2 -7 8l5 21c1 6 3 8 13 8c12 0 47 -3 119 -3c81 0 115 3 125 3c8 0 10 -3 9 -10l-4 -19c-1 -5 -4 -8 -10 -8h-32
c-24 0 -48 -4 -64 -57l-82 -267c-6 -22 -29 -96 -29 -141c0 -126 123 -141 158 -141c44 0 98 21 130 50c46 41 78 96 112 207l88 288c15 48 -6 61 -37 61h-38c-9 0 -10 3 -9 8l3 19c2 7 4 10 13 10c12 0 50 -3 122 -3c58 0 81 3 91 3c9 0 10 -3 9 -10l-3 -19
c-1 -5 -3 -8 -11 -8h-21c-32 0 -47 -19 -58 -46zM481 748c-20 0 -50 8 -50 47c0 14 9 42 50 42c24 0 45 -16 45 -45c0 -27 -20 -44 -45 -44zM659 748c-20 0 -50 8 -50 47c0 14 9 42 50 42c24 0 45 -16 45 -45c0 -27 -20 -44 -45 -44z" />
    <glyph glyph-name="Ugrave" unicode="&#xd9;" horiz-adv-x="731" 
d="M761 590l-98 -311c-57 -185 -146 -294 -303 -294c-134 0 -233 59 -233 183c0 42 15 104 21 125l85 281c15 45 4 62 -28 62h-36c-5 0 -8 2 -7 8l5 21c1 6 3 8 13 8c12 0 47 -3 119 -3c81 0 115 3 125 3c8 0 10 -3 9 -10l-4 -19c-1 -5 -4 -8 -10 -8h-32
c-24 0 -48 -4 -64 -57l-82 -267c-6 -22 -29 -96 -29 -141c0 -126 123 -141 158 -141c44 0 98 21 130 50c46 41 78 96 112 207l88 288c15 48 -6 61 -37 61h-38c-9 0 -10 3 -9 8l3 19c2 7 4 10 13 10c12 0 50 -3 122 -3c58 0 81 3 91 3c9 0 10 -3 9 -10l-3 -19
c-1 -5 -3 -8 -11 -8h-21c-32 0 -47 -19 -58 -46zM564 737l-7 -10c-1 -1 -3 -2 -7 0l-156 81c-43 22 -15 70 13 70c12 0 28 -12 38 -22l117 -111c3 -2 4 -5 2 -8z" />
    <glyph glyph-name="Yacute" unicode="&#xdd;" horiz-adv-x="540" 
d="M217 87l33 148c3 14 -2 45 -5 54l-108 309c-8 23 -26 38 -61 38h-23c-6 0 -8 2 -7 8l4 21c1 7 3 8 10 8c13 0 39 -3 105 -3c76 0 110 3 123 3c7 0 10 -2 9 -8l-2 -21c-1 -6 -3 -8 -9 -8h-26c-38 0 -40 -25 -32 -48l93 -278c4 -13 8 -13 15 -4c22 30 173 245 184 276
c13 38 3 54 -37 54h-20c-6 0 -8 4 -7 10l2 19c1 7 3 8 12 8c14 0 53 -3 110 -3c55 0 85 3 98 3c9 0 11 -3 10 -8l-3 -19c-1 -8 -3 -10 -8 -10h-19c-34 0 -52 -16 -78 -49c-14 -18 -197 -275 -211 -295c-22 -31 -32 -44 -42 -89l-25 -113c-11 -51 6 -56 39 -56h30
c6 0 8 -3 7 -8l-3 -21c-1 -5 -3 -8 -11 -8c-15 0 -47 3 -121 3c-83 0 -114 -3 -125 -3c-6 0 -9 2 -8 8l4 21c0 5 2 8 9 8h29c47 0 58 23 65 53zM392 729l-6 10c-2 4 0 7 3 10l143 111c11 8 22 12 34 12c33 0 46 -57 8 -73l-174 -71c-4 -2 -7 -1 -8 1z" />
    <glyph glyph-name="Ydieresis" unicode="&#x178;" horiz-adv-x="540" 
d="M217 87l33 148c3 14 -2 45 -5 54l-108 309c-8 23 -26 38 -61 38h-23c-6 0 -8 2 -7 8l4 21c1 7 3 8 10 8c13 0 39 -3 105 -3c76 0 110 3 123 3c7 0 10 -2 9 -8l-2 -21c-1 -6 -3 -8 -9 -8h-26c-38 0 -40 -25 -32 -48l93 -278c4 -13 8 -13 15 -4c22 30 173 245 184 276
c13 38 3 54 -37 54h-20c-6 0 -8 4 -7 10l2 19c1 7 3 8 12 8c14 0 53 -3 110 -3c55 0 85 3 98 3c9 0 11 -3 10 -8l-3 -19c-1 -8 -3 -10 -8 -10h-19c-34 0 -52 -16 -78 -49c-14 -18 -197 -275 -211 -295c-22 -31 -32 -44 -42 -89l-25 -113c-11 -51 6 -56 39 -56h30
c6 0 8 -3 7 -8l-3 -21c-1 -5 -3 -8 -11 -8c-15 0 -47 3 -121 3c-83 0 -114 -3 -125 -3c-6 0 -9 2 -8 8l4 21c0 5 2 8 9 8h29c47 0 58 23 65 53zM326 748c-20 0 -50 8 -50 47c0 14 9 42 50 42c24 0 45 -16 45 -45c0 -27 -20 -44 -45 -44zM504 748c-20 0 -50 8 -50 47
c0 14 9 42 50 42c24 0 45 -16 45 -45c0 -27 -20 -44 -45 -44z" />
    <glyph glyph-name="Zcaron" unicode="&#x17d;" horiz-adv-x="677" 
d="M389 0h-316c-18 0 -13 16 -8 22l527 612c-144 0 -269 -3 -305 -7c-48 -5 -82 -45 -95 -74c-3 -5 -6 -6 -9 -5l-14 5c-5 2 -5 4 -4 8l38 114c1 4 5 10 10 10s10 -2 17 -6s116 -9 144 -9h324c17 0 14 -15 8 -22l-523 -611c184 0 264 1 333 14c54 10 79 36 110 88
c3 5 6 5 10 3l14 -7c3 -1 5 -4 3 -10l-47 -131c-2 -5 -5 -6 -9 -6c-6 0 -14 2 -19 4c-18 5 -160 8 -189 8zM480 812l119 62c3 1 5 1 7 -2l7 -11c2 -2 0 -4 -2 -6l-139 -120c-4 -3 -10 -3 -13 2l-71 120c-2 3 -1 6 2 8l10 9c4 3 7 1 11 -2z" />
    <glyph glyph-name="aacute" unicode="&#xe1;" horiz-adv-x="455" 
d="M420 416h35c4 0 5 -5 3 -9c-19 -41 -70 -179 -75 -195c-6 -17 -48 -141 -48 -150s5 -12 11 -12c12 0 63 52 70 61c3 3 6 5 8 2l9 -10c3 -3 4 -5 2 -8c-11 -20 -98 -105 -155 -105c-12 0 -21 4 -21 17c0 15 10 46 48 152l-5 2c-42 -64 -143 -171 -214 -171
c-23 0 -54 19 -54 64c0 146 164 362 286 362c42 0 61 -18 71 -34l19 27c3 4 6 7 10 7zM134 43c50 0 177 162 195 199c14 29 24 54 24 83c0 27 -10 59 -47 59c-92 0 -199 -211 -199 -306c0 -23 10 -35 27 -35zM319 467l-7 10c-2 2 1 5 4 8l126 103c11 10 21 15 35 15
c27 0 43 -46 1 -66l-151 -71c-4 -2 -7 -1 -8 1z" />
    <glyph glyph-name="acircumflex" unicode="&#xe2;" horiz-adv-x="455" 
d="M420 416h35c4 0 5 -5 3 -9c-19 -41 -70 -179 -75 -195c-6 -17 -48 -141 -48 -150s5 -12 11 -12c12 0 63 52 70 61c3 3 6 5 8 2l9 -10c3 -3 4 -5 2 -8c-11 -20 -98 -105 -155 -105c-12 0 -21 4 -21 17c0 15 10 46 48 152l-5 2c-42 -64 -143 -171 -214 -171
c-23 0 -54 19 -54 64c0 146 164 362 286 362c42 0 61 -18 71 -34l19 27c3 4 6 7 10 7zM134 43c50 0 177 162 195 199c14 29 24 54 24 83c0 27 -10 59 -47 59c-92 0 -199 -211 -199 -306c0 -23 10 -35 27 -35zM405 472l-53 66l-100 -65c-2 -1 -5 -2 -7 1l-6 9c-2 2 0 4 3 7
l125 128c4 3 8 2 10 -4l45 -130c2 -3 2 -6 -1 -8l-8 -4c-3 -2 -6 -2 -8 0z" />
    <glyph glyph-name="adieresis" unicode="&#xe4;" horiz-adv-x="455" 
d="M420 416h35c4 0 5 -5 3 -9c-19 -41 -70 -179 -75 -195c-6 -17 -48 -141 -48 -150s5 -12 11 -12c12 0 63 52 70 61c3 3 6 5 8 2l9 -10c3 -3 4 -5 2 -8c-11 -20 -98 -105 -155 -105c-12 0 -21 4 -21 17c0 15 10 46 48 152l-5 2c-42 -64 -143 -171 -214 -171
c-23 0 -54 19 -54 64c0 146 164 362 286 362c42 0 61 -18 71 -34l19 27c3 4 6 7 10 7zM134 43c50 0 177 162 195 199c14 29 24 54 24 83c0 27 -10 59 -47 59c-92 0 -199 -211 -199 -306c0 -23 10 -35 27 -35zM286 550c-18 0 -46 8 -46 43c0 13 9 39 46 39
c22 0 41 -15 41 -42c0 -25 -18 -40 -41 -40zM422 550c-18 0 -46 8 -46 43c0 13 9 39 46 39c22 0 41 -15 41 -42c0 -25 -18 -40 -41 -40z" />
    <glyph glyph-name="agrave" unicode="&#xe0;" horiz-adv-x="455" 
d="M420 416h35c4 0 5 -5 3 -9c-19 -41 -70 -179 -75 -195c-6 -17 -48 -141 -48 -150s5 -12 11 -12c12 0 63 52 70 61c3 3 6 5 8 2l9 -10c3 -3 4 -5 2 -8c-11 -20 -98 -105 -155 -105c-12 0 -21 4 -21 17c0 15 10 46 48 152l-5 2c-42 -64 -143 -171 -214 -171
c-23 0 -54 19 -54 64c0 146 164 362 286 362c42 0 61 -18 71 -34l19 27c3 4 6 7 10 7zM134 43c50 0 177 162 195 199c14 29 24 54 24 83c0 27 -10 59 -47 59c-92 0 -199 -211 -199 -306c0 -23 10 -35 27 -35zM365 475l-7 -8c-2 -3 -6 -3 -9 0l-120 91c-27 21 -10 60 17 60
c17 0 24 -10 35 -24l84 -111c3 -3 3 -5 0 -8z" />
    <glyph glyph-name="aring" unicode="&#xe5;" horiz-adv-x="455" 
d="M420 416h35c4 0 5 -5 3 -9c-19 -41 -70 -179 -75 -195c-6 -17 -48 -141 -48 -150s5 -12 11 -12c12 0 63 52 70 61c3 3 6 5 8 2l9 -10c3 -3 4 -5 2 -8c-11 -20 -98 -105 -155 -105c-12 0 -21 4 -21 17c0 15 10 46 48 152l-5 2c-42 -64 -143 -171 -214 -171
c-23 0 -54 19 -54 64c0 146 164 362 286 362c42 0 61 -18 71 -34l19 27c3 4 6 7 10 7zM134 43c50 0 177 162 195 199c14 29 24 54 24 83c0 27 -10 59 -47 59c-92 0 -199 -211 -199 -306c0 -23 10 -35 27 -35zM343 480c-54 0 -95 27 -95 69c0 51 50 79 102 79s92 -24 92 -75
c0 -44 -42 -73 -99 -73zM347 503c23 0 47 17 47 51c0 38 -30 50 -49 50c-23 0 -49 -16 -49 -52c0 -32 26 -49 51 -49z" />
    <glyph glyph-name="atilde" unicode="&#xe3;" horiz-adv-x="455" 
d="M420 416h35c4 0 5 -5 3 -9c-19 -41 -70 -179 -75 -195c-6 -17 -48 -141 -48 -150s5 -12 11 -12c12 0 63 52 70 61c3 3 6 5 8 2l9 -10c3 -3 4 -5 2 -8c-11 -20 -98 -105 -155 -105c-12 0 -21 4 -21 17c0 15 10 46 48 152l-5 2c-42 -64 -143 -171 -214 -171
c-23 0 -54 19 -54 64c0 146 164 362 286 362c42 0 61 -18 71 -34l19 27c3 4 6 7 10 7zM134 43c50 0 177 162 195 199c14 29 24 54 24 83c0 27 -10 59 -47 59c-92 0 -199 -211 -199 -306c0 -23 10 -35 27 -35zM230 477l-13 8c-2 2 -2 4 1 10c15 37 49 72 83 72
c17 0 31 -4 50 -10c11 -3 23 -6 46 -6c21 0 37 18 45 32c2 4 5 6 8 4l15 -8c4 -2 3 -6 -4 -17c-17 -31 -49 -60 -76 -60c-21 0 -38 5 -57 10c-14 4 -25 6 -39 6c-17 0 -41 -19 -52 -38c-2 -3 -4 -5 -7 -3z" />
    <glyph glyph-name="ccedilla" unicode="&#xe7;" horiz-adv-x="302" 
d="M43 -87l57 80c-29 6 -57 33 -57 89c0 136 111 334 227 334c47 0 57 -38 57 -56c0 -24 -23 -42 -41 -42c-13 0 -22 7 -26 22c-3 11 -15 26 -31 26c-25 0 -51 -24 -73 -69c-27 -58 -43 -144 -43 -175c0 -73 22 -83 40 -83c39 0 77 40 88 54c3 4 6 6 9 4l11 -10
c3 -2 5 -5 1 -11c-13 -19 -68 -74 -125 -84l-42 -59c25 -12 41 -30 41 -58c0 -53 -98 -85 -128 -85c-15 0 -19 8 -19 18c0 11 7 16 18 16c37 0 74 23 74 47c0 16 -14 33 -38 42z" />
    <glyph glyph-name="eacute" unicode="&#xe9;" horiz-adv-x="349" 
d="M137 -10c-65 0 -93 32 -93 98c0 84 55 189 128 261c32 32 86 67 134 67c39 0 57 -29 57 -53c0 -49 -37 -101 -93 -130c-54 -27 -108 -38 -145 -41c-5 -12 -13 -45 -13 -92c0 -45 33 -63 52 -63c49 0 93 37 114 71c2 3 5 5 9 1l11 -9c5 -3 5 -6 1 -9
c-25 -35 -85 -101 -162 -101zM267 372c-64 0 -126 -115 -134 -151c35 -3 166 39 166 113c0 20 -10 38 -32 38zM266 467l-7 10c-2 2 1 5 4 8l126 103c11 10 21 15 35 15c27 0 43 -46 1 -66l-151 -71c-4 -2 -7 -1 -8 1z" />
    <glyph glyph-name="ecircumflex" unicode="&#xea;" horiz-adv-x="349" 
d="M137 -10c-65 0 -93 32 -93 98c0 84 55 189 128 261c32 32 86 67 134 67c39 0 57 -29 57 -53c0 -49 -37 -101 -93 -130c-54 -27 -108 -38 -145 -41c-5 -12 -13 -45 -13 -92c0 -45 33 -63 52 -63c49 0 93 37 114 71c2 3 5 5 9 1l11 -9c5 -3 5 -6 1 -9
c-25 -35 -85 -101 -162 -101zM267 372c-64 0 -126 -115 -134 -151c35 -3 166 39 166 113c0 20 -10 38 -32 38zM372 472l-53 66l-100 -65c-2 -1 -5 -2 -7 1l-6 9c-2 2 0 4 3 7l125 128c4 3 8 2 10 -4l45 -130c2 -3 2 -6 -1 -8l-8 -4c-3 -2 -6 -2 -8 0z" />
    <glyph glyph-name="edieresis" unicode="&#xeb;" horiz-adv-x="349" 
d="M137 -10c-65 0 -93 32 -93 98c0 84 55 189 128 261c32 32 86 67 134 67c39 0 57 -29 57 -53c0 -49 -37 -101 -93 -130c-54 -27 -108 -38 -145 -41c-5 -12 -13 -45 -13 -92c0 -45 33 -63 52 -63c49 0 93 37 114 71c2 3 5 5 9 1l11 -9c5 -3 5 -6 1 -9
c-25 -35 -85 -101 -162 -101zM267 372c-64 0 -126 -115 -134 -151c35 -3 166 39 166 113c0 20 -10 38 -32 38zM253 550c-18 0 -46 8 -46 43c0 13 9 39 46 39c22 0 41 -15 41 -42c0 -25 -18 -40 -41 -40zM389 550c-18 0 -46 8 -46 43c0 13 9 39 46 39c22 0 41 -15 41 -42
c0 -25 -18 -40 -41 -40z" />
    <glyph glyph-name="egrave" unicode="&#xe8;" horiz-adv-x="349" 
d="M137 -10c-65 0 -93 32 -93 98c0 84 55 189 128 261c32 32 86 67 134 67c39 0 57 -29 57 -53c0 -49 -37 -101 -93 -130c-54 -27 -108 -38 -145 -41c-5 -12 -13 -45 -13 -92c0 -45 33 -63 52 -63c49 0 93 37 114 71c2 3 5 5 9 1l11 -9c5 -3 5 -6 1 -9
c-25 -35 -85 -101 -162 -101zM267 372c-64 0 -126 -115 -134 -151c35 -3 166 39 166 113c0 20 -10 38 -32 38zM332 475l-7 -8c-2 -3 -6 -3 -9 0l-120 91c-27 21 -10 60 17 60c17 0 24 -10 35 -24l84 -111c3 -3 3 -5 0 -8z" />
    <glyph glyph-name="iacute" unicode="&#xed;" horiz-adv-x="287" 
d="M92 -10c-10 1 -17 9 -17 25c0 23 18 69 59 181l29 78c10 27 18 47 18 59c0 9 -6 13 -14 13c-17 0 -64 -54 -80 -70c-4 -4 -8 -4 -11 -1l-8 9c-4 3 -6 5 -3 9c4 6 106 126 170 123c12 0 24 -8 24 -25c0 -18 -16 -63 -34 -111l-58 -152c-13 -37 -18 -59 -18 -66
c0 -9 3 -15 11 -17c21 4 75 61 80 70c2 3 6 3 11 -2l8 -7c4 -5 5 -7 2 -12c-6 -8 -86 -104 -169 -104zM215 467l-7 10c-2 2 1 5 4 8l126 103c11 10 21 15 35 15c27 0 43 -46 1 -66l-151 -71c-4 -2 -7 -1 -8 1z" />
    <glyph glyph-name="icircumflex" unicode="&#xee;" horiz-adv-x="287" 
d="M92 -10c-10 1 -17 9 -17 25c0 23 18 69 59 181l29 78c10 27 18 47 18 59c0 9 -6 13 -14 13c-17 0 -64 -54 -80 -70c-4 -4 -8 -4 -11 -1l-8 9c-4 3 -6 5 -3 9c4 6 106 126 170 123c12 0 24 -8 24 -25c0 -18 -16 -63 -34 -111l-58 -152c-13 -37 -18 -59 -18 -66
c0 -9 3 -15 11 -17c21 4 75 61 80 70c2 3 6 3 11 -2l8 -7c4 -5 5 -7 2 -12c-6 -8 -86 -104 -169 -104zM311 472l-53 66l-100 -65c-2 -1 -5 -2 -7 1l-6 9c-2 2 0 4 3 7l125 128c4 3 8 2 10 -4l45 -130c2 -3 2 -6 -1 -8l-8 -4c-3 -2 -6 -2 -8 0z" />
    <glyph glyph-name="idieresis" unicode="&#xef;" horiz-adv-x="287" 
d="M92 -10c-10 1 -17 9 -17 25c0 23 17 69 59 181l29 78c10 27 18 47 18 59c0 9 -6 13 -14 13c-17 0 -64 -54 -80 -70c-4 -4 -8 -4 -11 -1l-8 9c-4 3 -6 5 -3 9c4 6 106 126 170 123c12 0 24 -8 24 -25c0 -18 -16 -63 -34 -111l-58 -152c-14 -37 -18 -59 -18 -66
c0 -9 3 -15 11 -17c21 4 75 61 80 70c2 3 6 3 11 -2l8 -7c4 -5 5 -7 2 -12c-6 -8 -86 -104 -169 -104zM192 550c-18 0 -46 8 -46 43c0 13 9 39 46 39c22 0 41 -15 41 -42c0 -25 -18 -40 -41 -40zM328 550c-18 0 -46 8 -46 43c0 13 9 39 46 39c22 0 41 -15 41 -42
c0 -25 -18 -40 -41 -40z" />
    <glyph glyph-name="igrave" unicode="&#xec;" horiz-adv-x="287" 
d="M92 -10c-10 1 -17 9 -17 25c0 23 18 69 59 181l29 78c10 27 18 47 18 59c0 9 -6 13 -14 13c-17 0 -64 -54 -80 -70c-4 -4 -8 -4 -11 -1l-8 9c-4 3 -6 5 -3 9c4 6 106 126 170 123c12 0 24 -8 24 -25c0 -18 -16 -63 -34 -111l-58 -152c-13 -37 -18 -59 -18 -66
c0 -9 3 -15 11 -17c21 4 75 61 80 70c2 3 6 3 11 -2l8 -7c4 -5 5 -7 2 -12c-6 -8 -86 -104 -169 -104zM261 475l-7 -8c-2 -3 -6 -3 -9 0l-120 91c-27 21 -10 60 17 60c17 0 24 -10 35 -24l84 -111c3 -3 3 -5 0 -8z" />
    <glyph glyph-name="ntilde" unicode="&#xf1;" horiz-adv-x="519" 
d="M111 0h-39c-11 0 -13 2 -11 9l71 185c24 62 52 134 52 151c0 10 -4 17 -15 17c-19 0 -67 -48 -84 -67c-3 -3 -6 -3 -10 1l-9 9c-4 4 -5 6 -2 10c15 18 89 101 161 101c23 0 32 -17 32 -30c0 -31 -43 -126 -51 -149l4 -2c30 48 139 181 228 181c30 0 50 -15 50 -41
c0 -44 -23 -96 -56 -177c-27 -66 -51 -122 -51 -138c0 -6 4 -13 12 -13c15 0 59 37 72 51c4 3 8 2 11 -2l7 -8c4 -4 5 -6 1 -11c-12 -16 -93 -87 -160 -87c-13 0 -24 5 -24 20c0 19 36 98 67 184c14 39 50 122 50 144c0 14 -7 23 -25 23c-39 0 -138 -92 -182 -163
c-18 -29 -34 -55 -60 -125l-25 -67c-2 -4 -4 -6 -14 -6zM272 477l-13 8c-2 2 -2 4 1 10c15 37 49 72 83 72c17 0 31 -4 50 -10c11 -3 23 -6 46 -6c21 0 37 18 45 32c2 4 5 6 8 4l15 -8c4 -2 3 -6 -4 -17c-17 -31 -49 -60 -76 -60c-21 0 -38 5 -57 10c-14 4 -25 6 -39 6
c-17 0 -41 -19 -52 -38c-2 -3 -4 -5 -7 -3z" />
    <glyph glyph-name="oacute" unicode="&#xf3;" horiz-adv-x="397" 
d="M155 -10c-55 0 -103 53 -103 129c0 126 95 297 228 297c67 0 107 -49 107 -117c0 -110 -87 -309 -232 -309zM140 38c104 0 207 210 207 276c1 31 -17 56 -50 56c-42 0 -95 -38 -145 -119c-34 -54 -58 -115 -58 -162c0 -32 22 -51 46 -51zM270 467l-7 10c-2 2 1 5 4 8
l126 103c11 10 21 15 35 15c27 0 43 -46 1 -66l-151 -71c-4 -2 -7 -1 -8 1z" />
    <glyph glyph-name="ocircumflex" unicode="&#xf4;" horiz-adv-x="397" 
d="M155 -10c-55 0 -103 53 -103 129c0 126 95 297 228 297c67 0 107 -49 107 -117c0 -110 -87 -309 -232 -309zM140 38c104 0 207 210 207 276c1 31 -17 56 -50 56c-42 0 -95 -38 -145 -119c-34 -54 -58 -115 -58 -162c0 -32 22 -51 46 -51zM366 472l-53 66l-100 -65
c-2 -1 -5 -2 -7 1l-6 9c-2 2 0 4 3 7l125 128c4 3 8 2 10 -4l45 -130c2 -3 2 -6 -1 -8l-8 -4c-3 -2 -6 -2 -8 0z" />
    <glyph glyph-name="odieresis" unicode="&#xf6;" horiz-adv-x="397" 
d="M155 -10c-55 0 -103 53 -103 129c0 126 95 297 228 297c67 0 107 -49 107 -117c0 -110 -87 -309 -232 -309zM140 38c104 0 206 210 207 276c0 31 -17 56 -50 56c-42 0 -95 -38 -145 -119c-34 -54 -58 -115 -58 -162c0 -32 22 -51 46 -51zM257 550c-18 0 -46 8 -46 43
c0 13 9 39 46 39c22 0 41 -15 41 -42c0 -25 -18 -40 -41 -40zM393 550c-18 0 -46 8 -46 43c0 13 9 39 46 39c22 0 41 -15 41 -42c0 -25 -18 -40 -41 -40z" />
    <glyph glyph-name="ograve" unicode="&#xf2;" horiz-adv-x="397" 
d="M155 -10c-55 0 -103 53 -103 129c0 126 95 297 228 297c67 0 107 -49 107 -117c0 -110 -87 -309 -232 -309zM140 38c104 0 207 210 207 276c1 31 -17 56 -50 56c-42 0 -95 -38 -145 -119c-34 -54 -58 -115 -58 -162c0 -32 22 -51 46 -51zM326 475l-7 -8c-2 -3 -6 -3 -9 0
l-120 91c-27 21 -10 60 17 60c17 0 24 -10 35 -24l84 -111c3 -3 3 -5 0 -8z" />
    <glyph glyph-name="otilde" unicode="&#xf5;" horiz-adv-x="397" 
d="M155 -10c-55 0 -103 53 -103 129c0 126 95 297 228 297c67 0 107 -49 107 -117c0 -110 -87 -309 -232 -309zM140 38c104 0 207 210 207 276c1 31 -17 56 -50 56c-42 0 -95 -38 -145 -119c-34 -54 -58 -115 -58 -162c0 -32 22 -51 46 -51zM181 477l-13 8c-2 2 -2 4 1 10
c15 37 49 72 83 72c17 0 31 -4 50 -10c11 -3 23 -6 46 -6c21 0 37 18 45 32c2 4 5 6 8 4l15 -8c4 -2 3 -6 -4 -17c-17 -31 -49 -60 -76 -60c-21 0 -38 5 -57 10c-14 4 -25 6 -39 6c-17 0 -41 -19 -52 -38c-2 -3 -4 -5 -7 -3z" />
    <glyph glyph-name="scaron" unicode="&#x161;" horiz-adv-x="294" 
d="M106 -10c-58 0 -94 23 -94 56c0 14 13 33 34 33c22 0 35 -15 41 -32s11 -28 36 -28c29 0 56 26 56 61c0 43 -30 84 -43 116c-7 17 -30 52 -29 98c0 58 55 122 126 122c30 0 71 -12 71 -51c0 -18 -16 -32 -31 -32c-12 0 -27 7 -34 24c-5 12 -6 28 -26 28s-49 -27 -49 -63
c0 -37 30 -79 36 -93c6 -12 38 -61 38 -114c0 -78 -63 -125 -132 -125zM248 552l100 65c2 1 5 2 7 -1l6 -9c2 -2 0 -4 -3 -7l-125 -128c-4 -3 -8 -2 -10 4l-45 130c-2 3 -2 6 1 8l8 4c3 2 6 2 8 0z" />
    <glyph glyph-name="uacute" unicode="&#xfa;" horiz-adv-x="484" 
d="M434 406h41c9 0 11 -3 9 -9l-77 -208c-29 -78 -42 -124 -42 -130c0 -9 1 -9 8 -12c15 0 70 50 78 62c2 3 6 4 9 0l10 -10c3 -3 3 -5 0 -9s-96 -100 -165 -100c-14 0 -19 11 -19 23s51 137 64 171l-6 3c-42 -61 -148 -197 -247 -197c-20 0 -36 17 -37 41
c1 32 32 94 71 187c26 62 49 109 49 127c0 9 -7 14 -16 14c-18 0 -68 -45 -78 -57c-3 -3 -6 -3 -9 0l-9 9c-3 2 -3 5 1 9c7 9 90 96 154 96c20 0 29 -20 29 -36c0 -25 -24 -84 -65 -173c-27 -59 -53 -123 -53 -145c0 -11 7 -17 17 -17c53 0 159 131 188 173
c19 28 35 55 46 85l35 96c2 6 7 7 14 7zM334 467l-7 10c-2 2 1 5 4 8l126 103c11 10 21 15 35 15c27 0 43 -46 1 -66l-151 -71c-4 -2 -7 -1 -8 1z" />
    <glyph glyph-name="ucircumflex" unicode="&#xfb;" horiz-adv-x="484" 
d="M434 406h41c9 0 11 -3 9 -9l-77 -208c-29 -78 -42 -124 -42 -130c0 -9 1 -9 8 -12c15 0 70 50 78 62c2 3 6 4 9 0l10 -10c3 -3 3 -5 0 -9s-96 -100 -165 -100c-14 0 -19 11 -19 23s51 137 64 171l-6 3c-42 -61 -148 -197 -247 -197c-20 0 -36 17 -37 41
c1 32 32 94 71 187c26 62 49 109 49 127c0 9 -7 14 -16 14c-18 0 -68 -45 -78 -57c-3 -3 -6 -3 -9 0l-9 9c-3 2 -3 5 1 9c7 9 90 96 154 96c20 0 29 -20 29 -36c0 -25 -24 -84 -65 -173c-27 -59 -53 -123 -53 -145c0 -11 7 -17 17 -17c53 0 159 131 188 173
c19 28 35 55 46 85l35 96c2 6 7 7 14 7zM420 472l-53 66l-100 -65c-2 -1 -5 -2 -7 1l-6 9c-2 2 0 4 3 7l125 128c4 3 8 2 10 -4l45 -130c2 -3 2 -6 -1 -8l-8 -4c-3 -2 -6 -2 -8 0z" />
    <glyph glyph-name="udieresis" unicode="&#xfc;" horiz-adv-x="484" 
d="M434 406h41c9 0 11 -3 9 -9l-77 -208c-29 -78 -42 -124 -42 -130c0 -9 1 -9 8 -12c15 0 70 50 78 62c2 3 6 4 9 0l10 -10c3 -3 3 -5 0 -9s-96 -100 -165 -100c-14 0 -19 11 -19 23s51 137 64 171l-6 3c-42 -61 -148 -197 -247 -197c-20 0 -37 17 -37 41
c0 32 32 94 71 187c26 62 49 109 49 127c0 9 -7 14 -16 14c-18 0 -68 -45 -78 -57c-3 -3 -6 -3 -9 0l-9 9c-3 2 -3 5 1 9c7 9 90 96 154 96c20 0 29 -20 29 -36c0 -25 -24 -84 -65 -173c-27 -59 -53 -123 -53 -145c0 -11 7 -17 17 -17c53 0 159 131 188 173
c19 28 35 55 46 85l35 96c2 6 7 7 14 7zM301 550c-18 0 -46 8 -46 43c0 13 9 39 46 39c22 0 41 -15 41 -42c0 -25 -18 -40 -41 -40zM437 550c-18 0 -46 8 -46 43c0 13 9 39 46 39c22 0 41 -15 41 -42c0 -25 -18 -40 -41 -40z" />
    <glyph glyph-name="ugrave" unicode="&#xf9;" horiz-adv-x="484" 
d="M434 406h41c9 0 11 -3 9 -9l-77 -208c-29 -78 -42 -124 -42 -130c0 -9 1 -9 8 -12c15 0 70 50 78 62c2 3 6 4 9 0l10 -10c3 -3 3 -5 0 -9s-96 -100 -165 -100c-14 0 -19 11 -19 23s51 137 64 171l-6 3c-42 -61 -148 -197 -247 -197c-20 0 -36 17 -37 41
c1 32 32 94 71 187c26 62 49 109 49 127c0 9 -7 14 -16 14c-18 0 -68 -45 -78 -57c-3 -3 -6 -3 -9 0l-9 9c-3 2 -3 5 1 9c7 9 90 96 154 96c20 0 29 -20 29 -36c0 -25 -24 -84 -65 -173c-27 -59 -53 -123 -53 -145c0 -11 7 -17 17 -17c53 0 159 131 188 173
c19 28 35 55 46 85l35 96c2 6 7 7 14 7zM370 475l-7 -8c-2 -3 -6 -3 -9 0l-120 91c-27 21 -10 60 17 60c17 0 24 -10 35 -24l84 -111c3 -3 3 -5 0 -8z" />
    <glyph glyph-name="yacute" unicode="&#xfd;" horiz-adv-x="409" 
d="M59 266l-14 6c-2 1 -3 4 -1 9c6 12 59 135 120 135c31 0 42 -25 50 -113c10 -114 17 -231 19 -296l4 1c28 45 88 164 102 212c5 17 15 44 15 87c0 11 -2 29 -5 37c-4 9 -11 23 -11 36c0 16 9 36 41 36c27 0 40 -25 40 -50c0 -65 -38 -149 -67 -212
c-44 -96 -149 -275 -236 -360c-27 -28 -93 -91 -152 -91c-39 0 -56 24 -56 47c0 25 22 40 40 41c17 1 26 -7 37 -16c7 -6 17 -12 25 -12c10 0 27 6 47 21c55 41 94 99 110 135c8 19 9 41 8 56c-2 23 -21 295 -32 347c-4 19 -9 28 -17 28c-18 0 -50 -59 -58 -81
c-2 -4 -6 -4 -9 -3zM286 467l-7 10c-2 2 1 5 4 8l126 103c11 10 21 15 35 15c27 0 43 -46 1 -66l-151 -71c-4 -2 -7 -1 -8 1z" />
    <glyph glyph-name="ydieresis" unicode="&#xff;" horiz-adv-x="409" 
d="M59 266l-14 6c-2 1 -3 4 -1 9c6 12 59 135 120 135c31 0 42 -25 50 -113c10 -114 17 -231 19 -296l4 1c28 45 88 164 102 212c5 17 15 44 15 87c0 11 -2 29 -5 37c-4 9 -11 23 -11 36c0 16 9 36 41 36c27 0 40 -25 40 -50c0 -65 -38 -149 -67 -212
c-44 -96 -150 -274 -236 -360c-28 -27 -93 -91 -152 -91c-39 0 -56 24 -56 47c0 25 22 40 40 41c17 1 26 -7 37 -16c7 -6 17 -12 25 -12c10 0 27 6 47 21c55 41 94 99 110 135c8 19 9 41 8 56c-2 23 -21 295 -32 347c-4 19 -9 28 -17 28c-18 0 -50 -59 -58 -81
c-2 -4 -6 -4 -9 -3zM233 550c-18 0 -46 8 -46 43c0 13 9 39 46 39c22 0 41 -15 41 -42c0 -25 -18 -40 -41 -40zM369 550c-18 0 -46 8 -46 43c0 13 9 39 46 39c22 0 41 -15 41 -42c0 -25 -18 -40 -41 -40z" />
    <glyph glyph-name="zcaron" unicode="&#x17e;" horiz-adv-x="477" 
d="M408 337l-233 -231l3 -5c30 0 57 -13 104 -44c42 -28 63 -45 90 -45c21 0 36 16 36 29c0 7 0 16 -6 28c-9 16 -11 25 -11 32c0 23 17 36 33 36c27 0 41 -20 41 -49c0 -44 -39 -108 -122 -108c-44 0 -90 21 -126 38c-14 6 -50 32 -76 32c-25 0 -32 -11 -40 -36
c-5 -15 -20 -29 -43 -29c-12 0 -21 9 -21 22c0 41 56 79 80 92l209 208l-4 4c-45 -3 -73 18 -90 29c-16 11 -49 46 -79 46c-22 0 -30 -11 -30 -18c0 -8 5 -13 14 -18c7 -5 13 -13 13 -29c0 -18 -13 -35 -33 -35s-44 16 -44 49c0 30 26 81 98 81c43 0 68 -13 117 -36
c21 -10 53 -23 75 -23c21 0 31 17 37 36c6 18 23 46 51 46c13 0 19 -14 19 -24c0 -35 -46 -68 -62 -78zM309 552l100 65c2 1 5 2 7 -1l6 -9c2 -2 0 -4 -3 -7l-125 -128c-4 -3 -8 -2 -10 4l-45 130c-2 3 -2 6 1 8l8 4c3 2 6 2 8 0z" />
    <glyph glyph-name="dollaroldstyle" unicode="&#xf724;" horiz-adv-x="370" 
d="M16 29l46 123c1 3 5 4 8 4l14 -2c5 -1 6 -4 5 -8c-13 -53 12 -97 60 -111l39 149c-67 40 -99 74 -99 121c0 46 42 111 157 98l14 53c1 3 5 4 8 3l22 -5c3 -1 4 -3 3 -7l-14 -50c23 -6 48 -23 55 -23s12 4 15 17c1 3 2 5 5 5h13c4 0 5 -3 4 -6l-15 -106c-1 -3 -3 -5 -7 -5
h-14c-4 0 -6 3 -6 6c0 19 -9 71 -58 84l-36 -136c68 -34 101 -69 101 -120c0 -84 -71 -119 -160 -112l-17 -68c-1 -3 -3 -5 -9 -4l-20 5c-4 1 -5 4 -4 10l16 61c-44 10 -71 38 -80 38s-16 -4 -26 -23c-2 -3 -4 -3 -7 -2l-10 4c-4 2 -4 4 -3 7zM206 251l33 125
c-69 8 -92 -29 -92 -59c0 -23 13 -45 59 -66zM217 166l-35 -137c70 -8 101 31 101 70c0 17 -11 42 -66 67z" />
    <glyph glyph-name="dollarsuperior" unicode="&#xf6e4;" horiz-adv-x="325" 
d="M65 422l39 109c1 3 4 3 6 3l12 -1c4 -1 5 -4 5 -8c-10 -46 9 -84 48 -97l33 130c-55 35 -82 66 -82 106c0 41 43 99 130 89l11 47c1 3 3 4 6 4l22 -5c3 -1 4 -4 3 -8l-11 -43c18 -5 38 -20 44 -20s10 3 13 15c0 2 1 4 4 4h11c3 0 4 -3 3 -5l-12 -94c-1 -3 -3 -5 -6 -5
h-12c-3 0 -5 3 -5 6c-1 17 -9 61 -46 73l-30 -118c54 -30 82 -61 82 -105c0 -73 -62 -107 -133 -103l-15 -59c-1 -3 -3 -5 -7 -4l-17 5c-5 1 -7 4 -6 8l14 55c-35 8 -58 33 -65 33c-8 0 -13 -3 -22 -20c-2 -3 -3 -3 -5 -2l-9 4c-4 2 -4 3 -3 6zM223 620l27 108
c-53 3 -72 -24 -72 -51c0 -19 11 -39 45 -57zM236 542l-30 -119c51 -6 80 28 80 61c3 17 -10 36 -50 58z" />
    <glyph glyph-name="parenleftsuperior" unicode="&#x207d;" horiz-adv-x="200" 
d="M115 513c0 112 88 238 237 319c5 3 10 1 15 -5s5 -12 -3 -16c-123 -72 -196 -198 -196 -308c0 -116 23 -147 30 -160c3 -5 0 -8 -7 -10c-8 -3 -11 -2 -15 2c-24 30 -61 87 -61 178z" />
    <glyph glyph-name="parenrightsuperior" unicode="&#x207e;" horiz-adv-x="200" 
d="M173 661c0 117 -26 148 -33 161c-3 5 0 8 7 10c8 3 11 2 15 -2c25 -30 64 -90 64 -179c0 -115 -84 -237 -231 -318c-5 -3 -10 -1 -15 5s-6 11 2 16c122 72 191 196 191 307z" />
    <glyph glyph-name="twodotenleader" unicode="&#x2025;" 
d="M112 -10c-31 0 -53 23 -53 54c0 20 16 52 52 52c45 0 57 -40 57 -52c0 -26 -23 -54 -56 -54zM362 -10c-31 0 -53 23 -53 54c0 20 16 52 52 52c45 0 57 -40 57 -52c0 -26 -23 -54 -56 -54z" />
    <glyph glyph-name="onedotenleader" unicode="&#x2024;" 
d="M232 -10c-31 0 -53 23 -53 54c0 20 16 52 52 52c45 0 57 -40 57 -52c0 -26 -23 -54 -56 -54z" />
    <glyph glyph-name="zerooldstyle" unicode="&#xf730;" horiz-adv-x="510" 
d="M282 416c127 0 204 -78 204 -190c0 -125 -99 -236 -213 -236c-69 0 -118 19 -156 58c-34 35 -53 78 -53 141c0 96 78 227 218 227zM256 31c124 0 160 116 160 209c0 85 -64 135 -118 135c-34 0 -60 -3 -93 -28c-51 -39 -73 -112 -73 -176c0 -96 69 -140 124 -140z" />
    <glyph glyph-name="oneoldstyle" unicode="&#xf731;" horiz-adv-x="350" 
d="M110 85l95 245c10 26 6 44 -35 44h-27c-4 0 -7 3 -6 9l5 18c2 6 5 8 10 8c11 0 47 -3 113 -3c63 0 96 3 108 3c7 0 9 -3 8 -8l-4 -17c-2 -7 -4 -10 -11 -10h-30c-35 0 -48 -12 -64 -52l-94 -240c-19 -49 2 -50 39 -50h20c4 0 6 -3 5 -8l-5 -19c-2 -6 -5 -8 -10 -8
c-13 0 -46 3 -113 3c-66 0 -102 -3 -109 -3c-5 0 -6 4 -5 8l5 21c1 4 3 6 9 6h22c45 0 53 6 74 53z" />
    <glyph glyph-name="twooldstyle" unicode="&#xf732;" horiz-adv-x="412" 
d="M269 0h-267c-7 0 -11 3 -11 9s2 10 11 14c57 25 308 163 308 269c0 40 -30 75 -82 75c-44 0 -81 -21 -104 -48c-6 -7 -11 -11 -15 -11c-6 0 -16 7 -16 12c0 4 3 9 6 14c20 27 70 82 166 82c53 0 121 -30 121 -107c0 -95 -122 -170 -244 -237c-14 -8 -13 -16 -2 -16l138 3
c20 0 37 10 52 31c5 7 7 8 15 3c7 -5 8 -8 6 -11l-43 -77c-6 -11 -10 -13 -16 -13c-2 0 -4 2 -7 4s-7 4 -16 4z" />
    <glyph glyph-name="threeoldstyle" unicode="&#xf733;" horiz-adv-x="380" 
d="M48 -240c-90 0 -154 53 -154 107c0 11 12 38 35 38c29 0 46 -29 42 -54c-3 -20 -2 -24 7 -33c6 -8 31 -26 73 -26c94 0 163 92 163 186c0 89 -45 131 -86 149c-6 3 -11 6 -11 12s2 9 12 12c77 21 162 85 162 148c0 35 -23 67 -75 67c-48 0 -79 -22 -100 -44
c-8 -9 -13 -14 -18 -14c-3 0 -15 11 -15 15s3 8 10 17c34 43 98 76 158 76c83 0 113 -55 113 -94c0 -78 -96 -144 -158 -172c40 -20 83 -80 83 -151c0 -110 -101 -239 -241 -239z" />
    <glyph glyph-name="fouroldstyle" unicode="&#xf734;" horiz-adv-x="490" 
d="M408 0h-97l-70 -181c-4 -11 -9 -15 -16 -15h-49c-8 0 -9 6 -5 16l76 180h-228c-21 0 -24 15 -8 30l440 397c13 11 17 13 23 13c11 0 14 -11 12 -16l-154 -374h102c6 0 10 -4 6 -13l-12 -30c-3 -7 -9 -7 -20 -7zM108 50h159l104 244c6 15 -6 20 -19 8l-250 -231
c-13 -12 -10 -21 6 -21z" />
    <glyph glyph-name="fiveoldstyle" unicode="&#xf735;" horiz-adv-x="340" 
d="M164 406h159c30 1 38 5 49 19c8 10 10 13 14 13h11c3 0 4 -4 1 -10l-36 -79c-5 -10 -18 -12 -40 -12h-161l-35 -112c34 -18 78 -49 106 -82c35 -41 47 -94 47 -133c0 -145 -103 -251 -221 -251c-71 0 -133 37 -133 86c0 18 11 38 32 38c22 0 32 -24 42 -49
c9 -22 37 -43 76 -43c69 0 137 76 137 176c0 57 -11 89 -35 124c-20 29 -60 60 -95 77c-10 5 -11 11 -7 22l70 207c3 9 7 9 19 9z" />
    <glyph glyph-name="sixoldstyle" unicode="&#xf736;" horiz-adv-x="450" 
d="M204 -10c-69 0 -143 44 -143 156c0 126 63 247 167 352c63 64 139 111 204 142c11 5 20 9 27 9c8 0 12 -12 12 -18c0 -5 -5 -10 -19 -16c-82 -33 -204 -146 -245 -236c-4 -8 3 -9 9 -6c27 15 51 23 85 23c88 0 131 -64 131 -146c0 -100 -89 -260 -228 -260zM205 17
c100 0 157 185 157 250c0 63 -40 97 -81 97c-109 0 -154 -149 -152 -236c1 -78 41 -111 76 -111z" />
    <glyph glyph-name="sevenoldstyle" unicode="&#xf737;" horiz-adv-x="400" 
d="M188 405l236 1c10 0 17 -4 17 -10c0 -5 -2 -11 -8 -18c-6 -8 -80 -141 -92 -160c-132 -214 -222 -393 -256 -449c-11 -19 -23 -36 -48 -36c-15 0 -26 9 -26 27c0 15 7 28 17 42c16 21 252 380 326 503c13 23 11 39 -19 39h-163c-57 0 -80 -51 -98 -77c-3 -5 -8 -6 -16 -4
s-8 6 -4 14l76 156c3 6 6 9 13 9c6 0 7 -8 7 -12c3 -24 26 -25 38 -25z" />
    <glyph glyph-name="eightoldstyle" unicode="&#xf738;" horiz-adv-x="440" 
d="M204 -10c-104 0 -155 73 -155 124c0 98 80 156 191 206c-64 84 -79 104 -78 161c1 68 58 164 173 164c124 0 162 -76 162 -121c0 -110 -89 -163 -174 -201c68 -84 80 -123 79 -160c0 -61 -47 -173 -198 -173zM210 20c64 0 122 41 122 130c0 61 -43 105 -71 145
c-70 -31 -148 -86 -148 -175c0 -67 55 -100 97 -100zM339 612c-96 0 -111 -96 -111 -115c0 -67 16 -79 74 -150c65 37 132 81 132 171c0 43 -42 94 -95 94z" />
    <glyph glyph-name="nineoldstyle" unicode="&#xf739;" horiz-adv-x="457" 
d="M284 416c57 0 95 -26 115 -51c32 -42 35 -94 35 -114c0 -195 -202 -421 -402 -499c-5 -2 -9 -3 -13 -3c-5 0 -9 9 -9 16c0 6 7 8 13 11c85 38 232 188 262 260l-6 4c-18 -13 -51 -27 -83 -27c-106 0 -134 93 -134 147c0 110 93 256 222 256zM286 385
c-100 0 -153 -171 -153 -241c0 -47 19 -102 74 -102c98 0 161 112 161 243c0 57 -34 100 -82 100z" />
    <glyph glyph-name="commasuperior" unicode="&#xf6e2;" horiz-adv-x="150" 
d="M49 278c-4 0 -9 -2 -10 8c-1 8 2 10 9 12c22 6 69 34 69 74c0 21 -7 29 -21 44c-4 4 -24 18 -24 38c0 21 14 40 38 40c40 0 62 -53 62 -83c0 -102 -107 -133 -123 -133z" />
    <glyph glyph-name="threequartersemdash" unicode="&#xf6de;" horiz-adv-x="750" 
d="M773 271v-54h-750v54h750z" />
    <glyph glyph-name="periodsuperior" unicode="&#xf6e8;" horiz-adv-x="150" 
d="M125 389c-27 0 -46 20 -46 46c0 18 14 45 45 45c39 0 49 -34 49 -45c0 -22 -20 -46 -48 -46z" />
    <glyph glyph-name="asuperior" unicode="&#xf6e9;" horiz-adv-x="324" 
d="M341 533h32c4 0 5 -4 3 -8c-9 -18 -40 -97 -53 -127c-12 -28 -33 -91 -33 -95c0 -6 3 -9 7 -9c11 0 42 30 49 38c2 3 4 3 7 1l10 -10c2 -2 2 -6 0 -8c-9 -13 -69 -64 -112 -64c-13 0 -22 6 -22 14c0 12 5 29 29 89l-4 2c-21 -34 -93 -105 -146 -105c-36 0 -53 22 -53 63
c0 91 117 225 215 225c35 0 46 -16 50 -27l9 15c3 5 6 6 12 6zM293 480c0 20 -8 30 -32 30c-71 0 -146 -128 -146 -178c0 -19 6 -39 24 -39c38 0 118 89 135 127c12 26 19 46 19 60z" />
    <glyph glyph-name="bsuperior" unicode="&#xf6ea;" horiz-adv-x="330" 
d="M285 704l-111 -248l4 -1c32 42 82 84 128 84c42 0 60 -22 60 -51c0 -39 -22 -106 -89 -171c-37 -36 -85 -66 -157 -66c-43 0 -60 20 -60 45c0 10 4 27 10 39c50 116 96 224 141 327c3 6 3 11 3 16c0 6 -6 10 -17 10h-20c-5 0 -7 3 -6 7l5 16c1 3 4 5 8 5h96
c6 0 7 -6 5 -12zM119 305c0 -22 11 -24 30 -24c56 0 156 105 156 191c0 12 -10 23 -29 23c-26 0 -76 -40 -109 -83c-26 -34 -48 -89 -48 -107z" />
    <glyph glyph-name="centsuperior" unicode="&#xf6e0;" horiz-adv-x="325" 
d="M202 453l60 240c-14 -4 -32 -17 -48 -38c-27 -35 -52 -100 -52 -145c0 -32 19 -52 40 -57zM195 331l-18 3c-4 1 -4 4 -3 8l18 72c-51 0 -91 25 -91 86c0 76 71 194 171 230l18 76c1 5 4 6 7 6l20 -5c3 -1 4 -4 3 -7l-15 -61c6 1 16 2 25 2c21 0 47 -10 47 -33
c0 -25 -17 -33 -27 -33c-9 0 -17 2 -22 8c-5 7 -15 14 -34 14l-63 -244c31 3 54 14 73 25c6 3 8 0 12 -2l2 -6c4 -4 5 -9 -2 -14c-12 -8 -43 -34 -94 -39l-20 -83c-1 -3 -4 -4 -7 -3z" />
    <glyph glyph-name="dsuperior" unicode="&#xf6eb;" horiz-adv-x="330" 
d="M337 716h96c9 0 11 -7 8 -14c-10 -24 -131 -340 -142 -381c-5 -18 -6 -28 3 -28s40 26 48 34c2 2 5 2 8 0l9 -9c1 -2 2 -5 0 -7c-5 -6 -57 -60 -112 -60c-14 0 -22 7 -22 17c0 13 16 58 31 95l-5 1c-34 -51 -98 -113 -154 -113c-29 0 -49 19 -49 51c0 50 37 127 93 182
c23 22 64 55 118 55c22 0 36 -9 50 -24l53 152c3 10 1 21 -19 21h-22c-5 0 -7 2 -6 5l5 19c1 3 3 4 9 4zM292 473c0 22 -14 36 -39 36c-72 0 -137 -137 -137 -188c0 -13 7 -26 28 -26s76 50 103 85c20 26 45 66 45 93z" />
    <glyph glyph-name="esuperior" unicode="&#xf6ec;" horiz-adv-x="275" 
d="M64 317c0 57 40 129 97 177c25 21 67 45 111 45c34 0 48 -20 48 -41c0 -40 -30 -68 -76 -88c-44 -19 -86 -28 -113 -30c-4 -10 -6 -22 -6 -47c0 -33 19 -46 41 -46c35 0 60 21 88 46c3 2 6 3 8 1l8 -8c3 -3 3 -5 2 -7c-20 -23 -67 -68 -132 -68c-55 0 -76 22 -76 66z
M140 407c22 -2 126 26 126 73c0 13 -7 24 -25 24c-48 0 -93 -73 -101 -97z" />
    <glyph glyph-name="isuperior" unicode="&#xf6ed;" horiz-adv-x="200" 
d="M104 251c-14 1 -19 6 -19 17c0 15 13 47 40 122l20 53c7 18 12 32 12 40c0 4 -4 7 -9 7c-12 0 -43 -35 -56 -48c-3 -3 -5 -2 -8 0l-8 7c-2 1 -2 5 0 7c10 17 66 85 122 83c15 0 23 -6 23 -17c0 -12 -11 -43 -23 -75l-39 -103c-9 -25 -13 -40 -13 -44s2 -9 8 -9
c12 0 49 37 54 44c1 2 5 3 7 1l8 -7c3 -2 3 -6 2 -8c-3 -6 -54 -70 -121 -70zM213 656c-34 0 -40 25 -40 34c0 18 14 34 41 34c29 0 41 -17 41 -32c0 -13 -8 -36 -42 -36z" />
    <glyph glyph-name="lsuperior" unicode="&#xf6ee;" horiz-adv-x="200" 
d="M92 251c-11 0 -19 6 -19 20c0 10 17 52 25 73l120 306c9 22 9 38 -10 38h-20c-5 0 -7 3 -6 6l6 17c2 4 3 5 10 5h92c6 0 7 -4 4 -12l-145 -372c-8 -20 -9 -33 -1 -33c9 0 39 21 48 30c2 2 5 3 8 0l7 -8c1 -2 2 -4 0 -8c-2 -5 -63 -62 -119 -62z" />
    <glyph glyph-name="msuperior" unicode="&#xf6ef;" horiz-adv-x="528" 
d="M108 258h-36c-3 0 -6 1 -4 7l53 126c16 37 36 85 36 91c0 5 -1 9 -6 9c-9 0 -49 -32 -58 -42c-3 -4 -6 -3 -9 -1l-7 9c-2 2 -2 5 0 8c15 17 65 74 123 74c14 0 21 -7 21 -20c0 -12 -43 -99 -49 -113l3 -1c32 45 104 134 169 134c27 0 35 -18 35 -30
c0 -19 -29 -84 -40 -107h4c38 53 101 137 166 137c25 0 37 -18 37 -34s-13 -44 -42 -115c-16 -39 -29 -69 -29 -79c0 -5 2 -9 7 -9c12 0 51 42 55 48c2 3 6 3 9 1l8 -7c3 -2 3 -5 0 -11c-4 -7 -70 -82 -124 -82c-15 0 -20 6 -20 17c0 18 19 64 47 132c20 50 30 72 30 83
c0 8 -4 13 -13 13c-24 0 -89 -61 -133 -123c-5 -8 -18 -25 -28 -50l-24 -61c-1 -3 -4 -4 -10 -4h-38c-5 0 -8 1 -6 6l48 115c19 48 37 91 37 103c0 7 -5 12 -13 12c-24 0 -87 -55 -128 -111c-10 -14 -24 -34 -34 -59l-25 -62c-3 -4 -5 -4 -12 -4z" />
    <glyph glyph-name="nsuperior" unicode="&#x207f;" horiz-adv-x="360" 
d="M139 308l-17 -46c-2 -3 -3 -4 -10 -4h-37c-8 0 -9 1 -8 6l49 128c17 42 34 85 34 92c0 6 -3 11 -10 11c-13 0 -43 -21 -55 -33c-3 -3 -7 -4 -10 -1l-6 8c-2 2 -2 5 1 9c8 10 57 61 114 61c20 0 27 -10 27 -22c0 -20 -28 -75 -34 -91l3 -1c21 33 96 114 164 114
c26 0 40 -13 40 -34c0 -23 -13 -54 -35 -110c-19 -46 -36 -85 -36 -93c0 -5 3 -9 10 -9c11 0 41 23 50 33c2 2 4 2 6 0l7 -8c3 -3 2 -7 -1 -10c-8 -11 -63 -57 -116 -57c-11 0 -20 6 -20 17s23 64 46 123c11 28 28 72 28 83c0 10 -5 19 -17 19c-32 0 -94 -50 -125 -98
c-13 -20 -24 -38 -42 -87z" />
    <glyph glyph-name="osuperior" unicode="&#xf6f0;" horiz-adv-x="324" 
d="M167 251c-39 0 -88 19 -88 91c0 78 57 197 175 197c54 0 90 -38 90 -83c0 -68 -49 -205 -177 -205zM172 282c46 0 127 121 125 183c1 25 -12 41 -43 41c-61 0 -122 -110 -122 -184c0 -21 12 -40 40 -40z" />
    <glyph glyph-name="rsuperior" unicode="&#xf6f1;" horiz-adv-x="260" 
d="M76 264l38 110c13 37 32 105 32 113c0 6 -4 10 -10 10c-14 0 -43 -25 -53 -37c-2 -2 -5 -2 -8 0l-7 7c-2 2 -1 5 1 8c14 17 52 64 106 64c20 0 25 -11 25 -24c1 -12 -9 -50 -24 -90l3 -2c19 33 66 116 116 116c19 0 33 -12 33 -34c0 -24 -14 -37 -29 -37
c-8 0 -14 1 -20 7c-6 5 -10 7 -18 7c-19 0 -57 -48 -84 -92c-8 -13 -16 -29 -26 -59l-22 -68c-1 -3 -4 -5 -9 -5h-38c-5 0 -7 3 -6 6z" />
    <glyph glyph-name="ssuperior" unicode="&#xf6f2;" horiz-adv-x="235" 
d="M125 251c-52 0 -81 16 -81 43c0 9 11 24 27 24c18 0 28 -10 32 -21c5 -11 10 -19 31 -19c26 0 47 17 47 36c0 24 -26 52 -37 74c-6 11 -25 34 -24 68c0 40 44 83 105 83c26 0 59 -8 59 -40c0 -12 -13 -23 -24 -23c-10 0 -22 5 -26 14c-6 12 -6 21 -28 21
c-15 0 -37 -18 -37 -36c0 -25 23 -53 29 -62c7 -9 33 -42 33 -78c0 -52 -49 -84 -106 -84z" />
    <glyph glyph-name="tsuperior" unicode="&#xf6f3;" horiz-adv-x="230" 
d="M159 488h-46c-4 0 -7 2 -5 7l8 21c1 3 3 5 7 5h49l35 78c3 6 6 8 11 10c7 2 24 4 41 12c4 2 8 4 11 4c4 0 5 -4 0 -14l-44 -90h74c3 0 4 -2 2 -8l-8 -18c-1 -4 -4 -7 -7 -7h-74l-62 -144c-10 -23 -16 -34 -16 -41c0 -6 6 -9 13 -9c13 0 55 28 67 39c3 2 7 2 8 0l9 -9
c2 -2 2 -6 -1 -9c-7 -8 -68 -64 -138 -64c-19 0 -24 7 -24 16c0 10 4 22 8 32z" />
    <glyph glyph-name="parenleftinferior" unicode="&#x208d;" horiz-adv-x="200" 
d="M51 8c0 112 88 238 237 319c5 3 10 1 15 -5s5 -12 -3 -16c-123 -72 -196 -198 -196 -308c0 -116 23 -147 30 -160c3 -5 0 -8 -7 -10c-8 -3 -11 -2 -15 2c-24 30 -61 87 -61 178z" />
    <glyph glyph-name="parenrightinferior" unicode="&#x208e;" horiz-adv-x="200" 
d="M115 155c0 117 -26 148 -33 161c-3 5 0 8 7 10c8 3 11 2 15 -2c25 -30 64 -90 64 -179c0 -115 -84 -237 -231 -318c-5 -3 -10 -1 -15 5s-6 11 2 16c122 72 191 196 191 307z" />
    <glyph glyph-name="hyphensuperior" unicode="&#xf6e6;" horiz-adv-x="210" 
d="M88 554v25c0 5 1 8 9 8h152c5 0 10 -2 9 -7v-24c0 -6 -3 -7 -8 -7h-154c-6 0 -8 1 -8 5z" />
    <glyph glyph-name="colonmonetary" unicode="&#x20a1;" 
d="M245 75l170 493c-19 5 -38 5 -52 2l-164 -477c17 -12 35 -18 46 -18zM175 114l152 446c-36 -15 -67 -46 -100 -93c-65 -94 -85 -201 -85 -250c0 -47 13 -80 33 -103zM466 217l-62 -184c-2 -4 -4 -5 -7 -4l-16 4c-2 1 -3 3 -2 7s2 9 2 15c0 9 -5 16 -13 16
c-7 0 -15 -5 -31 -12c-14 -6 -44 -17 -73 -21l-25 -72c-2 -5 -5 -8 -8 -7l-17 7c-4 1 -5 4 -3 10l22 60c-11 -1 -41 1 -52 5l-23 -68c-2 -4 -4 -5 -8 -4l-17 6c-4 2 -4 4 -2 10l23 66c-57 28 -84 92 -84 172s46 195 121 279c40 46 95 83 149 96l28 78c1 4 5 8 9 6l16 -7
c4 -1 4 -5 1 -14l-20 -59c3 1 7 1 11 1c14 0 28 -2 40 -6l24 73c1 3 3 5 8 3l17 -7c3 -1 4 -5 2 -9l-26 -72c8 -5 14 -10 21 -17c9 -8 21 -24 28 -25c8 0 12 6 17 25c2 6 5 7 9 6l11 -3c5 -1 7 -3 5 -9l-46 -178c-2 -5 -3 -7 -10 -5l-12 2c-4 1 -6 2 -4 8
c20 71 9 133 -29 164l-165 -480c48 5 120 32 164 150c3 7 4 8 8 7l15 -5c5 -2 5 -3 4 -8z" />
    <glyph glyph-name="rupiah" unicode="&#xf6dd;" horiz-adv-x="1027" 
d="M346 599l-84 -267c49 0 109 -5 186 26c55 23 101 77 101 137c0 37 -37 107 -159 107c-18 0 -32 0 -44 -3zM253 300l-64 -194c-18 -57 -5 -72 37 -72h41c6 0 8 -3 7 -8l-3 -23c-1 -5 -5 -6 -12 -6c-11 0 -56 3 -130 3c-59 0 -98 -3 -110 -3c-6 0 -7 3 -6 8l4 21
c1 6 3 8 10 8h19c36 0 53 22 62 50l145 459c10 33 6 50 -15 50h-39c-8 0 -9 3 -8 8l5 21c1 6 3 8 13 8c67 0 125 3 179 3c97 0 241 -7 241 -133c0 -93 -108 -170 -215 -189v-2c24 -6 34 -28 42 -45c8 -18 73 -142 91 -172c24 -41 44 -59 95 -58l116 320
c-46 -15 -99 -64 -121 -90c-3 -4 -7 -3 -9 -1l-11 10c-3 3 -4 6 -1 9c35 42 82 88 156 117l32 93c3 9 9 11 16 14l62 22c2 1 5 1 7 1s3 -2 3 -4s0 -5 -2 -8l-46 -104c6 1 13 2 20 2c7 1 15 1 20 1c95 0 138 -68 138 -133c0 -70 -31 -142 -119 -208
c-44 -32 -126 -66 -208 -75l-71 -198c-18 -54 -10 -70 32 -70h28c5 0 6 -4 6 -8l-6 -18c-2 -3 -4 -6 -12 -6c-11 0 -41 3 -105 3c-69 0 -96 -3 -107 -3c-6 0 -8 2 -7 6l5 18c1 4 3 8 8 8h23c36 0 52 26 73 83l67 183c6 1 -11 2 -40 2c-22 0 -38 -1 -49 -1
c-12 -1 -19 -2 -25 -2c-8 0 -13 8 -27 32s-107 219 -117 234c-27 42 -83 37 -118 37zM830 372l-123 -337c120 16 245 102 245 225c0 77 -46 115 -90 115c-15 0 -25 -2 -32 -3z" />
    <glyph glyph-name="centoldstyle" unicode="&#xf7a2;" horiz-adv-x="300" 
d="M138 59l70 268c-17 -4 -38 -21 -54 -41c-33 -43 -61 -113 -61 -164c0 -35 22 -58 45 -63zM130 -78l-20 4c-4 1 -4 4 -3 9l20 80c-57 0 -103 28 -103 96c0 85 82 217 194 257l21 85c1 5 4 6 7 6l24 -5c3 -1 4 -4 3 -8l-17 -68c7 1 18 2 28 2c25 0 54 -11 54 -37
c0 -27 -19 -37 -31 -37c-11 0 -19 3 -25 10s-17 15 -39 15l-71 -272c35 3 61 15 82 27c8 4 10 1 14 -2l3 -6c4 -5 5 -11 -3 -16c-14 -9 -49 -38 -107 -44l-23 -92c-1 -4 -4 -5 -8 -4z" />
    <glyph glyph-name="figuredash" unicode="&#x2012;" 
d="M523 217h-500v54h500v-54z" />
    <glyph glyph-name="hypheninferior" unicode="&#xf6e5;" horiz-adv-x="210" 
d="M33 79v25c0 5 1 8 9 8h152c5 0 10 -2 9 -7v-24c0 -6 -3 -7 -8 -7h-154c-6 0 -8 1 -8 5z" />
    <glyph glyph-name="oneeighth" unicode="&#x215b;" horiz-adv-x="700" 
d="M624 387c59 0 94 -34 94 -72c0 -67 -83 -111 -110 -126c20 -24 43 -43 43 -83c0 -59 -54 -113 -132 -113c-83 0 -99 57 -99 79c0 66 80 98 113 118c-15 16 -47 46 -47 87c0 48 51 110 138 110zM519 21c53 0 76 38 76 63c-2 43 -32 71 -44 83c-30 -13 -80 -40 -80 -92
c0 -31 27 -54 48 -54zM588 211c44 24 80 56 80 98c0 14 -12 51 -56 51c-36 0 -73 -25 -73 -62c0 -29 18 -55 49 -87zM175 -12l-19 13c-2 1 -3 3 -3 5c0 3 1 7 4 12l408 623c2 3 4 4 6 4s5 -1 7 -2l22 -14c3 -1 4 -3 4 -5s-1 -4 -3 -7l-410 -625c-3 -5 -5 -7 -8 -7
c-2 0 -4 0 -8 3zM50 281h32c21 0 36 2 49 28c3 7 9 24 22 64l42 132c12 36 18 53 18 58s-3 8 -8 8c-6 0 -21 -5 -41 -13l-32 -13c-4 -2 -5 0 -7 4l-6 12c-1 3 -1 4 4 7l142 70c11 5 17 7 22 7s9 -4 9 -7s0 -8 -3 -16c-12 -31 -38 -102 -54 -152l-28 -89
c-13 -39 -19 -61 -20 -69c-7 -24 -1 -31 19 -31h27c5 0 6 -2 5 -5l-3 -16c-1 -3 -3 -5 -7 -5c-5 0 -81 3 -95 3c-15 0 -89 -3 -94 -3c-3 0 -4 3 -3 5l3 16c1 3 3 5 7 5z" />
    <glyph glyph-name="threeeighths" unicode="&#x215c;" horiz-adv-x="700" 
d="M624 387c59 0 94 -34 94 -72c0 -67 -83 -111 -111 -126c21 -24 44 -44 44 -83c0 -59 -54 -113 -132 -113c-83 0 -99 57 -99 79c0 66 80 98 113 118c-15 17 -47 47 -47 87c0 48 51 110 138 110zM519 21c53 0 76 38 76 63c-2 42 -32 71 -44 84c-30 -15 -80 -41 -80 -93
c0 -31 27 -54 48 -54zM588 211c44 24 80 56 80 98c0 14 -12 51 -56 51c-36 0 -73 -25 -73 -62c0 -30 18 -55 49 -87zM185 -12l-19 13c-2 1 -3 3 -3 5c0 3 1 7 4 12l408 623c2 3 4 4 6 4s5 -1 7 -2l22 -14c3 -1 4 -3 4 -5s-1 -4 -3 -7l-410 -625c-3 -5 -5 -7 -8 -7
c-2 0 -4 0 -8 3zM135 251c-60 0 -92 35 -92 67c0 12 9 27 26 27c24 0 27 -23 25 -38c-2 -10 19 -29 43 -29c57 0 105 49 105 110c0 32 -18 58 -46 69c-9 4 -10 6 -10 11c0 3 1 8 10 10c27 6 84 35 84 86c0 15 -9 42 -48 42c-29 0 -52 -25 -65 -43c-6 -9 -11 -12 -15 -9
l-10 8c-2 3 -1 6 1 10c14 24 51 73 116 73c59 0 81 -35 81 -58c0 -47 -39 -81 -87 -106c38 -20 53 -50 53 -86c0 -82 -89 -144 -171 -144z" />
    <glyph glyph-name="fiveeighths" unicode="&#x215d;" horiz-adv-x="700" 
d="M624 387c59 0 94 -34 94 -72c0 -67 -83 -111 -110 -126c20 -24 43 -45 43 -83c0 -59 -54 -113 -132 -113c-83 0 -99 57 -99 79c0 66 80 98 113 118c-15 18 -47 47 -47 87c0 48 51 110 138 110zM519 21c53 0 76 38 76 63c-2 42 -32 72 -44 84c-30 -15 -80 -41 -80 -93
c0 -31 27 -54 48 -54zM588 211c44 23 80 56 80 98c0 14 -12 51 -56 51c-36 0 -73 -25 -73 -62c0 -30 18 -55 49 -87zM185 -12l-19 13c-2 1 -3 3 -3 5c0 3 1 7 4 12l408 623c2 3 4 4 6 4s5 -1 7 -2l22 -14c3 -1 4 -3 4 -5s-1 -4 -3 -7l-410 -625c-3 -5 -5 -7 -8 -7
c-2 0 -4 0 -8 3zM205 587l-30 -71l1 -2c9 0 41 -4 69 -17c46 -21 59 -59 59 -96c0 -62 -62 -150 -180 -150c-29 0 -70 9 -70 31c0 15 12 22 20 22c9 0 17 -5 23 -10c10 -8 23 -12 40 -12c72 0 108 58 108 92c0 38 -11 63 -39 79c-13 7 -41 14 -57 14c-11 0 -16 0 -19 2
c-2 3 -3 6 -1 10l60 154c2 4 5 5 9 5h110c24 0 31 10 41 23c3 4 5 4 11 0c7 -4 9 -6 7 -9l-36 -60c-2 -4 -9 -5 -19 -5h-107z" />
    <glyph glyph-name="seveneighths" unicode="&#x215e;" horiz-adv-x="700" 
d="M604 387c59 0 94 -34 94 -72c0 -67 -83 -110 -110 -126c20 -24 43 -44 43 -83c0 -59 -54 -113 -132 -113c-83 0 -99 57 -99 79c0 66 80 98 113 118c-15 18 -47 47 -47 87c0 48 51 110 138 110zM499 21c53 0 76 38 76 63c-2 42 -32 72 -44 84c-30 -15 -80 -41 -80 -93
c0 -31 27 -54 48 -54zM568 211c44 23 80 56 80 98c0 14 -12 51 -56 51c-36 0 -73 -25 -73 -62c0 -31 18 -55 49 -87zM145 -12l-19 13c-2 1 -3 3 -3 5c0 3 1 7 4 12l408 623c2 3 4 4 6 4s5 -1 7 -2l22 -14c3 -1 4 -3 4 -5s-1 -4 -3 -7l-410 -625c-3 -5 -5 -7 -8 -7
c-2 0 -4 0 -8 3zM194 638h160c4 0 7 -2 7 -6c0 -3 -3 -8 -5 -11c-3 -4 -52 -82 -58 -93s-109 -200 -127 -235c-12 -25 -20 -42 -42 -42c-16 0 -20 11 -20 22c0 10 9 23 16 33c13 19 70 102 93 141c16 27 71 115 85 140h-103c-45 0 -56 -11 -76 -38c-4 -5 -8 -5 -15 -1
c-5 3 -6 7 -4 12l48 92c3 5 5 8 11 6c9 -2 9 -5 8 -11c-1 -7 6 -9 22 -9z" />
    <glyph glyph-name="onethird" unicode="&#x2153;" horiz-adv-x="700" 
d="M175 -12l-19 13c-2 1 -3 3 -3 5c0 3 1 7 4 12l408 623c2 3 4 4 6 4s5 -1 7 -2l22 -14c3 -1 4 -3 4 -5s-1 -4 -3 -7l-410 -625c-3 -5 -5 -7 -8 -7c-2 0 -4 0 -8 3zM495 -7c-60 0 -92 35 -92 67c0 12 9 27 26 27c24 0 27 -23 25 -38c-2 -10 19 -29 43 -29
c57 0 105 49 105 110c0 32 -18 58 -46 69c-9 4 -10 6 -10 11c0 3 1 8 10 10c27 6 84 35 84 86c0 15 -9 42 -48 42c-29 0 -52 -25 -65 -43c-6 -9 -11 -12 -15 -9l-10 8c-2 3 -1 6 1 10c14 24 51 73 116 73c59 0 81 -35 81 -58c0 -47 -39 -81 -87 -106c38 -20 53 -50 53 -86
c0 -82 -89 -144 -171 -144zM50 281h32c21 0 36 2 49 28c3 7 9 24 22 64l42 132c12 36 18 53 18 58s-3 8 -8 8c-6 0 -21 -5 -41 -13l-32 -13c-4 -2 -5 0 -7 4l-6 12c-1 3 -1 4 4 7l142 70c11 5 17 7 22 7s9 -4 9 -7s0 -8 -3 -16c-12 -31 -38 -102 -54 -152l-28 -89
c-13 -39 -19 -61 -20 -69c-7 -24 -1 -31 19 -31h27c5 0 6 -2 5 -5l-3 -16c-1 -3 -3 -5 -7 -5c-5 0 -81 3 -95 3c-15 0 -89 -3 -94 -3c-3 0 -4 3 -3 5l3 16c1 3 3 5 7 5z" />
    <glyph glyph-name="twothirds" unicode="&#x2154;" horiz-adv-x="700" 
d="M200 -12l-19 13c-2 1 -3 3 -3 5c0 3 1 7 4 12l408 623c2 3 4 4 6 4s5 -1 7 -2l22 -14c3 -1 4 -3 4 -5s-1 -4 -3 -7l-410 -625c-3 -5 -5 -7 -8 -7c-2 0 -4 0 -8 3zM495 -7c-60 0 -92 35 -92 67c0 12 9 27 26 27c24 0 27 -23 25 -38c-2 -10 19 -29 43 -29
c57 0 105 49 105 110c0 32 -18 58 -46 69c-9 4 -10 6 -10 11c0 3 1 8 10 10c27 6 84 35 84 86c0 15 -9 42 -48 42c-29 0 -52 -25 -65 -43c-6 -9 -11 -12 -15 -9l-10 8c-2 3 -1 6 1 10c14 24 51 73 116 73c59 0 81 -35 81 -58c0 -47 -39 -81 -87 -106c38 -20 53 -50 53 -86
c0 -82 -89 -144 -171 -144zM93 302h112c33 0 50 18 65 42c4 5 7 5 10 4l8 -5c3 -1 3 -5 1 -7c-15 -22 -40 -79 -41 -83c-2 -5 -4 -6 -9 -6c-4 0 -6 1 -10 7c-3 4 -18 4 -38 4h-163c-10 0 -12 3 -12 8c0 4 3 9 8 13c75 61 235 166 235 259c0 28 -14 65 -55 65
s-65 -42 -77 -62c-5 -8 -8 -9 -11 -8l-11 6c-3 2 -4 6 -3 9c11 29 53 97 129 97c61 0 93 -37 93 -91c0 -105 -150 -199 -229 -250l-2 -1v-1z" />
    <glyph glyph-name="zerosuperior" unicode="&#x2070;" horiz-adv-x="325" 
d="M286 774c68 0 99 -46 99 -108c0 -132 -91 -286 -202 -286c-70 0 -103 48 -103 119c0 118 90 275 206 275zM282 746c-77 0 -147 -175 -147 -265c0 -49 26 -74 46 -74c86 0 151 182 151 278c0 39 -23 61 -50 61z" />
    <glyph glyph-name="foursuperior" unicode="&#x2074;" horiz-adv-x="325" 
d="M228 387h-42c-4 0 -5 5 -1 14l38 90h-153c-11 0 -15 6 -15 15c0 6 4 10 14 19l277 241c4 4 13 8 22 8c11 0 17 -12 13 -21l-88 -223h63c3 0 5 -4 2 -9l-9 -21c-2 -4 -6 -9 -10 -9h-59l-37 -92c-5 -12 -9 -12 -15 -12zM126 530h109c5 14 58 146 58 153c-4 -3 -8 -6 -11 -9
l-150 -129c-3 -2 -10 -9 -10 -13c0 -2 2 -2 4 -2z" />
    <glyph glyph-name="fivesuperior" unicode="&#x2075;" horiz-adv-x="325" 
d="M225 716l-30 -71l1 -2c9 0 41 -4 69 -17c46 -21 59 -59 59 -96c0 -62 -62 -150 -180 -150c-29 0 -70 9 -70 31c0 15 12 22 20 22c9 0 17 -5 23 -10c10 -8 23 -12 40 -12c72 0 108 58 108 92c0 38 -11 63 -39 79c-13 7 -41 14 -57 14c-11 0 -16 0 -19 2c-2 3 -3 6 -1 10
l60 154c2 4 5 5 9 5h110c24 0 31 10 41 23c3 4 5 4 11 0c7 -4 9 -6 7 -9l-36 -60c-2 -4 -9 -5 -19 -5h-107z" />
    <glyph glyph-name="sixsuperior" unicode="&#x2076;" horiz-adv-x="325" 
d="M190 380c-74 0 -99 58 -99 99c0 141 152 258 234 289c16 6 22 6 27 6c6 0 10 -4 10 -10c0 -8 -5 -12 -17 -18c-76 -38 -125 -84 -160 -142l1 -2c25 17 45 24 76 24c54 0 81 -36 81 -82c0 -89 -72 -164 -153 -164zM193 407c59 0 92 76 92 130c0 30 -18 59 -47 59
c-22 0 -51 -10 -65 -27c-25 -29 -30 -58 -32 -92c-2 -25 7 -70 52 -70z" />
    <glyph glyph-name="sevensuperior" unicode="&#x2077;" horiz-adv-x="325" 
d="M229 767h160c4 0 7 -2 7 -6c0 -3 -3 -8 -5 -11c-3 -4 -52 -82 -58 -93s-109 -200 -127 -235c-12 -25 -20 -42 -42 -42c-16 0 -20 11 -20 22c0 10 9 23 16 33c13 19 70 102 93 141c16 27 71 115 85 140h-103c-45 0 -56 -11 -76 -38c-4 -5 -8 -5 -15 -1c-5 3 -6 7 -4 12
l48 92c3 5 5 8 11 6c9 -2 9 -5 8 -11c-1 -7 6 -9 22 -9z" />
    <glyph glyph-name="eightsuperior" unicode="&#x2078;" horiz-adv-x="325" 
d="M289 774c61 0 98 -34 98 -72c0 -67 -87 -111 -116 -126c21 -23 45 -47 45 -83c0 -59 -55 -113 -136 -113c-87 0 -103 57 -103 79c0 66 83 98 118 118c-15 17 -49 49 -49 87c0 48 52 110 143 110zM180 408c55 0 81 38 80 63c-1 41 -33 71 -46 83c-32 -13 -84 -40 -84 -92
c0 -31 28 -54 50 -54zM277 747c-38 0 -77 -25 -77 -62c0 -28 18 -54 52 -89c45 26 83 58 83 100c0 14 -13 51 -58 51z" />
    <glyph glyph-name="ninesuperior" unicode="&#x2079;" horiz-adv-x="325" 
d="M277 774c66 0 97 -40 97 -101c0 -137 -140 -258 -254 -291c-5 -1 -11 -2 -15 -2s-8 5 -8 11c0 5 1 10 14 16c87 40 135 85 172 144l-3 1c-18 -15 -38 -23 -68 -23c-72 0 -87 66 -87 90c0 70 60 155 152 155zM274 749c-68 0 -94 -92 -94 -131c0 -24 14 -60 48 -60
c23 0 52 11 65 29c22 28 31 73 31 103c0 20 -7 59 -50 59z" />
    <glyph glyph-name="zeroinferior" unicode="&#x2080;" horiz-adv-x="325" 
d="M126 -113c-70 0 -105 48 -105 121c0 118 90 273 206 273c68 0 101 -46 101 -109c0 -131 -91 -285 -202 -285zM124 -86c86 0 151 182 151 277c0 38 -23 60 -50 60c-77 0 -147 -173 -147 -263c0 -49 26 -74 46 -74z" />
    <glyph glyph-name="oneinferior" unicode="&#x2081;" horiz-adv-x="325" 
d="M25 -83h32c21 0 36 2 49 28c3 7 9 24 22 64l42 132c12 36 18 53 18 58s-3 8 -8 8c-6 0 -21 -5 -41 -13l-32 -13c-4 -2 -5 0 -7 4l-6 12c-1 3 -1 4 4 7l142 70c11 5 17 7 22 7s9 -4 9 -7s0 -8 -3 -16c-12 -31 -38 -102 -54 -152l-28 -89c-12 -39 -19 -61 -20 -69
c-7 -24 -1 -31 19 -31h27c5 0 6 -2 5 -5l-3 -16c-1 -3 -3 -5 -7 -5c-5 0 -81 3 -95 3c-15 0 -89 -3 -94 -3c-3 0 -4 3 -3 5l3 16c1 3 3 5 7 5z" />
    <glyph glyph-name="twoinferior" unicode="&#x2082;" horiz-adv-x="325" 
d="M68 -62h112c33 0 50 18 65 42c4 5 7 5 10 4l8 -5c3 -1 3 -5 1 -7c-15 -22 -40 -79 -41 -83c-2 -5 -4 -6 -9 -6c-4 0 -6 1 -10 7c-3 4 -18 4 -38 4h-163c-10 0 -12 3 -12 8c0 4 3 9 8 13c75 61 235 166 235 259c0 28 -14 65 -55 65s-65 -42 -77 -62c-5 -8 -8 -9 -11 -8
l-11 6c-3 2 -4 6 -3 9c11 29 53 97 129 97c61 0 93 -37 93 -91c0 -105 -150 -199 -229 -250l-2 -1v-1z" />
    <glyph glyph-name="threeinferior" unicode="&#x2083;" horiz-adv-x="325" 
d="M105 -113c-60 0 -92 35 -92 67c0 12 9 27 26 27c24 0 27 -23 25 -38c-2 -10 19 -29 43 -29c57 0 105 49 105 110c0 32 -18 58 -46 69c-9 4 -10 6 -10 11c0 3 1 8 10 10c27 6 84 35 84 86c0 15 -9 42 -48 42c-29 0 -52 -25 -65 -43c-6 -9 -11 -12 -15 -9l-10 8
c-2 3 -1 6 1 10c14 24 51 73 116 73c59 0 81 -35 81 -58c0 -47 -39 -81 -87 -106c38 -20 53 -50 53 -86c0 -82 -89 -144 -171 -144z" />
    <glyph glyph-name="fourinferior" unicode="&#x2084;" horiz-adv-x="325" 
d="M178 -106h-42c-4 0 -5 5 -1 14l38 90h-153c-11 0 -15 6 -15 15c0 6 4 10 14 19l277 241c4 4 13 8 22 8c11 0 17 -12 13 -21l-88 -223h63c3 0 5 -4 2 -9l-9 -21c-2 -4 -6 -9 -10 -9h-59l-37 -92c-5 -12 -9 -12 -15 -12zM76 37h109c5 14 58 146 58 153c-4 -3 -8 -6 -11 -9
l-150 -129c-3 -2 -10 -9 -10 -13c0 -2 2 -2 4 -2z" />
    <glyph glyph-name="fiveinferior" unicode="&#x2085;" horiz-adv-x="325" 
d="M168 223l-30 -71l1 -2c9 0 41 -4 69 -17c46 -21 59 -59 59 -96c0 -62 -62 -150 -180 -150c-29 0 -70 9 -70 31c0 15 12 22 20 22c9 0 17 -5 23 -10c10 -8 23 -12 40 -12c72 0 108 58 108 92c0 38 -11 63 -39 79c-13 7 -41 14 -57 14c-11 0 -16 0 -19 2c-2 3 -3 6 -1 10
l60 154c2 4 5 5 9 5h110c24 0 31 10 41 23c3 4 5 4 11 0c7 -4 9 -6 7 -9l-36 -60c-2 -4 -9 -5 -19 -5h-107z" />
    <glyph glyph-name="sixinferior" unicode="&#x2086;" horiz-adv-x="325" 
d="M138 -113c-74 0 -99 58 -99 99c0 141 152 258 234 289c16 6 22 6 27 6c6 0 10 -4 10 -10c0 -8 -5 -12 -17 -18c-76 -38 -125 -84 -160 -142l1 -2c25 17 45 24 76 24c54 0 81 -36 81 -82c0 -89 -72 -164 -153 -164zM141 -86c59 0 92 76 92 130c0 30 -18 59 -47 59
c-22 0 -51 -10 -65 -27c-25 -29 -30 -58 -32 -92c-2 -25 7 -70 52 -70z" />
    <glyph glyph-name="seveninferior" unicode="&#x2087;" horiz-adv-x="325" 
d="M169 274h160c4 0 7 -2 7 -6c0 -3 -3 -8 -5 -11c-3 -4 -52 -82 -58 -93s-109 -200 -127 -235c-12 -25 -20 -42 -42 -42c-16 0 -20 11 -20 22c0 10 9 23 16 33c13 19 70 102 93 141c16 27 71 115 85 140h-103c-45 0 -56 -11 -76 -38c-4 -5 -8 -5 -15 -1c-5 3 -6 7 -4 12
l48 92c3 5 5 8 11 6c9 -2 9 -5 8 -11c-1 -7 6 -9 22 -9z" />
    <glyph glyph-name="eightinferior" unicode="&#x2088;" horiz-adv-x="325" 
d="M232 281c61 0 98 -34 98 -72c0 -67 -87 -111 -116 -126c21 -23 45 -47 45 -83c0 -59 -55 -113 -136 -113c-87 0 -103 57 -103 79c0 66 83 98 118 118c-15 17 -49 49 -49 87c0 48 52 110 143 110zM123 -85c55 0 81 38 80 63c-1 41 -33 71 -46 83c-32 -13 -84 -40 -84 -92
c0 -31 28 -54 50 -54zM220 254c-38 0 -77 -25 -77 -62c0 -28 18 -54 52 -89c45 26 83 58 83 100c0 14 -13 51 -58 51z" />
    <glyph glyph-name="nineinferior" unicode="&#x2089;" horiz-adv-x="325" 
d="M217 281c66 0 97 -40 97 -101c0 -137 -140 -258 -254 -291c-5 -1 -11 -2 -15 -2s-8 5 -8 11c0 5 1 10 14 16c87 40 135 85 172 144l-3 1c-18 -15 -38 -23 -68 -23c-72 0 -87 66 -87 90c0 70 60 155 152 155zM214 256c-68 0 -94 -92 -94 -131c0 -24 14 -60 48 -60
c23 0 52 11 65 29c22 28 31 73 31 103c0 20 -7 59 -50 59z" />
    <glyph glyph-name="centinferior" unicode="&#xf6df;" horiz-adv-x="325" 
d="M147 -40l60 240c-14 -4 -32 -17 -48 -38c-27 -35 -52 -100 -52 -145c0 -32 19 -52 40 -57zM140 -162l-18 3c-4 1 -4 4 -3 8l18 72c-51 0 -91 25 -91 86c0 76 71 194 171 230l18 76c1 5 4 6 7 6l20 -5c3 -1 4 -4 3 -7l-15 -61c6 1 16 2 25 2c21 0 47 -10 47 -33
c0 -25 -17 -33 -27 -33c-9 0 -17 2 -22 8c-5 7 -15 14 -34 14l-63 -244c31 3 54 14 73 25c6 3 8 0 12 -2l2 -6c4 -4 5 -9 -2 -14c-12 -8 -43 -34 -94 -39l-20 -83c-1 -3 -4 -4 -7 -3z" />
    <glyph glyph-name="dollarinferior" unicode="&#xf6e3;" horiz-adv-x="325" 
d="M10 -68l39 109c1 3 4 3 6 3l12 -1c4 -1 5 -4 5 -8c-10 -46 9 -84 48 -97l33 130c-55 35 -82 66 -82 106c0 41 43 99 130 89l11 47c1 3 3 4 6 4l22 -5c3 -1 4 -4 3 -8l-11 -43c18 -5 38 -20 44 -20s10 3 13 15c0 2 1 4 4 4h11c3 0 4 -3 3 -5l-12 -94c-1 -3 -3 -5 -6 -5
h-12c-3 0 -5 3 -5 6c-1 17 -9 61 -46 73l-30 -118c54 -30 82 -61 82 -105c0 -73 -62 -107 -133 -103l-15 -59c-1 -3 -3 -5 -7 -4l-17 5c-5 1 -7 4 -6 8l14 55c-35 8 -58 33 -65 33c-8 0 -13 -3 -22 -20c-2 -3 -3 -3 -5 -2l-9 4c-4 2 -4 3 -3 6zM168 130l27 108
c-53 3 -72 -24 -72 -51c0 -19 11 -39 45 -57zM181 52l-30 -119c51 -6 80 28 80 61c3 17 -10 36 -50 58z" />
    <glyph glyph-name="periodinferior" unicode="&#xf6e7;" horiz-adv-x="150" 
d="M60 -106c-27 0 -46 20 -46 46c0 18 14 45 45 45c39 0 49 -34 49 -45c0 -22 -20 -46 -48 -46z" />
    <glyph glyph-name="commainferior" unicode="&#xf6e1;" horiz-adv-x="150" 
d="M-16 -217c-4 0 -9 -2 -10 8c-1 8 2 10 9 12c22 6 69 34 69 74c0 21 -7 29 -21 44c-4 4 -24 18 -24 38c0 21 14 40 38 40c40 0 62 -53 62 -83c0 -102 -107 -133 -123 -133z" />
    <glyph glyph-name="commaaccent" unicode="&#xf6c3;" horiz-adv-x="150" 
d="M-31 -255c-4 0 -8 -2 -9 7c-1 7 2 9 9 12c20 5 62 30 61 66c0 19 -6 26 -18 39c-4 4 -22 17 -22 35c0 19 13 36 34 36c36 0 56 -48 57 -75c0 -92 -97 -120 -112 -120z" />
    <glyph glyph-name="Abreve" unicode="&#x102;" horiz-adv-x="619" 
d="M472 301h-178l-140 -176c-21 -27 -41 -53 -41 -67c0 -15 13 -24 35 -24h36c5 0 9 -2 7 -10l-4 -19c-1 -5 -3 -8 -10 -8c-10 0 -53 3 -131 3c-66 0 -101 -3 -112 -3c-5 0 -10 2 -9 7l5 22c1 6 3 8 7 8h15c43 0 85 30 121 73l463 553c5 7 9 9 28 10c14 1 37 4 47 7
c11 3 25 8 33 8s12 -3 10 -10l-147 -555c-4 -17 -10 -42 -10 -58s17 -28 37 -28h27c6 0 9 -3 8 -10l-3 -18c-1 -6 -3 -9 -12 -9c-12 0 -52 3 -120 3c-70 0 -101 -3 -117 -3c-9 0 -11 4 -10 10l4 19c1 4 3 8 8 8h19c38 0 64 7 84 82zM320 336h163l77 264c4 14 -14 16 -22 7z
M599 744c-51 0 -90 29 -98 84c-1 8 0 11 4 12l10 3c4 1 6 -3 10 -8c19 -25 51 -36 90 -36c57 0 81 19 103 38c7 6 9 9 13 6l11 -5c4 -2 3 -5 -1 -13c-25 -44 -70 -81 -142 -81z" />
    <glyph glyph-name="Amacron" unicode="&#x100;" horiz-adv-x="619" 
d="M472 301h-178l-140 -176c-21 -27 -41 -53 -41 -67c0 -15 13 -24 35 -24h36c5 0 9 -2 7 -10l-4 -19c-1 -5 -3 -8 -10 -8c-10 0 -53 3 -131 3c-66 0 -101 -3 -112 -3c-5 0 -10 2 -9 7l5 22c1 6 3 8 7 8h15c43 0 85 30 121 73l463 553c5 7 9 9 28 10c14 1 37 4 47 7
c11 3 25 8 33 8s12 -3 10 -10l-147 -555c-4 -17 -10 -42 -10 -58s17 -28 37 -28h27c6 0 9 -3 8 -10l-3 -18c-1 -6 -3 -9 -12 -9c-12 0 -52 3 -120 3c-70 0 -101 -3 -117 -3c-9 0 -11 4 -10 10l4 19c1 4 3 8 8 8h19c38 0 64 7 84 82zM320 336h163l77 264c4 14 -14 16 -22 7z
M490 772v34c0 5 4 6 10 6h200c7 0 10 -1 10 -7v-33c0 -6 -3 -7 -9 -7h-203c-5 0 -8 1 -8 7z" />
    <glyph glyph-name="Aogonek" unicode="&#x104;" horiz-adv-x="619" 
d="M320 336h163l79 263c4 14 -16 17 -24 8zM411 -231c0 -9 -34 -33 -76 -33c-46 0 -108 13 -108 80c0 71 83 149 146 197c25 19 33 58 49 103l50 185h-178l-140 -176c-21 -26 -41 -53 -41 -67c0 -15 13 -24 35 -24h36c5 0 9 -2 7 -10l-4 -19c-1 -5 -3 -8 -10 -8
c-10 0 -53 3 -131 3c-66 0 -101 -3 -112 -3c-5 0 -10 2 -9 7l5 22c1 6 3 8 7 8h15c43 0 85 30 121 73l463 553c6 7 9 9 28 10c14 1 37 4 47 7c11 3 25 8 33 8s12 -3 10 -10l-147 -555c-4 -17 -10 -42 -10 -58s17 -28 37 -28h27c6 0 9 -3 8 -10l-3 -18c-1 -6 -3 -9 -12 -9
c-6 0 -19 2 -39 2s-47 1 -81 1c-62 0 -144 -93 -144 -163c0 -65 52 -71 67 -71c9 0 40 15 46 15c5 0 8 -6 8 -12z" />
    <glyph glyph-name="Cacute" unicode="&#x106;" horiz-adv-x="666" 
d="M638 197l-71 -214c-2 -5 -5 -6 -9 -5l-18 5c-3 1 -5 3 -3 8c1 5 3 10 3 17c0 11 -7 19 -16 19s-26 -6 -44 -14c-22 -11 -90 -28 -138 -28c-133 0 -240 92 -240 238c0 114 53 247 145 347c65 71 155 115 241 115c48 0 84 -10 132 -43c13 -9 31 -28 50 -28c12 0 20 8 26 31
c2 6 5 8 9 6l13 -3c6 -1 8 -4 6 -10l-53 -207c-2 -6 -4 -8 -11 -6l-14 2c-5 1 -7 3 -6 10c21 98 -30 212 -145 212c-81 0 -135 -40 -192 -122c-75 -110 -99 -234 -99 -314c0 -143 95 -187 153 -187c84 0 188 29 249 177c4 9 5 10 10 8l17 -5c6 -2 6 -4 5 -9zM455 729l-6 10
c-2 4 0 7 3 10l143 111c11 8 22 12 34 12c33 0 46 -57 8 -73l-174 -71c-4 -2 -7 -1 -8 1z" />
    <glyph glyph-name="Ccaron" unicode="&#x10c;" horiz-adv-x="666" 
d="M638 197l-71 -214c-2 -5 -5 -6 -9 -5l-18 5c-3 1 -5 3 -3 8c1 5 3 10 3 17c0 11 -7 19 -16 19s-26 -6 -44 -14c-22 -11 -90 -28 -138 -28c-133 0 -240 92 -240 238c0 114 53 247 145 347c65 71 155 115 241 115c48 0 84 -10 132 -43c13 -9 31 -28 50 -28c12 0 20 8 26 31
c2 6 5 8 9 6l13 -3c6 -1 8 -4 6 -10l-53 -207c-2 -6 -4 -8 -11 -6l-14 2c-5 1 -7 3 -6 10c21 98 -30 212 -145 212c-81 0 -135 -40 -192 -122c-75 -110 -99 -234 -99 -314c0 -143 95 -187 153 -187c84 0 188 29 249 177c4 9 5 10 10 8l17 -5c6 -2 6 -4 5 -9zM515 812l119 62
c3 1 5 1 7 -2l7 -11c2 -2 0 -4 -2 -6l-139 -120c-4 -3 -10 -3 -13 2l-71 120c-2 3 -1 6 2 8l10 9c4 3 7 1 11 -2z" />
    <glyph glyph-name="Dcaron" unicode="&#x10e;" horiz-adv-x="777" 
d="M134 113l115 470c10 39 -16 50 -51 50h-45c-10 0 -12 2 -10 8l6 22c2 6 4 7 16 7s44 1 83 3c42 1 88 3 108 3c127 0 267 -14 351 -97c62 -63 75 -120 75 -181c0 -196 -124 -295 -185 -330c-126 -71 -261 -71 -327 -71c-27 0 -118 3 -146 3c-75 0 -104 -3 -112 -3
c-7 0 -9 3 -8 8l6 22c1 4 3 7 10 7h30c36 0 68 13 84 79zM346 636l-129 -530c-4 -18 -7 -32 -7 -42c0 -21 28 -30 71 -30c107 0 212 20 286 83c61 51 122 163 122 278c0 65 -27 128 -64 166c-33 34 -75 54 -114 65c-54 14 -95 13 -109 13c-16 0 -46 0 -56 -3zM500 812
l119 62c3 1 5 1 7 -2l7 -11c2 -2 0 -4 -2 -6l-139 -120c-4 -3 -10 -3 -13 2l-71 120c-2 3 -1 6 2 8l10 9c4 3 7 1 11 -2z" />
    <glyph glyph-name="Dcroat" unicode="&#x110;" horiz-adv-x="777" 
d="M271 328l-54 -222c-4 -18 -7 -32 -7 -42c0 -21 28 -30 71 -30c107 0 212 20 286 83c61 51 122 163 122 278c0 65 -27 128 -64 166c-33 34 -75 54 -114 65c-54 14 -95 13 -109 13c-16 0 -46 0 -56 -3l-65 -271h143c11 0 13 -4 10 -11l-7 -18c-2 -6 -5 -8 -18 -8h-138z
M134 113l52 215h-108c-9 0 -13 2 -11 9l8 22c1 4 4 6 13 6h108l53 218c10 39 -16 50 -51 50h-45c-10 0 -12 2 -10 8l6 22c2 6 4 7 16 7s44 1 83 3c42 1 88 3 108 3c127 0 267 -14 351 -97c62 -63 75 -120 75 -181c0 -196 -124 -295 -185 -330c-126 -71 -261 -71 -327 -71
c-27 0 -118 3 -146 3c-75 0 -104 -3 -112 -3c-7 0 -9 3 -8 8l6 22c1 4 3 7 10 7h30c36 0 68 13 84 79z" />
    <glyph glyph-name="Ecaron" unicode="&#x11a;" horiz-adv-x="669" 
d="M117 90l152 475c18 56 -21 71 -55 71h-32c-6 0 -8 3 -6 11l5 19c2 6 5 7 12 7c6 0 17 -1 38 -1c21 -1 52 -2 100 -2h64c76 0 133 1 174 2c41 0 66 1 77 1c15 0 17 -3 21 -19l32 -137c1 -5 0 -6 -6 -9l-11 -4c-5 -2 -6 -2 -10 3l-94 121c-4 6 -9 8 -16 8h-182l-86 -263h96
c58 0 91 2 119 84c1 4 3 6 7 5l15 -3c4 -1 7 -3 6 -8l-54 -199c-1 -6 -3 -7 -7 -6l-16 2c-5 1 -5 2 -4 8c7 83 -33 85 -112 85h-60l-97 -307h259c36 0 60 16 80 42l80 101c3 4 7 6 12 2l10 -6c4 -3 6 -5 3 -14l-51 -145c-5 -15 -10 -17 -22 -17c-8 0 -52 1 -111 2
c-59 0 -133 1 -202 1h-116c-46 0 -75 -1 -94 -1c-18 -1 -26 -2 -30 -2c-7 0 -10 2 -8 8l3 21c2 6 3 8 8 8h37c41 0 61 21 72 56zM486 812l119 62c3 1 5 1 7 -2l7 -11c2 -2 0 -4 -2 -6l-139 -120c-4 -3 -10 -3 -13 2l-71 120c-2 3 -1 6 2 8l10 9c4 3 7 1 11 -2z" />
    <glyph glyph-name="Edotaccent" unicode="&#x116;" horiz-adv-x="669" 
d="M117 90l152 475c18 56 -21 71 -55 71h-32c-6 0 -8 3 -6 11l5 19c2 6 5 7 12 7c6 0 17 -1 38 -1c21 -1 52 -2 100 -2h64c76 0 133 1 174 2c41 0 66 1 77 1c15 0 17 -3 21 -19l32 -137c1 -5 0 -6 -6 -9l-11 -4c-5 -2 -6 -2 -10 3l-94 121c-4 6 -9 8 -16 8h-182l-86 -263h96
c58 0 91 2 119 84c1 4 3 6 7 5l15 -3c4 -1 7 -3 6 -8l-54 -199c-1 -6 -3 -7 -7 -6l-16 2c-5 1 -5 2 -4 8c7 83 -33 85 -112 85h-60l-97 -307h259c36 0 60 16 80 42l80 101c3 4 7 6 12 2l10 -6c4 -3 6 -5 3 -14l-51 -145c-5 -15 -10 -17 -22 -17c-8 0 -52 1 -111 2
c-59 0 -133 1 -202 1h-116c-46 0 -75 -1 -94 -1c-18 -1 -26 -2 -30 -2c-7 0 -10 2 -8 8l3 21c2 6 3 8 8 8h37c41 0 61 21 72 56zM488 738c-22 0 -54 9 -54 48c0 19 10 50 54 50c26 0 49 -18 49 -51c0 -28 -22 -47 -49 -47z" />
    <glyph glyph-name="Emacron" unicode="&#x112;" horiz-adv-x="669" 
d="M117 90l152 475c18 56 -21 71 -55 71h-32c-6 0 -8 3 -6 11l5 19c2 6 5 7 12 7c6 0 17 -1 38 -1c21 -1 52 -2 100 -2h64c76 0 133 1 174 2c41 0 66 1 77 1c15 0 17 -3 21 -19l32 -137c1 -5 0 -6 -6 -9l-11 -4c-5 -2 -6 -2 -10 3l-94 121c-4 6 -9 8 -16 8h-182l-86 -263h96
c58 0 91 2 119 84c1 4 3 6 7 5l15 -3c4 -1 7 -3 6 -8l-54 -199c-1 -6 -3 -7 -7 -6l-16 2c-5 1 -5 2 -4 8c7 83 -33 85 -112 85h-60l-97 -307h259c36 0 60 16 80 42l80 101c3 4 7 6 12 2l10 -6c4 -3 6 -5 3 -14l-51 -145c-5 -15 -10 -17 -22 -17c-8 0 -52 1 -111 2
c-59 0 -133 1 -202 1h-116c-46 0 -75 -1 -94 -1c-18 -1 -26 -2 -30 -2c-7 0 -10 2 -8 8l3 21c2 6 3 8 8 8h37c41 0 61 21 72 56zM375 772v34c0 5 4 6 10 6h200c7 0 10 -1 10 -7v-33c0 -6 -3 -7 -9 -7h-203c-5 0 -8 1 -8 7z" />
    <glyph glyph-name="Eogonek" unicode="&#x118;" horiz-adv-x="669" 
d="M699 517c1 -5 0 -6 -6 -9l-11 -4c-5 -2 -6 -2 -10 3l-94 121c-4 6 -9 8 -16 8h-182l-86 -263h96c58 0 91 2 119 84c1 4 3 6 7 5l15 -3c4 -1 7 -3 6 -8l-54 -199c-1 -6 -3 -7 -7 -6l-17 2c-5 1 -4 2 -3 8c7 83 -33 85 -112 85h-60l-97 -307h259c36 0 60 16 80 42l80 101
c3 4 7 6 12 2l10 -6c4 -3 6 -5 3 -14l-51 -145c-5 -15 -10 -15 -22 -17c-68 -9 -132 -99 -132 -160c0 -65 52 -71 67 -71c9 0 40 15 46 15c5 0 8 -6 8 -12c0 -9 -34 -33 -76 -33c-46 0 -108 13 -108 80c0 68 80 149 134 184c-17 0 -1 -1 -50 -1c-59 0 -133 1 -202 1h-116
c-46 0 -75 0 -94 -1c-18 0 -26 -2 -30 -2c-7 0 -10 2 -8 8l3 21c2 6 3 8 8 8h37c41 0 61 21 72 56l152 475c18 56 -21 71 -55 71h-32c-6 0 -8 3 -6 11l5 19c2 6 5 7 12 7c6 0 17 -1 38 -1s52 -2 100 -2h64c76 0 133 2 174 2s66 1 77 1c15 0 17 -3 21 -19z" />
    <glyph glyph-name="Gbreve" unicode="&#x11e;" horiz-adv-x="709" 
d="M636 206l-35 -154c-4 -13 -7 -17 -18 -22c-29 -12 -116 -45 -194 -45c-176 0 -287 124 -287 280c0 237 195 420 409 420c86 0 142 -34 162 -50c13 -10 22 -12 27 -12c14 0 20 10 26 32c1 4 3 6 10 4l12 -3c4 -1 7 -3 6 -8l-57 -201c-2 -6 -4 -7 -12 -6l-13 2
c-5 1 -8 4 -6 10c22 86 -30 198 -155 198c-181 0 -312 -186 -312 -405c0 -158 93 -225 185 -225c64 0 107 27 125 42c9 8 14 21 18 34l20 97c9 40 -7 48 -40 48h-37c-8 0 -9 3 -7 10l4 19c1 6 3 8 11 8c15 0 50 -3 116 -3c68 0 92 3 106 3c7 0 10 -3 9 -10l-3 -19
c-1 -6 -3 -8 -9 -8h-16c-24 0 -39 -8 -45 -36zM524 744c-51 0 -90 29 -98 84c-1 8 0 11 4 12l10 3c4 1 6 -3 10 -8c19 -25 51 -36 90 -36c57 0 81 19 103 38c7 6 9 9 13 6l11 -5c4 -2 3 -5 -1 -13c-25 -44 -70 -81 -142 -81z" />
    <glyph glyph-name="Gcommaaccent" unicode="&#x122;" horiz-adv-x="709" 
d="M636 206l-35 -154c-4 -13 -7 -17 -18 -22c-29 -12 -116 -45 -194 -45c-176 0 -287 124 -287 280c0 237 195 420 409 420c86 0 142 -34 162 -50c13 -10 22 -12 27 -12c14 0 20 10 26 32c1 4 3 6 10 4l12 -3c4 -1 7 -3 6 -8l-57 -201c-2 -6 -4 -7 -12 -6l-13 2
c-5 1 -8 4 -6 10c22 86 -30 198 -155 198c-181 0 -312 -186 -312 -405c0 -158 93 -225 185 -225c64 0 107 27 125 42c9 8 14 21 18 34l20 97c9 40 -7 48 -40 48h-37c-8 0 -9 3 -7 10l4 19c1 6 3 8 11 8c15 0 50 -3 116 -3c68 0 92 3 106 3c7 0 10 -3 9 -10l-3 -19
c-1 -6 -3 -8 -9 -8h-16c-24 0 -39 -8 -45 -36zM309 -255c-4 0 -8 -2 -9 7c-1 7 2 9 9 12c20 5 62 30 61 66c0 19 -6 26 -18 39c-4 4 -22 17 -22 35c0 19 13 36 34 36c36 0 56 -48 57 -75c0 -92 -97 -120 -112 -120z" />
    <glyph glyph-name="Imacron" unicode="&#x12a;" horiz-adv-x="359" 
d="M130 108l125 462c13 49 -1 66 -36 66h-46c-8 0 -10 2 -9 8l5 23c1 4 4 6 13 6c12 0 65 -3 135 -3c82 0 125 3 139 3c10 0 13 -4 11 -10l-5 -19c-1 -5 -3 -8 -11 -8h-19c-61 0 -76 -10 -93 -71l-125 -463c-13 -48 1 -68 53 -68h35c6 0 7 -4 6 -10l-3 -19
c-1 -6 -2 -8 -12 -8c-11 0 -58 3 -145 3c-81 0 -137 -3 -148 -3c-7 0 -9 3 -8 8l4 19c2 8 3 10 9 10h43c59 0 67 20 82 74zM220 772v34c0 5 4 6 10 6h200c7 0 10 -1 10 -7v-33c0 -6 -3 -7 -9 -7h-203c-5 0 -8 1 -8 7z" />
    <glyph glyph-name="Iogonek" unicode="&#x12e;" horiz-adv-x="359" 
d="M467 663l-5 -19c-1 -5 -3 -8 -11 -8h-19c-61 0 -76 -10 -93 -71l-125 -463c-13 -48 1 -68 53 -68h35c6 0 7 -4 6 -10l-3 -19c-1 -6 -2 -8 -11 -8c-10 0 -48 10 -107 -4c-38 -9 -107 -98 -107 -156c0 -65 52 -71 67 -71c9 0 40 15 46 15c5 0 8 -6 8 -12
c0 -9 -34 -33 -76 -33c-46 0 -108 13 -108 80c0 81 106 167 135 184c-39 0 -81 -1 -105 -1c-25 -1 -41 -2 -47 -2c-7 0 -9 3 -8 8l4 19c2 8 3 10 9 10h43c59 0 67 20 82 74l125 462c13 49 -1 66 -36 66h-46c-8 0 -10 2 -9 8l5 23c1 4 4 6 13 6c12 0 65 -3 135 -3
c82 0 125 3 139 3c10 0 13 -4 11 -10z" />
    <glyph glyph-name="Kcommaaccent" unicode="&#x136;" horiz-adv-x="684" 
d="M276 319l-71 -219c-14 -44 2 -66 34 -66h25c5 0 8 -3 7 -10l-4 -19c-1 -5 -4 -8 -13 -8c-11 0 -55 3 -123 3c-75 0 -105 -3 -112 -3c-6 0 -9 5 -8 11l4 18c1 5 3 8 11 8h28c26 0 51 19 64 60l154 478c14 44 5 64 -33 64h-25c-8 0 -11 4 -9 10l7 21c2 5 5 6 12 6
c9 0 45 -3 112 -3c80 0 110 3 122 3c6 0 7 -4 6 -10l-3 -19c-1 -7 -4 -8 -12 -8h-24c-34 0 -53 -16 -65 -53l-75 -236c43 0 56 3 83 28c89 79 205 179 244 228c14 18 10 34 -17 34h-12c-7 0 -9 5 -8 10l4 18c2 6 5 8 11 8c10 0 52 -3 110 -3c60 0 88 3 97 3s12 -4 11 -9
l-4 -18c-2 -6 -3 -10 -10 -10h-31c-30 0 -56 -15 -79 -33c-41 -32 -287 -252 -301 -268c7 -14 154 -227 178 -256c18 -21 50 -45 72 -45h29c7 0 10 -5 9 -10l-4 -17c-2 -8 -4 -10 -13 -10c-12 0 -39 3 -102 3c-59 0 -114 -3 -126 -3c-7 0 -10 3 -9 11l2 16c1 7 3 10 9 10h15
c22 0 39 14 30 28c-8 12 -139 214 -162 243c-9 11 -15 14 -35 14zM236 -255c-4 0 -8 -2 -9 7c-1 7 2 9 9 12c20 5 62 30 61 66c0 19 -6 26 -18 39c-4 4 -22 17 -22 35c0 19 13 36 34 36c36 0 56 -48 57 -75c0 -92 -97 -120 -112 -120z" />
    <glyph glyph-name="Lacute" unicode="&#x139;" horiz-adv-x="625" 
d="M121 108l144 466c14 44 6 62 -43 62h-37c-7 0 -9 3 -8 8l7 23c1 5 4 6 12 6c11 0 54 -3 138 -3c85 0 131 3 142 3c6 0 9 -3 8 -8l-5 -21c-2 -6 -5 -8 -12 -8h-45c-38 0 -54 -11 -72 -69l-156 -504c-7 -22 3 -29 25 -29h40c65 0 188 1 207 4c18 3 27 9 35 16
c20 18 76 107 80 115c1 3 4 5 10 2l10 -4c6 -2 8 -4 6 -9c-4 -11 -38 -131 -42 -157c-2 -10 -7 -16 -12 -16c-6 0 -15 3 -26 6s-24 6 -37 6c-22 0 -148 3 -234 3c-112 0 -236 -3 -247 -3c-6 0 -9 2 -8 10l4 19c1 5 3 8 9 8h25c44 0 62 11 82 74zM324 729l-6 10
c-2 4 0 7 3 10l143 111c11 8 22 12 34 12c33 0 46 -57 8 -73l-174 -71c-4 -2 -7 -1 -8 1z" />
    <glyph glyph-name="Lcaron" unicode="&#x13d;" horiz-adv-x="625" 
d="M121 108l144 466c14 44 6 62 -43 62h-37c-7 0 -9 3 -8 8l7 23c1 5 4 6 12 6c11 0 54 -3 138 -3c85 0 131 3 142 3c6 0 9 -3 8 -8l-5 -21c-2 -6 -5 -8 -12 -8h-45c-38 0 -54 -11 -72 -69l-156 -504c-7 -22 3 -29 25 -29h40c65 0 188 1 207 4c18 3 27 9 35 16
c20 18 76 107 80 115c1 3 4 5 10 2l10 -4c6 -2 8 -4 6 -9c-4 -11 -38 -131 -42 -157c-2 -10 -7 -16 -12 -16c-6 0 -15 3 -26 6s-24 6 -37 6c-22 0 -148 3 -234 3c-112 0 -236 -3 -247 -3c-6 0 -9 2 -8 10l4 19c1 5 3 8 9 8h25c44 0 62 11 82 74zM557 475c-4 0 -8 -2 -9 7
c-1 7 2 9 9 12c20 5 62 30 61 66c0 19 -6 26 -18 39c-4 4 -22 17 -22 35c0 19 13 36 34 36c36 0 56 -48 57 -75c0 -92 -97 -120 -112 -120z" />
    <glyph glyph-name="Lcommaaccent" unicode="&#x13b;" horiz-adv-x="625" 
d="M121 108l144 466c14 44 6 62 -43 62h-37c-7 0 -9 3 -8 8l7 23c1 5 4 6 12 6c11 0 54 -3 138 -3c85 0 131 3 142 3c6 0 9 -3 8 -8l-5 -21c-2 -6 -5 -8 -12 -8h-45c-38 0 -54 -11 -72 -69l-156 -504c-7 -22 3 -29 25 -29h40c65 0 188 1 207 4c18 3 27 9 35 16
c20 18 76 107 80 115c1 3 4 5 10 2l10 -4c6 -2 8 -4 6 -9c-4 -11 -38 -131 -42 -157c-2 -10 -7 -16 -12 -16c-6 0 -15 3 -26 6s-24 6 -37 6c-22 0 -148 3 -234 3c-112 0 -236 -3 -247 -3c-6 0 -9 2 -8 10l4 19c1 5 3 8 9 8h25c44 0 62 11 82 74zM207 -255c-4 0 -8 -2 -9 7
c-1 7 2 9 9 12c20 5 62 30 61 66c0 19 -6 26 -18 39c-4 4 -22 17 -22 35c0 19 13 36 34 36c36 0 56 -48 57 -75c0 -92 -97 -120 -112 -120z" />
    <glyph glyph-name="Nacute" unicode="&#x143;" horiz-adv-x="746" 
d="M118 137l138 440c10 31 7 59 -58 59h-38c-6 0 -10 4 -8 12l4 15c2 7 3 10 11 10c13 0 53 -3 172 -3c15 0 16 -15 21 -26l215 -480c8 -17 11 -17 25 23l131 391c13 38 0 58 -32 58h-35c-9 0 -12 3 -11 11l3 18c1 5 3 8 10 8c12 0 43 -3 114 -3c52 0 72 3 86 3
c8 0 11 -5 9 -13l-3 -16c-1 -7 -3 -8 -9 -8h-25c-25 0 -38 -7 -55 -55l-194 -555c-11 -33 -29 -32 -41 -6l-238 531c-6 13 -14 13 -18 -1l-128 -423c-18 -60 -11 -93 34 -93h39c7 0 10 -4 9 -10l-3 -19c-2 -6 -3 -8 -12 -8c-10 0 -53 3 -126 3c-69 0 -102 -3 -112 -3
c-6 0 -9 4 -8 11l3 18c1 5 3 8 9 8h27c49 0 70 28 94 103zM475 729l-6 10c-2 4 0 7 3 10l143 111c11 8 22 12 34 12c33 0 46 -57 8 -73l-174 -71c-4 -2 -7 -1 -8 1z" />
    <glyph glyph-name="Ncaron" unicode="&#x147;" horiz-adv-x="746" 
d="M118 137l138 440c10 31 7 59 -58 59h-38c-6 0 -10 4 -8 12l4 15c2 7 3 10 11 10c13 0 53 -3 172 -3c15 0 16 -15 21 -26l215 -480c8 -17 11 -17 25 23l131 391c13 38 0 58 -32 58h-35c-9 0 -12 3 -11 11l3 18c1 5 3 8 10 8c12 0 43 -3 114 -3c52 0 72 3 86 3
c8 0 11 -5 9 -13l-3 -16c-1 -7 -3 -8 -9 -8h-25c-25 0 -38 -7 -55 -55l-194 -555c-11 -33 -29 -32 -41 -6l-238 531c-6 13 -14 13 -18 -1l-128 -423c-18 -60 -11 -93 34 -93h39c7 0 10 -4 9 -10l-3 -19c-2 -6 -3 -8 -12 -8c-10 0 -53 3 -126 3c-69 0 -102 -3 -112 -3
c-6 0 -9 4 -8 11l3 18c1 5 3 8 9 8h27c49 0 70 28 94 103zM525 812l119 62c3 1 5 1 7 -2l7 -11c2 -2 0 -4 -2 -6l-139 -120c-4 -3 -10 -3 -13 2l-71 120c-2 3 -1 6 2 8l10 9c4 3 7 1 11 -2z" />
    <glyph glyph-name="Ncommaaccent" unicode="&#x145;" horiz-adv-x="746" 
d="M118 137l138 440c10 31 7 59 -58 59h-38c-6 0 -10 4 -8 12l4 15c2 7 3 10 11 10c13 0 53 -3 172 -3c15 0 16 -15 21 -26l215 -480c8 -17 11 -17 25 23l131 391c13 38 0 58 -32 58h-35c-9 0 -12 3 -11 11l3 18c1 5 3 8 10 8c12 0 43 -3 114 -3c52 0 72 3 86 3
c8 0 11 -5 9 -13l-3 -16c-1 -7 -3 -8 -9 -8h-25c-25 0 -38 -7 -55 -55l-194 -555c-11 -33 -29 -32 -41 -6l-238 531c-6 13 -14 13 -18 -1l-128 -423c-18 -60 -11 -93 34 -93h39c7 0 10 -4 9 -10l-3 -19c-2 -6 -3 -8 -12 -8c-10 0 -53 3 -126 3c-69 0 -102 -3 -112 -3
c-6 0 -9 4 -8 11l3 18c1 5 3 8 9 8h27c49 0 70 28 94 103zM307 -235c-4 0 -8 -2 -9 7c-1 7 2 9 9 12c20 5 62 30 61 66c0 19 -6 26 -18 39c-4 4 -22 17 -22 35c0 19 13 36 34 36c36 0 56 -48 57 -75c0 -92 -97 -120 -112 -120z" />
    <glyph glyph-name="Ohungarumlaut" unicode="&#x150;" horiz-adv-x="709" 
d="M360 -15c-19 0 -106 -3 -174 68c-59 60 -84 138 -84 235c0 205 165 397 350 397c151 0 263 -121 263 -300c0 -186 -129 -400 -355 -400zM337 24c164 0 300 222 300 426c0 107 -55 191 -166 191c-61 0 -104 -29 -147 -72c-89 -89 -146 -243 -146 -346
c0 -142 85 -199 159 -199zM523 729l-6 9c-2 3 0 7 6 12l127 108c5 4 10 8 19 8c31 0 44 -44 14 -59l-151 -78c-3 -2 -6 -3 -9 0zM413 729l-6 7c-2 3 -1 7 2 10l116 120c9 9 14 13 29 13c23 0 44 -41 14 -60l-145 -90c-4 -3 -8 -3 -10 0z" />
    <glyph glyph-name="Omacron" unicode="&#x14c;" horiz-adv-x="709" 
d="M360 -15c-19 0 -106 -3 -174 68c-59 60 -84 138 -84 235c0 205 165 397 350 397c151 0 263 -121 263 -300c0 -186 -129 -400 -355 -400zM337 24c164 0 300 222 300 426c0 107 -55 191 -166 191c-61 0 -104 -29 -147 -72c-89 -89 -146 -243 -146 -346
c0 -142 85 -199 159 -199zM395 772v34c0 5 4 6 10 6h200c7 0 10 -1 10 -7v-33c0 -6 -3 -7 -9 -7h-203c-5 0 -8 1 -8 7z" />
    <glyph glyph-name="Racute" unicode="&#x154;" horiz-adv-x="694" 
d="M110 84l159 499c11 32 7 50 -29 50h-39c-8 0 -9 3 -8 8l5 21c1 6 3 8 13 8c105 0 208 3 224 3c72 0 226 -7 226 -143c0 -100 -108 -180 -225 -194v-2c24 -8 39 -39 50 -60c5 -10 74 -152 92 -182c25 -41 45 -58 88 -58h25c7 0 8 -4 7 -10l-3 -19c-1 -5 -3 -8 -10 -8
c-10 0 -26 3 -74 3c-44 0 -63 -3 -74 -3c-8 0 -13 8 -27 32s-103 221 -115 245c-29 56 -85 51 -123 51l-71 -219c-18 -57 -5 -72 37 -72h41c6 0 8 -3 7 -8l-3 -23c-1 -5 -5 -6 -12 -6c-11 0 -56 3 -140 3c-59 0 -98 -3 -110 -3c-6 0 -7 3 -6 8l4 21c1 6 3 8 10 8h19
c36 0 53 22 62 50zM371 640l-89 -283c51 0 111 -5 184 25c59 24 105 78 105 148c0 42 -37 111 -159 111c-18 0 -29 0 -41 -1zM429 729l-6 10c-2 4 0 7 3 10l143 111c11 8 22 12 34 12c33 0 46 -57 8 -73l-174 -71c-4 -2 -7 -1 -8 1z" />
    <glyph glyph-name="Rcaron" unicode="&#x158;" horiz-adv-x="694" 
d="M110 84l159 499c11 32 7 50 -29 50h-39c-8 0 -9 3 -8 8l5 21c1 6 3 8 13 8c105 0 208 3 224 3c72 0 226 -7 226 -143c0 -100 -108 -180 -225 -194v-2c24 -8 39 -39 50 -60c5 -10 74 -152 92 -182c25 -41 45 -58 88 -58h25c7 0 8 -4 7 -10l-3 -19c-1 -5 -3 -8 -10 -8
c-10 0 -26 3 -74 3c-44 0 -63 -3 -74 -3c-8 0 -13 8 -27 32s-103 221 -115 245c-29 56 -85 51 -123 51l-71 -219c-18 -57 -5 -72 37 -72h41c6 0 8 -3 7 -8l-3 -23c-1 -5 -5 -6 -12 -6c-11 0 -56 3 -140 3c-59 0 -98 -3 -110 -3c-6 0 -7 3 -6 8l4 21c1 6 3 8 10 8h19
c36 0 53 22 62 50zM371 640l-89 -283c51 0 111 -5 184 25c59 24 105 78 105 148c0 42 -37 111 -159 111c-18 0 -29 0 -41 -1zM469 812l119 62c3 1 5 1 7 -2l7 -11c2 -2 0 -4 -2 -6l-139 -120c-4 -3 -10 -3 -13 2l-71 120c-2 3 -1 6 2 8l10 9c4 3 7 1 11 -2z" />
    <glyph glyph-name="Rcommaaccent" unicode="&#x156;" horiz-adv-x="694" 
d="M110 84l159 499c11 32 7 50 -29 50h-39c-8 0 -9 3 -8 8l5 21c1 6 3 8 13 8c105 0 208 3 224 3c72 0 226 -7 226 -143c0 -100 -108 -180 -225 -194v-2c24 -8 39 -39 50 -60c5 -10 74 -152 92 -182c25 -41 45 -58 88 -58h25c7 0 8 -4 7 -10l-3 -19c-1 -5 -3 -8 -10 -8
c-10 0 -26 3 -74 3c-44 0 -63 -3 -74 -3c-8 0 -13 8 -27 32s-103 221 -115 245c-29 56 -85 51 -123 51l-71 -219c-18 -57 -5 -72 37 -72h41c6 0 8 -3 7 -8l-3 -23c-1 -5 -5 -6 -12 -6c-11 0 -56 3 -140 3c-59 0 -98 -3 -110 -3c-6 0 -7 3 -6 8l4 21c1 6 3 8 10 8h19
c36 0 53 22 62 50zM371 640l-89 -283c51 0 111 -5 184 25c59 24 105 78 105 148c0 42 -37 111 -159 111c-18 0 -29 0 -41 -1zM281 -235c-4 0 -8 -2 -9 7c-1 7 2 9 9 12c20 5 62 30 61 66c0 19 -6 26 -18 39c-4 4 -22 17 -22 35c0 19 13 36 34 36c36 0 56 -48 57 -75
c0 -92 -97 -120 -112 -120z" />
    <glyph glyph-name="Sacute" unicode="&#x15a;" horiz-adv-x="504" 
d="M57 33l74 218c2 5 5 5 11 4l10 -3c5 -2 9 -4 7 -11c-36 -149 53 -217 115 -217c64 0 116 51 116 118s-49 106 -93 154c-62 68 -111 119 -111 213c0 72 57 176 170 176c55 0 102 -34 118 -45c5 -3 8 -5 14 -5c8 0 12 14 16 35c1 3 3 4 10 3l13 -1c6 -1 8 -3 7 -7l-36 -190
c-1 -4 -3 -6 -8 -6l-14 1c-6 1 -10 3 -9 9c6 40 -7 167 -111 167c-62 0 -99 -55 -99 -109c0 -75 44 -105 90 -152c46 -46 109 -102 109 -207c0 -132 -93 -193 -181 -193c-64 0 -107 36 -147 76c-8 8 -17 7 -23 -2c-6 -8 -14 -23 -21 -38c-2 -4 -4 -6 -10 -3l-13 5
c-5 2 -6 3 -4 10zM354 729l-6 10c-2 4 0 7 3 10l143 111c11 8 22 12 34 12c33 0 46 -57 8 -73l-174 -71c-4 -2 -7 -1 -8 1z" />
    <glyph glyph-name="Scedilla" unicode="&#x15e;" horiz-adv-x="504" 
d="M57 33l74 218c2 5 5 5 11 4l10 -3c5 -2 9 -4 7 -11c-36 -149 53 -217 115 -217c64 0 116 51 116 118s-49 106 -93 154c-62 68 -111 119 -111 213c0 72 57 176 170 176c55 0 102 -34 118 -45c5 -3 8 -5 14 -5c8 0 12 14 16 35c1 3 3 4 10 3l13 -1c6 -1 8 -3 7 -7l-36 -190
c-1 -4 -3 -6 -8 -6l-14 1c-6 1 -10 3 -9 9c6 40 -7 167 -111 167c-62 0 -99 -55 -99 -109c0 -75 44 -105 90 -152c46 -46 109 -102 109 -207c0 -132 -93 -193 -181 -193h-9l-33 -48c32 -12 49 -32 49 -62c0 -51 -79 -97 -138 -97c-13 0 -19 5 -19 15c0 9 4 16 12 16
c20 1 84 12 84 58c0 19 -21 35 -48 43l58 81c-41 12 -73 40 -103 70c-8 8 -17 7 -23 -2c-6 -8 -14 -23 -21 -38c-2 -4 -4 -6 -10 -3l-13 5c-5 2 -6 3 -4 10z" />
    <glyph glyph-name="Scedilla" unicode="&#xf6c1;" horiz-adv-x="504" 
d="M57 33l74 218c2 5 5 5 11 4l10 -3c5 -2 9 -4 7 -11c-36 -149 53 -217 115 -217c64 0 116 51 116 118s-49 106 -93 154c-62 68 -111 119 -111 213c0 72 57 176 170 176c55 0 102 -34 118 -45c5 -3 8 -5 14 -5c8 0 12 14 16 35c1 3 3 4 10 3l13 -1c6 -1 8 -3 7 -7l-36 -190
c-1 -4 -3 -6 -8 -6l-14 1c-6 1 -10 3 -9 9c6 40 -7 167 -111 167c-62 0 -99 -55 -99 -109c0 -75 44 -105 90 -152c46 -46 109 -102 109 -207c0 -132 -93 -193 -181 -193h-9l-33 -48c32 -12 49 -32 49 -62c0 -51 -79 -97 -138 -97c-13 0 -19 5 -19 15c0 9 4 16 12 16
c20 1 84 12 84 58c0 19 -21 35 -48 43l58 81c-41 12 -73 40 -103 70c-8 8 -17 7 -23 -2c-6 -8 -14 -23 -21 -38c-2 -4 -4 -6 -10 -3l-13 5c-5 2 -6 3 -4 10z" />
    <glyph glyph-name="Scommaaccent" unicode="&#x218;" horiz-adv-x="504" 
d="M57 33l74 218c2 5 5 5 11 4l10 -3c5 -2 9 -4 7 -11c-36 -149 53 -217 115 -217c64 0 116 51 116 118s-49 106 -93 154c-62 68 -111 119 -111 213c0 72 57 176 170 176c55 0 102 -34 118 -45c5 -3 8 -5 14 -5c8 0 12 14 16 35c1 3 3 4 10 3l13 -1c6 -1 8 -3 7 -7l-36 -190
c-1 -4 -3 -6 -8 -6l-14 1c-6 1 -10 3 -9 9c6 40 -7 167 -111 167c-62 0 -99 -55 -99 -109c0 -75 44 -105 90 -152c46 -46 109 -102 109 -207c0 -132 -93 -193 -181 -193c-64 0 -107 36 -147 76c-8 8 -17 7 -23 -2c-6 -8 -14 -23 -21 -38c-2 -4 -4 -6 -10 -3l-13 5
c-5 2 -6 3 -4 10zM176 -255c-4 0 -8 -2 -9 7c-1 7 2 9 9 12c20 5 62 30 61 66c0 19 -6 26 -18 39c-4 4 -22 17 -22 35c0 19 13 36 34 36c36 0 56 -48 57 -75c0 -92 -97 -120 -112 -120z" />
    <glyph glyph-name="Tcaron" unicode="&#x164;" horiz-adv-x="664" 
d="M354 670h299c49 0 78 5 96 10c17 4 24 9 26 9c4 0 7 -2 6 -10c-2 -14 -12 -158 -9 -198c0 -6 -2 -7 -8 -8l-13 -1c-9 -1 -11 2 -13 13c-5 33 -23 103 -37 132c-28 11 -120 21 -153 21h-21l-165 -518c-20 -64 -13 -86 43 -86h39c7 0 8 -5 7 -10l-4 -19c-1 -5 -3 -8 -13 -8
c-14 0 -54 3 -150 3c-72 0 -125 -3 -136 -3c-8 0 -9 3 -8 10l3 19c1 5 3 8 11 8h27c60 0 78 27 102 103l160 501h-26c-97 0 -151 -11 -180 -20c-40 -34 -86 -92 -102 -118c-3 -5 -7 -5 -13 -3l-13 6c-4 2 -4 6 -2 10c12 23 74 160 76 166s3 10 8 10c11 0 34 -19 163 -19z
M519 812l119 62c3 1 5 1 7 -2l7 -11c2 -2 0 -4 -2 -6l-139 -120c-4 -3 -10 -3 -13 2l-71 120c-2 3 -1 6 2 8l10 9c4 3 7 1 11 -2z" />
    <glyph glyph-name="Tcommaaccent" unicode="&#x162;" horiz-adv-x="664" 
d="M354 670h299c49 0 78 5 96 10c17 4 24 9 26 9c4 0 7 -2 6 -10c-2 -14 -12 -158 -9 -198c0 -6 -2 -7 -8 -8l-13 -1c-9 -1 -11 2 -13 13c-5 33 -23 103 -37 132c-28 11 -120 21 -153 21h-21l-165 -518c-20 -64 -13 -86 43 -86h39c7 0 8 -5 7 -10l-4 -19c-1 -5 -3 -8 -13 -8
c-14 0 -54 3 -150 3c-72 0 -125 -3 -136 -3c-8 0 -9 3 -8 10l3 19c1 5 3 8 11 8h27c60 0 78 27 102 103l160 501h-26c-97 0 -151 -11 -180 -20c-40 -34 -86 -92 -102 -118c-3 -5 -7 -5 -13 -3l-13 6c-4 2 -4 6 -2 10c12 23 74 160 76 166s3 10 8 10c11 0 34 -19 163 -19z
M206 -255c-4 0 -8 -2 -9 7c-1 7 2 9 9 12c20 5 62 30 61 66c0 19 -6 26 -18 39c-4 4 -22 17 -22 35c0 19 13 36 34 36c36 0 56 -48 57 -75c0 -92 -97 -120 -112 -120z" />
    <glyph glyph-name="Uhungarumlaut" unicode="&#x170;" horiz-adv-x="731" 
d="M761 590l-98 -311c-57 -185 -146 -294 -303 -294c-134 0 -233 59 -233 183c0 42 15 104 21 125l85 281c15 45 4 62 -28 62h-36c-5 0 -8 2 -7 8l5 21c1 6 3 8 13 8c12 0 47 -3 119 -3c81 0 115 3 125 3c8 0 10 -3 9 -10l-4 -19c-1 -5 -4 -8 -10 -8h-32
c-24 0 -48 -4 -64 -57l-82 -267c-6 -22 -29 -96 -29 -141c0 -126 123 -141 158 -141c44 0 98 21 130 50c46 41 78 96 112 207l88 288c15 48 -6 61 -37 61h-38c-9 0 -10 3 -9 8l3 19c2 7 4 10 13 10c12 0 50 -3 122 -3c58 0 81 3 91 3c9 0 10 -3 9 -10l-3 -19
c-1 -5 -3 -8 -11 -8h-21c-32 0 -47 -19 -58 -46zM544 729l-6 9c-2 3 0 7 6 12l127 108c5 4 10 8 19 8c31 0 44 -44 14 -59l-151 -78c-3 -2 -6 -3 -9 0zM434 729l-6 7c-2 3 -1 7 2 10l116 120c9 9 14 13 29 13c23 0 44 -41 14 -60l-145 -90c-4 -3 -8 -3 -10 0z" />
    <glyph glyph-name="Umacron" unicode="&#x16a;" horiz-adv-x="731" 
d="M761 590l-98 -311c-57 -185 -146 -294 -303 -294c-134 0 -233 59 -233 183c0 42 15 104 21 125l85 281c15 45 4 62 -28 62h-36c-5 0 -8 2 -7 8l5 21c1 6 3 8 13 8c12 0 47 -3 119 -3c81 0 115 3 125 3c8 0 10 -3 9 -10l-4 -19c-1 -5 -4 -8 -10 -8h-32
c-24 0 -48 -4 -64 -57l-82 -267c-6 -22 -29 -96 -29 -141c0 -126 123 -141 158 -141c44 0 98 21 130 50c46 41 78 96 112 207l88 288c15 48 -6 61 -37 61h-38c-9 0 -10 3 -9 8l3 19c2 7 4 10 13 10c12 0 50 -3 122 -3c58 0 81 3 91 3c9 0 10 -3 9 -10l-3 -19
c-1 -5 -3 -8 -11 -8h-21c-32 0 -47 -19 -58 -46zM436 772v34c0 5 4 6 10 6h200c7 0 10 -1 10 -7v-33c0 -6 -3 -7 -9 -7h-203c-5 0 -8 1 -8 7z" />
    <glyph glyph-name="Uogonek" unicode="&#x172;" horiz-adv-x="731" 
d="M854 663l-3 -19c-1 -5 -3 -8 -11 -8h-21c-32 0 -49 -18 -58 -46l-101 -316c-61 -192 -130 -245 -217 -279c-41 -16 -102 -119 -102 -158c0 -65 52 -71 67 -71c9 0 40 15 46 15c5 0 8 -6 8 -12c0 -9 -34 -33 -76 -33c-46 0 -108 13 -108 80c0 69 64 125 114 171
c-29 -4 -33 -3 -59 -1c-119 8 -206 67 -206 182c0 42 15 104 21 125l85 281c14 45 4 62 -28 62h-36c-5 0 -8 2 -7 8l5 21c1 6 3 8 13 8c12 0 47 -3 119 -3c81 0 115 3 125 3c8 0 10 -3 9 -10l-4 -19c-1 -5 -4 -8 -10 -8h-32c-24 0 -48 -4 -64 -57l-82 -267
c-7 -22 -29 -96 -29 -141c0 -126 123 -141 158 -141c44 0 98 21 130 50c46 41 78 96 112 207l88 288c15 48 -6 61 -37 61h-38c-9 0 -10 3 -9 8l3 19c2 7 4 10 13 10c12 0 50 -3 122 -3c58 0 81 3 91 3c9 0 10 -3 9 -10z" />
    <glyph glyph-name="Uring" unicode="&#x16e;" horiz-adv-x="731" 
d="M761 590l-98 -311c-57 -185 -146 -294 -303 -294c-134 0 -233 59 -233 183c0 42 15 104 21 125l85 281c15 45 4 62 -28 62h-36c-5 0 -8 2 -7 8l5 21c1 6 3 8 13 8c12 0 47 -3 119 -3c81 0 115 3 125 3c8 0 10 -3 9 -10l-4 -19c-1 -5 -4 -8 -10 -8h-32
c-24 0 -48 -4 -64 -57l-82 -267c-6 -22 -29 -96 -29 -141c0 -126 123 -141 158 -141c44 0 98 21 130 50c46 41 78 96 112 207l88 288c15 48 -6 61 -37 61h-38c-9 0 -10 3 -9 8l3 19c2 7 4 10 13 10c12 0 50 -3 122 -3c58 0 81 3 91 3c9 0 10 -3 9 -10l-3 -19
c-1 -5 -3 -8 -11 -8h-21c-32 0 -47 -19 -58 -46zM555 726c-54 0 -100 27 -100 69c0 56 55 84 107 84s100 -24 100 -80c0 -44 -50 -73 -107 -73zM559 751c23 0 50 15 50 52c0 39 -33 51 -52 51c-23 0 -49 -19 -49 -52c0 -36 26 -51 51 -51z" />
    <glyph glyph-name="Zacute" unicode="&#x179;" horiz-adv-x="677" 
d="M389 0h-316c-18 0 -13 16 -8 22l527 612c-144 0 -269 -3 -305 -7c-48 -5 -82 -45 -95 -74c-3 -5 -6 -6 -9 -5l-14 5c-5 2 -5 4 -4 8l38 114c1 4 5 10 10 10s10 -2 17 -6s116 -9 144 -9h324c17 0 14 -15 8 -22l-523 -611c184 0 264 1 333 14c54 10 79 36 110 88
c3 5 6 5 10 3l14 -7c3 -1 5 -4 3 -10l-47 -131c-2 -5 -5 -6 -9 -6c-6 0 -14 2 -19 4c-18 5 -160 8 -189 8zM420 729l-6 10c-2 4 0 7 3 10l143 111c11 8 22 12 34 12c33 0 46 -57 8 -73l-174 -71c-4 -2 -7 -1 -8 1z" />
    <glyph glyph-name="Zdotaccent" unicode="&#x17b;" horiz-adv-x="677" 
d="M389 0h-316c-18 0 -13 16 -8 22l527 612c-144 0 -269 -3 -305 -7c-48 -5 -82 -45 -95 -74c-3 -5 -6 -6 -9 -5l-14 5c-5 2 -5 4 -4 8l38 114c1 4 5 10 10 10s10 -2 17 -6s116 -9 144 -9h324c17 0 14 -15 8 -22l-523 -611c184 0 264 1 333 14c54 10 79 36 110 88
c3 5 6 5 10 3l14 -7c3 -1 5 -4 3 -10l-47 -131c-2 -5 -5 -6 -9 -6c-6 0 -14 2 -19 4c-18 5 -160 8 -189 8zM462 738c-22 0 -54 9 -54 48c0 19 10 50 54 50c26 0 49 -18 49 -51c0 -28 -22 -47 -49 -47z" />
    <glyph glyph-name="Idotaccent" unicode="&#x130;" horiz-adv-x="359" 
d="M130 108l125 462c13 49 -1 66 -36 66h-46c-8 0 -10 2 -9 8l5 23c1 4 4 6 13 6c12 0 65 -3 135 -3c82 0 125 3 139 3c10 0 13 -4 11 -10l-5 -19c-1 -5 -3 -8 -11 -8h-19c-61 0 -76 -10 -93 -71l-125 -463c-13 -48 1 -68 53 -68h35c6 0 7 -4 6 -10l-3 -19
c-1 -6 -2 -8 -12 -8c-11 0 -58 3 -145 3c-81 0 -137 -3 -148 -3c-7 0 -9 3 -8 8l4 19c2 8 3 10 9 10h43c59 0 67 20 82 74zM343 738c-22 0 -54 9 -54 48c0 19 10 50 54 50c26 0 49 -18 49 -51c0 -28 -22 -47 -49 -47z" />
    <glyph glyph-name="abreve" unicode="&#x103;" horiz-adv-x="455" 
d="M420 416h35c4 0 5 -5 3 -9c-19 -41 -70 -179 -75 -195c-6 -17 -48 -141 -48 -150s5 -12 11 -12c12 0 63 52 70 61c3 3 6 5 8 2l9 -10c3 -3 4 -5 2 -8c-11 -20 -98 -105 -155 -105c-12 0 -21 4 -21 17c0 15 10 46 48 152l-5 2c-42 -64 -143 -171 -214 -171
c-23 0 -54 19 -54 64c0 146 164 362 286 362c42 0 61 -18 71 -34l19 27c3 4 6 7 10 7zM134 43c50 0 177 162 195 199c14 29 24 54 24 83c0 27 -10 59 -47 59c-92 0 -199 -211 -199 -306c0 -23 10 -35 27 -35zM347 476c-41 0 -83 32 -88 94c-1 8 0 11 4 12l10 3
c4 1 6 -3 9 -9c17 -31 52 -47 81 -47c47 0 78 29 94 49c6 7 8 10 12 7l11 -5c4 -2 3 -5 -1 -13c-23 -44 -68 -91 -132 -91z" />
    <glyph glyph-name="amacron" unicode="&#x101;" horiz-adv-x="455" 
d="M420 416h35c4 0 5 -5 3 -9c-19 -41 -70 -179 -75 -195c-6 -17 -48 -141 -48 -150s5 -12 11 -12c12 0 63 52 70 61c3 3 6 5 8 2l9 -10c3 -3 4 -5 2 -8c-11 -20 -98 -105 -155 -105c-12 0 -21 4 -21 17c0 15 10 46 48 152l-5 2c-42 -64 -143 -171 -214 -171
c-23 0 -54 19 -54 64c0 146 164 362 286 362c42 0 61 -18 71 -34l19 27c3 4 6 7 10 7zM134 43c50 0 177 162 195 199c14 29 24 54 24 83c0 27 -10 59 -47 59c-92 0 -199 -211 -199 -306c0 -23 10 -35 27 -35zM259 516v30c0 5 4 6 10 6h180c7 0 10 -1 10 -7v-29
c0 -4 -3 -7 -9 -7h-183c-6 0 -8 2 -8 7z" />
    <glyph glyph-name="aogonek" unicode="&#x105;" horiz-adv-x="455" 
d="M458 407c-19 -41 -70 -179 -75 -195c-6 -17 -48 -141 -48 -150s5 -12 11 -12c12 0 63 52 70 61c3 3 6 5 8 2l9 -10c3 -3 4 -5 2 -8c-21 -37 -72 -67 -113 -98c-37 -28 -86 -72 -86 -123c0 -43 39 -54 54 -54c9 0 22 10 28 10c5 0 8 -6 8 -12c0 -9 -16 -28 -58 -28
c-46 0 -95 22 -95 63c0 61 90 130 106 137c-9 1 -20 6 -20 17c0 15 10 46 48 152l-5 2c-42 -64 -143 -171 -214 -171c-23 0 -54 19 -54 64c0 146 164 362 286 362c42 0 61 -18 71 -34l19 27c3 4 6 7 10 7h35c4 0 5 -5 3 -9zM353 325c0 27 -10 59 -47 59
c-92 0 -199 -211 -199 -306c0 -23 10 -35 27 -35c50 0 177 162 195 199c14 29 24 54 24 83z" />
    <glyph glyph-name="cacute" unicode="&#x107;" horiz-adv-x="302" 
d="M118 -10c-35 0 -75 25 -75 92c0 136 111 334 227 334c47 0 57 -38 57 -56c0 -24 -23 -42 -41 -42c-13 0 -22 7 -26 22c-3 11 -15 26 -31 26c-25 0 -51 -24 -73 -69c-27 -58 -43 -144 -43 -175c0 -73 22 -83 40 -83c39 0 77 40 88 54c3 4 6 6 9 4l11 -10c3 -2 5 -5 1 -11
c-14 -21 -80 -86 -144 -86zM233 467l-7 10c-2 2 1 5 4 8l126 103c11 10 21 15 35 15c27 0 43 -46 1 -66l-151 -71c-4 -2 -7 -1 -8 1z" />
    <glyph glyph-name="ccaron" unicode="&#x10d;" horiz-adv-x="302" 
d="M118 -10c-35 0 -75 25 -75 92c0 136 111 334 227 334c47 0 57 -38 57 -56c0 -24 -23 -42 -41 -42c-13 0 -22 7 -26 22c-3 11 -15 26 -31 26c-25 0 -51 -24 -73 -69c-27 -58 -43 -144 -43 -175c0 -73 22 -83 40 -83c39 0 77 40 88 54c3 4 6 6 9 4l11 -10c3 -2 5 -5 1 -11
c-14 -21 -80 -86 -144 -86zM292 552l100 65c2 1 5 2 7 -1l6 -9c2 -2 0 -4 -3 -7l-125 -128c-4 -3 -8 -2 -10 4l-45 130c-2 3 -2 6 1 8l8 4c3 2 6 2 8 0z" />
    <glyph glyph-name="dcaron" unicode="&#x10f;" horiz-adv-x="566" 
d="M447 641h-31c-8 0 -9 4 -8 7l6 21c1 4 3 6 12 6h123c14 0 16 -10 12 -18c-15 -35 -190 -503 -207 -563c-9 -31 -10 -46 4 -46c17 0 65 46 70 52c4 3 8 3 11 -1l10 -10c3 -2 3 -6 0 -10c-7 -9 -93 -89 -146 -89c-16 0 -27 5 -27 23c0 20 22 88 44 145l-8 2
c-49 -78 -143 -170 -211 -170c-34 0 -64 23 -64 66c0 79 56 198 138 279c32 31 90 81 157 81c27 0 46 -13 63 -33l77 219c7 19 2 39 -25 39zM139 41c42 0 119 82 159 137c28 38 65 101 65 140c0 47 -21 66 -53 66c-94 0 -200 -219 -200 -311c0 -21 15 -32 29 -32zM596 480
c-4 0 -8 -2 -9 7c-1 7 2 9 9 12c20 5 62 30 61 66c0 19 -6 26 -18 39c-4 4 -22 17 -22 35c0 19 13 36 34 36c36 0 56 -48 57 -75c0 -92 -97 -120 -112 -120z" />
    <glyph glyph-name="dcroat" unicode="&#x111;" horiz-adv-x="491" 
d="M447 641h-31c-8 0 -9 4 -8 7l6 21c1 4 3 6 12 6h123c14 0 16 -10 11 -17c-4 -10 -20 -53 -41 -111h62c7 0 10 -2 9 -6l-5 -24c-1 -5 -5 -3 -12 -7h-68c-58 -154 -140 -376 -151 -416c-9 -31 -10 -46 4 -46c17 0 65 46 70 52c4 3 8 3 11 -1l10 -10c3 -2 3 -6 0 -10
c-7 -9 -93 -89 -146 -89c-16 0 -27 5 -27 23c0 20 22 88 44 145l-8 2c-49 -78 -143 -170 -211 -170c-34 0 -64 23 -64 66c0 79 56 198 138 279c32 31 90 81 157 81c27 0 46 -13 63 -33l45 127h-149c-6 0 -10 3 -9 7l4 24c1 4 4 6 10 6h157l19 55c7 19 2 39 -25 39zM139 41
c42 0 119 82 159 137c28 38 65 101 65 140c0 47 -21 66 -53 66c-94 0 -200 -219 -200 -311c0 -21 15 -32 29 -32z" />
    <glyph glyph-name="ecaron" unicode="&#x11b;" horiz-adv-x="349" 
d="M137 -10c-65 0 -93 32 -93 98c0 84 55 189 128 261c32 32 86 67 134 67c39 0 57 -29 57 -53c0 -49 -37 -101 -93 -130c-54 -27 -108 -38 -145 -41c-5 -12 -13 -45 -13 -92c0 -45 33 -63 52 -63c49 0 93 37 114 71c2 3 5 5 9 1l11 -9c5 -3 5 -6 1 -9
c-25 -35 -85 -101 -162 -101zM267 372c-64 0 -126 -115 -134 -151c35 -3 166 39 166 113c0 20 -10 38 -32 38zM325 552l100 65c2 1 5 2 7 -1l6 -9c2 -2 0 -4 -3 -7l-125 -128c-4 -3 -8 -2 -10 4l-45 130c-2 3 -2 6 1 8l8 4c3 2 6 2 8 0z" />
    <glyph glyph-name="edotaccent" unicode="&#x117;" horiz-adv-x="349" 
d="M137 -10c-65 0 -93 32 -93 98c0 84 55 189 128 261c32 32 86 67 134 67c39 0 57 -29 57 -53c0 -49 -37 -101 -93 -130c-54 -27 -108 -38 -145 -41c-5 -12 -13 -45 -13 -92c0 -45 33 -63 52 -63c49 0 93 37 114 71c2 3 5 5 9 1l11 -9c5 -3 5 -6 1 -9
c-25 -35 -85 -101 -162 -101zM267 372c-64 0 -126 -115 -134 -151c35 -3 166 39 166 113c0 20 -10 38 -32 38zM329 550c-44 0 -52 37 -52 48c0 27 21 50 52 50c35 0 53 -25 53 -48c0 -15 -12 -50 -53 -50z" />
    <glyph glyph-name="emacron" unicode="&#x113;" horiz-adv-x="349" 
d="M137 -10c-65 0 -93 32 -93 98c0 84 55 189 128 261c32 32 86 67 134 67c39 0 57 -29 57 -53c0 -49 -37 -101 -93 -130c-54 -27 -108 -38 -145 -41c-5 -12 -13 -45 -13 -92c0 -45 33 -63 52 -63c49 0 93 37 114 71c2 3 5 5 9 1l11 -9c5 -3 5 -6 1 -9
c-25 -35 -85 -101 -162 -101zM267 372c-64 0 -126 -115 -134 -151c35 -3 166 39 166 113c0 20 -10 38 -32 38zM206 516v30c0 5 4 6 10 6h180c7 0 10 -1 10 -7v-29c0 -4 -3 -7 -9 -7h-183c-6 0 -8 2 -8 7z" />
    <glyph glyph-name="eogonek" unicode="&#x119;" horiz-adv-x="349" 
d="M363 363c0 -49 -37 -101 -93 -130c-54 -27 -108 -38 -145 -41c-5 -12 -13 -45 -13 -92c0 -45 33 -63 52 -63c49 0 93 37 114 71c2 3 5 5 9 1l11 -9c5 -3 5 -6 0 -9c-19 -27 -61 -66 -111 -93c-35 -19 -88 -82 -88 -124c0 -43 39 -54 54 -54c9 0 22 10 28 10
c5 0 8 -6 8 -12c0 -9 -16 -28 -58 -28c-46 0 -95 22 -95 63c0 65 71 113 105 137c-69 0 -97 29 -97 98c0 84 55 189 128 261c32 32 86 67 134 67c39 0 57 -29 57 -53zM299 334c0 20 -10 38 -32 38c-64 0 -126 -115 -134 -151c35 -3 166 39 166 113z" />
    <glyph glyph-name="gbreve" unicode="&#x11f;" horiz-adv-x="432" 
d="M153 -297c-104 0 -205 59 -205 131c0 74 120 123 169 144c-29 21 -38 39 -38 58s18 36 85 74c-27 7 -78 43 -78 115c0 75 66 191 177 191c50 0 76 -32 85 -47c11 11 48 37 85 37c33 0 42 -27 42 -39c0 -11 -7 -31 -32 -31c-19 0 -27 8 -33 15c-5 5 -13 7 -19 7
c-9 0 -25 -7 -29 -14c4 -10 8 -41 8 -56c0 -48 -28 -160 -143 -180c-18 -3 -27 -5 -30 -7c-19 -8 -52 -31 -52 -48c0 -11 10 -22 17 -27c17 -12 65 -42 130 -85c58 -38 74 -71 74 -108c0 -16 -17 -130 -213 -130zM197 131c73 0 109 121 109 193c0 46 -18 67 -45 67
c-60 0 -111 -117 -111 -192c0 -45 17 -68 47 -68zM17 -159c0 -69 89 -107 156 -107c68 0 125 24 125 80c0 44 -42 71 -67 88c-9 6 -74 48 -88 57c-82 -33 -126 -71 -126 -118zM271 476c-41 0 -83 32 -88 94c-1 8 0 11 4 12l10 3c4 1 6 -3 9 -9c17 -31 52 -47 81 -47
c47 0 78 29 94 49c6 7 8 10 12 7l11 -5c4 -2 3 -5 -1 -13c-23 -44 -68 -91 -132 -91z" />
    <glyph glyph-name="gcommaaccent" unicode="&#x123;" horiz-adv-x="432" 
d="M153 -297c-104 0 -205 59 -205 131c0 74 120 123 169 144c-29 21 -38 39 -38 58s18 36 85 74c-27 7 -78 43 -78 115c0 75 66 191 177 191c50 0 76 -32 85 -47c11 11 48 37 85 37c33 0 42 -27 42 -39c0 -11 -7 -31 -32 -31c-19 0 -27 8 -33 15c-5 5 -13 7 -19 7
c-9 0 -25 -7 -29 -14c4 -10 8 -41 8 -56c0 -48 -28 -160 -143 -180c-18 -3 -27 -5 -30 -7c-19 -8 -52 -31 -52 -48c0 -11 10 -22 17 -27c17 -12 65 -42 130 -85c58 -38 74 -71 74 -108c0 -16 -17 -130 -213 -130zM197 131c73 0 109 121 109 193c0 46 -18 67 -45 67
c-60 0 -111 -117 -111 -192c0 -45 17 -68 47 -68zM17 -159c0 -69 89 -107 156 -107c68 0 125 24 125 80c0 44 -42 71 -67 88c-9 6 -74 48 -88 57c-82 -33 -126 -71 -126 -118zM348 660c4 0 8 2 9 -7c1 -7 -2 -9 -8 -12c-20 -5 -62 -30 -62 -66c0 -19 6 -26 18 -39
c4 -4 22 -17 23 -35c0 -19 -13 -36 -35 -36c-36 0 -56 48 -56 75c0 92 97 120 111 120z" />
    <glyph glyph-name="imacron" unicode="&#x12b;" horiz-adv-x="287" 
d="M92 -10c-10 1 -17 9 -17 25c0 23 18 69 59 181l29 78c10 27 18 47 18 59c0 9 -6 13 -14 13c-17 0 -64 -54 -80 -70c-4 -4 -8 -4 -11 -1l-8 9c-4 3 -6 5 -3 9c4 6 106 126 170 123c12 0 24 -8 24 -25c0 -18 -16 -63 -34 -111l-58 -152c-13 -37 -18 -59 -18 -66
c0 -9 3 -15 11 -17c21 4 75 61 80 70c2 3 6 3 11 -2l8 -7c4 -5 5 -7 2 -12c-6 -8 -86 -104 -169 -104zM125 516v30c0 5 4 6 10 6h180c7 0 10 -1 10 -7v-29c0 -4 -3 -7 -9 -7h-183c-6 0 -8 2 -8 7z" />
    <glyph glyph-name="iogonek" unicode="&#x12f;" horiz-adv-x="287" 
d="M310 640c0 -15 -12 -50 -53 -50c-44 0 -52 37 -52 48c0 27 21 50 52 50c35 0 53 -25 53 -48zM261 93c-5 -6 -67 -57 -120 -98c-37 -28 -84 -70 -84 -121c0 -43 39 -54 54 -54c9 0 22 10 28 10c5 0 8 -6 8 -12c0 -9 -16 -28 -58 -28c-46 0 -95 22 -95 63
c0 56 67 110 105 136c-5 3 -24 -3 -24 26c0 23 17 69 59 181l29 78c10 27 18 47 18 59c0 9 -6 13 -14 13c-17 0 -64 -54 -80 -70c-4 -4 -8 -4 -11 -1l-8 9c-4 3 -6 5 -3 9c4 6 106 126 170 123c12 0 24 -8 24 -25c0 -18 -16 -63 -34 -111l-58 -152c-14 -37 -18 -59 -18 -66
c0 -9 3 -15 11 -17c21 4 75 61 80 70c2 3 6 3 11 -2l8 -7c4 -5 5 -7 2 -13z" />
    <glyph glyph-name="kcommaaccent" unicode="&#x137;" horiz-adv-x="434" 
d="M177 244l-23 -55c95 -11 211 86 211 148c0 16 -12 30 -28 30c-51 0 -119 -70 -133 -86c-8 -9 -21 -25 -27 -37zM68 0h-43c-6 0 -8 4 -5 11l236 586c11 27 1 44 -36 44h-27c-6 0 -7 4 -5 10l6 16c3 5 4 8 12 8h133c10 0 10 -11 8 -17l-144 -347l5 -2
c31 40 103 107 170 107c21 0 52 -11 52 -59c0 -79 -140 -159 -185 -176v-4l65 -105c15 -25 32 -41 50 -41c19 0 36 15 47 26c3 4 7 4 9 1l10 -11c2 -2 2 -5 -1 -9c-5 -6 -43 -48 -84 -48c-50 0 -67 13 -91 59l-55 105c-7 13 -22 14 -50 11l-62 -158c-2 -6 -6 -7 -15 -7z
M111 -255c-4 0 -8 -2 -9 7c-1 7 2 9 9 12c20 5 62 30 61 66c0 19 -6 26 -18 39c-4 4 -22 17 -22 35c0 19 13 36 34 36c36 0 56 -48 57 -75c0 -92 -97 -120 -112 -120z" />
    <glyph glyph-name="lacute" unicode="&#x13a;" horiz-adv-x="254" 
d="M72 127l175 451c15 38 14 63 -15 63h-29c-7 0 -8 4 -6 9l6 18c2 6 4 7 10 7h124c9 0 12 -6 9 -15l-208 -529c-9 -23 -33 -78 -12 -78c16 0 62 39 74 52c4 4 6 3 9 0l11 -12c2 -2 3 -6 -1 -10c-5 -8 -98 -93 -162 -93c-13 0 -22 6 -22 29c0 15 25 78 37 108zM279 729
l-6 10c-2 4 0 7 3 10l143 111c11 8 22 12 34 12c33 0 46 -57 8 -73l-174 -71c-4 -2 -7 -1 -8 1z" />
    <glyph glyph-name="lcaron" unicode="&#x13e;" horiz-adv-x="356" 
d="M72 127l175 451c15 38 14 63 -15 63h-29c-7 0 -8 4 -6 9l6 18c2 6 4 7 10 7h124c9 0 12 -6 9 -15l-208 -529c-9 -23 -33 -78 -12 -78c16 0 62 39 74 52c4 4 6 3 9 0l11 -12c2 -2 3 -6 -1 -10c-5 -8 -98 -93 -162 -93c-13 0 -22 6 -22 29c0 15 25 78 37 108zM381 480
c-4 0 -8 -2 -9 7c-1 7 2 9 9 12c20 5 62 30 61 66c0 19 -6 26 -18 39c-4 4 -22 17 -22 35c0 19 13 36 34 36c36 0 56 -48 57 -75c0 -92 -97 -120 -112 -120z" />
    <glyph glyph-name="lcommaaccent" unicode="&#x13c;" horiz-adv-x="254" 
d="M72 127l175 451c15 38 14 63 -15 63h-29c-7 0 -8 4 -6 9l6 18c2 6 4 7 10 7h124c9 0 12 -6 9 -15l-208 -529c-9 -23 -33 -78 -12 -78c16 0 62 39 74 52c4 4 6 3 9 0l11 -12c2 -2 3 -6 -1 -10c-5 -8 -98 -93 -162 -93c-13 0 -22 6 -22 29c0 15 25 78 37 108zM-9 -255
c-4 0 -8 -2 -9 7c-1 7 2 9 9 12c20 5 62 30 61 66c0 19 -6 26 -18 39c-4 4 -22 17 -22 35c0 19 13 36 34 36c36 0 56 -48 57 -75c0 -92 -97 -120 -112 -120z" />
    <glyph glyph-name="nacute" unicode="&#x144;" horiz-adv-x="519" 
d="M111 0h-39c-11 0 -13 2 -11 9l71 185c24 62 52 134 52 151c0 10 -4 17 -15 17c-19 0 -67 -48 -84 -67c-3 -3 -6 -3 -10 1l-9 9c-4 4 -5 6 -2 10c15 18 89 101 161 101c23 0 32 -17 32 -30c0 -31 -43 -126 -51 -149l4 -2c30 48 139 181 228 181c30 0 50 -15 50 -41
c0 -44 -23 -96 -56 -177c-27 -66 -51 -122 -51 -138c0 -6 4 -13 12 -13c15 0 59 37 72 51c4 3 8 2 11 -2l7 -8c4 -4 5 -6 1 -11c-12 -16 -93 -87 -160 -87c-13 0 -24 5 -24 20c0 19 36 98 67 184c14 39 50 122 50 144c0 14 -7 23 -25 23c-39 0 -138 -92 -182 -163
c-18 -29 -34 -55 -60 -125l-25 -67c-2 -4 -4 -6 -14 -6zM301 467l-7 10c-2 2 1 5 4 8l126 103c11 10 21 15 35 15c27 0 43 -46 1 -66l-151 -71c-4 -2 -7 -1 -8 1z" />
    <glyph glyph-name="ncaron" unicode="&#x148;" horiz-adv-x="519" 
d="M111 0h-39c-11 0 -13 2 -11 9l71 185c24 62 52 134 52 151c0 10 -4 17 -15 17c-19 0 -67 -48 -84 -67c-3 -3 -6 -3 -10 1l-9 9c-4 4 -5 6 -2 10c15 18 89 101 161 101c23 0 32 -17 32 -30c0 -31 -43 -126 -51 -149l4 -2c30 48 139 181 228 181c30 0 50 -15 50 -41
c0 -44 -23 -96 -56 -177c-27 -66 -51 -122 -51 -138c0 -6 4 -13 12 -13c15 0 59 37 72 51c4 3 8 2 11 -2l7 -8c4 -4 5 -6 1 -11c-12 -16 -93 -87 -160 -87c-13 0 -24 5 -24 20c0 19 36 98 67 184c14 39 50 122 50 144c0 14 -7 23 -25 23c-39 0 -138 -92 -182 -163
c-18 -29 -34 -55 -60 -125l-25 -67c-2 -4 -4 -6 -14 -6zM370 552l100 65c2 1 5 2 7 -1l6 -9c2 -2 0 -4 -3 -7l-125 -128c-4 -3 -8 -2 -10 4l-45 130c-2 3 -2 6 1 8l8 4c3 2 6 2 8 0z" />
    <glyph glyph-name="ncommaaccent" unicode="&#x146;" horiz-adv-x="519" 
d="M111 0h-39c-11 0 -13 2 -11 9l71 185c24 62 52 134 52 151c0 10 -4 17 -15 17c-19 0 -67 -48 -84 -67c-3 -3 -6 -3 -10 1l-9 9c-4 4 -5 6 -2 10c15 18 89 101 161 101c23 0 32 -17 32 -30c0 -31 -43 -126 -51 -149l4 -2c30 48 139 181 228 181c30 0 50 -15 50 -41
c0 -44 -23 -96 -56 -177c-27 -66 -51 -122 -51 -138c0 -6 4 -13 12 -13c15 0 59 37 72 51c4 3 8 2 11 -2l7 -8c4 -4 5 -6 1 -11c-12 -16 -93 -87 -160 -87c-13 0 -24 5 -24 20c0 19 36 98 67 184c14 39 50 122 50 144c0 14 -7 23 -25 23c-39 0 -138 -92 -182 -163
c-18 -29 -34 -55 -60 -125l-25 -67c-2 -4 -4 -6 -14 -6zM134 -235c-4 0 -8 -2 -9 7c-1 7 2 9 9 12c20 5 62 30 61 66c0 19 -6 26 -18 39c-4 4 -22 17 -22 35c0 19 13 36 34 36c36 0 56 -48 57 -75c0 -92 -97 -120 -112 -120z" />
    <glyph glyph-name="ohungarumlaut" unicode="&#x151;" horiz-adv-x="397" 
d="M155 -10c-55 0 -103 53 -103 129c0 126 95 297 228 297c67 0 107 -49 107 -117c0 -110 -87 -309 -232 -309zM140 38c104 0 207 210 207 276c1 31 -17 56 -50 56c-42 0 -95 -38 -145 -119c-34 -54 -58 -115 -58 -162c0 -32 22 -51 46 -51zM307 469l-7 9c-3 3 0 6 4 9
l106 101c8 8 20 18 32 18c24 0 43 -38 10 -57l-136 -80c-3 -2 -6 -3 -9 0zM199 468l-9 8c-3 3 -1 6 3 10l95 110c7 8 18 19 31 19c31 0 32 -40 15 -52l-126 -93c-3 -3 -6 -5 -9 -2z" />
    </font>
</defs>
</svg>
